<svg width="14" height="14" viewBox="0 0 14 14" fill="none" xmlns="http://www.w3.org/2000/svg">
<g clip-path="url(#clip0_2154_38161)">
<path d="M12.3607 2.65745L9.81522 0.112C9.74369 0.0403747 9.64663 8.91174e-05 9.5454 0H2.92722C2.1534 0 1.52722 0.626182 1.52722 1.4V12.6C1.52722 13.3738 2.1534 14 2.92722 14H11.0727C11.8465 14 12.4727 13.3738 12.4727 12.6V2.92727C12.4727 2.82545 12.4319 2.72873 12.3607 2.65745ZM9.92722 1.30327L11.1694 2.54545H10.0545C9.98322 2.54545 9.92722 2.48945 9.92722 2.41818V1.30327ZM11.0727 13.2364H2.92722C2.57595 13.2364 2.29086 12.9513 2.29086 12.6V1.4C2.29086 1.04873 2.57595 0.763636 2.92722 0.763636H9.16359V2.41818C9.16359 2.90691 9.56577 3.30909 10.0545 3.30909H11.709V12.6C11.709 12.9513 11.4239 13.2364 11.0727 13.2364ZM4.45449 8.4C4.24577 8.4 4.07268 8.22691 4.07268 8.01818C4.07268 6.40436 5.38613 5.09091 6.99995 5.09091C7.60577 5.09091 8.17595 5.27418 8.65449 5.60509V5.47273C8.65449 5.264 8.82759 5.09091 9.03631 5.09091C9.24504 5.09091 9.41813 5.264 9.41813 5.47273V6.49091C9.41813 6.69964 9.24504 6.87273 9.03631 6.87273H8.01813C7.8094 6.87273 7.63631 6.69964 7.63631 6.49091C7.63631 6.28218 7.79922 6.11927 8.00286 6.11418C7.6974 5.95127 7.3614 5.85455 6.99995 5.85455C6.42653 5.85589 5.87698 6.08428 5.47151 6.48974C5.06604 6.89521 4.83766 7.44476 4.83631 8.01818C4.83631 8.22691 4.66322 8.4 4.45449 8.4ZM9.92722 8.01818C9.92722 9.632 8.61377 10.9455 6.99995 10.9455C6.39413 10.9455 5.82395 10.7673 5.3454 10.4364V10.5636C5.3454 10.7724 5.17231 10.9455 4.96359 10.9455C4.75486 10.9455 4.58177 10.7724 4.58177 10.5636V9.54545C4.58177 9.33673 4.75486 9.16364 4.96359 9.16364H5.98177C6.19049 9.16364 6.36359 9.33673 6.36359 9.54545C6.36359 9.75418 6.20068 9.91709 5.99704 9.92218C6.30249 10.0851 6.63849 10.1818 6.99995 10.1818C7.57337 10.1805 8.12292 9.95209 8.52839 9.54662C8.93386 9.14115 9.16224 8.5916 9.16359 8.01818C9.16359 7.80945 9.33668 7.63636 9.5454 7.63636C9.75413 7.63636 9.92722 7.80945 9.92722 8.01818Z" fill="black" fill-opacity="0.88"/>
</g>
<defs>
<clipPath id="clip0_2154_38161">
<rect width="14" height="14" fill="white"/>
</clipPath>
</defs>
</svg>
