<svg xmlns="http://www.w3.org/2000/svg" width="14" height="14" viewBox="0 0 14 14" fill="none">
  <path d="M12.8748 11.375H2.12476V1.625C2.12476 1.55625 2.06851 1.5 1.99976 1.5H1.12476C1.05601 1.5 0.999756 1.55625 0.999756 1.625V12.375C0.999756 12.4438 1.05601 12.5 1.12476 12.5H12.8748C12.9435 12.5 12.9998 12.4438 12.9998 12.375V11.5C12.9998 11.4313 12.9435 11.375 12.8748 11.375ZM3.49976 8.4375C3.49976 8.70272 3.60511 8.95707 3.79265 9.14461C3.98019 9.33214 4.23454 9.4375 4.49976 9.4375C4.76497 9.4375 5.01933 9.33214 5.20686 9.14461C5.3944 8.95707 5.49976 8.70272 5.49976 8.4375C5.49976 8.17228 5.3944 7.91793 5.20686 7.73039C5.01933 7.54286 4.76497 7.4375 4.49976 7.4375C4.23454 7.4375 3.98019 7.54286 3.79265 7.73039C3.60511 7.91793 3.49976 8.17228 3.49976 8.4375ZM5.34351 4.9375C5.34351 5.13641 5.42252 5.32718 5.56318 5.46783C5.70383 5.60848 5.89459 5.6875 6.09351 5.6875C6.29242 5.6875 6.48319 5.60848 6.62384 5.46783C6.76449 5.32718 6.84351 5.13641 6.84351 4.9375C6.84351 4.73859 6.76449 4.54782 6.62384 4.40717C6.48319 4.26652 6.29242 4.1875 6.09351 4.1875C5.89459 4.1875 5.70383 4.26652 5.56318 4.40717C5.42252 4.54782 5.34351 4.73859 5.34351 4.9375ZM7.81226 8.5C7.81226 8.89783 7.97029 9.27936 8.2516 9.56066C8.5329 9.84197 8.91443 10 9.31226 10C9.71008 10 10.0916 9.84197 10.3729 9.56066C10.6542 9.27936 10.8123 8.89783 10.8123 8.5C10.8123 8.10218 10.6542 7.72064 10.3729 7.43934C10.0916 7.15804 9.71008 7 9.31226 7C8.91443 7 8.5329 7.15804 8.2516 7.43934C7.97029 7.72064 7.81226 8.10218 7.81226 8.5ZM10.1248 3.59375C10.1248 3.82581 10.2169 4.04837 10.381 4.21247C10.5451 4.37656 10.7677 4.46875 10.9998 4.46875C11.2318 4.46875 11.4544 4.37656 11.6185 4.21247C11.7826 4.04837 11.8748 3.82581 11.8748 3.59375C11.8748 3.36169 11.7826 3.13913 11.6185 2.97503C11.4544 2.81094 11.2318 2.71875 10.9998 2.71875C10.7677 2.71875 10.5451 2.81094 10.381 2.97503C10.2169 3.13913 10.1248 3.36169 10.1248 3.59375Z" fill="currentColor"/>
</svg>
