<svg width="80" height="80" viewBox="0 0 80 80" fill="none" xmlns="http://www.w3.org/2000/svg">
<path d="M51.3889 0C35.571 0 22.771 12.7996 22.771 28.6198C22.771 34.5246 24.5641 40.146 27.863 44.8945L2.99508 65.4032C-0.752847 68.4939 -1.02377 74.1531 2.41105 77.5869C5.85633 81.0338 11.5101 80.743 14.5938 77.0028L35.0999 52.1354C39.8464 55.4376 45.4651 57.2328 51.3681 57.2328C51.3723 57.2328 51.3778 57.2328 51.3828 57.2328C67.1868 57.2253 79.9923 44.4224 80 28.6136C80.0075 12.8016 67.208 0 51.3889 0ZM12.6655 75.4125C10.5189 78.0155 6.59035 78.2305 4.17829 75.8195C1.76139 73.4024 1.99076 69.4717 4.5853 67.3317L29.3699 46.8918C30.6075 48.3783 31.6877 49.4466 33.1038 50.6274L12.6655 75.4125ZM51.3815 54.7331C51.3767 54.7331 51.3729 54.7331 51.3681 54.7331C36.9503 54.7331 25.2706 43.0583 25.2706 28.6197C25.2706 14.1815 36.9512 2.49957 51.3889 2.49957C65.8162 2.49957 77.5079 14.173 77.5004 28.6117C77.4928 43.0385 65.8087 54.7256 51.3815 54.7331Z" fill="black" fill-opacity="0.25"/>
<path d="M51.8955 43.0027C50.6309 43.0253 49.3914 42.6481 48.3539 41.9248C47.7601 41.4829 47.0361 41.2514 46.2961 41.2668C45.5557 41.2482 44.8306 41.48 44.2383 41.9248C43.9304 42.1068 43.6364 42.2887 43.3004 42.4567C42.8732 42.6602 42.4014 42.7521 41.929 42.7238C41.4567 42.6955 40.9992 42.5479 40.5994 42.2948C40.1995 42.0417 39.8703 41.6915 39.6426 41.2767C39.4148 40.8618 39.2959 40.3961 39.2969 39.9228V19.2037C39.2969 18.0899 39.7393 17.0216 40.5269 16.234C41.3145 15.4464 42.3826 15.0039 43.4964 15.0039H60.2945C61.4083 15.0039 62.4765 15.4464 63.264 16.234C64.0516 17.0216 64.494 18.0899 64.494 19.2037V39.9228C64.4927 40.3949 64.3721 40.8589 64.1433 41.2718C63.9146 41.6848 63.5851 42.0331 63.1856 42.2846C62.7862 42.536 62.3296 42.6823 61.8584 42.71C61.3872 42.7377 60.9166 42.6457 60.4905 42.4427C60.1719 42.2897 59.8634 42.1167 59.5666 41.9248C58.9564 41.4809 58.2213 41.2418 57.4668 41.2418C56.7123 41.2418 55.9772 41.4809 55.3671 41.9248C54.3494 42.635 53.1364 43.0116 51.8955 43.0027ZM46.2961 38.4669C47.5607 38.4443 48.8001 38.8215 49.8377 39.5449C50.4479 39.9887 51.183 40.2278 51.9375 40.2278C52.692 40.2278 53.4271 39.9887 54.0372 39.5449C55.0825 38.8431 56.3129 38.4683 57.5718 38.4683C58.8308 38.4683 60.0612 38.8431 61.1064 39.5449C61.3191 39.6821 61.5387 39.8082 61.7644 39.9228V19.2037C61.7644 18.8324 61.6169 18.4764 61.3544 18.2138C61.0918 17.9513 60.7358 17.8038 60.3645 17.8038H43.4964C43.1251 17.8038 42.7691 17.9513 42.5066 18.2138C42.2441 18.4764 42.0966 18.8324 42.0966 19.2037V39.9228C42.3284 39.8113 42.5528 39.685 42.7685 39.5449C43.8017 38.8235 45.0361 38.4463 46.2961 38.4669Z" fill="black" fill-opacity="0.25"/>
<path d="M51.8951 34.6049H46.2957C45.9245 34.6049 45.5684 34.4574 45.3059 34.1948C45.0434 33.9323 44.8959 33.5762 44.8959 33.2049C44.8959 32.8336 45.0434 32.4776 45.3059 32.215C45.5684 31.9525 45.9245 31.805 46.2957 31.805H51.8951C52.2663 31.805 52.6224 31.9525 52.8849 32.215C53.1474 32.4776 53.2949 32.8336 53.2949 33.2049C53.2949 33.5762 53.1474 33.9323 52.8849 34.1948C52.6224 34.4574 52.2663 34.6049 51.8951 34.6049ZM57.4945 29.0051H46.2957C45.9245 29.0051 45.5684 28.8576 45.3059 28.5951C45.0434 28.3325 44.8959 27.9765 44.8959 27.6052C44.8959 27.2339 45.0434 26.8778 45.3059 26.6153C45.5684 26.3527 45.9245 26.2052 46.2957 26.2052H57.4945C57.8657 26.2052 58.2218 26.3527 58.4843 26.6153C58.7468 26.8778 58.8943 27.2339 58.8943 27.6052C58.8943 27.9765 58.7468 28.3325 58.4843 28.5951C58.2218 28.8576 57.8657 29.0051 57.4945 29.0051ZM57.4945 23.4053H46.2957C45.9245 23.4053 45.5684 23.2579 45.3059 22.9953C45.0434 22.7328 44.8959 22.3767 44.8959 22.0054C44.8959 21.6341 45.0434 21.278 45.3059 21.0155C45.5684 20.753 45.9245 20.6055 46.2957 20.6055H57.4945C57.8657 20.6055 58.2218 20.753 58.4843 21.0155C58.7468 21.278 58.8943 21.6341 58.8943 22.0054C58.8943 22.3767 58.7468 22.7328 58.4843 22.9953C58.2218 23.2579 57.8657 23.4053 57.4945 23.4053Z" fill="black" fill-opacity="0.25"/>
</svg>
