<svg width="80" height="80" viewBox="0 0 80 80" fill="none" xmlns="http://www.w3.org/2000/svg">
<path d="M51.3889 0C35.571 0 22.771 12.7996 22.771 28.6198C22.771 34.5246 24.5641 40.146 27.863 44.8945L2.99508 65.4032C-0.752847 68.4939 -1.02377 74.1531 2.41105 77.5869C5.85633 81.0338 11.5101 80.743 14.5938 77.0028L35.0999 52.1354C39.8464 55.4376 45.4651 57.2328 51.3681 57.2328C51.3723 57.2328 51.3778 57.2328 51.3828 57.2328C67.1868 57.2253 79.9923 44.4224 80 28.6136C80.0075 12.8016 67.208 0 51.3889 0ZM12.6655 75.4125C10.5189 78.0155 6.59035 78.2305 4.17829 75.8195C1.76139 73.4024 1.99076 69.4717 4.5853 67.3317L29.3699 46.8918C30.6075 48.3783 31.6877 49.4466 33.1038 50.6274L12.6655 75.4125ZM51.3815 54.7331C51.3767 54.7331 51.3729 54.7331 51.3681 54.7331C36.9503 54.7331 25.2706 43.0583 25.2706 28.6197C25.2706 14.1815 36.9512 2.49957 51.3889 2.49957C65.8162 2.49957 77.5079 14.173 77.5004 28.6117C77.4928 43.0385 65.8087 54.7256 51.3815 54.7331Z" fill="black" fill-opacity="0.25"/>
<path d="M65.9651 15.5583H59.5901V13.1297C59.5901 12.9628 59.4535 12.8262 59.2866 12.8262H57.1616C56.9946 12.8262 56.858 12.9628 56.858 13.1297V15.5583H47.1437V13.1297C47.1437 12.9628 47.0071 12.8262 46.8401 12.8262H44.7151C44.5482 12.8262 44.4116 12.9628 44.4116 13.1297V15.5583H38.0366C37.3649 15.5583 36.8223 16.1009 36.8223 16.7726V41.969C36.8223 42.6407 37.3649 43.1833 38.0366 43.1833H65.9651C66.6368 43.1833 67.1794 42.6407 67.1794 41.969V16.7726C67.1794 16.1009 66.6368 15.5583 65.9651 15.5583ZM64.4473 40.4512H39.5544V26.0315H64.4473V40.4512ZM39.5544 23.4512V18.2905H44.4116V20.1119C44.4116 20.2789 44.5482 20.4155 44.7151 20.4155H46.8401C47.0071 20.4155 47.1437 20.2789 47.1437 20.1119V18.2905H56.858V20.1119C56.858 20.2789 56.9946 20.4155 57.1616 20.4155H59.2866C59.4535 20.4155 59.5901 20.2789 59.5901 20.1119V18.2905H64.4473V23.4512H39.5544Z" fill="black" fill-opacity="0.25"/>
</svg>
