<svg width="80" height="80" viewBox="0 0 80 80" fill="none" xmlns="http://www.w3.org/2000/svg">
<path d="M51.3889 0C35.571 0 22.771 12.7996 22.771 28.6198C22.771 34.5246 24.5641 40.146 27.863 44.8945L2.99508 65.4032C-0.752847 68.4939 -1.02377 74.1531 2.41105 77.5869C5.85633 81.0338 11.5101 80.743 14.5938 77.0028L35.0999 52.1354C39.8464 55.4376 45.4651 57.2328 51.3681 57.2328C51.3723 57.2328 51.3778 57.2328 51.3828 57.2328C67.1868 57.2253 79.9923 44.4224 80 28.6136C80.0075 12.8016 67.208 0 51.3889 0ZM12.6655 75.4125C10.5189 78.0155 6.59035 78.2305 4.17829 75.8195C1.76139 73.4024 1.99076 69.4717 4.5853 67.3317L29.3699 46.8918C30.6075 48.3783 31.6877 49.4466 33.1038 50.6274L12.6655 75.4125ZM51.3815 54.7331C51.3767 54.7331 51.3729 54.7331 51.3681 54.7331C36.9503 54.7331 25.2706 43.0583 25.2706 28.6197C25.2706 14.1815 36.9512 2.49957 51.3889 2.49957C65.8162 2.49957 77.5079 14.173 77.5004 28.6117C77.4928 43.0385 65.8087 54.7256 51.3815 54.7331Z" fill="black" fill-opacity="0.25"/>
<path d="M51.8955 43.0008C50.6309 43.0234 49.3914 42.6461 48.3539 41.9228C47.7601 41.481 47.0361 41.2495 46.2961 41.2648C45.5557 41.2462 44.8306 41.4781 44.2383 41.9228C43.9304 42.1048 43.6364 42.2868 43.3004 42.4548C42.8732 42.6583 42.4014 42.7502 41.929 42.7218C41.4567 42.6935 40.9992 42.5459 40.5994 42.2929C40.1995 42.0398 39.8703 41.6895 39.6426 41.2747C39.4148 40.8599 39.2959 40.3941 39.2969 39.9209V19.2018C39.2969 18.0879 39.7393 17.0197 40.5269 16.2321C41.3145 15.4444 42.3826 15.002 43.4964 15.002H60.2945C61.4083 15.002 62.4765 15.4444 63.264 16.2321C64.0516 17.0197 64.494 18.0879 64.494 19.2018V39.9209C64.4927 40.3929 64.3721 40.857 64.1433 41.2699C63.9146 41.6828 63.5851 42.0312 63.1856 42.2826C62.7862 42.534 62.3296 42.6804 61.8584 42.708C61.3872 42.7357 60.9166 42.6438 60.4905 42.4408C60.1719 42.2877 59.8634 42.1147 59.5666 41.9228C58.9564 41.479 58.2213 41.2399 57.4668 41.2399C56.7123 41.2399 55.9772 41.479 55.3671 41.9228C54.3494 42.633 53.1364 43.0097 51.8955 43.0008ZM46.2961 38.465C47.5607 38.4423 48.8001 38.8196 49.8377 39.5429C50.4479 39.9868 51.183 40.2259 51.9375 40.2259C52.692 40.2259 53.4271 39.9868 54.0372 39.5429C55.0824 38.8411 56.3129 38.4664 57.5718 38.4664C58.8308 38.4664 60.0612 38.8411 61.1064 39.5429C61.3191 39.6801 61.5387 39.8063 61.7644 39.9209V19.2018C61.7644 18.8305 61.6169 18.4744 61.3544 18.2119C61.0918 17.9493 60.7358 17.8018 60.3645 17.8018H43.4964C43.1251 17.8018 42.7691 17.9493 42.5066 18.2119C42.2441 18.4744 42.0966 18.8305 42.0966 19.2018V39.9209C42.3284 39.8093 42.5528 39.6831 42.7685 39.5429C43.8017 38.8215 45.0361 38.4443 46.2961 38.465Z" fill="black" fill-opacity="0.25"/>
<path d="M51.895 34.6029H46.2957C45.9244 34.6029 45.5683 34.4554 45.3058 34.1929C45.0433 33.9303 44.8958 33.5743 44.8958 33.203C44.8958 32.8317 45.0433 32.4756 45.3058 32.2131C45.5683 31.9505 45.9244 31.803 46.2957 31.803H51.895C52.2663 31.803 52.6223 31.9505 52.8849 32.2131C53.1474 32.4756 53.2949 32.8317 53.2949 33.203C53.2949 33.5743 53.1474 33.9303 52.8849 34.1929C52.6223 34.4554 52.2663 34.6029 51.895 34.6029ZM57.4944 29.0032H46.2957C45.9244 29.0032 45.5683 28.8557 45.3058 28.5931C45.0433 28.3306 44.8958 27.9745 44.8958 27.6032C44.8958 27.2319 45.0433 26.8759 45.3058 26.6133C45.5683 26.3508 45.9244 26.2033 46.2957 26.2033H57.4944C57.8657 26.2033 58.2217 26.3508 58.4842 26.6133C58.7468 26.8759 58.8942 27.2319 58.8942 27.6032C58.8942 27.9745 58.7468 28.3306 58.4842 28.5931C58.2217 28.8557 57.8657 29.0032 57.4944 29.0032ZM57.4944 23.4034H46.2957C45.9244 23.4034 45.5683 23.2559 45.3058 22.9934C45.0433 22.7308 44.8958 22.3747 44.8958 22.0035C44.8958 21.6322 45.0433 21.2761 45.3058 21.0135C45.5683 20.751 45.9244 20.6035 46.2957 20.6035H57.4944C57.8657 20.6035 58.2217 20.751 58.4842 21.0135C58.7468 21.2761 58.8942 21.6322 58.8942 22.0035C58.8942 22.3747 58.7468 22.7308 58.4842 22.9934C58.2217 23.2559 57.8657 23.4034 57.4944 23.4034Z" fill="black" fill-opacity="0.25"/>
</svg>
