<svg width="80" height="80" viewBox="0 0 80 80" fill="none" xmlns="http://www.w3.org/2000/svg">
<path d="M51.3889 0C35.571 0 22.771 12.7996 22.771 28.6198C22.771 34.5246 24.5641 40.146 27.863 44.8945L2.99508 65.4032C-0.752847 68.4939 -1.02377 74.1531 2.41105 77.5869C5.85633 81.0338 11.5101 80.743 14.5938 77.0028L35.0999 52.1354C39.8464 55.4376 45.4651 57.2328 51.3681 57.2328C51.3723 57.2328 51.3778 57.2328 51.3828 57.2328C67.1868 57.2253 79.9923 44.4224 80 28.6136C80.0075 12.8016 67.208 0 51.3889 0ZM12.6655 75.4125C10.5189 78.0155 6.59035 78.2305 4.17829 75.8195C1.76139 73.4024 1.99076 69.4717 4.5853 67.3317L29.3699 46.8918C30.6075 48.3783 31.6877 49.4466 33.1038 50.6274L12.6655 75.4125ZM51.3815 54.7331C51.3767 54.7331 51.3729 54.7331 51.3681 54.7331C36.9503 54.7331 25.2706 43.0583 25.2706 28.6197C25.2706 14.1815 36.9512 2.49957 51.3889 2.49957C65.8162 2.49957 77.5079 14.173 77.5004 28.6117C77.4928 43.0385 65.8087 54.7256 51.3815 54.7331Z" fill="black" fill-opacity="0.25"/>
<g clip-path="url(#clip0_2967_34306)">
<path d="M67.7857 14.636H36.2143C35.5426 14.636 35 15.1786 35 15.8503V40.136C35 40.8076 35.5426 41.3503 36.2143 41.3503H67.7857C68.4574 41.3503 69 40.8076 69 40.136V15.8503C69 15.1786 68.4574 14.636 67.7857 14.636ZM66.2679 38.6181H37.7321V17.3681H66.2679V38.6181ZM55.7301 26.6271H60.4127C60.4621 26.6271 60.5 26.4905 60.5 26.3235V24.5021C60.5 24.3351 60.4621 24.1985 60.4127 24.1985H55.7301C55.6808 24.1985 55.6429 24.3351 55.6429 24.5021V26.3235C55.6429 26.4905 55.6808 26.6271 55.7301 26.6271ZM55.9123 32.0913H62.9589C63.1069 32.0913 63.2283 31.9547 63.2283 31.7878V29.9663C63.2283 29.7994 63.1069 29.6628 62.9589 29.6628H55.9123C55.7643 29.6628 55.6429 29.7994 55.6429 29.9663V31.7878C55.6429 31.9547 55.7643 32.0913 55.9123 32.0913ZM41.0714 34.1025H42.7373C42.8967 34.1025 43.0257 33.9773 43.0371 33.8179C43.1812 31.9016 44.7826 30.3838 46.7254 30.3838C48.6683 30.3838 50.2696 31.9016 50.4138 33.8179C50.4252 33.9773 50.5542 34.1025 50.7136 34.1025H52.3795C52.4206 34.1026 52.4614 34.0942 52.4993 34.078C52.5371 34.0618 52.5713 34.0381 52.5997 34.0083C52.6281 33.9785 52.6501 33.9432 52.6644 33.9046C52.6788 33.866 52.6851 33.8249 52.683 33.7838C52.5768 31.7612 51.4688 30.0005 49.8522 28.9987C50.5651 28.2151 50.959 27.1931 50.9565 26.1338C50.9565 23.7849 49.0629 21.8838 46.7292 21.8838C44.3955 21.8838 42.502 23.7849 42.502 26.1338C42.502 27.238 42.9194 28.2398 43.6062 28.9987C42.7833 29.5087 42.096 30.2102 41.6031 31.0435C41.1101 31.8768 40.8262 32.8169 40.7754 33.7838C40.7603 33.9583 40.8969 34.1025 41.0714 34.1025ZM46.7254 24.1605C47.8069 24.1605 48.6873 25.0447 48.6873 26.1338C48.6873 27.2228 47.8069 28.107 46.7254 28.107C45.644 28.107 44.7636 27.2228 44.7636 26.1338C44.7636 25.0447 45.644 24.1605 46.7254 24.1605Z" fill="black" fill-opacity="0.25"/>
</g>
<defs>
<clipPath id="clip0_2967_34306">
<rect width="34" height="34" fill="white" transform="translate(35 11)"/>
</clipPath>
</defs>
</svg>
