<svg width="14" height="14" viewBox="0 0 14 14" fill="none" xmlns="http://www.w3.org/2000/svg">
<path d="M13.3757 10.875H4.25073C4.18198 10.875 4.12573 10.9313 4.12573 11V11.875C4.12573 11.9438 4.18198 12 4.25073 12H13.3757C13.4445 12 13.5007 11.9438 13.5007 11.875V11C13.5007 10.9313 13.4445 10.875 13.3757 10.875ZM13.3757 2H4.25073C4.18198 2 4.12573 2.05625 4.12573 2.125V3C4.12573 3.06875 4.18198 3.125 4.25073 3.125H13.3757C13.4445 3.125 13.5007 3.06875 13.5007 3V2.125C13.5007 2.05625 13.4445 2 13.3757 2ZM13.3757 6.4375H4.25073C4.18198 6.4375 4.12573 6.49375 4.12573 6.5625V7.4375C4.12573 7.50625 4.18198 7.5625 4.25073 7.5625H13.3757C13.4445 7.5625 13.5007 7.50625 13.5007 7.4375V6.5625C13.5007 6.49375 13.4445 6.4375 13.3757 6.4375ZM2.37573 10.125H0.563232C0.528857 10.125 0.500732 10.1531 0.500732 10.1875V10.7188C0.500732 10.7531 0.528857 10.7813 0.563232 10.7813H1.69448V11.1016H1.13667C1.10229 11.1016 1.07417 11.1297 1.07417 11.1641V11.6953C1.07417 11.7297 1.10229 11.7578 1.13667 11.7578H1.69448V12.0938H0.563232C0.528857 12.0938 0.500732 12.1219 0.500732 12.1563V12.6875C0.500732 12.7219 0.528857 12.75 0.563232 12.75H2.37573C2.41011 12.75 2.43823 12.7219 2.43823 12.6875V10.1875C2.43823 10.1531 2.41011 10.125 2.37573 10.125ZM0.563232 1.9375H1.15698V3.8125C1.15698 3.84688 1.18511 3.875 1.21948 3.875H1.84448C1.87886 3.875 1.90698 3.84688 1.90698 3.8125V1.375C1.90698 1.30625 1.85073 1.25 1.78198 1.25H0.563232C0.528857 1.25 0.500732 1.27813 0.500732 1.3125V1.875C0.500732 1.90938 0.528857 1.9375 0.563232 1.9375ZM2.37573 5.6875H0.563232C0.528857 5.6875 0.500732 5.71563 0.500732 5.75V6.3125C0.500732 6.34688 0.528857 6.375 0.563232 6.375H1.63198L0.533545 7.58906C0.512827 7.61233 0.50118 7.64228 0.500732 7.67344V8.25C0.500732 8.28438 0.528857 8.3125 0.563232 8.3125H2.37573C2.41011 8.3125 2.43823 8.28438 2.43823 8.25V7.6875C2.43823 7.65313 2.41011 7.625 2.37573 7.625H1.30698L2.40542 6.41094C2.42614 6.38767 2.43779 6.35772 2.43823 6.32656V5.75C2.43823 5.71563 2.41011 5.6875 2.37573 5.6875Z" fill="black" fill-opacity="0.88"/>
</svg>
