<svg width="56" height="56" viewBox="0 0 56 56" fill="none" xmlns="http://www.w3.org/2000/svg">
<g id="Frame">
<g id="Group">
<path id="Vector" d="M33.8538 48.1175C34.0113 48.2225 34.1688 48.3188 34.3263 48.4063H6.81626C5.93564 48.4049 5.09163 48.0538 4.46976 47.4303C3.84789 46.8068 3.49908 45.9619 3.50001 45.0813V40.6625C3.49742 38.6832 4.11812 36.7533 5.27407 35.1466C6.43002 33.5399 8.06252 32.3379 9.94001 31.7113L19.2063 28.6313C19.2413 28.6225 19.285 28.605 19.32 28.5963C8.69488 23.6061 12.0155 7.6715 23.9225 7.5C36.1848 7.941 38.8728 23.4189 28.6475 28.6313L30.3888 29.2088C30.1061 29.5978 29.8433 30.0008 29.6013 30.4163C27.9127 33.3511 27.4124 36.8212 28.2034 40.1135C28.9943 43.4058 31.0163 46.27 33.8538 48.1175ZM52.5 37.04C52.5009 39.3083 51.829 41.5259 50.5693 43.4123C49.3096 45.2987 47.5188 46.7691 45.4233 47.6376C43.3279 48.506 41.0219 48.7334 38.7971 48.2911C36.5724 47.8488 34.5288 46.7566 32.9248 45.1527C31.3209 43.5487 30.2287 41.5051 29.7864 39.2804C29.3441 37.0556 29.5715 34.7496 30.44 32.6542C31.3084 30.5587 32.7788 28.7679 34.6652 27.5082C36.5516 26.2485 38.7692 25.5766 41.0375 25.5775C44.0754 25.5847 46.9867 26.7946 49.1348 28.9427C51.2829 31.0908 52.4928 34.0022 52.5 37.04ZM46.1038 32.6825L39.13 39.5513L35.9538 36.4625C35.7855 36.3077 35.5633 36.2248 35.3348 36.2316C35.1062 36.2384 34.8894 36.3343 34.7306 36.4988C34.5718 36.6633 34.4836 36.8834 34.4849 37.1121C34.4862 37.3407 34.5768 37.5598 34.7375 37.7225L38.5263 41.4063C38.691 41.5641 38.9106 41.6519 39.1388 41.6513C39.3672 41.6536 39.5874 41.5655 39.7513 41.4063L47.3375 33.925C47.4191 33.844 47.4839 33.7477 47.5283 33.6416C47.5727 33.5356 47.5957 33.4218 47.5961 33.3068C47.5965 33.1919 47.5743 33.0779 47.5307 32.9716C47.487 32.8652 47.4229 32.7685 47.3419 32.6869C47.2609 32.6053 47.1646 32.5405 47.0585 32.4961C46.9525 32.4517 46.8387 32.4287 46.7237 32.4283C46.6088 32.4279 46.4948 32.4501 46.3885 32.4937C46.2821 32.5373 46.1853 32.6015 46.1038 32.6825Z" fill="url(#paint0_linear_3027_42902)"/>
</g>
</g>
<defs>
<linearGradient id="paint0_linear_3027_42902" x1="28" y1="48.5113" x2="28" y2="-9.5" gradientUnits="userSpaceOnUse">
<stop stop-color="#007038"/>
<stop offset="1" stop-color="#99FFA9"/>
</linearGradient>
</defs>
</svg>
