<svg width="51" height="50" viewBox="0 0 51 50" fill="none" xmlns="http://www.w3.org/2000/svg">
<g clip-path="url(#clip0_3021_49275)">
<path d="M49.8938 15.3292C49.7574 15.1475 49.5805 15.0001 49.3773 14.8985C49.174 14.797 48.9499 14.7441 48.7227 14.7441H38.2483C37.5488 10.5927 33.9293 7.41992 29.582 7.41992C25.2348 7.41992 21.6152 10.5927 20.9157 14.7441H11.8107L9.89668 1.25713C9.84712 0.907779 9.67312 0.588058 9.40667 0.356741C9.14022 0.125423 8.79924 -0.00194651 8.44639 -0.00195312L1.65234 -0.00195312C0.843359 -0.00195312 0.1875 0.653906 0.1875 1.46289C0.1875 2.27188 0.843359 2.92773 1.65234 2.92773H7.17481L9.08877 16.4145V16.4148L11.3 31.9909C11.5403 33.6683 12.3547 35.2104 13.6045 36.3546C12.6275 37.1612 12.0039 38.3812 12.0039 39.7441C12.0039 41.7679 13.3794 43.4755 15.2442 43.9838C15.0388 44.4991 14.9334 45.0488 14.9336 45.6035C14.9336 48.0267 16.905 49.998 19.3281 49.998C21.7513 49.998 23.7227 48.0267 23.7227 45.6035C23.7229 45.1044 23.6376 44.609 23.4707 44.1387H35.6934C35.5264 44.609 35.4412 45.1044 35.4414 45.6035C35.4414 48.0267 37.4128 49.998 39.8359 49.998C42.2591 49.998 44.2305 48.0267 44.2305 45.6035C44.2305 43.1804 42.2591 41.209 39.8359 41.209H16.3984C15.5907 41.209 14.9336 40.5519 14.9336 39.7441C14.9336 38.9364 15.5907 38.2793 16.3984 38.2793H38.3459C41.5987 38.2793 44.4946 36.0949 45.3867 32.9728L50.1296 16.617C50.1928 16.3988 50.2045 16.1688 50.1636 15.9453C50.1226 15.7218 50.0303 15.5109 49.8938 15.3292Z" fill="url(#paint0_linear_3021_49275)"/>
<path d="M29.582 5.95508C23.928 5.95508 19.3281 10.555 19.3281 16.209C19.3281 21.863 23.928 26.4629 29.582 26.4629C35.236 26.4629 39.8359 21.863 39.8359 16.209C39.8359 10.555 35.236 5.95508 29.582 5.95508ZM33.5475 15.78L29.1529 20.1745C28.867 20.4605 28.4921 20.6035 28.1172 20.6035C27.7423 20.6035 27.3674 20.4605 27.0814 20.1744L25.6166 18.7096C25.0445 18.1375 25.0445 17.2101 25.6166 16.638C26.1886 16.0659 27.1161 16.0659 27.6882 16.638L28.1173 17.067L31.4761 13.7083C32.048 13.1362 32.9756 13.1362 33.5477 13.7083C34.1196 14.2805 34.1196 15.2079 33.5475 15.78Z" fill="url(#paint1_linear_3021_49275)"/>
</g>
<defs>
<linearGradient id="paint0_linear_3021_49275" x1="25.1875" y1="49.998" x2="25.1875" y2="-0.00195312" gradientUnits="userSpaceOnUse">
<stop stop-color="#007038"/>
<stop offset="1" stop-color="#99FFA9"/>
</linearGradient>
<linearGradient id="paint1_linear_3021_49275" x1="29.582" y1="26.4629" x2="29.582" y2="5.95508" gradientUnits="userSpaceOnUse">
<stop stop-color="#C3FFE8"/>
<stop offset="0.997" stop-color="#F0FFF4"/>
</linearGradient>
<clipPath id="clip0_3021_49275">
<rect width="50" height="50" fill="white" transform="translate(0.195312)"/>
</clipPath>
</defs>
</svg>
