<svg width="57" height="56" viewBox="0 0 57 56" fill="none" xmlns="http://www.w3.org/2000/svg">
<g clip-path="url(#clip0_3027_42430)">
<path d="M36.6016 18.1562V1.64062C36.6016 0.733797 35.8678 0 34.9609 0H23.4766L20.1953 3.28125H16.9141L13.6328 0H2.03906C1.13223 0 0.398438 0.733797 0.398438 1.64062V34.5625C0.398438 35.4693 1.13223 36.2031 2.03906 36.2031H25.1172V54.3594H54.7578V18.1562H36.6016Z" fill="url(#paint0_linear_3027_42430)"/>
<path d="M54.7578 16.5156H25.1172C24.2104 16.5156 23.4766 17.2494 23.4766 18.1562V54.3594C23.4766 55.2662 24.2104 56 25.1172 56H54.7578C55.6646 56 56.3984 55.2662 56.3984 54.3594V18.1562C56.3984 17.2494 55.6646 16.5156 54.7578 16.5156ZM37.7615 45.5662L34.4802 48.8474C34.1598 49.1679 33.74 49.3281 33.3203 49.3281C32.9006 49.3281 32.4807 49.1679 32.1604 48.8474L30.5198 47.2068C29.8789 46.566 29.8789 45.5277 30.5198 44.8868C31.1606 44.246 32.1989 44.246 32.8397 44.8868L33.3204 45.3675L35.4417 43.2462C36.0826 42.6054 37.1209 42.6054 37.7617 43.2462C38.4025 43.887 38.4024 44.9253 37.7615 45.5662ZM37.7615 35.7224L34.4802 39.0037C34.1598 39.3241 33.74 39.4844 33.3203 39.4844C32.9006 39.4844 32.4807 39.3241 32.1604 39.0037L30.5198 37.363C29.8789 36.7222 29.8789 35.6839 30.5198 35.0431C31.1606 34.4023 32.1989 34.4023 32.8397 35.0431L33.3204 35.5238L35.4417 33.4025C36.0826 32.7616 37.1209 32.7616 37.7617 33.4025C38.4025 34.0433 38.4024 35.0816 37.7615 35.7224ZM37.7615 25.8787L34.4802 29.1599C34.1598 29.4804 33.74 29.6406 33.3203 29.6406C32.9006 29.6406 32.4807 29.4804 32.1604 29.1599L30.5198 27.5193C29.8789 26.8785 29.8789 25.8402 30.5198 25.1993C31.1606 24.5585 32.1989 24.5585 32.8397 25.1993L33.3204 25.68L35.4417 23.5587C36.0826 22.9179 37.1209 22.9179 37.7617 23.5587C38.4025 24.1995 38.4024 25.2378 37.7615 25.8787ZM48.0859 49.3281H41.5234C40.6166 49.3281 39.8828 48.5943 39.8828 47.6875C39.8828 46.7807 40.6166 46.0469 41.5234 46.0469H48.0859C48.9928 46.0469 49.7266 46.7807 49.7266 47.6875C49.7266 48.5943 48.9928 49.3281 48.0859 49.3281ZM48.0859 39.4844H41.5234C40.6166 39.4844 39.8828 38.7506 39.8828 37.8438C39.8828 36.9369 40.6166 36.2031 41.5234 36.2031H48.0859C48.9928 36.2031 49.7266 36.9369 49.7266 37.8438C49.7266 38.7506 48.9928 39.4844 48.0859 39.4844ZM48.0859 29.6406H41.5234C40.6166 29.6406 39.8828 28.9068 39.8828 28C39.8828 27.0932 40.6166 26.3594 41.5234 26.3594H48.0859C48.9928 26.3594 49.7266 27.0932 49.7266 28C49.7266 28.9068 48.9928 29.6406 48.0859 29.6406ZM11.9922 26.3594H8.71094C7.80411 26.3594 7.07031 27.0932 7.07031 28C7.07031 28.9068 7.80411 29.6406 8.71094 29.6406H11.9922C12.899 29.6406 13.6328 28.9068 13.6328 28C13.6328 27.0932 12.899 26.3594 11.9922 26.3594ZM23.4766 0H13.6328V8.20312C13.6328 9.10995 14.3666 9.84375 15.2734 9.84375H21.8359C22.7428 9.84375 23.4766 9.10995 23.4766 8.20312V0Z" fill="url(#paint1_linear_3027_42430)"/>
<path d="M54.7578 16.5156H25.1172C24.2104 16.5156 23.4766 17.2494 23.4766 18.1562V54.3594C23.4766 55.2662 24.2104 56 25.1172 56H54.7578C55.6646 56 56.3984 55.2662 56.3984 54.3594V18.1562C56.3984 17.2494 55.6646 16.5156 54.7578 16.5156ZM37.7615 45.5662L34.4802 48.8474C34.1598 49.1679 33.74 49.3281 33.3203 49.3281C32.9006 49.3281 32.4807 49.1679 32.1604 48.8474L30.5198 47.2068C29.8789 46.566 29.8789 45.5277 30.5198 44.8868C31.1606 44.246 32.1989 44.246 32.8397 44.8868L33.3204 45.3675L35.4417 43.2462C36.0826 42.6054 37.1209 42.6054 37.7617 43.2462C38.4025 43.887 38.4024 44.9253 37.7615 45.5662ZM37.7615 35.7224L34.4802 39.0037C34.1598 39.3241 33.74 39.4844 33.3203 39.4844C32.9006 39.4844 32.4807 39.3241 32.1604 39.0037L30.5198 37.363C29.8789 36.7222 29.8789 35.6839 30.5198 35.0431C31.1606 34.4023 32.1989 34.4023 32.8397 35.0431L33.3204 35.5238L35.4417 33.4025C36.0826 32.7616 37.1209 32.7616 37.7617 33.4025C38.4025 34.0433 38.4024 35.0816 37.7615 35.7224ZM37.7615 25.8787L34.4802 29.1599C34.1598 29.4804 33.74 29.6406 33.3203 29.6406C32.9006 29.6406 32.4807 29.4804 32.1604 29.1599L30.5198 27.5193C29.8789 26.8785 29.8789 25.8402 30.5198 25.1993C31.1606 24.5585 32.1989 24.5585 32.8397 25.1993L33.3204 25.68L35.4417 23.5587C36.0826 22.9179 37.1209 22.9179 37.7617 23.5587C38.4025 24.1995 38.4024 25.2378 37.7615 25.8787ZM48.0859 49.3281H41.5234C40.6166 49.3281 39.8828 48.5943 39.8828 47.6875C39.8828 46.7807 40.6166 46.0469 41.5234 46.0469H48.0859C48.9928 46.0469 49.7266 46.7807 49.7266 47.6875C49.7266 48.5943 48.9928 49.3281 48.0859 49.3281ZM48.0859 39.4844H41.5234C40.6166 39.4844 39.8828 38.7506 39.8828 37.8438C39.8828 36.9369 40.6166 36.2031 41.5234 36.2031H48.0859C48.9928 36.2031 49.7266 36.9369 49.7266 37.8438C49.7266 38.7506 48.9928 39.4844 48.0859 39.4844ZM48.0859 29.6406H41.5234C40.6166 29.6406 39.8828 28.9068 39.8828 28C39.8828 27.0932 40.6166 26.3594 41.5234 26.3594H48.0859C48.9928 26.3594 49.7266 27.0932 49.7266 28C49.7266 28.9068 48.9928 29.6406 48.0859 29.6406ZM11.9922 26.3594H8.71094C7.80411 26.3594 7.07031 27.0932 7.07031 28C7.07031 28.9068 7.80411 29.6406 8.71094 29.6406H11.9922C12.899 29.6406 13.6328 28.9068 13.6328 28C13.6328 27.0932 12.899 26.3594 11.9922 26.3594ZM23.4766 0H13.6328V8.20312C13.6328 9.10995 14.3666 9.84375 15.2734 9.84375H21.8359C22.7428 9.84375 23.4766 9.10995 23.4766 8.20312V0Z" fill="url(#paint2_linear_3027_42430)"/>
<path d="M54.7578 16.5156H25.1172C24.2104 16.5156 23.4766 17.2494 23.4766 18.1562V54.3594C23.4766 55.2662 24.2104 56 25.1172 56H54.7578C55.6646 56 56.3984 55.2662 56.3984 54.3594V18.1562C56.3984 17.2494 55.6646 16.5156 54.7578 16.5156ZM37.7615 45.5662L34.4802 48.8474C34.1598 49.1679 33.74 49.3281 33.3203 49.3281C32.9006 49.3281 32.4807 49.1679 32.1604 48.8474L30.5198 47.2068C29.8789 46.566 29.8789 45.5277 30.5198 44.8868C31.1606 44.246 32.1989 44.246 32.8397 44.8868L33.3204 45.3675L35.4417 43.2462C36.0826 42.6054 37.1209 42.6054 37.7617 43.2462C38.4025 43.887 38.4024 44.9253 37.7615 45.5662ZM37.7615 35.7224L34.4802 39.0037C34.1598 39.3241 33.74 39.4844 33.3203 39.4844C32.9006 39.4844 32.4807 39.3241 32.1604 39.0037L30.5198 37.363C29.8789 36.7222 29.8789 35.6839 30.5198 35.0431C31.1606 34.4023 32.1989 34.4023 32.8397 35.0431L33.3204 35.5238L35.4417 33.4025C36.0826 32.7616 37.1209 32.7616 37.7617 33.4025C38.4025 34.0433 38.4024 35.0816 37.7615 35.7224ZM37.7615 25.8787L34.4802 29.1599C34.1598 29.4804 33.74 29.6406 33.3203 29.6406C32.9006 29.6406 32.4807 29.4804 32.1604 29.1599L30.5198 27.5193C29.8789 26.8785 29.8789 25.8402 30.5198 25.1993C31.1606 24.5585 32.1989 24.5585 32.8397 25.1993L33.3204 25.68L35.4417 23.5587C36.0826 22.9179 37.1209 22.9179 37.7617 23.5587C38.4025 24.1995 38.4024 25.2378 37.7615 25.8787ZM48.0859 49.3281H41.5234C40.6166 49.3281 39.8828 48.5943 39.8828 47.6875C39.8828 46.7807 40.6166 46.0469 41.5234 46.0469H48.0859C48.9928 46.0469 49.7266 46.7807 49.7266 47.6875C49.7266 48.5943 48.9928 49.3281 48.0859 49.3281ZM48.0859 39.4844H41.5234C40.6166 39.4844 39.8828 38.7506 39.8828 37.8438C39.8828 36.9369 40.6166 36.2031 41.5234 36.2031H48.0859C48.9928 36.2031 49.7266 36.9369 49.7266 37.8438C49.7266 38.7506 48.9928 39.4844 48.0859 39.4844ZM48.0859 29.6406H41.5234C40.6166 29.6406 39.8828 28.9068 39.8828 28C39.8828 27.0932 40.6166 26.3594 41.5234 26.3594H48.0859C48.9928 26.3594 49.7266 27.0932 49.7266 28C49.7266 28.9068 48.9928 29.6406 48.0859 29.6406ZM11.9922 26.3594H8.71094C7.80411 26.3594 7.07031 27.0932 7.07031 28C7.07031 28.9068 7.80411 29.6406 8.71094 29.6406H11.9922C12.899 29.6406 13.6328 28.9068 13.6328 28C13.6328 27.0932 12.899 26.3594 11.9922 26.3594ZM23.4766 0H13.6328V8.20312C13.6328 9.10995 14.3666 9.84375 15.2734 9.84375H21.8359C22.7428 9.84375 23.4766 9.10995 23.4766 8.20312V0Z" fill="url(#paint3_linear_3027_42430)"/>
</g>
<defs>
<linearGradient id="paint0_linear_3027_42430" x1="27.5781" y1="0" x2="27.5781" y2="54.3594" gradientUnits="userSpaceOnUse">
<stop stop-color="#328BFF"/>
<stop offset="1" stop-color="#1755A6"/>
</linearGradient>
<linearGradient id="paint1_linear_3027_42430" x1="31.7344" y1="56" x2="31.7344" y2="0" gradientUnits="userSpaceOnUse">
<stop stop-color="#C3DFFF" stop-opacity="0.61"/>
<stop offset="0.997" stop-color="#F0F2FF"/>
</linearGradient>
<linearGradient id="paint2_linear_3027_42430" x1="31.7344" y1="56" x2="31.7344" y2="0" gradientUnits="userSpaceOnUse">
<stop stop-color="#1755A6"/>
<stop offset="1" stop-color="#A3CBFF"/>
</linearGradient>
<linearGradient id="paint3_linear_3027_42430" x1="31.7344" y1="56" x2="31.7344" y2="0" gradientUnits="userSpaceOnUse">
<stop stop-color="#C3DFFF" stop-opacity="0.61"/>
<stop offset="0.997" stop-color="#F0F2FF"/>
</linearGradient>
<clipPath id="clip0_3027_42430">
<rect width="56" height="56" fill="white" transform="translate(0.398438)"/>
</clipPath>
</defs>
</svg>
