<svg width="51" height="50" viewBox="0 0 51 50" fill="none" xmlns="http://www.w3.org/2000/svg">
<g clip-path="url(#clip0_3021_49279)">
<path d="M50.3001 15.3292C50.1636 15.1475 49.9868 15.0001 49.7835 14.8985C49.5802 14.797 49.3561 14.7441 49.1289 14.7441H38.6546C37.9551 10.5927 34.3355 7.41992 29.9883 7.41992C25.641 7.41992 22.0215 10.5927 21.322 14.7441H12.217L10.3029 1.25713C10.2534 0.907779 10.0794 0.588058 9.81292 0.356741C9.54647 0.125423 9.20549 -0.00194651 8.85264 -0.00195312L2.05859 -0.00195312C1.24961 -0.00195312 0.59375 0.653906 0.59375 1.46289C0.59375 2.27188 1.24961 2.92773 2.05859 2.92773H7.58106L9.49502 16.4145V16.4148L11.7063 31.9909C11.9465 33.6683 12.7609 35.2104 14.0107 36.3546C13.0338 37.1612 12.4102 38.3812 12.4102 39.7441C12.4102 41.7679 13.7856 43.4755 15.6505 43.9838C15.4451 44.4991 15.3396 45.0488 15.3398 45.6035C15.3398 48.0267 17.3112 49.998 19.7344 49.998C22.1575 49.998 24.1289 48.0267 24.1289 45.6035C24.1291 45.1044 24.0439 44.609 23.877 44.1387H36.0996C35.9327 44.609 35.8475 45.1044 35.8477 45.6035C35.8477 48.0267 37.819 49.998 40.2422 49.998C42.6653 49.998 44.6367 48.0267 44.6367 45.6035C44.6367 43.1804 42.6653 41.209 40.2422 41.209H16.8047C15.997 41.209 15.3398 40.5519 15.3398 39.7441C15.3398 38.9364 15.997 38.2793 16.8047 38.2793H38.7521C42.005 38.2793 44.9009 36.0949 45.793 32.9728L50.5358 16.617C50.5991 16.3988 50.6107 16.1688 50.5698 15.9453C50.5289 15.7218 50.4366 15.5109 50.3001 15.3292Z" fill="url(#paint0_linear_3021_49279)"/>
<path d="M29.9883 5.95508C24.3343 5.95508 19.7344 10.555 19.7344 16.209C19.7344 21.863 24.3343 26.4629 29.9883 26.4629C35.6423 26.4629 40.2422 21.863 40.2422 16.209C40.2422 10.555 35.6423 5.95508 29.9883 5.95508ZM33.9537 15.78L29.5592 20.1745C29.2732 20.4605 28.8983 20.6035 28.5234 20.6035C28.1485 20.6035 27.7736 20.4605 27.4877 20.1744L26.0229 18.7096C25.4508 18.1375 25.4508 17.2101 26.0229 16.638C26.5948 16.0659 27.5224 16.0659 28.0944 16.638L28.5235 17.067L31.8823 13.7083C32.4543 13.1362 33.3818 13.1362 33.9539 13.7083C34.5259 14.2805 34.5259 15.2079 33.9537 15.78Z" fill="#FFEED8"/>
</g>
<defs>
<linearGradient id="paint0_linear_3021_49279" x1="25.5938" y1="49.998" x2="25.5938" y2="-0.00195312" gradientUnits="userSpaceOnUse">
<stop stop-color="#FD5900"/>
<stop offset="1" stop-color="#FFDE00"/>
</linearGradient>
<clipPath id="clip0_3021_49279">
<rect width="50" height="50" fill="white" transform="translate(0.601562)"/>
</clipPath>
</defs>
</svg>
