<svg width="17" height="16" viewBox="0 0 17 16" fill="white" xmlns="http://www.w3.org/2000/svg">
<path fill-rule="evenodd" clip-rule="evenodd" d="M11.2094 14.3933L9.58829 12.7909L8.87185 13.4982L10.4929 15.1005L11.2094 14.3933Z" fill="white" fill-opacity="0.88"/>
<path fill-rule="evenodd" clip-rule="evenodd" d="M3.60843 6.40986C3.60843 7.98129 4.89804 9.25521 6.48884 9.25521C8.07963 9.25521 9.36925 7.98129 9.36925 6.40986C9.36925 4.83842 8.07963 3.5645 6.48884 3.5645C4.89804 3.5645 3.60843 4.83842 3.60843 6.40986ZM6.48884 8.25464C5.45745 8.25464 4.62132 7.42869 4.62132 6.40986C4.62132 5.39102 5.45745 4.56507 6.48884 4.56507C7.52023 4.56507 8.35635 5.39102 8.35635 6.40986C8.35635 7.42869 7.52023 8.25464 6.48884 8.25464Z" fill="white" fill-opacity="0.88"/>
<path fill-rule="evenodd" clip-rule="evenodd" d="M8.16396 15.826L10.9848 15.2021L11.0087 15.1943C11.3202 15.0925 11.6033 14.9201 11.8354 14.691L11.8406 14.686L16.6974 9.77198L14.1805 7.29138L9.31853 12.2105C9.08781 12.4391 8.91416 12.7177 8.81136 13.0241L8.80368 13.047L8.16396 15.826ZM9.50713 14.5036L9.78002 13.3182C9.83427 13.1668 9.92213 13.0292 10.0373 12.9155L10.0424 12.9105L14.1914 8.71549L15.2741 9.78258L11.1171 13.9855C11.0025 14.098 10.8642 14.1839 10.712 14.2371L9.50713 14.5036Z" fill="white" fill-opacity="0.88"/>
<path d="M6.48884 1.2507C9.36865 1.2507 11.7116 3.5651 11.7116 6.40986V6.58705C11.7116 7.08752 11.6032 7.6055 11.4169 8.12638L12.9777 6.54912V6.40986C12.9777 2.87546 10.0668 0 6.48884 0C2.91089 0 0 2.87546 0 6.40986V6.58705C0 8.37455 1.03745 10.4575 3.08359 12.7781C4.56687 14.4604 6.02946 15.6334 6.09099 15.6825L6.48884 16V14.3746C5.20595 13.2642 1.26611 9.60762 1.26611 6.58705V6.40986C1.26611 3.5651 3.60903 1.2507 6.48884 1.2507Z" fill="white" fill-opacity="0.88"/>
</svg>
