<svg width="50" height="50" viewBox="0 0 50 50" fill="none" xmlns="http://www.w3.org/2000/svg">
<path d="M49.7063 15.3312C49.5699 15.1495 49.393 15.002 49.1898 14.9005C48.9865 14.799 48.7624 14.7461 48.5352 14.7461H38.0608C37.3613 10.5946 33.7418 7.42188 29.3945 7.42188C25.0473 7.42188 21.4277 10.5946 20.7282 14.7461H11.6232L9.70918 1.25908C9.65962 0.909732 9.48562 0.590012 9.21917 0.358694C8.95272 0.127376 8.61174 6.61293e-06 8.25889 0L1.46484 0C0.655859 0 0 0.655859 0 1.46484C0 2.27383 0.655859 2.92969 1.46484 2.92969H6.98731L8.90127 16.4164V16.4168L11.1125 31.9929C11.3528 33.6702 12.1672 35.2123 13.417 36.3565C12.44 37.1632 11.8164 38.3832 11.8164 39.7461C11.8164 41.7698 13.1919 43.4774 15.0567 43.9857C14.8513 44.501 14.7459 45.0507 14.7461 45.6055C14.7461 48.0286 16.7175 50 19.1406 50C21.5638 50 23.5352 48.0286 23.5352 45.6055C23.5354 45.1064 23.4501 44.611 23.2832 44.1406H35.5059C35.3389 44.611 35.2537 45.1064 35.2539 45.6055C35.2539 48.0286 37.2253 50 39.6484 50C42.0716 50 44.043 48.0286 44.043 45.6055C44.043 43.1823 42.0716 41.2109 39.6484 41.2109H16.2109C15.4032 41.2109 14.7461 40.5538 14.7461 39.7461C14.7461 38.9384 15.4032 38.2812 16.2109 38.2812H38.1584C41.4112 38.2812 44.3071 36.0969 45.1992 32.9747L49.9421 16.6189C50.0053 16.4007 50.017 16.1708 49.9761 15.9473C49.9351 15.7238 49.8428 15.5128 49.7063 15.3312Z" fill="url(#paint0_linear_3021_49283)"/>
<path d="M29.5 5.5625C23.46 5.5625 18.5625 10.46 18.5625 16.5C18.5625 22.54 23.46 27.4375 29.5 27.4375C35.54 27.4375 40.4375 22.54 40.4375 16.5C40.4375 10.46 35.54 5.5625 29.5 5.5625ZM33.5381 20.6553L31.9268 20.6479L29.5 17.7549L27.0757 20.6455L25.4619 20.6528C25.3545 20.6528 25.2666 20.5674 25.2666 20.4575C25.2666 20.4111 25.2837 20.3672 25.313 20.3306L28.4893 16.5464L25.313 12.7646C25.2835 12.7289 25.2671 12.6841 25.2666 12.6377C25.2666 12.5303 25.3545 12.4424 25.4619 12.4424L27.0757 12.4497L29.5 15.3428L31.9243 12.4521L33.5356 12.4448C33.6431 12.4448 33.731 12.5303 33.731 12.6401C33.731 12.6865 33.7139 12.7305 33.6846 12.7671L30.5132 16.5488L33.687 20.333C33.7163 20.3696 33.7334 20.4136 33.7334 20.46C33.7334 20.5674 33.6455 20.6553 33.5381 20.6553Z" fill="#FFD8D8"/>
<defs>
<linearGradient id="paint0_linear_3021_49283" x1="25" y1="50" x2="25" y2="0" gradientUnits="userSpaceOnUse">
<stop stop-color="#B91C1C"/>
<stop offset="1" stop-color="#EF4444"/>
</linearGradient>
</defs>
</svg>
