<svg width="56" height="56" viewBox="0 0 56 56" fill="none" xmlns="http://www.w3.org/2000/svg">
<path d="M35.4963 16.5C35.4963 18.5767 34.8805 20.6068 33.7267 22.3335C32.5729 24.0602 30.9331 25.406 29.0144 26.2007C27.0958 26.9955 24.9846 27.2034 22.9478 26.7982C20.911 26.3931 19.0401 25.3931 17.5716 23.9246C16.1032 22.4562 15.1031 20.5852 14.698 18.5484C14.2928 16.5116 14.5008 14.4004 15.2955 12.4818C16.0902 10.5632 17.436 8.92332 19.1627 7.76957C20.8895 6.61581 22.9196 6 24.9963 6C27.781 6 30.4518 7.10625 32.4209 9.07538C34.39 11.0445 35.4963 13.7152 35.4963 16.5ZM50.625 40.375C50.6267 42.1236 50.1097 43.8335 49.1393 45.2881C48.1688 46.7428 46.7887 47.8769 45.1735 48.5469C43.5583 49.2168 41.7807 49.3926 40.0655 49.0519C38.3504 48.7111 36.7749 47.8693 35.5385 46.6328C34.302 45.3963 33.4601 43.8208 33.1194 42.1057C32.7787 40.3906 32.9544 38.6129 33.6244 36.9977C34.2944 35.3825 35.4284 34.0024 36.8831 33.032C38.3378 32.0616 40.0476 31.5445 41.7962 31.5462C44.1378 31.5462 46.3834 32.4764 48.0391 34.1321C49.6948 35.7878 50.625 38.0335 50.625 40.375ZM47.125 40.375C47.125 40.1429 47.0328 39.9204 46.8687 39.7563C46.7046 39.5922 46.4821 39.5 46.25 39.5H42.75V36C42.75 35.7679 42.6578 35.5454 42.4937 35.3813C42.3296 35.2172 42.1071 35.125 41.875 35.125C41.6429 35.125 41.4204 35.2172 41.2563 35.3813C41.0922 35.5454 41 35.7679 41 36V39.5H37.5C37.2679 39.5 37.0454 39.5922 36.8813 39.7563C36.7172 39.9204 36.625 40.1429 36.625 40.375C36.625 40.6071 36.7172 40.8296 36.8813 40.9937C37.0454 41.1578 37.2679 41.25 37.5 41.25H41V44.75C41 44.9821 41.0922 45.2046 41.2563 45.3687C41.4204 45.5328 41.6429 45.625 41.875 45.625C42.1071 45.625 42.3296 45.5328 42.4937 45.3687C42.6578 45.2046 42.75 44.9821 42.75 44.75V41.25H46.25C46.4821 41.25 46.7046 41.1578 46.8687 40.9937C47.0328 40.8296 47.125 40.6071 47.125 40.375ZM31.2088 40.375C31.2141 37.6274 32.2866 34.9893 34.1998 33.0173C36.1131 31.0452 38.7175 29.8935 41.4637 29.805C40.243 28.9806 38.9074 28.3408 37.5 27.9062C37.0888 27.775 36.6775 27.6788 36.2575 27.5825L35.89 27.5125C35.5575 27.4512 35.225 27.4075 34.8837 27.3638L34.49 27.32C34.0438 27.32 33.615 27.25 33.125 27.25H20.875C20.4113 27.25 19.9563 27.25 19.51 27.32L19.1163 27.3638C18.775 27.3638 18.4425 27.4512 18.11 27.5125L17.7513 27.5825C17.3225 27.6788 16.8763 27.775 16.5 27.9062C13.4594 28.8419 10.7989 30.7278 8.90906 33.2869C7.01922 35.8461 5.99964 38.9437 6 42.125C6 43.9815 6.7375 45.762 8.05025 47.0747C9.36301 48.3875 11.1435 49.125 13 49.125H35.8463C34.4191 48.1545 33.2507 46.85 32.4424 45.3251C31.6342 43.8002 31.2107 42.1009 31.2088 40.375Z" fill="url(#paint0_linear_3029_42915)"/>
<path d="M35.4963 16.5C35.4963 18.5767 34.8805 20.6068 33.7267 22.3335C32.5729 24.0602 30.9331 25.406 29.0144 26.2007C27.0958 26.9955 24.9846 27.2034 22.9478 26.7982C20.911 26.3931 19.0401 25.3931 17.5716 23.9246C16.1032 22.4562 15.1031 20.5852 14.698 18.5484C14.2928 16.5116 14.5008 14.4004 15.2955 12.4818C16.0902 10.5632 17.436 8.92332 19.1627 7.76957C20.8895 6.61581 22.9196 6 24.9963 6C27.781 6 30.4518 7.10625 32.4209 9.07538C34.39 11.0445 35.4963 13.7152 35.4963 16.5ZM50.625 40.375C50.6267 42.1236 50.1097 43.8335 49.1393 45.2881C48.1688 46.7428 46.7887 47.8769 45.1735 48.5469C43.5583 49.2168 41.7807 49.3926 40.0655 49.0519C38.3504 48.7111 36.7749 47.8693 35.5385 46.6328C34.302 45.3963 33.4601 43.8208 33.1194 42.1057C32.7787 40.3906 32.9544 38.6129 33.6244 36.9977C34.2944 35.3825 35.4284 34.0024 36.8831 33.032C38.3378 32.0616 40.0476 31.5445 41.7962 31.5462C44.1378 31.5462 46.3834 32.4764 48.0391 34.1321C49.6948 35.7878 50.625 38.0335 50.625 40.375ZM47.125 40.375C47.125 40.1429 47.0328 39.9204 46.8687 39.7563C46.7046 39.5922 46.4821 39.5 46.25 39.5H42.75V36C42.75 35.7679 42.6578 35.5454 42.4937 35.3813C42.3296 35.2172 42.1071 35.125 41.875 35.125C41.6429 35.125 41.4204 35.2172 41.2563 35.3813C41.0922 35.5454 41 35.7679 41 36V39.5H37.5C37.2679 39.5 37.0454 39.5922 36.8813 39.7563C36.7172 39.9204 36.625 40.1429 36.625 40.375C36.625 40.6071 36.7172 40.8296 36.8813 40.9937C37.0454 41.1578 37.2679 41.25 37.5 41.25H41V44.75C41 44.9821 41.0922 45.2046 41.2563 45.3687C41.4204 45.5328 41.6429 45.625 41.875 45.625C42.1071 45.625 42.3296 45.5328 42.4937 45.3687C42.6578 45.2046 42.75 44.9821 42.75 44.75V41.25H46.25C46.4821 41.25 46.7046 41.1578 46.8687 40.9937C47.0328 40.8296 47.125 40.6071 47.125 40.375ZM31.2088 40.375C31.2141 37.6274 32.2866 34.9893 34.1998 33.0173C36.1131 31.0452 38.7175 29.8935 41.4637 29.805C40.243 28.9806 38.9074 28.3408 37.5 27.9062C37.0888 27.775 36.6775 27.6788 36.2575 27.5825L35.89 27.5125C35.5575 27.4512 35.225 27.4075 34.8837 27.3638L34.49 27.32C34.0438 27.32 33.615 27.25 33.125 27.25H20.875C20.4113 27.25 19.9563 27.25 19.51 27.32L19.1163 27.3638C18.775 27.3638 18.4425 27.4512 18.11 27.5125L17.7513 27.5825C17.3225 27.6788 16.8763 27.775 16.5 27.9062C13.4594 28.8419 10.7989 30.7278 8.90906 33.2869C7.01922 35.8461 5.99964 38.9437 6 42.125C6 43.9815 6.7375 45.762 8.05025 47.0747C9.36301 48.3875 11.1435 49.125 13 49.125H35.8463C34.4191 48.1545 33.2507 46.85 32.4424 45.3251C31.6342 43.8002 31.2107 42.1009 31.2088 40.375Z" fill="url(#paint1_linear_3029_42915)"/>
<defs>
<linearGradient id="paint0_linear_3029_42915" x1="3.92969" y1="29.6687" x2="48.5547" y2="29.6687" gradientUnits="userSpaceOnUse">
<stop stop-color="#2484C6"/>
<stop offset="0.22" stop-color="#247CC1"/>
<stop offset="0.57" stop-color="#2365B2"/>
<stop offset="1" stop-color="#21409A"/>
</linearGradient>
<linearGradient id="paint1_linear_3029_42915" x1="28.3125" y1="49.2212" x2="28.3125" y2="6" gradientUnits="userSpaceOnUse">
<stop stop-color="#FD5900"/>
<stop offset="1" stop-color="#FFDE00"/>
</linearGradient>
</defs>
</svg>
