<svg width="56" height="56" viewBox="0 0 56 56" fill="none" xmlns="http://www.w3.org/2000/svg">
<path d="M33.8538 48.1175C34.0113 48.2225 34.1688 48.3188 34.3263 48.4063H6.81626C5.93565 48.4049 5.09163 48.0538 4.46976 47.4303C3.84789 46.8068 3.49908 45.9619 3.50001 45.0813V40.6625C3.49742 38.6832 4.11812 36.7533 5.27407 35.1466C6.43002 33.5399 8.06252 32.3379 9.94001 31.7113L19.2063 28.6313C19.2413 28.6225 19.285 28.605 19.32 28.5963C8.69488 23.6061 12.0155 7.6715 23.9225 7.5C36.1848 7.941 38.8728 23.4189 28.6475 28.6313L30.3888 29.2088C30.1061 29.5978 29.8433 30.0008 29.6013 30.4163C27.9127 33.3511 27.4124 36.8212 28.2034 40.1135C28.9943 43.4058 31.0163 46.27 33.8538 48.1175Z" fill="url(#paint0_linear_3027_42905)"/>
<path d="M33.8538 48.1175C34.0113 48.2225 34.1688 48.3188 34.3263 48.4063H6.81626C5.93565 48.4049 5.09163 48.0538 4.46976 47.4303C3.84789 46.8068 3.49908 45.9619 3.50001 45.0813V40.6625C3.49742 38.6832 4.11812 36.7533 5.27407 35.1466C6.43002 33.5399 8.06252 32.3379 9.94001 31.7113L19.2063 28.6313C19.2413 28.6225 19.285 28.605 19.32 28.5963C8.69488 23.6061 12.0155 7.6715 23.9225 7.5C36.1848 7.941 38.8728 23.4189 28.6475 28.6313L30.3888 29.2088C30.1061 29.5978 29.8433 30.0008 29.6013 30.4163C27.9127 33.3511 27.4124 36.8212 28.2034 40.1135C28.9943 43.4058 31.0163 46.27 33.8538 48.1175Z" fill="url(#paint1_linear_3027_42905)"/>
<path d="M41 25.625C34.7184 25.625 29.625 30.7184 29.625 37C29.625 43.2816 34.7184 48.375 41 48.375C47.2816 48.375 52.375 43.2816 52.375 37C52.375 30.7184 47.2816 25.625 41 25.625ZM45.1996 41.3215L43.5238 41.3139L41 38.3051L38.4787 41.3113L36.8004 41.3189C36.6887 41.3189 36.5973 41.2301 36.5973 41.1158C36.5973 41.0676 36.615 41.0219 36.6455 40.9838L39.9488 37.0482L36.6455 33.1152C36.6148 33.078 36.5978 33.0314 36.5973 32.9832C36.5973 32.8715 36.6887 32.7801 36.8004 32.7801L38.4787 32.7877L41 35.7965L43.5213 32.7902L45.1971 32.7826C45.3088 32.7826 45.4002 32.8715 45.4002 32.9857C45.4002 33.034 45.3824 33.0797 45.352 33.1178L42.0537 37.0508L45.3545 40.9863C45.385 41.0244 45.4027 41.0701 45.4027 41.1184C45.4027 41.2301 45.3113 41.3215 45.1996 41.3215Z" fill="#DC2626"/>
<path d="M41 25.625C34.7184 25.625 29.625 30.7184 29.625 37C29.625 43.2816 34.7184 48.375 41 48.375C47.2816 48.375 52.375 43.2816 52.375 37C52.375 30.7184 47.2816 25.625 41 25.625ZM45.1996 41.3215L43.5238 41.3139L41 38.3051L38.4787 41.3113L36.8004 41.3189C36.6887 41.3189 36.5973 41.2301 36.5973 41.1158C36.5973 41.0676 36.615 41.0219 36.6455 40.9838L39.9488 37.0482L36.6455 33.1152C36.6148 33.078 36.5978 33.0314 36.5973 32.9832C36.5973 32.8715 36.6887 32.7801 36.8004 32.7801L38.4787 32.7877L41 35.7965L43.5213 32.7902L45.1971 32.7826C45.3088 32.7826 45.4002 32.8715 45.4002 32.9857C45.4002 33.034 45.3824 33.0797 45.352 33.1178L42.0537 37.0508L45.3545 40.9863C45.385 41.0244 45.4027 41.0701 45.4027 41.1184C45.4027 41.2301 45.3113 41.3215 45.1996 41.3215Z" fill="url(#paint2_linear_3027_42905)"/>
<defs>
<linearGradient id="paint0_linear_3027_42905" x1="28" y1="48.5113" x2="28" y2="-9.5" gradientUnits="userSpaceOnUse">
<stop stop-color="#007038"/>
<stop offset="1" stop-color="#99FFA9"/>
</linearGradient>
<linearGradient id="paint1_linear_3027_42905" x1="19.2225" y1="48.4063" x2="19.2225" y2="7.5" gradientUnits="userSpaceOnUse">
<stop stop-color="#B91C1C"/>
<stop offset="1" stop-color="#EF4444"/>
</linearGradient>
<linearGradient id="paint2_linear_3027_42905" x1="41" y1="48.375" x2="41" y2="25.625" gradientUnits="userSpaceOnUse">
<stop stop-color="#B91C1C"/>
<stop offset="1" stop-color="#EF4444"/>
</linearGradient>
</defs>
</svg>
