<svg xmlns="http://www.w3.org/2000/svg" width="16" height="16" viewBox="0 0 16 16" fill="">
  <g clip-path="url(#clip0_3486_53446)">
    <path d="M14.0477 5.55618L12.4793 4.98534C13.0464 4.51678 13.2885 3.77356 13.1149 3.06731C12.7737 1.67971 11.0819 1.15296 10.013 2.09787L8.93013 3.05512L8.71591 1.61949C8.5041 0.206088 6.86776 -0.473912 5.7166 0.368275C5.14101 0.789369 4.83482 1.51528 4.9706 2.25234L3.49191 1.71415C2.76441 1.44931 1.95694 1.82581 1.6921 2.5534L1.05179 4.31268C0.963382 4.55559 1.08863 4.82421 1.33157 4.91259L8.64669 7.57506H1.58329C1.32479 7.57506 1.11523 7.78462 1.11523 8.04312V14.5959C1.11523 15.3701 1.74513 16 2.51938 16H11.8805C12.6547 16 13.2846 15.3701 13.2846 14.5959V9.26315L13.6467 9.39496C13.8885 9.48302 14.1578 9.35912 14.2466 9.11521L14.887 7.35593C15.1517 6.62834 14.7753 5.82099 14.0477 5.55618ZM5.79573 15.0639H2.51935C2.26126 15.0639 2.05129 14.854 2.05129 14.5959V8.51118H5.79573V15.0639ZM7.66794 15.0639H6.73185V8.51118H7.66794V15.0639ZM10.633 2.79924C11.1759 2.31921 12.0331 2.58849 12.2058 3.29084C12.39 4.03968 11.6662 4.68899 10.9417 4.42574L9.41976 3.87178L10.633 2.79924ZM6.26929 1.12384C6.85429 0.6959 7.68294 1.04315 7.79016 1.75831L8.03016 3.36596L6.50832 2.81206C5.78382 2.54821 5.64698 1.57903 6.26929 1.12384ZM6.48979 5.79384L2.09154 4.19299L2.57179 2.87356C2.66007 2.63103 2.92923 2.50559 3.17173 2.59381L7.1301 4.03453L6.48979 5.79384ZM8.2491 6.43421L7.36944 6.11403L8.00979 4.35474L8.88944 4.67493L8.2491 6.43421ZM12.3485 14.5959C12.3485 14.854 12.1385 15.0639 11.8804 15.0639H8.60407V8.51118H11.2186L12.3485 8.92243V14.5959H12.3485ZM14.0072 7.03571L13.527 8.35518L9.12876 6.75434L9.7691 4.99506L13.7275 6.43578C13.97 6.52406 14.0955 6.79321 14.0072 7.03571Z" fill="#FFFFFF"/>
  </g>
  <defs>
    <clipPath id="clip0_3486_53446">
      <rect width="16" height="16" fill="white"/>
    </clipPath>
  </defs>
</svg>
