<svg width="57" height="56" viewBox="0 0 57 56" fill="none" xmlns="http://www.w3.org/2000/svg">
<g clip-path="url(#clip0_3021_49419)">
<path fill-rule="evenodd" clip-rule="evenodd" d="M18.4375 43.6723C15.5969 43.6723 13.2912 45.9781 13.2912 48.8186C13.2912 51.6592 15.5969 53.965 18.4375 53.965C21.2781 53.965 23.5839 51.6592 23.5839 48.8186C23.5839 45.9781 21.2781 43.6723 18.4375 43.6723ZM37.1693 43.6723C34.3288 43.6723 32.023 45.9781 32.023 48.8186C32.023 51.6592 34.3288 53.965 37.1693 53.965C40.0099 53.965 42.3157 51.6592 42.3157 48.8186C42.3157 45.9781 40.0099 43.6723 37.1693 43.6723ZM6.65943 3.76286C6.65943 3.76286 8.91341 26.7884 9.77441 34.9602C9.95532 36.6803 10.7666 38.2725 12.0519 39.4299C13.3373 40.5872 15.0055 41.2277 16.7351 41.2279H40.5587C42.0469 41.2277 43.4964 40.7532 44.6967 39.8734C45.897 38.9935 46.7857 37.7541 47.2338 36.335L54.9898 11.7764C55.056 11.5666 55.0718 11.3442 55.036 11.1271C55.0002 10.9101 54.9138 10.7045 54.7837 10.5271C54.6536 10.3497 54.4836 10.2055 54.2873 10.1061C54.0911 10.0067 53.8742 9.95493 53.6542 9.95501H9.9844L9.34319 2.24669C9.31372 1.89673 9.15393 1.57059 8.89544 1.33284C8.63695 1.09509 8.29859 0.963055 7.94739 0.962891H0.454675C0.083375 0.962891 -0.272697 1.11039 -0.535245 1.37294C-0.797794 1.63548 -0.945312 1.99158 -0.945312 2.36288C-0.945312 2.73418 -0.797794 3.09027 -0.535245 3.35282C-0.272697 3.61537 0.083375 3.76286 0.454675 3.76286H6.65943ZM29.776 16.2914C27.3097 16.2921 24.9446 17.2722 23.2007 19.0161C21.4567 20.7601 20.4766 23.1251 20.4759 25.5915C20.477 28.0575 21.4572 30.4223 23.2011 32.1659C24.945 33.9096 27.3099 34.8894 29.776 34.8902C32.242 34.8891 34.6066 33.9091 36.3504 32.1655C38.0943 30.4219 39.0746 28.0574 39.0761 25.5915C39.075 23.1253 38.0948 20.7604 36.351 19.0165C34.6071 17.2727 32.2422 16.2925 29.776 16.2914ZM28.4544 22.4303L28.376 25.5551C28.3634 26.0535 28.6168 26.5211 29.041 26.7829L31.9194 28.5566C32.0759 28.6561 32.2505 28.7234 32.4333 28.7548C32.616 28.7861 32.8032 28.7809 32.9839 28.7393C33.1646 28.6978 33.3352 28.6207 33.4858 28.5127C33.6365 28.4047 33.7642 28.2678 33.8616 28.11C33.9589 27.9522 34.024 27.7767 34.0529 27.5935C34.0819 27.4104 34.0742 27.2233 34.0302 27.0432C33.9863 26.8631 33.907 26.6935 33.797 26.5443C33.687 26.395 33.5484 26.2691 33.3894 26.1739L31.1956 24.8215L31.2544 22.5003C31.2637 22.129 31.1251 21.7692 30.8691 21.5001C30.6131 21.231 30.2607 21.0746 29.8894 21.0653C29.5181 21.056 29.1583 21.1946 28.8892 21.4506C28.6201 21.7066 28.4637 22.059 28.4544 22.4303Z" fill="url(#paint0_linear_3021_49419)"/>
</g>
<defs>
<linearGradient id="paint0_linear_3021_49419" x1="9.53499" y1="57.507" x2="48.7346" y2="12.7074" gradientUnits="userSpaceOnUse">
<stop stop-color="#FAAD14"/>
<stop offset="1" stop-color="#EF4444"/>
</linearGradient>
<clipPath id="clip0_3021_49419">
<rect width="56" height="56" fill="white" transform="translate(0.796875)"/>
</clipPath>
</defs>
</svg>
