<svg xmlns="http://www.w3.org/2000/svg" width="29" height="29" viewBox="0 0 29 29" fill="none">
  <path d="M7.76605 2.22656C7.07553 2.22739 6.40037 2.43043 5.82394 2.81062C5.24751 3.19082 4.79505 3.73151 4.52243 4.36594L2.58605 8.88181C2.53599 8.9946 2.51206 9.11723 2.51605 9.24056V10.4524C2.51605 11.6871 3.24493 12.7537 4.28793 13.2699V23.5774C4.28793 25.3073 5.70805 26.7274 7.43793 26.7274H17.3911C17.6231 26.7274 17.8457 26.6353 18.0098 26.4712C18.1739 26.3071 18.2661 26.0845 18.2661 25.8524C18.2661 25.6204 18.1739 25.3978 18.0098 25.2337C17.8457 25.0696 17.6231 24.9774 17.3911 24.9774H7.43793C6.64693 24.9774 6.03793 24.3684 6.03793 23.5774V13.5631C6.76288 13.4773 7.43541 13.1419 7.94018 12.6146C8.23265 12.9253 8.58538 13.1731 8.97682 13.343C9.36827 13.5128 9.79022 13.6011 10.2169 13.6024C10.6434 13.6012 11.0651 13.5129 11.4563 13.343C11.8474 13.1732 12.1998 12.9253 12.4919 12.6146C13.0668 13.2192 13.8727 13.6024 14.7661 13.6024C15.6594 13.6024 16.4653 13.2192 17.0411 12.6146C17.3331 12.9253 17.6855 13.1732 18.0767 13.343C18.4679 13.5129 18.8896 13.6012 19.3161 13.6024C19.7425 13.6009 20.1641 13.5124 20.5552 13.3426C20.9463 13.1728 21.2988 12.9251 21.5911 12.6146C21.8831 12.9253 22.2355 13.1732 22.6267 13.343C23.0179 13.5129 23.4396 13.6012 23.8661 13.6024C25.5959 13.6024 27.0161 12.1823 27.0161 10.4524V9.41381C27.0551 9.23488 27.0371 9.04819 26.9644 8.88006L25.0141 4.36156C24.7397 3.72811 24.2861 3.18864 23.7093 2.80949C23.1324 2.43034 22.4573 2.22803 21.7669 2.22744L7.76605 2.22656ZM7.76605 3.97656H21.7661C22.4818 3.97656 23.1223 4.39831 23.4067 5.05456L24.8303 8.35156H4.7193L6.13068 5.05456C6.26739 4.73421 6.49535 4.46118 6.78616 4.26948C7.07696 4.07779 7.41775 3.97592 7.76605 3.97656ZM4.26605 10.1016H7.06605V10.4516C7.06605 11.2426 6.45618 11.8516 5.66605 11.8516C4.87593 11.8516 4.26605 11.2426 4.26605 10.4516V10.1016ZM8.81605 10.1016H11.6161V10.4516C11.6161 11.2426 11.0079 11.8516 10.2161 11.8516C10.0314 11.8544 9.8481 11.8201 9.67696 11.7508C9.50583 11.6814 9.35036 11.5784 9.21979 11.4478C9.08922 11.3173 8.9862 11.1618 8.91685 10.9907C8.8475 10.8195 8.81322 10.6362 8.81605 10.4516V10.1016ZM13.3661 10.1016H16.1661V10.4516C16.1661 11.2426 15.5571 11.8516 14.7661 11.8516C13.9751 11.8516 13.3661 11.2426 13.3661 10.4516V10.1016ZM17.9161 10.1016H20.7161V10.4516C20.7161 11.2417 20.1062 11.8516 19.3161 11.8516C18.5259 11.8516 17.9161 11.2426 17.9161 10.4516V10.1016ZM22.4661 10.1016H25.2661V10.4516C25.2661 11.2426 24.6571 11.8516 23.8661 11.8516C23.0759 11.8516 22.4661 11.2426 22.4661 10.4516V10.1016Z" fill="black" fill-opacity="0.45"/>
  <path d="M22.3039 14.9258C19.6991 14.9258 17.5859 17.0958 17.5859 19.726C17.5859 23.8937 21.8087 26.6184 21.8087 26.6184C21.9545 26.7187 22.1274 26.7724 22.3044 26.7724C22.4814 26.7724 22.6542 26.7187 22.8001 26.6184C22.8001 26.6184 27.0211 23.8937 27.0211 19.726C27.0211 17.0949 24.9088 14.9258 22.3039 14.9258ZM22.3039 16.6758C23.9428 16.6758 25.2711 18.0207 25.2711 19.726C25.2711 22.2093 23.0328 24.1185 22.3048 24.7057C21.5759 24.1194 19.3359 22.2093 19.3359 19.726C19.3359 18.0207 20.6659 16.6758 22.3039 16.6758Z" fill="black" fill-opacity="0.45"/>
  <path d="M23.5436 19.7266C23.5436 20.0641 23.4125 20.3878 23.179 20.6265C22.9455 20.8652 22.6288 20.9995 22.2985 20.9997C21.968 20.9997 21.6511 20.8656 21.4174 20.6268C21.1838 20.388 21.0525 20.0642 21.0525 19.7266C21.0525 19.3889 21.1838 19.0651 21.4174 18.8263C21.6511 18.5876 21.968 18.4534 22.2985 18.4534C22.629 18.4534 22.9459 18.5876 23.1796 18.8263C23.4132 19.0651 23.5436 19.3889 23.5436 19.7266ZM8.64062 16.2266C8.40856 16.2266 8.186 16.3187 8.02191 16.4828C7.85781 16.6469 7.76562 16.8695 7.76562 17.1016V21.4766C7.76562 21.7086 7.85781 21.9312 8.02191 22.0953C8.186 22.2594 8.40856 22.3516 8.64062 22.3516H13.8469C14.0789 22.3516 14.3015 22.2594 14.4656 22.0953C14.6297 21.9312 14.7219 21.7086 14.7219 21.4766V17.1016C14.7219 16.8695 14.6297 16.6469 14.4656 16.4828C14.3015 16.3187 14.0789 16.2266 13.8469 16.2266H8.64062ZM9.51562 17.9766H12.9719V20.6016H9.51562V17.9766Z" fill="black" fill-opacity="0.45"/>
</svg>