<svg width="45" height="44" viewBox="0 0 45 44" fill="none" xmlns="http://www.w3.org/2000/svg">
<path d="M29.8713 10.8887C29.8713 12.9654 29.2555 14.9954 28.1017 16.7222C26.9479 18.4489 25.3081 19.7947 23.3894 20.5894C21.4708 21.3841 19.3596 21.5921 17.3228 21.1869C15.286 20.7818 13.4151 19.7817 11.9466 18.3133C10.4782 16.8448 9.47814 14.9739 9.07299 12.9371C8.66785 10.9003 8.87578 8.78912 9.6705 6.8705C10.4652 4.95187 11.811 3.312 13.5377 2.15824C15.2645 1.00449 17.2946 0.388672 19.3713 0.388672C22.156 0.388672 24.8268 1.49492 26.7959 3.46405C28.765 5.43318 29.8713 8.1039 29.8713 10.8887ZM45 34.7637C45.0017 36.5123 44.4847 38.2222 43.5143 39.6768C42.5438 41.1315 41.1637 42.2656 39.5485 42.9355C37.9333 43.6055 36.1557 43.7812 34.4405 43.4405C32.7254 43.0998 31.1499 42.2579 29.9135 41.0215C28.677 39.785 27.8351 38.2095 27.4944 36.4944C27.1537 34.7793 27.3294 33.0016 27.9994 31.3864C28.6694 29.7712 29.8034 28.3911 31.2581 27.4207C32.7128 26.4503 34.4226 25.9332 36.1712 25.9349C38.5128 25.9349 40.7584 26.8651 42.4141 28.5208C44.0698 30.1765 45 32.4221 45 34.7637ZM41.5 34.7637C41.5 34.5316 41.4078 34.309 41.2437 34.145C41.0796 33.9809 40.8571 33.8887 40.625 33.8887H37.125V30.3887C37.125 30.1566 37.0328 29.934 36.8687 29.77C36.7046 29.6059 36.4821 29.5137 36.25 29.5137C36.0179 29.5137 35.7954 29.6059 35.6313 29.77C35.4672 29.934 35.375 30.1566 35.375 30.3887V33.8887H31.875C31.6429 33.8887 31.4204 33.9809 31.2563 34.145C31.0922 34.309 31 34.5316 31 34.7637C31 34.9957 31.0922 35.2183 31.2563 35.3824C31.4204 35.5465 31.6429 35.6387 31.875 35.6387H35.375V39.1387C35.375 39.3707 35.4672 39.5933 35.6313 39.7574C35.7954 39.9215 36.0179 40.0137 36.25 40.0137C36.4821 40.0137 36.7046 39.9215 36.8687 39.7574C37.0328 39.5933 37.125 39.3707 37.125 39.1387V35.6387H40.625C40.8571 35.6387 41.0796 35.5465 41.2437 35.3824C41.4078 35.2183 41.5 34.9957 41.5 34.7637ZM25.5838 34.7637C25.5891 32.0161 26.6616 29.378 28.5748 27.4059C30.4881 25.4339 33.0925 24.2822 35.8387 24.1937C34.618 23.3693 33.2824 22.7295 31.875 22.2949C31.4638 22.1637 31.0525 22.0674 30.6325 21.9712L30.265 21.9012C29.9325 21.8399 29.6 21.7962 29.2587 21.7524L28.865 21.7087C28.4188 21.7087 27.99 21.6387 27.5 21.6387H15.25C14.7863 21.6387 14.3313 21.6387 13.885 21.7087L13.4913 21.7524C13.15 21.7524 12.8175 21.8399 12.485 21.9012L12.1263 21.9712C11.6975 22.0674 11.2513 22.1637 10.875 22.2949C7.83441 23.2306 5.17389 25.1164 3.28406 27.6756C1.39422 30.2347 0.37464 33.3324 0.375 36.5137C0.375 38.3702 1.1125 40.1507 2.42525 41.4634C3.73801 42.7762 5.51848 43.5137 7.375 43.5137H30.2213C28.7941 42.5431 27.6257 41.2387 26.8174 39.7138C26.0092 38.1888 25.5857 36.4895 25.5838 34.7637Z" fill="url(#paint0_linear_3029_42919)"/>
<path d="M29.8713 10.8887C29.8713 12.9654 29.2555 14.9954 28.1017 16.7222C26.9479 18.4489 25.3081 19.7947 23.3894 20.5894C21.4708 21.3841 19.3596 21.5921 17.3228 21.1869C15.286 20.7818 13.4151 19.7817 11.9466 18.3133C10.4782 16.8448 9.47814 14.9739 9.07299 12.9371C8.66785 10.9003 8.87578 8.78912 9.6705 6.8705C10.4652 4.95187 11.811 3.312 13.5377 2.15824C15.2645 1.00449 17.2946 0.388672 19.3713 0.388672C22.156 0.388672 24.8268 1.49492 26.7959 3.46405C28.765 5.43318 29.8713 8.1039 29.8713 10.8887ZM45 34.7637C45.0017 36.5123 44.4847 38.2222 43.5143 39.6768C42.5438 41.1315 41.1637 42.2656 39.5485 42.9355C37.9333 43.6055 36.1557 43.7812 34.4405 43.4405C32.7254 43.0998 31.1499 42.2579 29.9135 41.0215C28.677 39.785 27.8351 38.2095 27.4944 36.4944C27.1537 34.7793 27.3294 33.0016 27.9994 31.3864C28.6694 29.7712 29.8034 28.3911 31.2581 27.4207C32.7128 26.4503 34.4226 25.9332 36.1712 25.9349C38.5128 25.9349 40.7584 26.8651 42.4141 28.5208C44.0698 30.1765 45 32.4221 45 34.7637ZM41.5 34.7637C41.5 34.5316 41.4078 34.309 41.2437 34.145C41.0796 33.9809 40.8571 33.8887 40.625 33.8887H37.125V30.3887C37.125 30.1566 37.0328 29.934 36.8687 29.77C36.7046 29.6059 36.4821 29.5137 36.25 29.5137C36.0179 29.5137 35.7954 29.6059 35.6313 29.77C35.4672 29.934 35.375 30.1566 35.375 30.3887V33.8887H31.875C31.6429 33.8887 31.4204 33.9809 31.2563 34.145C31.0922 34.309 31 34.5316 31 34.7637C31 34.9957 31.0922 35.2183 31.2563 35.3824C31.4204 35.5465 31.6429 35.6387 31.875 35.6387H35.375V39.1387C35.375 39.3707 35.4672 39.5933 35.6313 39.7574C35.7954 39.9215 36.0179 40.0137 36.25 40.0137C36.4821 40.0137 36.7046 39.9215 36.8687 39.7574C37.0328 39.5933 37.125 39.3707 37.125 39.1387V35.6387H40.625C40.8571 35.6387 41.0796 35.5465 41.2437 35.3824C41.4078 35.2183 41.5 34.9957 41.5 34.7637ZM25.5838 34.7637C25.5891 32.0161 26.6616 29.378 28.5748 27.4059C30.4881 25.4339 33.0925 24.2822 35.8387 24.1937C34.618 23.3693 33.2824 22.7295 31.875 22.2949C31.4638 22.1637 31.0525 22.0674 30.6325 21.9712L30.265 21.9012C29.9325 21.8399 29.6 21.7962 29.2587 21.7524L28.865 21.7087C28.4188 21.7087 27.99 21.6387 27.5 21.6387H15.25C14.7863 21.6387 14.3313 21.6387 13.885 21.7087L13.4913 21.7524C13.15 21.7524 12.8175 21.8399 12.485 21.9012L12.1263 21.9712C11.6975 22.0674 11.2513 22.1637 10.875 22.2949C7.83441 23.2306 5.17389 25.1164 3.28406 27.6756C1.39422 30.2347 0.37464 33.3324 0.375 36.5137C0.375 38.3702 1.1125 40.1507 2.42525 41.4634C3.73801 42.7762 5.51848 43.5137 7.375 43.5137H30.2213C28.7941 42.5431 27.6257 41.2387 26.8174 39.7138C26.0092 38.1888 25.5857 36.4895 25.5838 34.7637Z" fill="url(#paint1_linear_3029_42919)"/>
<path d="M29.8713 10.8887C29.8713 12.9654 29.2555 14.9954 28.1017 16.7222C26.9479 18.4489 25.3081 19.7947 23.3894 20.5894C21.4708 21.3841 19.3596 21.5921 17.3228 21.1869C15.286 20.7818 13.4151 19.7817 11.9466 18.3133C10.4782 16.8448 9.47814 14.9739 9.07299 12.9371C8.66785 10.9003 8.87578 8.78912 9.6705 6.8705C10.4652 4.95187 11.811 3.312 13.5377 2.15824C15.2645 1.00449 17.2946 0.388672 19.3713 0.388672C22.156 0.388672 24.8268 1.49492 26.7959 3.46405C28.765 5.43318 29.8713 8.1039 29.8713 10.8887ZM45 34.7637C45.0017 36.5123 44.4847 38.2222 43.5143 39.6768C42.5438 41.1315 41.1637 42.2656 39.5485 42.9355C37.9333 43.6055 36.1557 43.7812 34.4405 43.4405C32.7254 43.0998 31.1499 42.2579 29.9135 41.0215C28.677 39.785 27.8351 38.2095 27.4944 36.4944C27.1537 34.7793 27.3294 33.0016 27.9994 31.3864C28.6694 29.7712 29.8034 28.3911 31.2581 27.4207C32.7128 26.4503 34.4226 25.9332 36.1712 25.9349C38.5128 25.9349 40.7584 26.8651 42.4141 28.5208C44.0698 30.1765 45 32.4221 45 34.7637ZM41.5 34.7637C41.5 34.5316 41.4078 34.309 41.2437 34.145C41.0796 33.9809 40.8571 33.8887 40.625 33.8887H37.125V30.3887C37.125 30.1566 37.0328 29.934 36.8687 29.77C36.7046 29.6059 36.4821 29.5137 36.25 29.5137C36.0179 29.5137 35.7954 29.6059 35.6313 29.77C35.4672 29.934 35.375 30.1566 35.375 30.3887V33.8887H31.875C31.6429 33.8887 31.4204 33.9809 31.2563 34.145C31.0922 34.309 31 34.5316 31 34.7637C31 34.9957 31.0922 35.2183 31.2563 35.3824C31.4204 35.5465 31.6429 35.6387 31.875 35.6387H35.375V39.1387C35.375 39.3707 35.4672 39.5933 35.6313 39.7574C35.7954 39.9215 36.0179 40.0137 36.25 40.0137C36.4821 40.0137 36.7046 39.9215 36.8687 39.7574C37.0328 39.5933 37.125 39.3707 37.125 39.1387V35.6387H40.625C40.8571 35.6387 41.0796 35.5465 41.2437 35.3824C41.4078 35.2183 41.5 34.9957 41.5 34.7637ZM25.5838 34.7637C25.5891 32.0161 26.6616 29.378 28.5748 27.4059C30.4881 25.4339 33.0925 24.2822 35.8387 24.1937C34.618 23.3693 33.2824 22.7295 31.875 22.2949C31.4638 22.1637 31.0525 22.0674 30.6325 21.9712L30.265 21.9012C29.9325 21.8399 29.6 21.7962 29.2587 21.7524L28.865 21.7087C28.4188 21.7087 27.99 21.6387 27.5 21.6387H15.25C14.7863 21.6387 14.3313 21.6387 13.885 21.7087L13.4913 21.7524C13.15 21.7524 12.8175 21.8399 12.485 21.9012L12.1263 21.9712C11.6975 22.0674 11.2513 22.1637 10.875 22.2949C7.83441 23.2306 5.17389 25.1164 3.28406 27.6756C1.39422 30.2347 0.37464 33.3324 0.375 36.5137C0.375 38.3702 1.1125 40.1507 2.42525 41.4634C3.73801 42.7762 5.51848 43.5137 7.375 43.5137H30.2213C28.7941 42.5431 27.6257 41.2387 26.8174 39.7138C26.0092 38.1888 25.5857 36.4895 25.5838 34.7637Z" fill="url(#paint2_linear_3029_42919)"/>
<path d="M41.5 34.7637C41.5 34.5316 41.4078 34.309 41.2437 34.145C41.0796 33.9809 40.8571 33.8887 40.625 33.8887H37.125V30.3887C37.125 30.1566 37.0328 29.934 36.8687 29.77C36.7046 29.6059 36.4821 29.5137 36.25 29.5137C36.0179 29.5137 35.7954 29.6059 35.6313 29.77C35.4672 29.934 35.375 30.1566 35.375 30.3887V33.8887H31.875C31.6429 33.8887 31.4204 33.9809 31.2563 34.145C31.0922 34.309 31 34.5316 31 34.7637C31 34.9957 31.0922 35.2183 31.2563 35.3824C31.4204 35.5465 31.6429 35.6387 31.875 35.6387H35.375V39.1387C35.375 39.3707 35.4672 39.5933 35.6313 39.7574C35.7954 39.9215 36.0179 40.0137 36.25 40.0137C36.4821 40.0137 36.7046 39.9215 36.8687 39.7574C37.0328 39.5933 37.125 39.3707 37.125 39.1387V35.6387H40.625C40.8571 35.6387 41.0796 35.5465 41.2437 35.3824C41.4078 35.2183 41.5 34.9957 41.5 34.7637Z" fill="url(#paint3_linear_3029_42919)"/>
<path d="M41.5 34.7637C41.5 34.5316 41.4078 34.309 41.2437 34.145C41.0796 33.9809 40.8571 33.8887 40.625 33.8887H37.125V30.3887C37.125 30.1566 37.0328 29.934 36.8687 29.77C36.7046 29.6059 36.4821 29.5137 36.25 29.5137C36.0179 29.5137 35.7954 29.6059 35.6313 29.77C35.4672 29.934 35.375 30.1566 35.375 30.3887V33.8887H31.875C31.6429 33.8887 31.4204 33.9809 31.2563 34.145C31.0922 34.309 31 34.5316 31 34.7637C31 34.9957 31.0922 35.2183 31.2563 35.3824C31.4204 35.5465 31.6429 35.6387 31.875 35.6387H35.375V39.1387C35.375 39.3707 35.4672 39.5933 35.6313 39.7574C35.7954 39.9215 36.0179 40.0137 36.25 40.0137C36.4821 40.0137 36.7046 39.9215 36.8687 39.7574C37.0328 39.5933 37.125 39.3707 37.125 39.1387V35.6387H40.625C40.8571 35.6387 41.0796 35.5465 41.2437 35.3824C41.4078 35.2183 41.5 34.9957 41.5 34.7637Z" fill="url(#paint4_linear_3029_42919)"/>
<path d="M41.5 34.7637C41.5 34.5316 41.4078 34.309 41.2437 34.145C41.0796 33.9809 40.8571 33.8887 40.625 33.8887H37.125V30.3887C37.125 30.1566 37.0328 29.934 36.8687 29.77C36.7046 29.6059 36.4821 29.5137 36.25 29.5137C36.0179 29.5137 35.7954 29.6059 35.6313 29.77C35.4672 29.934 35.375 30.1566 35.375 30.3887V33.8887H31.875C31.6429 33.8887 31.4204 33.9809 31.2563 34.145C31.0922 34.309 31 34.5316 31 34.7637C31 34.9957 31.0922 35.2183 31.2563 35.3824C31.4204 35.5465 31.6429 35.6387 31.875 35.6387H35.375V39.1387C35.375 39.3707 35.4672 39.5933 35.6313 39.7574C35.7954 39.9215 36.0179 40.0137 36.25 40.0137C36.4821 40.0137 36.7046 39.9215 36.8687 39.7574C37.0328 39.5933 37.125 39.3707 37.125 39.1387V35.6387H40.625C40.8571 35.6387 41.0796 35.5465 41.2437 35.3824C41.4078 35.2183 41.5 34.9957 41.5 34.7637Z" fill="url(#paint5_linear_3029_42919)"/>
<path d="M38.6851 38.6759H32.8287C32.3707 38.6759 32 38.3053 32 37.8472C32 37.3891 32.3707 37.0185 32.8287 37.0185H38.6851C39.5988 37.0185 40.3425 36.2747 40.3425 35.361C40.3425 34.4473 39.5988 33.7035 38.6851 33.7035H34.8293L35.0722 33.9464C35.3959 34.2701 35.3959 34.7945 35.0722 35.1182C34.7485 35.4419 34.224 35.4419 33.9003 35.1182L32.2428 33.4608C31.9191 33.1371 31.9191 32.6126 32.2428 32.2889L33.9003 30.6314C34.224 30.3077 34.7485 30.3077 35.0722 30.6314C35.3959 30.9551 35.3959 31.4796 35.0722 31.8033L34.8293 32.0461H38.6851C40.5133 32.0461 42 33.5328 42 35.361C42 37.1892 40.5133 38.6759 38.6851 38.6759Z" fill="url(#paint6_linear_3029_42919)"/>
<defs>
<linearGradient id="paint0_linear_3029_42919" x1="-16.3281" y1="15.3074" x2="28.2969" y2="15.3074" gradientUnits="userSpaceOnUse">
<stop stop-color="#2484C6"/>
<stop offset="0.22" stop-color="#247CC1"/>
<stop offset="0.57" stop-color="#2365B2"/>
<stop offset="1" stop-color="#21409A"/>
</linearGradient>
<linearGradient id="paint1_linear_3029_42919" x1="8.05469" y1="34.8599" x2="8.05469" y2="-8.36133" gradientUnits="userSpaceOnUse">
<stop stop-color="#FD5900"/>
<stop offset="1" stop-color="#FFDE00"/>
</linearGradient>
<linearGradient id="paint2_linear_3029_42919" x1="22.6875" y1="43.6099" x2="22.6875" y2="0.388672" gradientUnits="userSpaceOnUse">
<stop stop-color="#1755A6"/>
<stop offset="1" stop-color="#A3CBFF"/>
</linearGradient>
<linearGradient id="paint3_linear_3029_42919" x1="-16.3281" y1="15.3074" x2="28.2969" y2="15.3074" gradientUnits="userSpaceOnUse">
<stop stop-color="#2484C6"/>
<stop offset="0.22" stop-color="#247CC1"/>
<stop offset="0.57" stop-color="#2365B2"/>
<stop offset="1" stop-color="#21409A"/>
</linearGradient>
<linearGradient id="paint4_linear_3029_42919" x1="8.05469" y1="34.8599" x2="8.05469" y2="-8.36133" gradientUnits="userSpaceOnUse">
<stop stop-color="#FD5900"/>
<stop offset="1" stop-color="#FFDE00"/>
</linearGradient>
<linearGradient id="paint5_linear_3029_42919" x1="22.6875" y1="43.6099" x2="22.6875" y2="0.388672" gradientUnits="userSpaceOnUse">
<stop stop-color="#1755A6"/>
<stop offset="1" stop-color="#A3CBFF"/>
</linearGradient>
<linearGradient id="paint6_linear_3029_42919" x1="60.9595" y1="51.4568" x2="60.9595" y2="26.5949" gradientUnits="userSpaceOnUse">
<stop stop-color="#ADDCFF"/>
<stop offset="0.503" stop-color="#EAF6FF"/>
<stop offset="1" stop-color="#EAF6FF"/>
</linearGradient>
</defs>
</svg>
