<svg xmlns="http://www.w3.org/2000/svg" width="44" height="48" viewBox="0 0 44 48" fill="none">
  <circle cx="21.9954" cy="23.9993" r="16.8595" stroke="url(#paint0_radial_4820_11700)" stroke-width="0.396694"/>
  <circle opacity="0.5" cx="21.9927" cy="24.0005" r="19.2397" stroke="url(#paint1_radial_4820_11700)" stroke-width="0.396694"/>
  <circle opacity="0.2" cx="21.9979" cy="24.0018" r="21.6198" stroke="url(#paint2_radial_4820_11700)" stroke-width="0.396694"/>
  <g filter="url(#filter0_d_4820_11700)">
    <path d="M34.4751 11.5241C29.789 11.5241 25.2215 9.87619 21.6147 6.88438L21.492 6.78278C21.3024 6.62597 21.0706 6.54688 20.8388 6.54688C20.607 6.54688 20.3751 6.62597 20.1856 6.78278L20.0629 6.88438C16.4561 9.87619 11.8886 11.5241 7.20241 11.5241C6.63787 11.5241 6.17969 11.9823 6.17969 12.5469V21.6628C6.17969 26.0755 7.55082 30.2946 10.1438 33.8646C12.7374 37.4346 16.3265 40.0419 20.5224 41.4062C20.6254 41.4396 20.7324 41.456 20.8388 41.456C20.9451 41.456 21.0522 41.4396 21.1551 41.4062C25.3511 40.0419 28.9401 37.4346 31.5338 33.8646C34.1267 30.2946 35.4979 26.0755 35.4979 21.6628V12.5469C35.4979 11.9823 35.0397 11.5241 34.4751 11.5241Z" fill="#3AA655"/>
  </g>
  <path d="M33.2519 12.4345C29.1395 12.4345 25.1696 10.9447 22.0744 8.2391L21.7493 7.95467C21.5147 7.74969 21.2137 7.63672 20.902 7.63672C20.5903 7.63672 20.2892 7.74969 20.0546 7.95467L19.7296 8.2391C16.6356 10.9441 12.6637 12.4349 8.55207 12.4345C7.84195 12.4345 7.26562 13.0102 7.26562 13.7196V21.9622C7.26562 30.2948 12.5821 37.6636 20.4955 40.298C20.6275 40.3417 20.7648 40.364 20.902 40.364C21.0392 40.364 21.1764 40.3417 21.3085 40.298C25.1631 39.0187 28.516 36.5584 30.891 33.2668C33.266 29.9753 34.5422 26.0197 34.5383 21.9622V13.7196C34.5383 13.0102 33.962 12.4345 33.2519 12.4345Z" fill="#47CC6B"/>
  <path d="M25.9569 21.3827L21.0137 26.3259C20.8139 26.5256 20.5521 26.6252 20.2903 26.6252C20.0285 26.6252 19.7667 26.5256 19.5669 26.3259L17.3851 24.144C16.9862 23.7445 16.9862 23.0968 17.3851 22.6972C17.7846 22.2984 18.4324 22.2984 18.8319 22.6972L20.2903 24.1563L24.5101 19.9359C24.9096 19.537 25.5574 19.537 25.9569 19.9359C26.3558 20.3354 26.3558 20.9831 25.9569 21.3827Z" fill="white"/>
  <defs>
    <filter id="filter0_d_4820_11700" x="0.125142" y="0.492329" width="41.4294" height="47.0192" filterUnits="userSpaceOnUse" color-interpolation-filters="sRGB">
      <feFlood flood-opacity="0" result="BackgroundImageFix"/>
      <feColorMatrix in="SourceAlpha" type="matrix" values="0 0 0 0 0 0 0 0 0 0 0 0 0 0 0 0 0 0 127 0" result="hardAlpha"/>
      <feOffset/>
      <feGaussianBlur stdDeviation="3.02727"/>
      <feComposite in2="hardAlpha" operator="out"/>
      <feColorMatrix type="matrix" values="0 0 0 0 1 0 0 0 0 1 0 0 0 0 1 0 0 0 1 0"/>
      <feBlend mode="normal" in2="BackgroundImageFix" result="effect1_dropShadow_4820_11700"/>
      <feBlend mode="normal" in="SourceGraphic" in2="effect1_dropShadow_4820_11700" result="shape"/>
    </filter>
    <radialGradient id="paint0_radial_4820_11700" cx="0" cy="0" r="1" gradientUnits="userSpaceOnUse" gradientTransform="translate(21.9954 23.9993) rotate(90) scale(20.6281)">
      <stop stop-color="#3AA655"/>
      <stop offset="1" stop-color="white"/>
    </radialGradient>
    <radialGradient id="paint1_radial_4820_11700" cx="0" cy="0" r="1" gradientUnits="userSpaceOnUse" gradientTransform="translate(21.9927 24.0005) rotate(90) scale(23.5064)">
      <stop stop-color="#3AA655"/>
      <stop offset="1" stop-color="white"/>
    </radialGradient>
    <radialGradient id="paint2_radial_4820_11700" cx="0" cy="0" r="1" gradientUnits="userSpaceOnUse" gradientTransform="translate(21.9979 24.0018) rotate(90) scale(26.3848)">
      <stop stop-color="#3AA655"/>
      <stop offset="1" stop-color="white"/>
    </radialGradient>
  </defs>
</svg>