<svg width="1152" height="132" viewBox="0 0 1152 132" fill="none" xmlns="http://www.w3.org/2000/svg">
<g clip-path="url(#clip0_987_31560)">
<rect width="1152" height="132" fill="url(#paint0_linear_987_31560)"/>
<g style="mix-blend-mode:multiply" opacity="0.2" clip-path="url(#clip1_987_31560)">
<path d="M524.465 -580.508H636.809L598.07 298.872H561.267L524.465 -580.508Z" fill="url(#paint1_linear_987_31560)"/>
<path d="M802.41 -557.261L910.925 -528.184L645.906 311.205L610.357 301.68L802.41 -557.261Z" fill="url(#paint2_linear_987_31560)"/>
<path d="M1064.87 -462.865L1162.17 -406.693L688.928 335.502L657.056 317.101L1064.87 -462.865Z" fill="url(#paint3_linear_987_31560)"/>
<path d="M1293.97 -303.761L1373.41 -224.322L724.199 370.101L698.176 344.078L1293.97 -303.761Z" fill="url(#paint4_linear_987_31560)"/>
<path d="M1474.08 -90.7914L1530.25 6.5011L749.317 412.642L730.916 380.77L1474.08 -90.7914Z" fill="url(#paint5_linear_987_31560)"/>
<path d="M1592.94 161.55L1622.02 270.066L762.573 460.247L753.048 424.699L1592.94 161.55Z" fill="url(#paint6_linear_987_31560)"/>
<path d="M1642.42 436.057V548.401L763.035 509.661V472.859L1642.42 436.057Z" fill="url(#paint7_linear_987_31560)"/>
<path d="M1619.17 714.001L1590.09 822.517L750.702 557.497L760.227 521.949L1619.17 714.001Z" fill="url(#paint8_linear_987_31560)"/>
<path d="M1524.77 976.466L1468.6 1073.76L726.405 600.52L744.806 568.648L1524.77 976.466Z" fill="url(#paint9_linear_987_31560)"/>
<path d="M1365.67 1205.56L1286.23 1285L691.806 635.791L717.829 609.768L1365.67 1205.56Z" fill="url(#paint10_linear_987_31560)"/>
<path d="M1152.7 1385.67L1055.41 1441.84L649.265 660.908L681.137 642.507L1152.7 1385.67Z" fill="url(#paint11_linear_987_31560)"/>
<path d="M900.357 1504.53L791.841 1533.61L601.66 674.165L637.208 664.639L900.357 1504.53Z" fill="url(#paint12_linear_987_31560)"/>
<path d="M625.85 1554.01H513.506L552.246 674.627H589.048L625.85 1554.01Z" fill="url(#paint13_linear_987_31560)"/>
<path d="M347.906 1530.76L239.39 1501.68L504.41 662.293L539.958 671.819L347.906 1530.76Z" fill="url(#paint14_linear_987_31560)"/>
<path d="M85.4408 1436.36L-11.8517 1380.19L461.387 637.996L493.259 656.398L85.4408 1436.36Z" fill="url(#paint15_linear_987_31560)"/>
<path d="M-143.653 1277.26L-223.092 1197.82L426.116 603.398L452.139 629.421L-143.653 1277.26Z" fill="url(#paint16_linear_987_31560)"/>
<path d="M-323.765 1064.29L-379.936 966.998L400.999 560.857L419.4 592.729L-323.765 1064.29Z" fill="url(#paint17_linear_987_31560)"/>
<path d="M-442.623 811.948L-471.7 703.433L387.742 513.252L397.268 548.8L-442.623 811.948Z" fill="url(#paint18_linear_987_31560)"/>
<path d="M-492.1 537.442L-492.1 425.098L387.28 463.837V500.64L-492.1 537.442Z" fill="url(#paint19_linear_987_31560)"/>
<path d="M-468.853 259.497L-439.776 150.982L399.613 416.001L390.088 451.55L-468.853 259.497Z" fill="url(#paint20_linear_987_31560)"/>
<path d="M-374.457 -2.96753L-318.285 -100.26L423.91 372.979L405.509 404.851L-374.457 -2.96753Z" fill="url(#paint21_linear_987_31560)"/>
<path d="M-215.352 -232.062L-135.913 -311.501L458.509 337.708L432.486 363.731L-215.352 -232.062Z" fill="url(#paint22_linear_987_31560)"/>
<path d="M-2.38313 -412.173L94.9093 -468.345L501.05 312.59L469.178 330.991L-2.38313 -412.173Z" fill="url(#paint23_linear_987_31560)"/>
<path d="M249.959 -531.031L358.474 -560.108L548.655 299.334L513.107 308.859L249.959 -531.031Z" fill="url(#paint24_linear_987_31560)"/>
<path d="M524.465 -580.508H636.809L598.07 298.872H561.267L524.465 -580.508Z" fill="url(#paint25_linear_987_31560)"/>
</g>
<g style="mix-blend-mode:screen" filter="url(#filter0_f_987_31560)">
<rect x="409.597" y="-255.396" width="329.6" height="329.6" rx="164.8" fill="#14498C"/>
</g>
<g filter="url(#filter1_f_987_31560)">
<path d="M1231.13 -131.82C1229.79 -127.934 1228.65 -124.515 1227.16 -121.242C1225.62 -117.863 1223.94 -114.547 1222.19 -111.265C1215.68 -99.0311 1207.49 -88.0475 1197.49 -78.4714C1175.96 -57.8516 1150.33 -45.8994 1120.77 -42.3137C1119.28 -42.1338 1117.78 -42.235 1116.29 -42.298C1114.93 -42.3582 1113.86 -43.8854 1114.21 -45.2648C1114.55 -46.6487 1115.14 -47.8959 1116.24 -48.9091C1130.78 -62.3595 1142.92 -77.7714 1153.3 -94.607C1156.32 -99.51 1159.08 -104.547 1161.69 -109.678C1163.83 -113.884 1165.74 -118.19 1167.55 -122.548C1169.87 -128.147 1171.8 -133.879 1173.57 -139.652C1175.09 -144.617 1176.22 -149.717 1177.11 -154.851C1177.78 -158.684 1178.34 -162.527 1178.74 -166.396C1179.05 -169.352 1178.67 -172.199 1177.35 -174.912C1174.91 -179.911 1167.42 -182.013 1162.87 -177.506C1160.42 -175.071 1158.64 -172.208 1157.38 -169.044C1156.64 -167.178 1155.7 -165.393 1155.16 -163.441C1153.8 -158.467 1152.55 -153.482 1151.52 -148.419C1149.93 -140.573 1149.66 -132.567 1148.22 -124.711C1147.1 -118.581 1145.5 -112.597 1143.28 -106.774C1141.99 -103.405 1140.25 -100.305 1138.15 -97.3948C1137.63 -96.6618 1137.01 -95.9985 1136.24 -95.5077C1134.89 -94.6451 1133.82 -94.9073 1133.02 -96.3158C1132.59 -97.0654 1132.29 -97.8658 1132.24 -98.7447C1131.52 -114.162 1129.76 -129.51 1129.08 -144.93C1128.7 -153.662 1129.56 -162.299 1131.1 -170.872C1131.76 -174.519 1132.68 -178.112 1133.61 -181.702C1134.63 -185.653 1135.74 -189.568 1137.25 -193.344C1138.92 -197.493 1140.7 -201.586 1142.68 -205.609C1148.33 -217.072 1155.73 -227.227 1164.84 -236.169C1172.2 -243.408 1180.93 -248.013 1191.16 -249.389C1203.02 -250.985 1212.39 -246.372 1219.77 -237.249C1224.5 -231.405 1227.62 -224.673 1230.27 -217.71C1238.29 -196.655 1240.12 -174.986 1236.46 -152.797C1235.73 -148.367 1234.69 -144.009 1233.6 -139.657C1232.89 -136.816 1231.77 -134.131 1231.14 -131.813L1231.13 -131.82Z" fill="#F38220"/>
</g>
<path d="M1223.79 506.132C1213.27 506.328 1202.79 507.262 1192.41 509.129C1158.31 515.258 1127.62 529.431 1099.52 549.67C1082.02 562.272 1066.22 576.773 1052.31 593.321C1048.12 598.308 1044.32 603.64 1040.23 608.704C1038.28 611.105 1036.49 613.743 1033.83 615.435C1029.37 618.272 1027.66 617.321 1025.26 613.867C1024.76 613.137 1024.3 612.326 1024.04 611.48C1021.47 603.201 1021.12 594.813 1022.74 586.25C1023.79 580.682 1025.3 575.293 1027.68 570.176C1031.25 562.531 1035.54 555.321 1040.37 548.374C1048.27 537.019 1057.2 526.611 1067.24 517.18C1101.69 484.818 1142.48 465.897 1188.73 458.668C1198.79 457.088 1208.93 456.281 1219.1 456.075C1230.61 455.84 1242.08 456.423 1253.47 457.96C1260.14 458.861 1266.78 460.061 1273.37 461.551C1282.55 463.627 1291.68 465.914 1300.43 469.328C1305.77 471.407 1311.11 473.507 1316.38 475.829C1327.62 480.799 1338.36 486.632 1348.58 493.393C1376.96 512.178 1400.1 536.146 1417.86 565.34C1418.29 566.033 1419.18 566.652 1418.55 567.841C1412.5 563.341 1405.9 559.968 1398.68 558.003C1389.92 555.621 1381.03 554.562 1371.85 555.061C1350.55 556.217 1331.9 564.208 1314.47 576.179C1291.13 592.21 1269.24 610.203 1246.38 626.865C1215.44 649.415 1180.71 661.352 1142.8 663.912C1130.2 664.765 1117.67 664.175 1105.18 662.356C1099.6 661.55 1094.08 660.469 1088.56 659.291C1082.75 658.063 1077.1 656.397 1071.5 654.514C1070.58 654.21 1069.66 653.885 1068.8 653.455C1060.37 649.26 1059.3 642.521 1063.78 633.638C1066.85 627.557 1070.8 621.981 1074.7 616.378C1106.47 570.766 1149.89 540.409 1199.92 518.651C1210.55 514.024 1221.46 510.179 1232.55 506.855C1232.91 506.707 1233.67 506.907 1233.59 506.56C1233.47 506.047 1226.65 506.05 1223.77 506.1L1223.79 506.132Z" fill="#0BFF8C"/>
<g style="mix-blend-mode:overlay" filter="url(#filter3_f_987_31560)">
<path d="M-49.2612 -93.3712C-47.7592 -86.7947 -45.8163 -80.3509 -43.3208 -74.0987C-35.1238 -53.5613 -22.4982 -36.2999 -6.53452 -21.5181C3.40449 -12.3166 14.273 -4.44291 26.1343 1.95244C29.7085 3.88028 33.4404 5.51037 37.0486 7.36591C38.7599 8.24877 40.5952 9.00373 41.9701 10.4312C44.2768 12.8335 43.9244 14.0373 42.1452 16.0295C41.769 16.4507 41.3371 16.8499 40.8591 17.1359C36.1768 19.914 31.137 21.3167 25.733 21.5112C22.2185 21.6374 18.7527 21.4491 15.3375 20.6755C10.2331 19.5144 5.29832 17.8401 0.450729 15.7847C-7.47228 12.4279 -14.9556 8.29347 -21.993 3.32253C-46.1405 -13.7328 -62.9724 -36.6665 -73.4326 -64.6725C-75.7125 -70.7668 -77.5337 -77.0137 -78.9954 -83.3693C-80.6497 -90.5576 -81.8038 -97.8401 -82.369 -105.207C-82.6992 -109.522 -82.8428 -113.854 -82.8058 -118.201C-82.7538 -124.258 -82.5655 -130.306 -81.6464 -136.283C-81.0871 -139.925 -80.5162 -143.576 -79.7998 -147.207C-78.2629 -154.961 -76.1389 -162.53 -73.3821 -169.898C-65.7209 -190.356 -54.2293 -208.259 -38.863 -223.526C-38.4982 -223.889 -38.2406 -224.539 -37.4367 -224.309C-39.3702 -219.879 -40.5481 -215.261 -40.7914 -210.454C-41.0842 -204.618 -40.5587 -198.891 -39.049 -193.196C-35.5495 -179.992 -28.2536 -169.414 -18.7049 -160.161C-5.91859 -147.775 7.8667 -136.573 20.9731 -124.576C38.7098 -108.342 50.5106 -88.2302 57.0447 -64.7946C59.2169 -57.0105 60.5067 -49.0584 61.044 -40.9681C61.2887 -37.3507 61.359 -33.7299 61.3703 -30.099C61.3886 -26.2831 61.1206 -22.5025 60.7153 -18.7201C60.651 -18.1038 60.5752 -17.4778 60.4279 -16.8756C58.9917 -10.9958 55.0466 -9.37047 49.0717 -10.9312C44.981 -12.0028 41.0814 -13.6938 37.1727 -15.3477C5.34189 -28.86 -18.7686 -51.8274 -38.5337 -80.1543C-42.7357 -86.1729 -46.5013 -92.4818 -49.9739 -98.9715C-50.1108 -99.1754 -50.0895 -99.6824 -50.2896 -99.5841C-50.5845 -99.4361 -49.6867 -95.1547 -49.2785 -93.3568L-49.2612 -93.3712Z" fill="white"/>
</g>
<g filter="url(#filter4_f_987_31560)">
<path d="M-18.4526 400.757C-23.1319 396.232 -27.1921 392.223 -31.6394 388.667C-36.2345 385.001 -40.978 381.52 -45.7955 378.138C-63.7532 365.53 -83.1762 355.885 -104.156 349.529C-149.322 335.836 -194.068 337.316 -238.359 353.416C-240.6 354.233 -242.64 355.448 -244.697 356.603C-246.577 357.663 -246.989 360.583 -245.518 362.285C-244.041 363.993 -242.311 365.329 -240.041 365.977C-209.878 374.553 -181.702 387.619 -154.991 403.955C-147.216 408.714 -139.705 413.846 -132.347 419.222C-126.318 423.63 -120.543 428.343 -114.864 433.199C-107.578 439.442 -100.744 446.151 -94.1125 453.035C-88.4104 458.956 -83.1654 465.348 -78.2251 471.955C-74.5391 476.889 -70.9922 481.912 -67.659 487.09C-65.1133 491.046 -63.6002 495.332 -63.5223 500.109C-63.3843 508.913 -72.4651 517.249 -82.1054 514.139C-87.3168 512.46 -91.8757 509.69 -95.9178 506.123C-98.2982 504.018 -100.912 502.176 -103.064 499.803C-108.547 493.755 -113.885 487.613 -118.963 481.202C-126.833 471.266 -132.95 460.157 -140.601 450.092C-146.572 442.241 -153.119 434.939 -160.422 428.307C-164.652 424.473 -169.33 421.343 -174.378 418.737C-175.648 418.08 -176.986 417.581 -178.427 417.441C-180.955 417.192 -182.282 418.331 -182.398 420.889C-182.462 422.253 -182.321 423.602 -181.754 424.875C-171.742 447.163 -163.233 470.091 -153.145 492.346C-147.431 504.948 -140.037 516.529 -131.711 527.524C-128.17 532.201 -124.303 536.619 -120.421 541.02C-116.152 545.87 -111.778 550.6 -106.935 554.846C-101.616 559.513 -96.1691 564.015 -90.4885 568.276C-74.3008 580.413 -56.5796 589.451 -37.3278 595.558C-21.7437 600.504 -6.12802 600.757 9.30928 595.369C27.1869 589.134 37.1179 575.91 41.0058 557.743C43.4974 546.105 43.0844 534.365 41.8392 522.638C38.0827 487.168 25.1513 455.263 4.09327 426.556C-0.108454 420.824 -4.6995 415.417 -9.35469 410.054C-12.3957 406.553 -15.8986 403.562 -18.4474 400.741L-18.4526 400.757Z" fill="#FF7600"/>
</g>
</g>
<defs>
<filter id="filter0_f_987_31560" x="153.597" y="-511.396" width="841.6" height="841.6" filterUnits="userSpaceOnUse" color-interpolation-filters="sRGB">
<feFlood flood-opacity="0" result="BackgroundImageFix"/>
<feBlend mode="normal" in="SourceGraphic" in2="BackgroundImageFix" result="shape"/>
<feGaussianBlur stdDeviation="128" result="effect1_foregroundBlur_987_31560"/>
</filter>
<filter id="filter1_f_987_31560" x="986.142" y="-377.7" width="380.123" height="463.488" filterUnits="userSpaceOnUse" color-interpolation-filters="sRGB">
<feFlood flood-opacity="0" result="BackgroundImageFix"/>
<feBlend mode="normal" in="SourceGraphic" in2="BackgroundImageFix" result="shape"/>
<feGaussianBlur stdDeviation="64" result="effect1_foregroundBlur_987_31560"/>
</filter>
<filter id="filter3_f_987_31560" x="-210.811" y="-352.357" width="400.183" height="501.904" filterUnits="userSpaceOnUse" color-interpolation-filters="sRGB">
<feFlood flood-opacity="0" result="BackgroundImageFix"/>
<feBlend mode="normal" in="SourceGraphic" in2="BackgroundImageFix" result="shape"/>
<feGaussianBlur stdDeviation="64" result="effect1_foregroundBlur_987_31560"/>
</filter>
<filter id="filter4_f_987_31560" x="-502.406" y="84.209" width="801.235" height="771.13" filterUnits="userSpaceOnUse" color-interpolation-filters="sRGB">
<feFlood flood-opacity="0" result="BackgroundImageFix"/>
<feBlend mode="normal" in="SourceGraphic" in2="BackgroundImageFix" result="shape"/>
<feGaussianBlur stdDeviation="128" result="effect1_foregroundBlur_987_31560"/>
</filter>
<linearGradient id="paint0_linear_987_31560" x1="576" y1="-41" x2="576" y2="137" gradientUnits="userSpaceOnUse">
<stop stop-color="#1A62BF"/>
<stop offset="1" stop-color="#13488C"/>
</linearGradient>
<linearGradient id="paint1_linear_987_31560" x1="575.158" y1="-580.508" x2="575.158" y2="1218.19" gradientUnits="userSpaceOnUse">
<stop stop-color="#1A5DB5" stop-opacity="0.6"/>
<stop offset="1" stop-color="white" stop-opacity="0"/>
</linearGradient>
<linearGradient id="paint2_linear_987_31560" x1="575.158" y1="-580.508" x2="575.158" y2="1218.19" gradientUnits="userSpaceOnUse">
<stop stop-color="#1A5DB5" stop-opacity="0.6"/>
<stop offset="1" stop-color="white" stop-opacity="0"/>
</linearGradient>
<linearGradient id="paint3_linear_987_31560" x1="575.158" y1="-580.508" x2="575.158" y2="1218.19" gradientUnits="userSpaceOnUse">
<stop stop-color="#1A5DB5" stop-opacity="0.6"/>
<stop offset="1" stop-color="white" stop-opacity="0"/>
</linearGradient>
<linearGradient id="paint4_linear_987_31560" x1="575.158" y1="-580.508" x2="575.158" y2="1218.19" gradientUnits="userSpaceOnUse">
<stop stop-color="#1A5DB5" stop-opacity="0.6"/>
<stop offset="1" stop-color="white" stop-opacity="0"/>
</linearGradient>
<linearGradient id="paint5_linear_987_31560" x1="575.158" y1="-580.508" x2="575.158" y2="1218.19" gradientUnits="userSpaceOnUse">
<stop stop-color="#1A5DB5" stop-opacity="0.6"/>
<stop offset="1" stop-color="white" stop-opacity="0"/>
</linearGradient>
<linearGradient id="paint6_linear_987_31560" x1="575.158" y1="-580.508" x2="575.158" y2="1218.19" gradientUnits="userSpaceOnUse">
<stop stop-color="#1A5DB5" stop-opacity="0.6"/>
<stop offset="1" stop-color="white" stop-opacity="0"/>
</linearGradient>
<linearGradient id="paint7_linear_987_31560" x1="575.158" y1="-580.508" x2="575.158" y2="1218.19" gradientUnits="userSpaceOnUse">
<stop stop-color="#1A5DB5" stop-opacity="0.6"/>
<stop offset="1" stop-color="white" stop-opacity="0"/>
</linearGradient>
<linearGradient id="paint8_linear_987_31560" x1="575.158" y1="-580.508" x2="575.158" y2="1218.19" gradientUnits="userSpaceOnUse">
<stop stop-color="#1A5DB5" stop-opacity="0.6"/>
<stop offset="1" stop-color="white" stop-opacity="0"/>
</linearGradient>
<linearGradient id="paint9_linear_987_31560" x1="575.158" y1="-580.508" x2="575.158" y2="1218.19" gradientUnits="userSpaceOnUse">
<stop stop-color="#1A5DB5" stop-opacity="0.6"/>
<stop offset="1" stop-color="white" stop-opacity="0"/>
</linearGradient>
<linearGradient id="paint10_linear_987_31560" x1="575.158" y1="-580.508" x2="575.158" y2="1218.19" gradientUnits="userSpaceOnUse">
<stop stop-color="#1A5DB5" stop-opacity="0.6"/>
<stop offset="1" stop-color="white" stop-opacity="0"/>
</linearGradient>
<linearGradient id="paint11_linear_987_31560" x1="575.158" y1="-580.508" x2="575.158" y2="1218.19" gradientUnits="userSpaceOnUse">
<stop stop-color="#1A5DB5" stop-opacity="0.6"/>
<stop offset="1" stop-color="white" stop-opacity="0"/>
</linearGradient>
<linearGradient id="paint12_linear_987_31560" x1="575.158" y1="-580.508" x2="575.158" y2="1218.19" gradientUnits="userSpaceOnUse">
<stop stop-color="#1A5DB5" stop-opacity="0.6"/>
<stop offset="1" stop-color="white" stop-opacity="0"/>
</linearGradient>
<linearGradient id="paint13_linear_987_31560" x1="575.158" y1="-580.508" x2="575.158" y2="1218.19" gradientUnits="userSpaceOnUse">
<stop stop-color="#1A5DB5" stop-opacity="0.6"/>
<stop offset="1" stop-color="white" stop-opacity="0"/>
</linearGradient>
<linearGradient id="paint14_linear_987_31560" x1="575.158" y1="-580.508" x2="575.158" y2="1218.19" gradientUnits="userSpaceOnUse">
<stop stop-color="#1A5DB5" stop-opacity="0.6"/>
<stop offset="1" stop-color="white" stop-opacity="0"/>
</linearGradient>
<linearGradient id="paint15_linear_987_31560" x1="575.158" y1="-580.508" x2="575.158" y2="1218.19" gradientUnits="userSpaceOnUse">
<stop stop-color="#1A5DB5" stop-opacity="0.6"/>
<stop offset="1" stop-color="white" stop-opacity="0"/>
</linearGradient>
<linearGradient id="paint16_linear_987_31560" x1="575.158" y1="-580.508" x2="575.158" y2="1218.19" gradientUnits="userSpaceOnUse">
<stop stop-color="#1A5DB5" stop-opacity="0.6"/>
<stop offset="1" stop-color="white" stop-opacity="0"/>
</linearGradient>
<linearGradient id="paint17_linear_987_31560" x1="575.158" y1="-580.508" x2="575.158" y2="1218.19" gradientUnits="userSpaceOnUse">
<stop stop-color="#1A5DB5" stop-opacity="0.6"/>
<stop offset="1" stop-color="white" stop-opacity="0"/>
</linearGradient>
<linearGradient id="paint18_linear_987_31560" x1="575.158" y1="-580.508" x2="575.158" y2="1218.19" gradientUnits="userSpaceOnUse">
<stop stop-color="#1A5DB5" stop-opacity="0.6"/>
<stop offset="1" stop-color="white" stop-opacity="0"/>
</linearGradient>
<linearGradient id="paint19_linear_987_31560" x1="575.158" y1="-580.508" x2="575.158" y2="1218.19" gradientUnits="userSpaceOnUse">
<stop stop-color="#1A5DB5" stop-opacity="0.6"/>
<stop offset="1" stop-color="white" stop-opacity="0"/>
</linearGradient>
<linearGradient id="paint20_linear_987_31560" x1="575.158" y1="-580.508" x2="575.158" y2="1218.19" gradientUnits="userSpaceOnUse">
<stop stop-color="#1A5DB5" stop-opacity="0.6"/>
<stop offset="1" stop-color="white" stop-opacity="0"/>
</linearGradient>
<linearGradient id="paint21_linear_987_31560" x1="575.158" y1="-580.508" x2="575.158" y2="1218.19" gradientUnits="userSpaceOnUse">
<stop stop-color="#1A5DB5" stop-opacity="0.6"/>
<stop offset="1" stop-color="white" stop-opacity="0"/>
</linearGradient>
<linearGradient id="paint22_linear_987_31560" x1="575.158" y1="-580.508" x2="575.158" y2="1218.19" gradientUnits="userSpaceOnUse">
<stop stop-color="#1A5DB5" stop-opacity="0.6"/>
<stop offset="1" stop-color="white" stop-opacity="0"/>
</linearGradient>
<linearGradient id="paint23_linear_987_31560" x1="575.158" y1="-580.508" x2="575.158" y2="1218.19" gradientUnits="userSpaceOnUse">
<stop stop-color="#1A5DB5" stop-opacity="0.6"/>
<stop offset="1" stop-color="white" stop-opacity="0"/>
</linearGradient>
<linearGradient id="paint24_linear_987_31560" x1="575.158" y1="-580.508" x2="575.158" y2="1218.19" gradientUnits="userSpaceOnUse">
<stop stop-color="#1A5DB5" stop-opacity="0.6"/>
<stop offset="1" stop-color="white" stop-opacity="0"/>
</linearGradient>
<linearGradient id="paint25_linear_987_31560" x1="575.158" y1="-580.508" x2="575.158" y2="1218.19" gradientUnits="userSpaceOnUse">
<stop stop-color="#1A5DB5" stop-opacity="0.6"/>
<stop offset="1" stop-color="white" stop-opacity="0"/>
</linearGradient>
<clipPath id="clip0_987_31560">
<rect width="1152" height="132" fill="white"/>
</clipPath>
<clipPath id="clip1_987_31560">
<rect width="1750.4" height="1137.76" fill="white" transform="translate(-297.598 -750.678)"/>
</clipPath>
</defs>
</svg>
