<svg width="16" height="16" viewBox="0 0 16 16" fill="none" xmlns="http://www.w3.org/2000/svg">
<g id="Close">
<path id="Vector" d="M8.00112 7.0743L2.41362 2.3868C2.32076 2.30823 2.17969 2.3743 2.17969 2.49573L2.17969 3.92073C2.17969 4.00466 2.21719 4.08501 2.28147 4.14037L6.8904 8.00644L2.28147 11.8725C2.21719 11.9261 2.17969 12.0064 2.17969 12.0922V13.5172C2.17969 13.6386 2.32076 13.7047 2.41362 13.6261L8.00112 8.93858L13.5886 13.6261C13.6093 13.6437 13.6346 13.655 13.6616 13.6586C13.6885 13.6623 13.7159 13.6581 13.7405 13.6466C13.7651 13.6352 13.786 13.6169 13.8005 13.5939C13.815 13.571 13.8227 13.5443 13.8225 13.5172V12.0922C13.8225 12.0082 13.785 11.9279 13.7208 11.8725L9.11183 8.00644L13.7208 4.14037C13.785 4.0868 13.8225 4.00644 13.8225 3.92073V2.49573C13.8225 2.3743 13.6815 2.30823 13.5886 2.3868L8.00112 7.0743Z" fill="black" fill-opacity="0.88"/>
</g>
</svg>
