<svg width="512" height="512" viewBox="0 0 512 512" fill="none" xmlns="http://www.w3.org/2000/svg">
<g clip-path="url(#clip0_1194_28081)">
<path d="M254.952 0.000807177C254.952 0.692322 254.952 1.38384 254.952 2.09631C254.426 2.35883 254.426 2.35883 253.889 2.62666C231.006 14.1283 213.757 30.2302 205.333 54.9633C198.929 74.6808 198.48 94.384 199.888 114.89C200.036 117.057 200.179 119.224 200.32 121.391C200.702 127.243 201.091 133.094 201.513 138.943C204.618 182.14 202.229 225.164 183.007 264.732C182.726 265.315 182.445 265.898 182.156 266.499C175.569 280.042 167.229 292.758 157.861 304.547C157.116 305.491 157.116 305.491 156.357 306.454C152.413 311.369 148.235 316.05 143.891 320.612C143.458 321.068 143.026 321.524 142.58 321.994C125.214 340.193 102.195 356.831 76.087 357.785C58.8485 358.183 44.5727 354.391 31.8241 342.288C8.46477 319.3 0.312031 282.646 -0.101745 250.893C-0.110965 249.17 -0.116071 247.446 -0.117605 245.722C-0.11986 244.783 -0.122221 243.843 -0.124661 242.904C-0.128811 240.944 -0.13013 238.984 -0.129713 237.024C-0.129656 235.047 -0.134467 233.07 -0.144037 231.093C-0.215036 216.169 0.107359 201.535 3.27394 186.893C3.54769 185.606 3.54769 185.606 3.82697 184.294C5.54842 176.462 7.79975 168.906 10.4772 161.354C10.7066 160.693 10.936 160.032 11.1723 159.351C21.3908 130.084 37.3706 102.817 57.9752 79.6297C58.4231 79.1216 58.8711 78.6135 59.3326 78.09C63.3663 73.5539 67.5676 69.2108 71.8578 64.9176C72.498 64.2688 73.1382 63.6201 73.7978 62.9517C78.0833 58.6572 82.5472 54.7438 87.3121 50.9913C88.0506 50.4003 88.0506 50.4003 88.804 49.7974C121.822 23.4992 160.511 9.03759 201.866 2.09631C202.933 1.9084 202.933 1.9084 204.022 1.7167C220.775 -1.13401 238.025 -0.197484 254.952 0.000807177ZM57.2767 119.444C54.8994 123.609 52.5724 127.799 50.2917 132.017C50.0424 132.476 49.7931 132.934 49.5362 133.407C25.6719 178.13 24.9779 234.101 32.8292 282.893C32.939 283.592 33.0489 284.292 33.1621 285.012C34.9234 296.231 34.9234 296.231 41.9097 304.852C46.2345 307.105 49.9339 308.144 54.7773 306.909C59.3511 305.343 62.3062 303.007 64.9602 298.959C68.0131 292.223 66.0892 286.145 63.6249 279.551C63.4366 279.057 63.2482 278.563 63.0542 278.053C62.0553 275.422 61.1044 272.774 60.1498 270.126C59.9594 269.6 59.7689 269.075 59.5728 268.533C54.474 254.372 51.3597 239.737 48.8947 224.918C48.7684 224.165 48.6421 223.411 48.512 222.636C45.0426 200.822 45.2218 176.834 48.8947 155.068C49.0108 154.366 49.127 153.664 49.2467 152.94C50.7912 143.955 53.1347 135.409 56.2267 126.831C56.4633 126.168 56.7 125.505 56.9438 124.822C57.1593 124.237 57.3749 123.653 57.5969 123.05C58.1467 121.429 58.1467 121.429 57.2767 119.444Z" fill="#0080C6"/>
<path d="M373.699 25.1452C374.299 25.4285 374.899 25.7118 375.517 26.0037C390.021 32.8823 403.836 41.1181 417.006 50.2912C417.672 50.7522 418.338 51.2132 419.025 51.6882C429.101 58.8282 439.33 67.3154 447.257 76.8315C448.716 78.5598 450.259 80.1993 451.8 81.8546C455.605 86.0386 459.063 90.4414 462.408 94.9952C462.738 95.4437 463.068 95.8922 463.407 96.3543C468.847 103.804 473.845 111.465 478.474 119.443C478.809 120.019 479.143 120.596 479.488 121.19C505.249 166.002 517.886 220.296 509.208 271.715C509.069 272.554 508.93 273.393 508.787 274.257C504.663 298.564 497.519 322.106 486.856 344.359C486.581 344.938 486.307 345.517 486.024 346.113C482.15 354.237 477.877 362.025 473.017 369.603C472.472 370.456 471.938 371.317 471.417 372.185C470.697 373.353 470.697 373.353 469.393 375.093C468.702 375.093 468.01 375.093 467.298 375.093C467.309 374.478 467.32 373.864 467.331 373.23C467.843 356.894 467.843 356.894 465.202 340.867C464.96 340.008 464.96 340.008 464.713 339.132C459.495 321.197 449.746 305.293 435.167 293.369C434.479 292.795 433.791 292.22 433.082 291.628C415.245 276.983 393.271 267.802 372.738 257.628C370.026 256.282 367.319 254.924 364.618 253.555C363.716 253.097 363.716 253.097 362.795 252.631C346.122 244.153 330.307 234.572 315.723 222.821C315.359 222.529 314.994 222.238 314.619 221.937C308.888 217.312 303.615 212.249 298.392 207.061C297.783 206.458 297.175 205.856 296.547 205.236C264.424 172.956 241.524 123.28 241.508 77.489C241.528 69.4421 241.528 69.4421 242.381 65.6582C276.332 64.9939 308.387 71.2102 339.472 85.2162C340.417 85.6387 340.417 85.6387 341.381 86.0699C361.238 95.0258 379.6 106.739 396.749 120.141C397.38 120.632 398.012 121.123 398.662 121.628C406.098 127.499 413.227 133.7 420.166 140.145C421.185 141.085 422.212 142.014 423.24 142.943C428.441 147.648 433.417 152.547 438.345 157.535C439.609 158.813 440.88 160.084 442.152 161.353C434.836 144.188 425.323 128.981 413.513 114.553C413.2 114.167 412.886 113.78 412.563 113.382C404.331 103.29 395.145 93.9291 384.875 85.9147C383.578 84.811 382.283 83.7049 380.989 82.5968C348.835 55.8569 309.832 39.939 269.992 28.6432C266.833 27.741 263.685 26.8019 260.542 25.8437C264.246 17.97 274.834 13.7979 282.624 10.9515C313.1 1.63247 346.05 11.8983 373.699 25.1452Z" fill="#22B24C"/>
<path d="M315.68 306.422C316.762 306.424 316.762 306.424 317.866 306.426C329.154 306.459 340.189 306.886 351.347 308.736C352.093 308.856 352.839 308.976 353.608 309.099C382.213 313.81 414.191 323.853 432.203 348.297C442.235 362.558 446.582 377.824 443.794 395.208C440.54 411.544 431.004 426.403 419.871 438.455C418.581 439.86 417.355 441.297 416.133 442.76C409.828 449.964 402.268 455.96 394.654 461.707C394.238 462.023 393.822 462.339 393.393 462.665C362.575 485.996 327.89 502.838 289.704 509.38C289.095 509.485 288.486 509.591 287.859 509.7C275.174 511.744 262.5 512.263 249.671 512.217C248.905 512.216 248.139 512.214 247.35 512.213C235.563 512.176 223.998 511.838 212.345 509.904C211.05 509.69 211.05 509.69 209.729 509.472C168.61 502.473 131.281 486.4 99.1884 459.612C98.5149 459.069 97.8414 458.526 97.1475 457.966C91.2519 453.141 85.8539 447.825 80.4599 442.455C80.0857 442.084 79.7115 441.714 79.326 441.332C74.4393 436.482 69.949 431.48 65.6605 426.084C64.9285 425.212 64.1931 424.343 63.4531 423.478C53.4626 411.653 45.1182 398.451 37.7205 384.872C37.1006 383.74 37.1006 383.74 36.4681 382.586C35.625 380.681 35.625 380.681 35.625 377.887C39.0182 379.118 42.1049 380.85 45.273 382.559C91.0929 406.84 145.061 413.658 196.28 413.729C197.165 413.732 198.049 413.734 198.961 413.737C216.372 413.763 233.723 412.818 251.025 410.848C251.545 410.789 252.065 410.731 252.601 410.671C271.18 408.558 294.148 405.919 307.341 391.159C309.934 387.279 310.926 383.204 310.135 378.586C308.751 373.941 305.736 370.753 301.753 368.108C287.067 360.736 269.082 363.146 253.557 366.711C252.76 366.891 251.963 367.071 251.141 367.257C238.212 370.226 225.519 373.893 212.863 377.861C200.364 381.746 187.26 384.649 174.744 379.107C170.771 376.921 167.668 374.267 165.546 370.204C165.09 368.286 165.09 368.286 164.847 366.711C171.217 361.826 177.758 357.238 184.405 352.741C184.897 352.407 185.389 352.073 185.895 351.729C189.567 349.237 193.261 346.783 196.978 344.359C197.533 343.997 198.089 343.635 198.66 343.262C216.931 331.441 236.368 321.785 257.049 315.022C257.537 314.86 258.026 314.697 258.528 314.529C264.909 312.421 271.369 310.947 277.961 309.653C278.675 309.511 279.39 309.37 280.126 309.224C291.975 306.997 303.64 306.378 315.68 306.422Z" fill="#F38220"/>
</g>
<defs>
<clipPath id="clip0_1194_28081">
<rect width="511.302" height="512" fill="white"/>
</clipPath>
</defs>
</svg>
