<svg xmlns="http://www.w3.org/2000/svg" width="14" height="14" viewBox="0 0 14 14" fill="none">
<path d="M12.6875 0.984375H1.3125C0.64925 0.984375 0.109375 1.52425 0.109375 2.1875V11.8125C0.109375 12.4757 0.64925 13.0156 1.3125 13.0156H12.6875C13.3507 13.0156 13.8906 12.4757 13.8906 11.8125V2.1875C13.8906 1.52425 13.3507 0.984375 12.6875 0.984375ZM13.2344 11.8125C13.2344 12.1144 12.9894 12.3594 12.6875 12.3594H1.3125C1.16753 12.3591 1.02857 12.3015 0.926057 12.1989C0.823548 12.0964 0.765856 11.9575 0.765625 11.8125V4.26562H13.2344V11.8125ZM13.2344 3.60938H0.765625V2.1875C0.765625 1.88563 1.01063 1.64062 1.3125 1.64062H12.6875C12.9894 1.64062 13.2344 1.88563 13.2344 2.1875V3.60938Z" fill="white" fill-opacity="0.88" stroke="white" stroke-width="0.4"/>
<path d="M11.8169 2.29688H11.8081C11.627 2.29688 11.4844 2.44387 11.4844 2.625C11.4844 2.80612 11.6357 2.95312 11.8169 2.95312C11.9039 2.95312 11.9874 2.91855 12.0489 2.85702C12.1104 2.79548 12.145 2.71202 12.145 2.625C12.145 2.53798 12.1104 2.45452 12.0489 2.39298C11.9874 2.33145 11.9039 2.29688 11.8169 2.29688ZM10.5044 2.29688H10.4956C10.3145 2.29688 10.1719 2.44387 10.1719 2.625C10.1719 2.80612 10.3232 2.95312 10.5044 2.95312C10.5914 2.95312 10.6749 2.91855 10.7364 2.85702C10.7979 2.79548 10.8325 2.71202 10.8325 2.625C10.8325 2.53798 10.7979 2.45452 10.7364 2.39298C10.6749 2.33145 10.5914 2.29688 10.5044 2.29688ZM9.19187 2.29688H9.18312C9.002 2.29688 8.85937 2.44387 8.85937 2.625C8.85937 2.80612 9.01075 2.95312 9.19187 2.95312C9.2789 2.95312 9.36236 2.91855 9.42389 2.85702C9.48543 2.79548 9.52 2.71202 9.52 2.625C9.52 2.53798 9.48543 2.45452 9.42389 2.39298C9.36236 2.33145 9.2789 2.29688 9.19187 2.29688ZM5.6875 9.95312C5.77452 9.95312 5.85798 9.91856 5.91952 9.85702C5.98105 9.79548 6.01562 9.71202 6.01562 9.625V8.64062H6.57825L7.14437 9.77112C7.16189 9.81231 7.18765 9.84948 7.22006 9.88034C7.25248 9.9112 7.29086 9.93511 7.33285 9.95058C7.37485 9.96606 7.41957 9.97278 7.46426 9.97034C7.50894 9.96789 7.55266 9.95633 7.59272 9.93636C7.63277 9.91639 7.66832 9.88844 7.69717 9.85423C7.72602 9.82001 7.74757 9.78026 7.76049 9.73741C7.7734 9.69455 7.77742 9.64951 7.77228 9.60505C7.76715 9.56059 7.75297 9.51765 7.73062 9.47888L7.24587 8.50762C7.55037 8.3405 7.76562 8.02812 7.76562 7.65625C7.76562 7.11375 7.32375 6.67188 6.78125 6.67188H5.6875C5.60048 6.67188 5.51702 6.70645 5.45548 6.76798C5.39395 6.82952 5.35937 6.91298 5.35937 7V9.625C5.35937 9.80613 5.50637 9.95312 5.6875 9.95312ZM6.01562 7.32812H6.78125C6.86413 7.33418 6.94166 7.37138 6.99824 7.43225C7.05482 7.49312 7.08627 7.57314 7.08627 7.65625C7.08627 7.73936 7.05482 7.81938 6.99824 7.88025C6.94166 7.94112 6.86413 7.97832 6.78125 7.98438H6.01562V7.32812ZM3.5 9.95312H4.375C4.46202 9.95312 4.54548 9.91856 4.60702 9.85702C4.66855 9.79548 4.70312 9.71202 4.70312 9.625C4.70312 9.53798 4.66855 9.45452 4.60702 9.39298C4.54548 9.33144 4.46202 9.29688 4.375 9.29688H3.5C3.35503 9.29664 3.21607 9.23895 3.11356 9.13644C3.01105 9.03393 2.95336 8.89497 2.95312 8.75V7.875C2.95312 7.57312 3.19812 7.32812 3.5 7.32812H4.375C4.46202 7.32812 4.54548 7.29356 4.60702 7.23202C4.66855 7.17048 4.70312 7.08702 4.70312 7C4.70312 6.91298 4.66855 6.82952 4.60702 6.76798C4.54548 6.70645 4.46202 6.67188 4.375 6.67188H3.5C2.83675 6.67188 2.29688 7.21175 2.29688 7.875V8.75C2.29688 9.41325 2.83675 9.95312 3.5 9.95312ZM8.75 9.95312C8.83702 9.95312 8.92048 9.91856 8.98202 9.85702C9.04355 9.79548 9.07812 9.71202 9.07812 9.625V7.79187L9.83062 8.54438C9.89215 8.60582 9.97555 8.64034 10.0625 8.64034C10.1495 8.64034 10.2329 8.60582 10.2944 8.54438L11.0469 7.79187V9.625C11.0469 9.71202 11.0814 9.79548 11.143 9.85702C11.2045 9.91856 11.288 9.95312 11.375 9.95312C11.462 9.95312 11.5455 9.91856 11.607 9.85702C11.6686 9.79548 11.7031 9.71202 11.7031 9.625V7C11.7031 6.93514 11.6838 6.87176 11.6477 6.81785C11.6117 6.76395 11.5605 6.72194 11.5005 6.69712C11.4406 6.67231 11.3747 6.66582 11.3111 6.67845C11.2475 6.69109 11.189 6.72229 11.1431 6.76813L10.0625 7.84875L8.98187 6.76813C8.93583 6.72272 8.87742 6.69188 8.81394 6.67948C8.75047 6.66709 8.68475 6.67367 8.625 6.69841C8.56525 6.72315 8.51411 6.76495 8.47799 6.81859C8.44186 6.87223 8.42234 6.93533 8.42187 7V9.625C8.42187 9.80613 8.56887 9.95312 8.75 9.95312Z" fill="white"/>
</svg>