<svg width="110" height="24" viewBox="0 0 110 24" fill="none" xmlns="http://www.w3.org/2000/svg">
<path d="M19.5617 2.67776C19.6032 2.71191 19.6032 2.71191 19.6456 2.74675C20.2759 3.2663 20.8556 3.82767 21.3567 4.47462C21.3942 4.52113 21.4318 4.56765 21.4705 4.61557C23.4094 7.05482 24.2485 10.2331 23.9364 13.3191C23.9076 13.5612 23.8718 13.8014 23.8308 14.0417C23.8229 14.0874 23.8151 14.1332 23.8071 14.1804C23.4549 16.1519 22.5975 18.0441 21.3081 19.5779C21.2876 19.6028 21.2671 19.6277 21.2459 19.6533C20.7227 20.2866 20.1629 20.87 19.5132 21.3748C19.4679 21.4118 19.4225 21.4489 19.3758 21.4871C16.9406 23.4399 13.7505 24.25 10.6718 23.9333C9.15607 23.7611 7.71111 23.3066 6.36655 22.5889C6.31933 22.564 6.31933 22.564 6.27116 22.5387C5.53711 22.1502 4.86042 21.675 4.23204 21.132C4.19421 21.0995 4.15637 21.067 4.11739 21.0335C3.56245 20.5453 3.03037 20.0215 2.58264 19.4322C2.56269 19.4065 2.54273 19.3808 2.52217 19.3543C1.34006 17.8268 0.557343 16.0367 0.20557 14.1388C0.197699 14.0987 0.189827 14.0585 0.181717 14.0172C-0.0669485 12.7039 -0.0617381 11.1746 0.20557 9.86519C0.215209 9.81756 0.224847 9.76994 0.234777 9.72087C0.63219 7.82018 1.39543 6.03132 2.63115 4.52318C2.6521 4.49728 2.67305 4.47138 2.69464 4.4447C3.30363 3.69501 3.98455 3.0041 4.76567 2.43495C4.82145 2.39335 4.87723 2.35174 4.93299 2.31012C5.33046 2.01674 5.74411 1.75767 6.17251 1.51224C6.22697 1.48037 6.28144 1.44851 6.33756 1.41568C10.3567 -0.842704 15.8334 -0.38252 19.5617 2.67776Z" fill="#FCFDFC"/>
<path d="M12.7209 1.6094C12.7369 1.64145 12.7529 1.6735 12.7694 1.70653C12.7301 1.71955 12.6908 1.73257 12.6502 1.74599C12.2479 1.88852 11.9364 2.07045 11.6051 2.33786C11.5744 2.36014 11.5436 2.38243 11.5119 2.40539C10.8057 2.94371 10.4139 3.96922 10.2953 4.8146C10.2868 4.9567 10.2841 5.09873 10.2817 5.24105C10.2808 5.28194 10.2799 5.32283 10.279 5.36496C10.2772 5.45211 10.2754 5.53926 10.2737 5.62641C10.2693 5.85329 10.2639 6.08013 10.2586 6.30699C10.2575 6.35119 10.2565 6.39539 10.2555 6.44092C10.2268 7.67129 10.1773 8.91348 9.85872 10.108C9.85036 10.141 9.84201 10.1741 9.8334 10.2081C9.34342 12.1311 8.12396 13.9659 6.41439 15.013C5.57018 15.5127 4.64995 15.8388 3.66079 15.6003C3.51881 15.5435 3.39178 15.4808 3.26113 15.4015C3.22624 15.3804 3.19135 15.3593 3.15539 15.3376C2.25243 14.7203 1.9307 13.6138 1.73638 12.5888C1.326 10.2799 1.81943 7.86421 3.13876 5.92324C3.45327 5.47436 3.8014 5.06193 4.18286 4.66891C4.20794 4.64281 4.23302 4.6167 4.25887 4.58981C4.60214 4.23367 4.95416 3.90215 5.34714 3.60051C5.38627 3.56995 5.38627 3.56995 5.4262 3.53876C7.40197 2.00178 10.2124 1.03236 12.7209 1.6094Z" fill="#265787"/>
<path d="M14.4776 1.83389C14.5221 1.83428 14.5666 1.83466 14.6124 1.83506C14.9844 1.8428 15.3224 1.89662 15.6813 1.99779C15.7198 2.00718 15.7584 2.01657 15.798 2.02625C17.0958 2.36883 18.3065 3.12002 19.2712 4.03746C19.3366 4.09343 19.4023 4.1491 19.4682 4.2044C20.8213 5.39127 21.7636 7.23272 22.1551 8.97132C22.1727 9.04788 22.1912 9.12423 22.2107 9.20029C22.3773 9.8509 22.3951 10.4964 22.3971 11.1642C22.3974 11.2063 22.3977 11.2483 22.398 11.2917C22.4008 11.8837 22.3416 12.4409 22.2304 13.0217C22.2121 13.136 22.1938 13.2504 22.1758 13.3647C22.0056 14.1942 21.6674 15.0016 21.2601 15.7413C21.2447 15.7701 21.2293 15.7989 21.2134 15.8285C20.9719 16.2791 20.691 16.6912 20.3869 17.1011C20.3554 17.1437 20.3239 17.1862 20.2914 17.2301C20.2267 17.3169 20.1614 17.4033 20.0959 17.4896C20.0428 17.3301 20.0526 17.2912 20.0928 17.1345C20.2795 16.2453 20.0119 15.4335 19.5622 14.6729C19.459 14.5167 19.3462 14.3764 19.2227 14.2358C19.1938 14.1995 19.1649 14.1631 19.1351 14.1256C18.4714 13.3254 17.4875 12.7579 16.6351 12.1798C15.2499 11.2404 15.2499 11.2404 14.7668 10.7865C14.6614 10.6873 14.6614 10.6873 14.5373 10.5913C14.3611 10.4488 14.225 10.2819 14.0804 10.1079C14.0589 10.0824 14.0374 10.0569 14.0153 10.0306C12.8181 8.60379 12.0898 6.82821 12.0672 4.9541C12.0663 4.90488 12.0654 4.85565 12.0645 4.80494C12.0663 4.58897 12.0696 4.46178 12.1839 4.27459C12.3682 4.10871 12.5157 4.11819 12.7562 4.12131C13.0631 4.1468 13.3517 4.23632 13.6438 4.32885C13.6804 4.34031 13.717 4.35177 13.7547 4.36359C15.0418 4.77334 16.2397 5.40908 17.2822 6.27139C17.3076 6.29227 17.3331 6.31315 17.3593 6.33466C18.365 7.16154 19.2459 8.07246 19.9988 9.13665C19.5845 7.76656 18.8477 6.62087 17.8643 5.5915C17.8219 5.54649 17.7795 5.50148 17.7359 5.45511C16.6541 4.33568 15.2745 3.57239 13.8346 3.02009C13.795 3.00486 13.7553 2.98962 13.7145 2.97392C13.6391 2.94515 13.5636 2.91673 13.4879 2.8887C13.3098 2.82141 13.1576 2.7548 13.0132 2.62912C13.0075 2.48785 13.0062 2.41601 13.0617 2.28917C13.4634 1.94422 13.9618 1.82572 14.4776 1.83389Z" fill="#01A557"/>
<path d="M16.5546 15.0129C16.6122 15.034 16.6122 15.034 16.6709 15.0555C17.7913 15.4677 18.6754 16.0327 19.2258 17.1285C19.4146 17.6252 19.3993 18.2506 19.2258 18.7493C18.4993 20.333 16.7777 21.3761 15.2042 21.96C12.7332 22.8463 10.0307 22.6733 7.65271 21.5812C6.71436 21.1359 5.86926 20.5107 5.12506 19.7891C5.06399 19.7301 5.00206 19.6719 4.94004 19.6138C4.28072 18.9818 3.7641 18.1957 3.33214 17.3956C3.31128 17.3577 3.29042 17.3198 3.26893 17.2807C3.14239 17.0395 3.07587 16.8409 3.06836 16.567C3.10038 16.5349 3.13239 16.5029 3.16538 16.4699C3.42088 16.4828 3.59023 16.5532 3.80816 16.6823C4.63415 17.1476 5.55348 17.476 6.46418 17.7325C6.50138 17.7431 6.53858 17.7537 6.5769 17.7647C7.16354 17.9304 7.75517 18.0672 8.35613 18.1696C8.39918 18.177 8.44222 18.1844 8.48658 18.192C9.16986 18.3041 9.8483 18.3292 10.5392 18.3305C10.5987 18.3307 10.5987 18.3307 10.6594 18.331C11.3642 18.3326 12.0605 18.2853 12.7495 18.1271C12.7841 18.1199 12.8188 18.1127 12.8545 18.1053C13.2124 18.0252 13.5362 17.9065 13.7409 17.5868C13.8191 17.3522 13.8221 17.1737 13.7197 16.9464C13.4696 16.6716 13.1307 16.5828 12.767 16.561C11.902 16.5312 11.0551 16.6242 10.216 16.8346C9.27346 17.0669 8.10818 17.2699 7.19185 16.8584C7.14334 16.8098 7.14334 16.8098 7.14031 16.6854C7.14131 16.6463 7.14231 16.6072 7.14334 16.567C7.71343 16.263 8.30669 16.0173 8.9025 15.7688C9.06111 15.7025 9.2193 15.6353 9.37739 15.5677C9.51069 15.5108 9.64409 15.4541 9.7775 15.3975C9.84151 15.3702 9.90548 15.3429 9.9694 15.3155C11.9925 14.4476 14.4647 14.2238 16.5546 15.0129Z" fill="#F47E35"/>
<path d="M4.4745 5.68872C4.52301 5.78585 4.52301 5.78585 4.49674 5.86985C4.48177 5.90354 4.4668 5.93723 4.45138 5.97195C4.43494 6.01024 4.41849 6.04854 4.40155 6.088C4.37463 6.15028 4.37463 6.15028 4.34716 6.21382C4.19802 6.57155 4.08001 6.92578 3.99241 7.30346C3.97796 7.3658 3.97796 7.3658 3.96321 7.42939C3.8798 7.80648 3.83637 8.17429 3.8357 8.56062C3.83549 8.59718 3.83528 8.63374 3.83507 8.67141C3.83459 8.78909 3.83458 8.90676 3.83475 9.02444C3.8348 9.06485 3.83484 9.10527 3.83489 9.1469C3.83719 10.0906 3.93003 10.9894 4.10207 11.9176C4.2648 12.826 4.2648 12.826 4.12582 13.2434C4.00077 13.4118 3.90443 13.5285 3.69452 13.5815C3.52039 13.5986 3.40596 13.5889 3.26019 13.4876C3.01625 13.2356 2.93682 12.9712 2.87361 12.6333C2.85345 12.5393 2.85345 12.5393 2.83287 12.4434C2.3853 10.1849 3.06027 7.82153 4.30939 5.93288C4.36406 5.85125 4.41922 5.76994 4.4745 5.68872Z" fill="#FAFBFB"/>
<path d="M28.8673 2.24786C28.9206 2.2476 28.974 2.24733 29.029 2.24706C29.0884 2.24723 29.1478 2.2474 29.2072 2.24758C29.2701 2.24744 29.3331 2.24727 29.3961 2.24705C29.5695 2.24658 29.7429 2.24669 29.9163 2.24688C30.1032 2.24699 30.2902 2.24658 30.4772 2.24624C30.8439 2.24566 31.2106 2.24558 31.5773 2.24568C31.876 2.24577 32.1746 2.24569 32.4733 2.24549C32.5158 2.24547 32.5584 2.24544 32.6022 2.24541C32.6886 2.24536 32.775 2.2453 32.8614 2.24524C33.6729 2.24475 34.4843 2.24485 35.2958 2.24513C36.0353 2.24536 36.7749 2.24485 37.5144 2.24398C38.2752 2.2431 39.0361 2.24272 39.7969 2.2429C40.2234 2.24298 40.6499 2.24287 41.0765 2.24223C41.4404 2.24168 41.8043 2.24162 42.1682 2.24217C42.3533 2.24243 42.5383 2.2425 42.7234 2.24194C43.881 2.2387 45.0387 2.28048 46.1783 2.52413C46.2064 2.52994 46.2344 2.53574 46.2633 2.54173C46.7552 2.64365 47.236 2.76972 47.7111 2.94249C47.7656 2.962 47.7656 2.962 47.8211 2.98191C49.623 3.63624 51.3037 4.7813 52.1869 6.6764C52.5206 7.41727 52.72 8.23141 52.7245 9.05848C52.7248 9.09363 52.725 9.12878 52.7252 9.165C52.7256 9.23909 52.7259 9.31317 52.7261 9.38725C52.7265 9.49806 52.7278 9.60883 52.7291 9.71963C52.733 10.3407 52.6701 10.9339 52.4632 11.5174C52.4508 11.5529 52.4384 11.5885 52.4257 11.6251C52.0975 12.5368 51.6204 13.2569 51.006 13.9621C50.969 14.0061 50.969 14.0061 50.9312 14.051C50.2038 14.8903 49.1513 15.4821 48.1699 15.8746C48.1424 15.8746 48.1148 15.8746 48.0865 15.8746C48.2411 16.0478 48.4026 16.2075 48.5713 16.3641C48.597 16.388 48.6227 16.412 48.6492 16.4367C48.8382 16.6123 49.0296 16.7844 49.2224 16.9552C49.35 17.0695 49.4755 17.1862 49.601 17.3033C49.786 17.4755 49.9744 17.6416 50.1667 17.8042C50.4063 18.007 50.6361 18.2202 50.8642 18.4382C51.051 18.6166 51.2411 18.7895 51.4339 18.96C51.5637 19.0758 51.6916 19.194 51.8193 19.3125C51.9849 19.4661 52.1513 19.6181 52.3198 19.7679C52.4883 19.9176 52.6548 20.0697 52.8203 20.2232C53.1027 20.4851 53.3887 20.7421 53.6778 20.9952C53.7191 21.0316 53.7605 21.068 53.8031 21.1055C53.8405 21.1382 53.878 21.171 53.9166 21.2047C54.009 21.2933 54.009 21.2933 54.0924 21.4299C54.0872 21.5466 54.0872 21.5466 54.0507 21.6576C53.9118 21.7612 53.7881 21.7601 53.623 21.7602C53.5694 21.7605 53.5158 21.7607 53.4606 21.761C53.4013 21.7608 53.3419 21.7606 53.2826 21.7605C53.22 21.7606 53.1575 21.7607 53.0949 21.7609C52.925 21.7614 52.755 21.7612 52.5851 21.7609C52.4069 21.7607 52.2288 21.7609 52.0507 21.761C51.7512 21.7612 51.4517 21.761 51.1523 21.7605C50.8069 21.76 50.4615 21.7602 50.1162 21.7607C49.8192 21.7611 49.5222 21.7612 49.2252 21.7609C49.0481 21.7608 48.8709 21.7608 48.6938 21.7611C48.5269 21.7613 48.36 21.7612 48.1931 21.7606C48.1322 21.7605 48.0712 21.7605 48.0103 21.7607C46.9544 21.7639 46.3326 21.3402 45.5583 20.6065C45.3619 20.4208 45.1602 20.2424 44.9584 20.0639C44.6895 19.8253 44.4231 19.5841 44.1591 19.3392C43.9797 19.1731 43.7979 19.0103 43.6154 18.8483C43.5104 18.7539 43.4067 18.6583 43.3033 18.5619C43.068 18.3427 42.8293 18.1299 42.5846 17.9233C42.4348 17.7965 42.2912 17.6643 42.1483 17.5281C41.9702 17.3686 41.7869 17.2464 41.5827 17.1325C41.5568 17.1178 41.531 17.1032 41.5043 17.0881C41.0504 16.8472 40.5873 16.8105 40.0908 16.8117C40.0264 16.8114 39.9621 16.811 39.8978 16.8105C39.7246 16.8095 39.5514 16.8094 39.3782 16.8095C39.2331 16.8095 39.088 16.8091 38.9429 16.8087C38.6004 16.8078 38.258 16.8077 37.9156 16.808C37.5632 16.8083 37.2109 16.8073 36.8585 16.8056C36.555 16.8042 36.2514 16.8037 35.9478 16.8039C35.767 16.8039 35.5861 16.8037 35.4053 16.8026C35.2353 16.8016 35.0653 16.8017 34.8952 16.8026C34.8331 16.8027 34.771 16.8025 34.7089 16.8018C34.3191 16.798 33.9749 16.8268 33.6721 17.1242C33.4292 17.4214 33.3587 17.7176 33.3577 18.1029C33.3575 18.1344 33.3574 18.1658 33.3573 18.1981C33.3569 18.2662 33.3567 18.3343 33.3566 18.4024C33.3563 18.5104 33.3556 18.6184 33.3548 18.7264C33.3527 19.0334 33.3507 19.3404 33.35 19.6474C33.3496 19.8354 33.3484 20.0234 33.3466 20.2114C33.3461 20.2827 33.3459 20.3541 33.346 20.4255C33.3464 20.8494 33.3465 21.1884 33.0808 21.5237C33.0571 21.5444 33.0335 21.5651 33.0091 21.5864C32.9854 21.608 32.9618 21.6295 32.9374 21.6517C32.8064 21.7423 32.6745 21.7544 32.522 21.756C32.4876 21.7564 32.4531 21.7569 32.4177 21.7574C32.3802 21.7576 32.3428 21.7579 32.3043 21.7582C32.2646 21.7586 32.2249 21.7591 32.184 21.7595C32.0526 21.7609 31.9213 21.7619 31.79 21.7627C31.745 21.763 31.7001 21.7633 31.6538 21.7636C31.4159 21.7651 31.1781 21.7662 30.9402 21.7671C30.7436 21.7679 30.5471 21.7695 30.3505 21.7718C30.1129 21.7745 29.8752 21.7759 29.6376 21.7764C29.5472 21.7768 29.4569 21.7776 29.3665 21.7789C29.2397 21.7807 29.113 21.7808 28.9862 21.7804C28.9492 21.7813 28.9122 21.7822 28.8741 21.7832C28.5968 21.7797 28.3915 21.6897 28.1918 21.4755C27.9613 21.1688 28.0019 20.806 28.0041 20.429C28.0039 20.3539 28.0037 20.2787 28.0034 20.2035C28.0028 19.9972 28.0032 19.7908 28.0038 19.5845C28.0043 19.3619 28.0038 19.1393 28.0034 18.9166C28.0028 18.4806 28.0031 18.0446 28.0038 17.6086C28.0045 17.1009 28.0043 16.5932 28.0042 16.0856C28.0039 15.1798 28.0045 14.274 28.0055 13.3682C28.0065 12.4891 28.0068 11.6101 28.0064 10.731C28.0059 9.7739 28.0058 8.81682 28.0064 7.85974C28.0065 7.7577 28.0066 7.65566 28.0066 7.55361C28.0067 7.50341 28.0067 7.4532 28.0067 7.40147C28.0069 7.04753 28.0069 6.69359 28.0067 6.33964C28.0065 5.90835 28.0067 5.47706 28.0075 5.04577C28.008 4.82569 28.0082 4.60561 28.0078 4.38552C28.0076 4.18408 28.0078 3.98264 28.0086 3.7812C28.0087 3.70831 28.0087 3.63541 28.0084 3.56251C28.0081 3.46342 28.0085 3.36437 28.0091 3.26527C28.0092 3.21024 28.0092 3.1552 28.0093 3.0985C28.031 2.88342 28.0875 2.70192 28.2203 2.53605C28.2445 2.51521 28.2686 2.49437 28.2935 2.4729C28.3175 2.45148 28.3416 2.43005 28.3663 2.40798C28.5374 2.27822 28.6572 2.24804 28.8673 2.24786ZM34.448 8.27014C34.448 9.09661 34.448 9.92308 34.448 10.7746C35.53 10.7767 36.612 10.7783 37.694 10.7793C38.1965 10.7798 38.6991 10.7804 39.2017 10.7815C39.6405 10.7824 40.0794 10.783 40.5183 10.7832C40.7499 10.7833 40.9815 10.7836 41.2131 10.7842C42.0853 10.7867 42.9566 10.7842 43.8279 10.7399C43.8593 10.7385 43.8906 10.7371 43.9229 10.7357C44.2701 10.7197 44.6037 10.6786 44.9435 10.5975C44.9742 10.5902 45.0049 10.5828 45.0365 10.5753C45.4204 10.4769 45.83 10.2929 46.0741 9.94073C46.1805 9.69087 46.1849 9.456 46.1221 9.19313C46.0203 8.9135 45.8344 8.73391 45.5918 8.60028C44.9943 8.33393 44.3415 8.26233 43.7017 8.26467C43.6618 8.26463 43.6219 8.26459 43.5808 8.26455C43.4485 8.26448 43.3162 8.26472 43.1839 8.26498C43.0885 8.26499 42.9931 8.26498 42.8977 8.26495C42.6397 8.26494 42.3818 8.26521 42.1238 8.26553C41.8538 8.26581 41.5839 8.26584 41.3139 8.26589C40.8611 8.26602 40.4083 8.2663 39.9555 8.26671C39.4893 8.26713 39.0231 8.26745 38.5569 8.26764C38.5138 8.26766 38.5138 8.26766 38.4697 8.26768C38.3253 8.26774 38.1809 8.2678 38.0365 8.26785C36.8403 8.26832 35.6442 8.26916 34.448 8.27014Z" fill="white"/>
<path d="M66.0878 2.23564C66.2627 2.23607 66.4376 2.23541 66.6125 2.23492C66.9522 2.23412 67.2919 2.23428 67.6316 2.23481C67.9075 2.23523 68.1835 2.23528 68.4595 2.23508C68.4991 2.23505 68.5387 2.23502 68.5796 2.235C68.6602 2.23494 68.7407 2.23488 68.8213 2.23482C69.571 2.2343 70.3206 2.23489 71.0703 2.23587C71.7129 2.23669 72.3555 2.23654 72.9981 2.23571C73.7477 2.23473 74.4973 2.23435 75.2468 2.23491C75.3266 2.23497 75.4065 2.23502 75.4863 2.23508C75.5452 2.23512 75.5452 2.23512 75.6052 2.23516C75.8814 2.23532 76.1576 2.23506 76.4338 2.23463C76.7695 2.23412 77.1051 2.23425 77.4408 2.23523C77.6119 2.2357 77.783 2.23589 77.9541 2.23529C78.1106 2.23475 78.2672 2.23504 78.4237 2.23601C78.5072 2.23631 78.5906 2.23572 78.6741 2.23509C79.1229 2.23939 79.1229 2.23939 79.3256 2.4416C79.3643 2.47963 79.3643 2.47963 79.4038 2.51844C79.5668 2.88408 79.383 3.33158 79.2813 3.69098C79.2465 3.81702 79.212 3.94317 79.1775 4.06931C79.1688 4.10092 79.1601 4.13253 79.1512 4.16509C79.0678 4.46925 78.9929 4.77562 78.919 5.08266C78.5923 6.42359 78.5923 6.42359 78.2517 6.75324C78.2261 6.77878 78.2005 6.80431 78.1741 6.83062C77.8715 7.05357 77.582 7.06034 77.228 7.05823C77.1769 7.05847 77.1258 7.05871 77.0731 7.05895C76.9318 7.05948 76.7906 7.0594 76.6493 7.05906C76.4967 7.05884 76.3441 7.05941 76.1915 7.05989C75.9271 7.06062 75.6627 7.06086 75.3983 7.06078C75.0151 7.06067 74.6319 7.0614 74.2487 7.06235C73.6258 7.06387 73.0028 7.06486 72.3799 7.06544C72.324 7.0655 72.324 7.0655 72.267 7.06555C72.1161 7.06569 71.9651 7.06583 71.8142 7.06597C71.3998 7.06636 70.9854 7.06685 70.5711 7.0674C70.534 7.06745 70.4969 7.0675 70.4587 7.06755C69.8387 7.06837 69.2186 7.06956 68.5986 7.07096C68.2169 7.0718 67.8351 7.0723 67.4534 7.07235C67.1913 7.0724 66.9291 7.07276 66.6669 7.07337C66.5161 7.0737 66.3653 7.07389 66.2145 7.07368C65.0305 7.06862 65.0305 7.06862 63.8651 7.2769C63.8292 7.28656 63.7933 7.29622 63.7563 7.30617C62.5513 7.6468 61.3724 8.45457 60.7239 9.63621C60.5371 9.99634 60.3579 10.3716 60.2652 10.7746C60.2536 10.8186 60.2421 10.8625 60.2303 10.9078C60.0588 11.666 60.0466 12.577 60.2652 13.3246C60.2798 13.377 60.2945 13.4293 60.3096 13.4833C60.476 14.0323 60.7129 14.5243 61.0576 14.9639C61.0849 15.0003 61.1122 15.0367 61.1404 15.0742C61.7946 15.9135 62.7369 16.4406 63.6982 16.7255C63.7418 16.7385 63.7418 16.7385 63.7863 16.7518C64.4896 16.9481 65.1684 16.9872 65.8914 16.985C65.9939 16.9851 66.0963 16.9854 66.1987 16.9857C66.4177 16.9862 66.6368 16.9864 66.8558 16.9861C67.1727 16.9858 67.4896 16.9864 67.8065 16.9872C68.3213 16.9885 68.836 16.9893 69.3508 16.9897C69.3815 16.9897 69.4122 16.9897 69.4438 16.9898C69.693 16.9899 69.9423 16.9901 70.1916 16.9903C70.4102 16.9904 70.6288 16.9906 70.8475 16.9907C70.8783 16.9907 70.9091 16.9908 70.9408 16.9908C71.4545 16.9912 71.9681 16.9921 72.4818 16.9934C72.798 16.9942 73.1142 16.9945 73.4304 16.9942C73.6723 16.994 73.9141 16.9944 74.156 16.9952C74.2551 16.9954 74.3543 16.9953 74.4535 16.995C74.5887 16.9946 74.7239 16.9951 74.8591 16.9957C74.8984 16.9954 74.9377 16.9951 74.9783 16.9948C75.2458 16.9973 75.4242 17.0461 75.6293 17.2463C75.724 17.4294 75.7276 17.5815 75.697 17.7871C75.6691 17.8852 75.6383 17.982 75.6075 18.0791C75.541 18.2994 75.4902 18.5246 75.4364 18.749C75.3083 19.2758 75.1677 19.7973 75.0191 20.3176C74.9913 20.4165 74.9645 20.5157 74.9385 20.6153C74.8232 21.0497 74.6643 21.3481 74.3207 21.6121C74.0866 21.7437 73.9023 21.7682 73.6411 21.7657C73.6029 21.7659 73.5648 21.7661 73.5254 21.7663C73.3979 21.7667 73.2704 21.7662 73.1429 21.7656C73.0513 21.7657 72.9596 21.7659 72.868 21.7661C72.6193 21.7666 72.3706 21.7661 72.1219 21.7655C71.8609 21.765 71.6 21.7652 71.3391 21.7653C70.9004 21.7653 70.4617 21.7648 70.023 21.764C69.5733 21.7631 69.1235 21.7628 68.6737 21.763C68.1304 21.7633 67.587 21.7632 67.0436 21.7626C66.8369 21.7624 66.6301 21.7624 66.4233 21.7625C66.1788 21.7626 65.9344 21.7622 65.69 21.7615C65.6009 21.7613 65.5118 21.7612 65.4226 21.7614C64.8793 21.762 64.3495 21.7312 63.8103 21.6576C63.7298 21.6478 63.6494 21.638 63.5689 21.6284C62.3311 21.4641 61.1344 21.0712 60.0149 20.4737C59.985 20.4579 59.9551 20.4422 59.9243 20.4259C59.2429 20.0629 58.588 19.6019 58.0129 19.0621C57.9679 19.0212 57.9228 18.9803 57.8777 18.9395C56.2462 17.452 55.2314 15.5253 54.8848 13.2335C54.8799 13.2011 54.8749 13.1686 54.8699 13.1352C54.5539 10.9492 55.0004 8.60737 56.1778 6.79878C56.2463 6.69643 56.3161 6.59521 56.3863 6.49426C56.4138 6.45393 56.4414 6.41361 56.4697 6.37206C56.9302 5.72691 57.4887 5.14978 58.0963 4.67284C58.1213 4.65288 58.1463 4.63292 58.1721 4.61236C59.3906 3.64405 60.7615 2.9995 62.2254 2.62374C62.2548 2.61578 62.2841 2.60782 62.3144 2.59961C63.5389 2.27115 64.8328 2.23111 66.0878 2.23564Z" fill="white"/>
<path d="M83.4919 2.40447L83.5773 2.35052C83.963 2.10442 84.368 2.01517 84.8124 2.01754L84.9458 2.02039C85.2307 2.02189 85.5086 2.02938 85.7904 2.07731C86.6299 2.59032 87.054 2.84953 87.3927 3.20565C87.7385 3.56933 87.9952 4.0341 88.5141 4.97351C88.6753 5.26442 88.8376 5.55462 89.001 5.84411C89.2147 6.22243 89.4281 6.60094 89.6396 6.98074C89.8707 7.39616 90.1029 7.81081 90.3365 8.22461C90.5461 8.59582 90.7548 8.96756 90.9622 9.34023C91.1669 9.70818 91.373 10.0752 91.5799 10.4416C91.7691 10.7766 91.9575 11.112 92.1441 11.4486C92.2477 11.6355 92.3516 11.8223 92.4557 12.0089C92.5434 12.1662 92.631 12.3236 92.7178 12.4816C92.7743 12.5845 92.8312 12.6871 92.8884 12.7896L92.9693 12.9347C93.0393 13.0633 93.1102 13.1902 93.1856 13.315C93.3136 13.4978 93.451 13.6233 93.6634 13.6672L93.767 13.6604C93.8224 13.658 93.8485 13.6568 93.8746 13.6544C93.8979 13.6523 93.9211 13.6492 93.9651 13.6433C94.0748 13.6034 94.1438 13.5783 94.2022 13.5359C94.3012 13.464 94.37 13.3424 94.5552 13.0148L94.6324 12.8749C94.7166 12.7252 94.8006 12.5754 94.884 12.4253C94.9363 12.331 94.9887 12.2369 95.0412 12.1428C95.1368 11.9719 95.2323 11.801 95.3274 11.6299C95.5657 11.201 95.8066 10.7739 96.0476 10.3468C96.1877 10.0985 96.3278 9.85012 96.4678 9.6017L96.6341 9.30661C96.7461 9.1079 96.8581 8.90919 96.9701 8.71045L97.2261 8.25591C97.4263 7.90071 97.6269 7.54589 97.8283 7.19152C97.9656 6.95003 98.1021 6.70813 98.2371 6.46509C98.2883 6.37265 98.3396 6.27987 98.3909 6.18691C99.1951 4.73072 100.024 3.2304 101.393 2.33273L101.514 2.25945C102.32 1.97644 102.32 1.97644 103.182 2.02299C103.804 2.06652 104.399 2.49305 104.814 2.9809L104.893 3.07909C105.323 3.60335 105.522 4.27982 105.697 4.94338C105.732 5.08081 105.768 5.21819 105.805 5.35531C105.866 5.58254 105.927 5.80981 105.987 6.0373C106.036 6.22008 106.085 6.40282 106.133 6.58551L106.227 6.9361C106.281 7.13846 106.335 7.34082 106.39 7.54304C106.509 7.9869 106.629 8.4306 106.739 8.87736C106.833 9.25948 106.931 9.63932 107.038 10.0176C107.164 10.4656 107.286 10.9148 107.405 11.365C107.454 11.5477 107.503 11.7305 107.551 11.9132L107.624 12.1862C107.685 12.4144 107.746 12.6426 107.808 12.8707C107.927 13.3146 108.047 13.7583 108.157 14.205C108.251 14.5871 108.35 14.967 108.456 15.3452C108.582 15.7932 108.704 16.2425 108.824 16.6926C108.872 16.8754 108.921 17.0581 108.97 17.2408L109.042 17.5139C109.103 17.7421 109.164 17.9703 109.226 18.1984C109.357 18.6872 109.487 19.1761 109.608 19.6683C109.668 19.9122 109.729 20.1542 109.802 20.3938C109.811 20.4235 109.82 20.4532 109.829 20.4829C109.884 20.6606 109.939 20.8383 109.981 21.0201C110.01 21.258 110.021 21.41 109.898 21.6121C109.71 21.7932 109.566 21.8158 109.319 21.8194L109.188 21.8185C109.043 21.8197 108.897 21.8207 108.752 21.8204C108.648 21.8201 108.543 21.8201 108.439 21.8203C108.193 21.8211 107.948 21.8214 107.702 21.8207C107.448 21.8199 107.193 21.8199 106.939 21.8214C106.718 21.8227 106.497 21.8233 106.277 21.8232C106.171 21.823 106.066 21.8229 105.961 21.8228C105.809 21.8238 105.658 21.8247 105.507 21.8239L105.368 21.8229C105.111 21.8261 104.91 21.8202 104.681 21.6837C104.417 21.3934 104.283 21.2459 104.193 21.0712C104.1 20.891 104.054 20.6818 103.962 20.2568L103.929 20.1145C103.892 19.9522 103.855 19.7899 103.818 19.6275C103.784 19.4801 103.751 19.3327 103.717 19.1853C103.66 18.9348 103.602 18.6842 103.545 18.4336C103.48 18.1481 103.415 17.8627 103.35 17.5773C103.272 17.2375 103.194 16.8976 103.116 16.5577L103.095 16.4655C102.944 15.8007 102.792 15.1358 102.647 14.4693L102.59 14.2076C102.536 13.9609 102.482 13.7142 102.429 13.4672C102.408 13.3676 102.386 13.268 102.365 13.1684L102.335 13.0294C102.326 12.9893 102.318 12.9483 102.31 12.9069C102.242 12.5726 102.168 12.2064 101.937 11.9756C101.792 11.9063 101.711 11.8877 101.556 11.913C101.291 12.0614 101.291 12.0614 100.229 13.9479C100.01 14.3378 99.7894 14.7269 99.567 15.1147C99.3741 15.4509 99.1819 15.7875 98.9909 16.125C98.8258 16.4168 98.6599 16.7081 98.4932 16.9988C98.2735 17.3818 98.0547 17.7653 97.8381 18.1504C97.7537 18.3004 97.6692 18.4504 97.5846 18.6003C97.532 18.6935 97.4794 18.7867 97.4269 18.8799C97.0161 19.6139 96.5805 20.3197 96.0363 20.9454C95.4569 21.5733 94.7609 21.9878 93.9345 22L93.7722 21.9991C92.9601 21.9963 92.2288 21.7761 91.6234 21.1519L91.5461 21.0656C91.2935 20.785 91.0826 20.4896 90.8906 20.1571L90.837 20.0639C90.6834 19.7975 90.5304 19.5307 90.3781 19.2634C90.2444 19.0288 90.1104 18.7943 89.9762 18.56C89.9242 18.4694 89.8724 18.3787 89.8205 18.2881L87.9925 15.0949C87.8715 14.8835 87.7505 14.6721 87.6294 14.4608L87.3909 14.0446L87.3908 14.0444C87.2627 13.821 87.1347 13.5976 87.0079 13.3733L86.9338 13.2415C86.8863 13.1573 86.8388 13.073 86.7914 12.9888C86.7527 12.9196 86.7142 12.8463 86.6748 12.7713C86.522 12.4804 86.3563 12.1649 86.1214 11.9756C85.9545 11.8903 85.8366 11.8876 85.66 11.9386C85.4721 12.0959 85.3963 12.3576 85.3389 12.5995L85.3163 12.7008C85.2901 12.8131 85.264 12.9253 85.2386 13.0378C85.2204 13.118 85.2021 13.1981 85.1837 13.2782C85.0779 13.7365 84.9755 14.1954 84.8806 14.6565C84.7927 15.0653 84.7487 15.2697 84.7028 15.4736C84.6569 15.6774 84.609 15.8808 84.5133 16.2876C84.4884 16.3935 84.4634 16.4994 84.4383 16.6053C84.3222 17.0958 84.2062 17.5864 84.1038 18.0806C83.9994 18.5923 83.8866 19.1016 83.77 19.6102C83.7474 19.7083 83.7249 19.8064 83.7024 19.9045C83.6707 20.045 83.6389 20.1855 83.6065 20.3259L83.5758 20.458C83.4964 20.8142 83.4032 21.1925 83.1746 21.4719C82.9177 21.7382 82.6262 21.8095 82.2818 21.8122L82.1527 21.8112C82.0077 21.8117 81.8626 21.812 81.7176 21.8114C81.614 21.811 81.5105 21.8107 81.4069 21.8107C81.1629 21.8109 80.9188 21.8107 80.6748 21.8098C80.4217 21.8089 80.1686 21.8083 79.9155 21.8086C79.696 21.8088 79.4765 21.8088 79.257 21.8085C79.1524 21.8083 79.0478 21.8081 78.9431 21.8079C78.7926 21.808 78.6421 21.808 78.4916 21.8074L78.3539 21.8067L78.2237 21.807L78.1043 21.8061L78.0008 21.8058C77.8332 21.785 77.756 21.7226 77.6469 21.5836C77.595 21.3641 77.5687 21.2528 77.5704 21.142C77.5721 21.028 77.6035 20.9146 77.6671 20.6845L77.7069 20.5448L77.7882 20.2504C77.8418 20.0591 77.8947 19.8675 77.9462 19.6754C77.9623 19.6151 77.9785 19.5549 77.9947 19.4946C78.0158 19.4165 78.0319 19.3569 78.0479 19.2974C78.0995 19.1058 78.1507 18.9141 78.3664 18.1058L78.4276 17.8765C78.5307 17.49 78.6338 17.1034 78.738 16.7172C78.7827 16.5514 78.8129 16.4394 78.843 16.3275C78.9056 16.0949 78.9677 15.8621 79.1588 15.146L79.22 14.9167C79.3231 14.5302 79.4263 14.1436 79.5304 13.7574C79.5752 13.5916 79.6054 13.4796 79.6355 13.3676C79.698 13.135 79.7601 12.9023 79.9513 12.1862L80.0125 11.9567C80.1156 11.5702 80.2187 11.1838 80.3229 10.7976C80.3676 10.6318 80.3978 10.5198 80.4279 10.4078C80.4905 10.1752 80.5526 9.94251 80.7437 9.22639L80.8949 8.66004C80.9788 8.3459 81.063 8.03187 81.1478 7.71802C81.1954 7.54211 81.2425 7.36608 81.2882 7.18956L81.3027 7.13328C81.349 6.95328 81.3952 6.77354 81.4497 6.59618C81.5322 6.3364 81.6035 6.07587 81.6681 5.81021L81.6714 5.79662C81.759 5.43625 81.8459 5.07901 81.9756 4.73331L82.0367 4.58176C82.376 3.73893 82.7437 2.8979 83.4919 2.40447Z" fill="white"/>
</svg>
