<svg width="410" height="460" viewBox="0 0 410 460" fill="none" xmlns="http://www.w3.org/2000/svg">
<path d="M368.462 423.346H341.37V423.55H368.462V423.346Z" fill="#EBEBEB"/>
<path d="M271.384 425.571H264.275V425.775H271.384V425.571Z" fill="#EBEBEB"/>
<path d="M340.553 415.755H324.855V415.96H340.553V415.755Z" fill="#EBEBEB"/>
<path d="M78.691 417.129H43.3623V417.334H78.691V417.129Z" fill="#EBEBEB"/>
<path d="M91.1573 417.129H85.9795V417.334H91.1573V417.129Z" fill="#EBEBEB"/>
<path d="M184.62 420.581H107.991V420.786H184.62V420.581Z" fill="#EBEBEB"/>
<path d="M195.458 373.703H37.5056C34.929 373.703 32.835 371.608 32.835 369.032V147.007C32.835 144.43 34.929 142.336 37.5056 142.336H195.458C198.035 142.336 200.129 144.43 200.129 147.007V369.032C200.129 371.608 198.035 373.703 195.458 373.703ZM37.5056 142.541C35.0435 142.541 33.0395 144.545 33.0395 147.007V369.032C33.0395 371.494 35.0435 373.498 37.5056 373.498H195.458C197.92 373.498 199.924 371.494 199.924 369.032V147.007C199.924 144.545 197.92 142.541 195.458 142.541H37.5056Z" fill="#EBEBEB" fill-opacity="0.4"/>
<path d="M372.388 373.703H214.435C211.859 373.703 209.765 371.608 209.765 369.032V147.007C209.765 144.43 211.859 142.336 214.435 142.336H372.388C374.964 142.336 377.059 144.43 377.059 147.007V369.032C377.059 371.608 374.964 373.703 372.388 373.703ZM214.435 142.541C211.973 142.541 209.969 144.545 209.969 147.007V369.032C209.969 371.494 211.973 373.498 214.435 373.498H372.388C374.85 373.498 376.854 371.494 376.854 369.032V147.007C376.854 144.545 374.85 142.541 372.388 142.541H214.435Z" fill="#EBEBEB" fill-opacity="0.4"/>
<path d="M409.443 410.185H0.451172V410.389H409.443V410.185Z" fill="#EBEBEB" fill-opacity="0.4"/>
<g opacity="0.2">
<path d="M253.937 405.399H320.586V343.298H253.937V405.399Z" fill="#E6E6E6"/>
<path d="M309.984 410.324H318.491V407.354H309.984V410.324Z" fill="#E0E0E0"/>
<path d="M118.61 404.794H253.945V343.29H118.61V404.794Z" fill="#E6E6E6"/>
<path d="M95.9996 410.315H116.776L116.776 338.709H95.9996V410.315Z" fill="#E6E6E6"/>
<path d="M188.67 401.915H247.344V348.181H188.67V401.915Z" fill="#F5F5F5"/>
<path d="M255.572 401.915H314.246V348.181H255.572V401.915Z" fill="#F5F5F5"/>
<path d="M121.129 401.915H179.803V348.181H121.129V401.915Z" fill="#F5F5F5"/>
<path d="M116.679 338.717V410.324H121.219V408.63H318.483V410.324H323.023V338.717H116.679ZM318.483 371.142H256.137V345.417H318.483V371.142ZM256.137 401.923V374.979H318.483V401.923H256.137ZM188.678 345.425H251.605V401.923H188.678V345.425ZM121.219 374.979H184.146V401.923H121.219V374.979ZM121.219 345.425H184.146V371.15H121.219V345.425Z" fill="#F0F0F0"/>
<path d="M279.998 355.29H289.814C290.869 355.29 291.719 354.439 291.719 353.384C291.719 352.329 290.869 351.478 289.814 351.478H279.998C278.943 351.478 278.092 352.329 278.092 353.384C278.092 354.439 278.943 355.29 279.998 355.29Z" fill="#E6E6E6"/>
<path d="M197.112 378.954V369.138C197.112 368.083 196.261 367.232 195.206 367.232C194.151 367.232 193.3 368.083 193.3 369.138V378.954C193.3 380.009 194.151 380.86 195.206 380.86C196.261 380.86 197.112 380.009 197.112 378.954Z" fill="#E6E6E6"/>
<path d="M279.998 382.831H289.814C290.869 382.831 291.719 381.98 291.719 380.925C291.719 379.87 290.869 379.019 289.814 379.019H279.998C278.943 379.019 278.092 379.87 278.092 380.925C278.092 381.98 278.943 382.831 279.998 382.831Z" fill="#E6E6E6"/>
<path d="M145.562 355.29H155.378C156.433 355.29 157.284 354.439 157.284 353.384C157.284 352.329 156.433 351.478 155.378 351.478H145.562C144.507 351.478 143.656 352.329 143.656 353.384C143.656 354.439 144.507 355.29 145.562 355.29Z" fill="#E6E6E6"/>
<path d="M145.562 382.831H155.378C156.433 382.831 157.284 381.98 157.284 380.925C157.284 379.87 156.433 379.019 155.378 379.019H145.562C144.507 379.019 143.656 379.87 143.656 380.925C143.656 381.98 144.507 382.831 145.562 382.831Z" fill="#E6E6E6"/>
</g>
<g opacity="0.2">
<path d="M58.4783 408.908H77.8809L77.8809 227.529H58.4783L58.4783 408.908Z" fill="#E0E0E0"/>
<path d="M43.3623 225.942V410.504H58.4786V225.942H43.3623Z" fill="#E6E6E6"/>
<path d="M77.1533 225.942V410.504H92.2696V225.942H77.1533Z" fill="#E6E6E6"/>
<path d="M56.6631 225.942V410.504H94.8302V225.942H56.6631ZM91.2065 229.124V262.22H60.2868V229.124H91.2065ZM60.2868 334.767V301.671H91.2065V334.767H60.2868ZM91.2065 337.948V371.044H60.2868V337.948H91.2065ZM60.2868 298.489V265.393H91.2065V298.489H60.2868ZM60.2868 407.313V374.218H91.2065V407.313H60.2868Z" fill="#F5F5F5"/>
<path d="M75.5335 236.838H71.0264V262.514H75.5335V236.838Z" fill="#EBEBEB"/>
<path d="M71.0266 236.838H67.542V262.514H71.0266V236.838Z" fill="#E6E6E6"/>
<path d="M82.5024 237.451H75.5332V262.522H82.5024V237.451Z" fill="#E0E0E0"/>
<path d="M85.9875 237.451H82.5029V262.522H85.9875V237.451Z" fill="#EBEBEB"/>
<path d="M65.2106 237.451H60.5645V262.522H65.2106V237.451Z" fill="#EBEBEB"/>
<path d="M67.5418 237.451H65.2188V262.522H67.5418V237.451Z" fill="#FAFAFA"/>
<path d="M71.0261 298.473H75.5332V272.796H71.0261V298.473Z" fill="#E6E6E6"/>
<path d="M75.5339 298.473H79.0186V272.796H75.5339V298.473Z" fill="#EBEBEB"/>
<path d="M64.0572 298.481H71.0264V273.41H64.0572V298.481Z" fill="#EBEBEB"/>
<path d="M60.572 298.481H64.0566V273.41H60.572V298.481Z" fill="#E0E0E0"/>
<path d="M81.35 298.481H85.9961V273.41H81.35V298.481Z" fill="#EBEBEB"/>
<path d="M79.0187 298.481H81.3418V273.41H79.0187V298.481Z" fill="#F0F0F0"/>
<path d="M71.0261 335.069H75.5332V309.393H71.0261V335.069Z" fill="#E6E6E6"/>
<path d="M75.5339 335.069H79.0186V309.393H75.5339V335.069Z" fill="#EBEBEB"/>
<path d="M64.0572 335.069H71.0264V309.998H64.0572V335.069Z" fill="#EBEBEB"/>
<path d="M60.572 335.069H64.0566V309.998H60.572V335.069Z" fill="#E0E0E0"/>
<path d="M81.35 335.069H85.9961V309.998H81.35V335.069Z" fill="#EBEBEB"/>
<path d="M79.0187 335.069H81.3418V309.998H79.0187V335.069Z" fill="#F0F0F0"/>
<path d="M75.5335 345.981H71.0264V371.658H75.5335V345.981Z" fill="#EBEBEB"/>
<path d="M71.0266 345.981H67.542V371.658H71.0266V345.981Z" fill="#E6E6E6"/>
<path d="M82.5024 345.981H75.5332V371.052H82.5024V345.981Z" fill="#E0E0E0"/>
<path d="M85.9875 345.981H82.5029V371.052H85.9875V345.981Z" fill="#EBEBEB"/>
<path d="M65.2106 345.981H60.5645V371.052H65.2106V345.981Z" fill="#EBEBEB"/>
<path d="M67.5418 345.981H65.2188V371.052H67.5418V345.981Z" fill="#FAFAFA"/>
<path d="M71.0261 408.254H75.5332V382.578H71.0261V408.254Z" fill="#E6E6E6"/>
<path d="M75.5339 408.254H79.0186V382.578H75.5339V408.254Z" fill="#EBEBEB"/>
<path d="M64.0572 407.649H71.0264V382.578H64.0572V407.649Z" fill="#EBEBEB"/>
<path d="M60.572 407.649H64.0566V382.578H60.572V407.649Z" fill="#E0E0E0"/>
<path d="M81.35 407.649H85.9961V382.578H81.35V407.649Z" fill="#FAFAFA"/>
<path d="M79.0187 407.649H81.3418V382.578H79.0187V407.649Z" fill="#F0F0F0"/>
</g>
<path d="M334.908 372.148C334.826 372.238 335.268 372.844 333.484 372.582C329.1 371.919 321.468 370.144 319.342 365.637C316.307 359.2 325.714 361.547 325.386 358.259C325.059 354.971 314.36 355.543 313.223 350.717C312.086 345.891 319.35 348.19 319.44 345.834C319.538 343.478 311.17 344.942 309.509 339.732C307.849 334.521 314.172 338.357 313.444 336.19C312.716 334.022 305.64 324.231 309.493 323.094C313.346 321.957 319.832 332.01 322.335 333.433C324.838 334.856 327.063 326.652 330.049 330.12C333.035 333.58 328.298 345.703 332.102 348.059C334.94 349.809 334.139 344.983 337.877 345.883C342.957 347.11 341.247 365.048 334.9 372.157L334.908 372.148Z" fill="#EBEBEB"/>
<path d="M321.378 345.85C323.104 345.997 324.372 346.349 325.165 346.627C323.619 344.361 322.507 343.208 322.474 343.167C322.351 343.036 322.351 342.832 322.474 342.709C322.605 342.586 322.809 342.586 322.932 342.709C322.965 342.742 325.525 345.376 328.331 350.537C329.705 342.235 326.229 334.971 326.196 334.897C326.139 334.775 326.188 334.627 326.31 334.57C326.433 334.513 326.58 334.562 326.638 334.685C326.678 334.767 330.392 342.513 328.707 351.224C329.157 352.083 329.607 352.991 330.057 353.973C331.349 356.811 332.691 360.443 333.762 364.827C334.498 363.494 336.2 359.911 336.347 354.913C336.347 354.783 336.462 354.676 336.601 354.676C336.74 354.684 336.838 354.791 336.838 354.93C336.666 360.713 334.449 364.664 333.934 365.506C335.341 371.584 336.192 379.068 335.586 387.886C335.57 388.066 335.423 388.197 335.243 388.189C335.226 388.189 335.218 388.189 335.202 388.189C335.046 388.156 334.932 388.017 334.94 387.845C335.742 376.173 333.999 366.791 331.586 359.69C330.973 358.979 329.165 357.163 326.4 356.738C326.278 356.705 326.179 356.59 326.196 356.459C326.22 356.329 326.343 356.239 326.474 356.255C328.658 356.598 330.253 357.727 331.202 358.603C329.419 353.67 327.349 349.916 325.664 347.347C325.124 347.102 323.644 346.529 321.353 346.333C321.222 346.316 321.116 346.202 321.133 346.071C321.141 345.94 321.263 345.834 321.394 345.85H321.378Z" fill="#F5F5F5"/>
<path d="M340.528 374.635C344.168 374.7 350.393 371.322 352.831 368.034C355.309 364.697 348.34 366.766 349.052 364.14C349.772 361.515 358.36 363.453 359.947 359.699C361.534 355.944 355.334 356.803 355.579 354.889C355.825 352.967 362.246 353.359 364.315 349.368C366.377 345.376 360.724 347.609 361.616 345.957C362.499 344.304 369.583 337.335 366.622 335.887C363.661 334.439 357.019 341.687 354.794 342.496C352.569 343.306 352.046 338.3 349.158 340.689C346.262 343.085 348.43 353.556 345.019 354.938C342.483 355.969 343.563 351.175 340.635 352.386C335.522 354.504 339.048 374.602 340.528 374.627V374.635Z" fill="#E0E0E0"/>
<g opacity="0.3">
<path d="M340.528 374.635C344.168 374.7 350.393 371.322 352.831 368.034C355.309 364.697 348.34 366.766 349.052 364.14C349.772 361.515 358.36 363.453 359.947 359.699C361.534 355.944 355.334 356.803 355.579 354.889C355.825 352.967 362.246 353.359 364.315 349.368C366.377 345.376 360.724 347.609 361.616 345.957C362.499 344.304 369.583 337.335 366.622 335.887C363.661 334.439 357.019 341.687 354.794 342.496C352.569 343.306 352.046 338.3 349.158 340.689C346.262 343.085 348.43 353.556 345.019 354.938C342.483 355.969 343.563 351.175 340.635 352.386C335.522 354.504 339.048 374.602 340.528 374.627V374.635Z" fill="#EBEBEB"/>
</g>
<path d="M341.73 370.259C341.681 370.234 341.632 370.21 341.6 370.152C341.518 369.989 339.522 366.128 339.964 360.386C339.972 360.255 340.086 360.157 340.225 360.165C340.356 360.173 340.463 360.296 340.446 360.427C340.07 365.269 341.518 368.819 341.919 369.703C343.546 365.277 345.501 361.343 347.465 357.973C346.818 350.153 350.826 343.748 350.867 343.683C350.941 343.568 351.088 343.535 351.203 343.609C351.317 343.683 351.35 343.83 351.276 343.944C351.235 344.002 347.555 349.891 347.898 357.22C352.569 349.4 357.125 344.86 357.215 344.77C357.346 344.648 357.55 344.648 357.673 344.77C357.796 344.901 357.796 345.106 357.673 345.229C357.599 345.302 354.36 348.541 350.565 354.218C352.79 353.392 355.194 352.958 357.452 353.008C357.583 353.008 357.698 353.122 357.689 353.253C357.689 353.384 357.575 353.49 357.444 353.49C355.031 353.449 352.438 353.948 350.098 354.922C348.798 356.918 347.44 359.208 346.131 361.735C347.383 360.893 349.812 359.715 352.929 360.541C353.06 360.574 353.133 360.705 353.1 360.836C353.068 360.967 352.937 361.048 352.806 361.007C348.863 359.969 346.082 362.324 345.624 362.742C342.05 369.932 338.974 379.028 338.565 389.44C338.565 389.612 338.418 389.751 338.238 389.751H338.221C338.041 389.751 337.902 389.596 337.91 389.416C338.189 382.365 339.677 375.919 341.714 370.242L341.73 370.259Z" fill="#F5F5F5"/>
<path d="M330.278 410.209C326.802 403.673 324.52 394.226 324.52 390.087C324.52 386.586 326.164 383.445 328.765 381.244H346.564C349.165 383.445 350.81 386.586 350.81 390.087C350.81 394.226 348.527 403.673 345.051 410.209H330.278Z" fill="#F0F0F0"/>
<path d="M299.8 283.185C299.8 282.972 299.792 282.759 299.775 282.555L301.01 281.868C300.912 281.279 300.757 280.706 300.552 280.158L299.137 280.183C298.957 279.798 298.753 279.43 298.507 279.086L299.235 277.884C298.859 277.418 298.442 277.001 297.976 276.624L296.773 277.352C296.43 277.107 296.062 276.902 295.677 276.722L295.702 275.307C295.154 275.103 294.581 274.947 293.992 274.849L293.305 276.084C293.1 276.068 292.888 276.06 292.675 276.06C292.462 276.06 292.25 276.06 292.045 276.084L291.358 274.849C290.769 274.947 290.197 275.103 289.649 275.307L289.673 276.722C289.289 276.902 288.921 277.107 288.577 277.352L287.366 276.624C286.908 277.001 286.491 277.418 286.115 277.884L286.843 279.086C286.597 279.43 286.385 279.798 286.213 280.183L284.798 280.158C284.593 280.706 284.43 281.279 284.34 281.868L285.575 282.555C285.559 282.759 285.542 282.972 285.542 283.185C285.542 283.397 285.559 283.61 285.575 283.814L284.34 284.501C284.43 285.09 284.593 285.663 284.798 286.211L286.213 286.187C286.385 286.571 286.597 286.939 286.843 287.283L286.115 288.493C286.491 288.951 286.908 289.368 287.366 289.745L288.577 289.017C288.921 289.262 289.289 289.475 289.673 289.647L289.649 291.062C290.197 291.266 290.769 291.43 291.358 291.52L292.045 290.285C292.25 290.301 292.462 290.317 292.675 290.317C292.888 290.317 293.1 290.301 293.305 290.285L293.992 291.52C294.581 291.43 295.154 291.266 295.702 291.062L295.677 289.647C296.062 289.475 296.43 289.262 296.773 289.017L297.976 289.745C298.442 289.368 298.859 288.951 299.235 288.493L298.507 287.283C298.753 286.939 298.957 286.571 299.137 286.187L300.552 286.211C300.757 285.663 300.912 285.09 301.01 284.501L299.775 283.814C299.792 283.61 299.8 283.397 299.8 283.185ZM292.675 288.027C290 288.027 287.833 285.859 287.833 283.185C287.833 280.51 290 278.342 292.675 278.342C295.35 278.342 297.518 280.51 297.518 283.185C297.518 285.859 295.35 288.027 292.675 288.027Z" fill="#F0F0F0"/>
<path d="M290.524 300.665C290.524 300.346 290.508 300.035 290.483 299.724L292.324 298.693C292.185 297.81 291.956 296.951 291.637 296.133L289.534 296.174C289.264 295.602 288.945 295.053 288.586 294.538L289.673 292.73C289.117 292.043 288.487 291.413 287.792 290.857L285.984 291.937C285.477 291.577 284.929 291.266 284.357 290.996L284.389 288.886C283.571 288.575 282.721 288.338 281.829 288.199L280.807 290.047C280.496 290.015 280.177 289.998 279.858 289.998C279.539 289.998 279.228 290.015 278.917 290.047L277.894 288.199C277.003 288.338 276.152 288.575 275.334 288.886L275.367 290.996C274.794 291.266 274.246 291.577 273.739 291.937L271.923 290.857C271.236 291.413 270.606 292.043 270.05 292.73L271.138 294.538C270.778 295.053 270.459 295.602 270.189 296.174L268.079 296.133C267.768 296.951 267.531 297.81 267.392 298.693L269.24 299.724C269.216 300.035 269.199 300.346 269.199 300.665C269.199 300.984 269.216 301.295 269.24 301.606L267.392 302.636C267.531 303.52 267.768 304.378 268.079 305.196L270.189 305.156C270.459 305.736 270.778 306.276 271.138 306.792L270.05 308.599C270.606 309.286 271.236 309.916 271.923 310.472L273.739 309.393C274.246 309.753 274.794 310.072 275.367 310.333L275.334 312.444C276.152 312.755 277.003 312.992 277.894 313.131L278.917 311.282C279.228 311.315 279.547 311.331 279.858 311.331C280.168 311.331 280.496 311.315 280.807 311.282L281.829 313.131C282.721 312.992 283.571 312.755 284.389 312.444L284.357 310.333C284.929 310.072 285.477 309.753 285.984 309.393L287.792 310.472C288.487 309.916 289.117 309.286 289.673 308.599L288.586 306.792C288.945 306.276 289.264 305.736 289.534 305.156L291.637 305.196C291.956 304.378 292.185 303.52 292.324 302.636L290.483 301.606C290.508 301.295 290.524 300.984 290.524 300.665ZM279.858 304.869C277.543 304.869 275.661 302.988 275.661 300.665C275.661 298.342 277.543 296.46 279.858 296.46C282.173 296.46 284.062 298.342 284.062 300.665C284.062 302.988 282.181 304.869 279.858 304.869Z" fill="#F0F0F0"/>
<path d="M124.915 268.24H115.279C111.819 268.24 109.014 271.046 109.014 274.506V284.133C109.014 287.593 111.819 290.399 115.279 290.399H124.915C128.375 290.399 131.181 287.593 131.181 284.133V274.506C131.181 271.046 128.375 268.24 124.915 268.24ZM120.097 286.203C120.097 286.203 114.887 280.534 114.887 277.655C114.887 274.776 117.218 272.444 120.097 272.444C122.977 272.444 125.308 274.776 125.308 277.655C125.308 280.534 120.097 286.203 120.097 286.203Z" fill="#F0F0F0"/>
<path d="M120.097 275.275C118.78 275.275 117.717 276.338 117.717 277.655C117.717 278.972 118.78 280.035 120.097 280.035C121.414 280.035 122.477 278.972 122.477 277.655C122.477 276.338 121.414 275.275 120.097 275.275Z" fill="#F0F0F0"/>
<path d="M95.4031 189.689H106.29C109.71 189.689 112.483 192.462 112.483 195.881V206.769C112.483 210.188 109.71 212.961 106.29 212.961H95.4031C91.9839 212.961 89.2109 210.188 89.2109 206.769V195.881C89.2109 192.462 91.9839 189.689 95.4031 189.689Z" fill="#F0F0F0"/>
<path d="M103.452 197.624V200.904C103.452 202.261 102.348 203.358 100.998 203.358H97.8733L94.2987 206.932V203.358C92.9408 203.358 91.8447 202.253 91.8447 200.904V197.624C91.8447 196.266 92.949 195.17 94.2987 195.17H100.998C102.356 195.17 103.452 196.274 103.452 197.624Z" fill="white"/>
<path d="M109.856 202.564V205.083C109.856 206.131 109.005 206.973 107.967 206.973V209.721L105.218 206.973H102.813C101.766 206.973 100.924 206.131 100.924 205.083V202.564C100.924 201.517 101.766 200.675 102.813 200.675H107.967C109.014 200.675 109.856 201.525 109.856 202.564Z" fill="white"/>
<path d="M100.859 197.828H94.7898C94.6344 197.828 94.5117 197.705 94.5117 197.55C94.5117 197.394 94.6344 197.272 94.7898 197.272H100.859C101.015 197.272 101.137 197.394 101.137 197.55C101.137 197.705 101.015 197.828 100.859 197.828Z" fill="#EBEBEB"/>
<path d="M100.859 199.243H94.7898C94.6344 199.243 94.5117 199.12 94.5117 198.965C94.5117 198.81 94.6344 198.687 94.7898 198.687H100.859C101.015 198.687 101.137 198.81 101.137 198.965C101.137 199.12 101.015 199.243 100.859 199.243Z" fill="#EBEBEB"/>
<path d="M99.166 200.658H94.7898C94.6344 200.658 94.5117 200.536 94.5117 200.38C94.5117 200.225 94.6344 200.102 94.7898 200.102H99.166C99.3215 200.102 99.4442 200.225 99.4442 200.38C99.4442 200.536 99.3215 200.658 99.166 200.658Z" fill="#EBEBEB"/>
<path d="M318.892 181.583H314.197C310.777 181.583 308.004 178.81 308.004 175.391V170.696C308.004 167.276 310.777 164.503 314.197 164.503H318.892C322.311 164.503 325.084 167.276 325.084 170.696V175.391C325.084 178.81 322.311 181.583 318.892 181.583Z" fill="#F0F0F0"/>
<path d="M314.63 170.327V172.732C314.63 173.73 315.44 174.54 316.429 174.54H318.728L321.354 177.166V174.54C322.352 174.54 323.153 173.73 323.153 172.732V170.327C323.153 169.329 322.343 168.528 321.354 168.528H316.438C315.44 168.528 314.638 169.338 314.638 170.327H314.63Z" fill="white"/>
<path d="M309.927 173.951V175.8C309.927 176.569 310.548 177.19 311.317 177.19V179.211L313.338 177.19H315.105C315.874 177.19 316.495 176.569 316.495 175.8V173.951C316.495 173.182 315.874 172.561 315.105 172.561H311.317C310.548 172.561 309.927 173.182 309.927 173.951Z" fill="white"/>
<path d="M316.537 170.475H320.986C321.101 170.475 321.191 170.385 321.191 170.27C321.191 170.156 321.101 170.066 320.986 170.066H316.537C316.422 170.066 316.332 170.156 316.332 170.27C316.332 170.385 316.422 170.475 316.537 170.475Z" fill="#EBEBEB"/>
<path d="M316.537 171.514H320.986C321.101 171.514 321.191 171.424 321.191 171.309C321.191 171.194 321.101 171.105 320.986 171.105H316.537C316.422 171.105 316.332 171.194 316.332 171.309C316.332 171.424 316.422 171.514 316.537 171.514Z" fill="#EBEBEB"/>
<path d="M317.78 172.552H320.994C321.109 172.552 321.199 172.462 321.199 172.348C321.199 172.233 321.109 172.143 320.994 172.143H317.78C317.665 172.143 317.575 172.233 317.575 172.348C317.575 172.462 317.665 172.552 317.78 172.552Z" fill="#EBEBEB"/>
<g opacity="0.2">
<path d="M204.946 449.631C292.538 449.631 363.545 445.485 363.545 440.372C363.545 435.258 292.538 431.112 204.946 431.112C117.355 431.112 46.3477 435.258 46.3477 440.372C46.3477 445.485 117.355 449.631 204.946 449.631Z" fill="#F5F5F5"/>
</g>
<path d="M145.192 236.77L138.775 234.906C138.158 234.687 137.51 234.558 136.853 234.498L132.548 234.319L129.031 232.854C128.194 232.336 127.098 232.874 126.999 233.86L126.77 236.232C126.72 236.71 126.939 237.178 127.328 237.457L132.509 241.084L139.752 239.868L146.258 243.007L147.025 237.367L145.192 236.78V236.77Z" fill="#FFB7B3"/>
<path d="M258.215 238.523L264.711 236.939C265.339 236.75 265.986 236.64 266.644 236.61H270.948L274.525 235.295C275.382 234.807 276.458 235.395 276.507 236.381L276.637 238.762C276.667 239.24 276.428 239.699 276.019 239.958L270.679 243.365L263.495 241.841L256.86 244.7L256.342 239.031L258.195 238.523H258.215Z" fill="#FFB7B3"/>
<path d="M185.602 419.117L184.068 433.215L176.366 432.398L177.153 417.025L185.602 419.117Z" fill="#FFB7B3"/>
<path d="M172.74 432.538C171.774 432.468 170.777 432.209 170.488 431.771C170.339 431.512 170.369 431.193 170.558 430.964C170.708 430.754 170.927 430.615 171.176 430.575C172.501 430.316 175.111 432.07 175.221 432.149C175.281 432.189 175.311 432.269 175.301 432.349C175.281 432.428 175.221 432.478 175.141 432.488C174.344 432.568 173.537 432.588 172.74 432.528V432.538ZM171.614 430.924C171.495 430.914 171.375 430.924 171.256 430.944C171.096 430.954 170.957 431.043 170.877 431.173C170.728 431.392 170.767 431.512 170.807 431.571C171.126 432.109 173.099 432.269 174.563 432.199C173.667 431.591 172.67 431.163 171.614 430.924Z" fill="#265787"/>
<path d="M175.112 432.488C175.112 432.488 175.062 432.488 175.032 432.478C174.136 431.99 172.382 430.167 172.611 429.3C172.651 429.091 172.82 428.842 173.339 428.832C173.717 428.822 174.076 428.961 174.345 429.22C175.281 430.107 175.331 432.229 175.331 432.329C175.331 432.398 175.291 432.458 175.232 432.488C175.192 432.508 175.142 432.508 175.102 432.488H175.112ZM173.438 429.19L173.329 429.17C172.99 429.17 172.96 429.31 172.94 429.35C172.85 429.878 173.986 431.293 174.903 431.93C174.873 431.043 174.574 430.177 174.046 429.459C173.877 429.29 173.657 429.19 173.428 429.18L173.438 429.19Z" fill="#265787"/>
<path d="M176.018 431.462L184.537 432.1C184.855 432.119 185.114 432.369 185.164 432.687L186.181 439.731C186.28 440.359 185.842 440.937 185.224 441.037C185.144 441.047 185.065 441.057 184.985 441.047C181.916 440.768 179.206 440.389 175.38 440.11C170.867 439.771 171.973 440.399 166.672 440.08C163.474 439.881 163.165 436.204 164.53 436.135C170.787 435.816 171.574 433.993 174.125 431.96C174.673 431.571 175.35 431.402 176.018 431.482V431.462Z" fill="#263238"/>
<path opacity="0.2" d="M176.715 425.554L182.464 425.334L184.816 426.321L184.497 429.29L176.536 428.822L176.715 425.554Z" fill="black"/>
<path d="M205.13 277.091L190.364 365.455L186.778 427.417L175.21 427.218C175.21 427.218 171.344 396.73 173.347 360.404C175.15 327.595 182.782 289.226 183.629 278.287L187.913 270.734L196.422 271.8L205.13 277.091Z" fill="#265787"/>
<path d="M227.418 434.839L233.994 434.082C233.994 434.082 233.804 431.372 233.476 426.998C233.406 426.022 233.326 424.966 233.247 423.84L225.694 425.185H225.595C225.625 425.364 225.655 425.534 225.684 425.693C225.854 426.58 226.013 427.407 226.153 428.184C226.93 432.289 227.418 434.829 227.418 434.829V434.839Z" fill="#FFB7B3"/>
<path d="M235.24 431.751C235.16 431.751 235.09 431.701 235.07 431.621C235.04 431.552 235.07 431.462 235.13 431.412C235.24 431.322 237.681 429.34 239.036 429.479C239.285 429.499 239.524 429.619 239.683 429.808C239.893 430.017 239.952 430.336 239.833 430.605C239.584 431.073 238.617 431.412 237.661 431.571C236.864 431.701 236.067 431.751 235.26 431.741L235.24 431.751ZM235.788 431.412C237.252 431.352 239.205 431.013 239.484 430.456C239.524 430.386 239.554 430.266 239.384 430.057C239.285 429.937 239.135 429.858 238.986 429.858C238.866 429.848 238.747 429.858 238.627 429.868C237.591 430.197 236.635 430.715 235.798 431.402L235.788 431.412Z" fill="#265787"/>
<path d="M235.14 431.751C235.08 431.721 235.04 431.661 235.03 431.601C235.03 431.502 234.891 429.38 235.737 428.413C235.977 428.124 236.335 427.955 236.704 427.935C237.212 427.905 237.421 428.134 237.471 428.333C237.78 429.18 236.196 431.163 235.339 431.721C235.319 431.741 235.289 431.741 235.259 431.741C235.219 431.761 235.179 431.761 235.13 431.751H235.14ZM236.644 428.294C236.415 428.333 236.196 428.443 236.046 428.632C235.578 429.389 235.359 430.276 235.409 431.173C236.275 430.446 237.272 428.931 237.142 428.423C237.122 428.383 237.073 428.254 236.744 428.274L236.644 428.303V428.294Z" fill="#265787"/>
<path d="M233.775 430.954L227.06 432C226.741 432.05 226.502 432.319 226.482 432.638L226.093 439.761C226.053 440.389 226.532 440.937 227.169 440.977C227.249 440.977 227.329 440.977 227.408 440.967C230.447 440.409 231.394 440.15 235.19 439.532C239.663 438.795 238.617 439.522 243.888 438.725C247.066 438.247 247.046 434.55 245.671 434.59C239.394 434.829 234.442 430.824 233.785 430.964L233.775 430.954Z" fill="#263238"/>
<path opacity="0.2" d="M226.153 428.194L233.476 427.008C233.406 426.032 233.326 424.976 233.247 423.85L225.694 425.195V425.703C225.854 426.59 226.013 427.417 226.153 428.194Z" fill="black"/>
<path opacity="0.2" d="M201.594 297.615L197.648 321.228C196.463 304.321 198.047 284.135 198.047 284.135L201.594 297.615Z" fill="black"/>
<path d="M217.804 274.879C217.804 274.879 227.189 343.078 230.686 360.613C233.795 376.196 234.363 425.484 234.363 425.484L224.071 426.64C224.071 426.64 218.192 399.52 216.249 380.45C215.572 373.794 215.761 368.215 215.153 364.788C214.346 360.264 188.103 287.234 192.995 275.706L217.814 274.889L217.804 274.879Z" fill="#265787"/>
<path d="M183.211 265.743C183.5 262.684 183.699 259.695 183.46 256.856C181.099 228.659 180.252 226.956 180.501 221.994C180.541 221.107 181.129 220.33 181.965 220.041C201.474 213.406 216.648 216.554 221.051 219.035C226.92 222.343 224.578 225.88 224.509 226.886C223.941 235.235 219.348 250.738 219.238 264.298C219.218 266.291 219.437 271.073 219.567 273.723C219.617 274.799 218.879 275.746 217.833 275.965C213.449 276.872 194.27 277.121 190.663 277.001C187.236 276.892 184.974 276.682 183.52 276.483C182.264 276.314 181.427 275.098 181.696 273.863C182.234 271.402 183.041 267.516 183.211 265.753V265.743Z" fill="#263238"/>
<path d="M206.674 202.865C205.927 207.228 206.236 213.645 209.354 216.474C209.354 216.474 209.294 220.918 197.089 226.019C192.486 219.762 195.764 216.803 195.764 216.803C200.606 215.528 199.431 213.535 198.504 210.168L206.674 202.855V202.865Z" fill="#FFB7B3"/>
<path opacity="0.2" d="M203.367 205.804L198.564 210.168C198.794 210.945 198.953 211.752 199.043 212.559C200.906 212.25 203.785 210.596 204.134 208.564C204.114 207.597 203.845 206.641 203.367 205.804Z" fill="black"/>
<path d="M212.185 195.253C210.402 202.436 209.804 205.515 205.45 208.564C198.894 213.157 190.465 209.391 190.057 201.828C189.708 195.014 192.687 184.373 200.329 182.828C205.779 181.673 211.139 185.16 212.295 190.61C212.623 192.144 212.583 193.738 212.185 195.253Z" fill="#FFB7B3"/>
<path d="M199.729 194.316C199.61 194.904 199.211 195.332 198.833 195.263C198.454 195.193 198.215 194.645 198.325 194.057C198.424 193.469 198.843 193.041 199.221 193.111C199.6 193.18 199.799 193.748 199.729 194.316Z" fill="#263238"/>
<path d="M193.095 193.16C192.975 193.758 192.577 194.177 192.198 194.107C191.819 194.037 191.58 193.489 191.69 192.901C191.789 192.314 192.208 191.885 192.586 191.965C192.965 192.044 193.204 192.573 193.095 193.16Z" fill="#263238"/>
<path d="M195.436 195.253C194.658 196.508 193.712 197.644 192.626 198.64C193.164 199.188 193.901 199.467 194.668 199.427L195.436 195.253Z" fill="#E5A5A3"/>
<path d="M197.458 202.327C197.159 202.327 196.87 202.287 196.571 202.227C196.472 202.217 196.412 202.127 196.422 202.028C196.442 201.928 196.542 201.878 196.631 201.888C198.116 202.187 199.66 201.769 200.786 200.762C200.856 200.693 200.965 200.693 201.035 200.762C201.105 200.832 201.105 200.942 201.035 201.011C200.069 201.918 198.763 202.396 197.438 202.337L197.458 202.327Z" fill="#263238"/>
<path d="M202.869 193.419C202.72 193.439 202.57 193.37 202.5 193.22C201.863 192.244 200.846 191.586 199.701 191.387C199.501 191.357 199.372 191.178 199.402 190.978C199.432 190.789 199.611 190.66 199.8 190.689C199.8 190.689 199.8 190.689 199.81 190.689C201.195 190.909 202.401 191.726 203.138 192.911C203.218 193.081 203.138 193.29 202.969 193.37C202.969 193.37 202.899 193.399 202.869 193.399V193.419Z" fill="#263238"/>
<path d="M191.928 190.869C191.799 190.899 191.669 190.859 191.58 190.759C191.45 190.61 191.46 190.391 191.599 190.261C192.416 189.454 193.592 189.095 194.728 189.324C194.907 189.364 195.027 189.544 194.987 189.723C194.987 189.723 194.987 189.743 194.987 189.753C194.937 189.942 194.748 190.052 194.568 190.002C193.682 189.853 192.775 190.141 192.127 190.769C192.078 190.819 192.008 190.849 191.938 190.869H191.928Z" fill="#263238"/>
<path d="M210.689 216.026L209.404 215.817L202.26 219.702L200.049 219.782L195.804 216.175L194.389 216.514C193.064 220.599 192.805 224.963 193.642 229.178L196.043 241.233L198.554 254.424H198.604L199.142 253.209L201.135 248.666L203.864 243.485L208.846 230.812L210.261 225.591C211.108 222.472 211.257 219.204 210.689 216.026Z" fill="#263238"/>
<path opacity="0.2" d="M202.967 219.802C195.306 219.872 194.459 217.052 194.459 217.052V216.385C194.459 216.385 192.167 220.729 198.803 221.496C205.448 222.263 209.882 219.125 210.828 217.222C210.071 218.228 208.098 219.752 202.967 219.802Z" fill="black"/>
<path d="M211.904 185.369C211.556 184.243 211.177 183.058 210.3 182.261C209.424 181.473 207.889 181.284 207.132 182.191C205.996 180.716 203.745 179.909 201.891 180.059C200.038 180.208 198.295 181.344 197.398 182.978C196.501 184.612 193.712 185.2 191.858 185.389C193.074 186.605 196.083 187.402 197.587 186.545C197.219 187.123 195.535 187.431 194.857 187.501C196.003 188.099 197.189 188.697 198.474 188.786C199.759 188.876 201.184 188.318 201.702 187.133C201.114 188.049 201.284 189.324 202.021 190.122C202.758 190.919 204.063 191.128 205.01 190.6C204.362 190.371 204.024 189.813 204.043 189.135C204.063 188.458 204.542 187.81 205.199 187.611C205.249 188.448 205.797 189.454 206.465 189.972C207.122 190.48 207.7 190.689 208.108 191.417C208.517 192.144 208.039 193.908 206.724 193.788C207.321 194.416 209.703 194.187 209.992 193.37C209.543 195.502 208.268 197.185 206.385 198.281C206.923 198.262 207.252 198.451 207.77 198.58C208.288 198.71 208.786 199.009 209.045 199.487C209.394 200.145 209.185 200.952 208.955 201.659C208.358 203.512 207.63 205.316 206.803 207.079C209.244 206.342 211.207 204.758 212.174 202.396C214.475 201.659 216.059 199.248 215.85 196.847C216.926 195.801 217.962 194.356 218.112 192.861C218.261 191.367 217.315 189.693 215.82 189.494C216.328 188.238 216.099 186.983 215.282 185.907C214.465 184.831 212.99 184.562 211.904 185.369Z" fill="#263238"/>
<path d="M211.885 200.434C211.228 201.579 210.152 202.416 208.886 202.765C207.193 203.203 206.366 201.689 206.854 200.095C207.302 198.67 208.727 196.707 210.411 196.946C211.636 197.156 212.453 198.311 212.244 199.527C212.184 199.856 212.065 200.165 211.875 200.434H211.885Z" fill="#FFB7B3"/>
<path d="M208.657 195.302L203.755 194.466C203.347 193.21 201.583 192.911 200.826 192.782C200.049 192.652 198.176 192.333 197.418 193.539L195.705 193.25C195.386 191.865 193.513 191.546 192.736 191.407C191.819 191.247 189.398 190.839 189.049 192.921C188.77 194.575 190.036 196.169 191.879 196.478C193.722 196.787 195.446 195.701 195.725 194.057C195.745 193.937 195.755 193.828 195.755 193.728L197.219 193.977C197.189 194.077 197.159 194.187 197.139 194.296C196.86 195.95 198.126 197.544 199.969 197.853C201.812 198.162 203.536 197.076 203.815 195.432C203.845 195.263 203.845 195.103 203.845 194.954L208.587 195.761C209.235 195.87 209.823 196.209 210.251 196.697L210.6 196.398C210.102 195.821 209.414 195.432 208.657 195.302ZM191.959 196.02C190.374 195.751 189.268 194.396 189.508 192.991C189.697 191.855 190.643 191.516 192.666 191.855C194.688 192.194 195.466 192.832 195.266 193.967C195.027 195.362 193.543 196.279 191.959 196.01V196.02ZM200.039 197.395C198.455 197.126 197.349 195.771 197.588 194.366C197.777 193.23 198.724 192.891 200.746 193.23C202.769 193.579 203.546 194.206 203.347 195.342C203.107 196.737 201.623 197.654 200.039 197.385V197.395Z" fill="#263238"/>
<path d="M143.956 235.803C155.971 238.942 166.433 237.308 166.433 237.308C173.218 225.661 181.975 219.872 181.975 219.872L184.775 230.333C184.775 230.333 176.466 243.545 169.74 246.583C164.41 248.985 148.419 244.7 142.013 242.807C142.182 239.32 143.427 236.77 143.966 235.813L143.956 235.803Z" fill="#263238"/>
<path d="M259.918 236.989C247.832 239.858 237.411 238.005 237.411 238.005C230.875 226.209 222.256 220.231 222.256 220.231L219.228 230.622C219.228 230.622 227.248 244.013 233.903 247.191C239.184 249.712 255.255 245.766 261.711 244.023C261.621 240.526 260.426 237.955 259.908 236.989H259.918Z" fill="#263238"/>
<path d="M194.491 214.223L194.461 217.052C194.461 217.052 195.059 220.121 202.72 220.051C210.382 219.982 211.279 216.355 211.279 216.355L211.299 214.302C211.319 212.828 209.984 211.702 208.529 211.981C206.327 212.399 202.681 212.658 197.111 211.931C195.726 211.752 194.501 212.838 194.491 214.233V214.223Z" fill="#263238"/>
<path d="M261.905 172.42V157.943C261.905 151.763 256.9 146.744 250.707 146.744H224.06C217.88 146.744 212.861 141.739 212.861 135.546V124.361" stroke="black" stroke-opacity="0.88" stroke-width="1.64944" stroke-miterlimit="10"/>
<path d="M272.092 172.703H254.62C251.071 172.703 248.197 175.577 248.197 179.125V196.597C248.197 200.146 251.071 203.02 254.62 203.02H272.092C275.64 203.02 278.514 200.146 278.514 196.597V179.125C278.514 175.577 275.64 172.703 272.092 172.703Z" fill="#5CA25C"/>
<path d="M272.092 172.703H254.62C251.071 172.703 248.197 175.577 248.197 179.125V196.597C248.197 200.146 251.071 203.02 254.62 203.02H272.092C275.64 203.02 278.514 200.146 278.514 196.597V179.125C278.514 175.577 275.64 172.703 272.092 172.703Z" fill="#5CA25C"/>
<path d="M263.254 175.563C256.603 175.563 251.206 180.974 251.206 187.612C251.206 194.25 256.616 199.66 263.254 199.66C269.893 199.66 275.303 194.25 275.303 187.612C275.303 180.974 269.893 175.563 263.254 175.563ZM261.339 176.926C260.232 177.992 259.274 179.355 258.532 180.92H254.714C256.374 178.801 258.721 177.398 261.339 176.926ZM253.891 182.107H258.02C257.412 183.686 257.048 185.372 256.954 186.924L256.927 187.207H252.393C252.461 185.399 252.974 183.645 253.891 182.093V182.107ZM254.134 193.508C253.135 191.983 252.555 190.229 252.42 188.408H256.981C257.129 190.094 257.601 191.875 258.316 193.508H254.134ZM255.024 194.695H258.897C259.693 196.166 260.691 197.407 261.811 198.378C259.18 198.028 256.778 196.732 255.024 194.695ZM262.661 197.528C261.77 196.773 260.947 195.815 260.273 194.695H262.661V197.528ZM262.661 193.508H259.625C258.843 191.889 258.343 190.108 258.181 188.408H262.661V193.508ZM262.661 187.221H258.141C258.195 185.574 258.613 183.78 259.301 182.107H262.661V187.221ZM262.661 180.92H259.854C260.61 179.476 261.568 178.262 262.661 177.344V180.92ZM274.116 187.221H269.582V186.937H269.555C269.474 185.372 269.097 183.686 268.489 182.107H272.618C273.535 183.659 274.048 185.413 274.116 187.221ZM271.808 180.92H267.99C267.248 179.355 266.277 177.992 265.17 176.926C267.788 177.398 270.149 178.801 271.795 180.92H271.808ZM263.862 177.344C264.955 178.262 265.912 179.476 266.668 180.92H263.862V177.344ZM263.862 182.107H267.221C267.909 183.767 268.328 185.547 268.382 187.221H263.862V182.107ZM263.862 188.408H268.341C268.179 190.108 267.666 191.902 266.897 193.508H263.862V188.408ZM263.862 197.542V194.709H266.25C265.575 195.828 264.752 196.8 263.862 197.542ZM264.712 198.378C265.832 197.421 266.83 196.166 267.626 194.695H271.498C269.744 196.732 267.343 198.028 264.712 198.378ZM272.389 193.508H268.206C268.921 191.875 269.393 190.094 269.542 188.408H274.102C273.967 190.229 273.387 191.983 272.389 193.508Z" fill="white"/>
<path d="M241.57 124.361H305.145C311.325 124.361 316.344 129.366 316.344 135.559V150.036" stroke="black" stroke-opacity="0.88" stroke-width="1.64944" stroke-miterlimit="10"/>
<path d="M321.376 139.539H303.904C300.355 139.539 297.481 142.413 297.481 145.962V163.434C297.481 166.982 300.355 169.856 303.904 169.856H321.376C324.924 169.856 327.798 166.982 327.798 163.434V145.962C327.798 142.413 324.924 139.539 321.376 139.539Z" fill="#D97D3D"/>
<path d="M321.376 139.539H303.904C300.355 139.539 297.481 142.413 297.481 145.962V163.434C297.481 166.982 300.355 169.856 303.904 169.856H321.376C324.924 169.856 327.798 166.982 327.798 163.434V145.962C327.798 142.413 324.924 139.539 321.376 139.539Z" fill="#D97D3D"/>
<path opacity="0.9" d="M314.657 146.326C311.783 143.452 307.102 143.452 304.241 146.326C301.367 149.2 301.367 153.868 304.241 156.742C306.791 159.292 310.758 159.575 313.618 157.605C313.672 157.929 313.821 158.253 314.077 158.509L318.651 163.083C319.298 163.731 320.337 163.731 320.985 163.083C321.633 162.436 321.633 161.397 320.985 160.749L316.411 156.175C316.155 155.919 315.845 155.771 315.507 155.717C317.477 152.843 317.194 148.89 314.644 146.34L314.657 146.326ZM313.106 155.19C311.095 157.201 307.817 157.201 305.806 155.19C303.796 153.18 303.796 149.901 305.806 147.878C307.817 145.867 311.095 145.867 313.119 147.878C315.143 149.888 315.129 153.167 313.119 155.177L313.106 155.19Z" fill="white"/>
<path d="M240.061 101.384H321.445" stroke="black" stroke-opacity="0.88" stroke-width="1.64944" stroke-miterlimit="10"/>
<path d="M334.315 77.5568H316.843C313.295 77.5568 310.421 80.4306 310.421 83.979V101.451C310.421 105 313.295 107.874 316.843 107.874H334.315C337.864 107.874 340.738 105 340.738 101.451V83.979C340.738 80.4306 337.864 77.5568 334.315 77.5568Z" fill="#034F81"/>
<path d="M334.315 77.5568H316.843C313.295 77.5568 310.421 80.4306 310.421 83.979V101.451C310.421 105 313.295 107.874 316.843 107.874H334.315C337.864 107.874 340.738 105 340.738 101.451V83.979C340.738 80.4306 337.864 77.5568 334.315 77.5568Z" fill="#034F81"/>
<path d="M321.324 101.384C321.324 102.639 320.299 103.664 319.044 103.664C317.789 103.664 316.764 102.639 316.764 101.384C316.764 100.129 317.789 99.1037 319.044 99.1037C320.299 99.1037 321.324 100.129 321.324 101.384Z" fill="white"/>
<path d="M330.23 101.384C330.23 102.639 329.205 103.664 327.95 103.664C326.695 103.664 325.67 102.639 325.67 101.384C325.67 100.129 326.695 99.1037 327.95 99.1037C329.205 99.1037 330.23 100.129 330.23 101.384Z" fill="white"/>
<path d="M329.796 97.3363H316.547L313.768 88.1212H332.576L329.796 97.3363Z" fill="white"/>
<path d="M332.576 88.1211L333.642 84.4108C333.858 83.6687 334.533 83.156 335.302 83.156H337.393" fill="white"/>
<path d="M237.593 82.0091H264.118C270.298 82.0091 275.317 77.0035 275.317 70.8107V56.3336" stroke="black" stroke-opacity="0.88" stroke-width="1.64944" stroke-miterlimit="10"/>
<path d="M266.022 33.2352H284.587C287.865 33.2352 290.523 35.8932 290.523 39.1717V57.7369C290.523 61.0155 287.865 63.6734 284.587 63.6734H266.022C262.743 63.6734 260.085 61.0155 260.085 57.7369V39.1717C260.085 35.8932 262.743 33.2352 266.022 33.2352Z" fill="#5CA25C"/>
<path d="M266.022 33.2352H284.587C287.865 33.2352 290.523 35.8932 290.523 39.1717V57.7369C290.523 61.0155 287.865 63.6734 284.587 63.6734H266.022C262.743 63.6734 260.085 61.0155 260.085 57.7369V39.1717C260.085 35.8932 262.743 33.2352 266.022 33.2352Z" fill="#5CA25C"/>
<path d="M286.841 51.625C286.841 51.9489 286.814 53.0957 286.773 53.4195H276.371V48.4544H277.788L274.846 45.5131L271.905 48.4544H273.322V53.4195H263.553C263.526 53.2576 263.526 52.2592 263.526 52.0838C263.526 49.3719 265.604 47.1322 268.249 46.8893V46.6869C268.249 43.3139 270.988 40.5615 274.374 40.5615C277.113 40.5615 279.42 42.356 280.203 44.8385C280.58 44.8385 280.945 44.879 281.295 44.9464C284.453 45.5266 286.841 48.2925 286.841 51.625Z" fill="white"/>
<path d="M202.204 75.8298V48.1035" stroke="black" stroke-opacity="0.88" stroke-width="1.64944" stroke-miterlimit="10"/>
<path d="M210.946 21.6724H193.474C189.926 21.6724 187.052 24.5463 187.052 28.0947V45.567C187.052 49.1154 189.926 51.9892 193.474 51.9892H210.946C214.495 51.9892 217.369 49.1154 217.369 45.567V28.0947C217.369 24.5463 214.495 21.6724 210.946 21.6724Z" fill="#034F81"/>
<g opacity="0.4">
<path d="M210.946 21.6724H193.474C189.926 21.6724 187.052 24.5463 187.052 28.0947V45.567C187.052 49.1154 189.926 51.9892 193.474 51.9892H210.946C214.495 51.9892 217.369 49.1154 217.369 45.567V28.0947C217.369 24.5463 214.495 21.6724 210.946 21.6724Z" fill="#034F81"/>
</g>
<path d="M205.009 38.8074C205.036 38.605 205.049 38.4161 205.063 38.2137L206.304 37.728C206.304 37.1614 206.21 36.6082 206.088 36.0685L204.766 35.9201C204.645 35.5423 204.496 35.178 204.307 34.8272L205.13 33.7883C204.833 33.3161 204.496 32.8709 204.118 32.4661L202.904 32.9923C202.621 32.7225 202.297 32.4796 201.96 32.2637L202.162 30.955C201.676 30.6852 201.164 30.4693 200.624 30.3209L199.828 31.3867C199.639 31.3463 199.437 31.3058 199.248 31.2788C199.059 31.2518 198.856 31.2383 198.654 31.2248L198.168 29.9836C197.602 29.9836 197.048 30.078 196.509 30.1994L196.36 31.5217C195.983 31.6431 195.618 31.7915 195.267 31.9804L194.229 31.1574C193.756 31.4542 193.311 31.7915 192.906 32.1693L193.433 33.3836C193.163 33.6669 192.92 33.9907 192.704 34.328L191.395 34.1256C191.125 34.6114 190.91 35.1241 190.761 35.6637L191.827 36.4598C191.787 36.6487 191.746 36.851 191.719 37.0399C191.692 37.2423 191.679 37.4312 191.665 37.6336L190.424 38.1193C190.424 38.686 190.518 39.2391 190.64 39.7788L191.962 39.9272C192.083 40.305 192.232 40.6693 192.421 41.0201L191.598 42.059C191.894 42.5312 192.232 42.9765 192.61 43.3812L193.824 42.855C194.107 43.1249 194.431 43.3677 194.768 43.5836L194.566 44.8923C195.052 45.1622 195.564 45.3781 196.104 45.5265L196.9 44.4606C197.089 44.5011 197.291 44.5415 197.48 44.5685C197.683 44.5955 197.871 44.609 198.074 44.6225L198.56 45.8638C199.126 45.8638 199.679 45.7693 200.219 45.6479L200.368 44.3257C200.745 44.2042 201.11 44.0558 201.46 43.8669L202.499 44.69C202.971 44.3931 203.417 44.0558 203.821 43.6781L203.295 42.4638C203.565 42.1804 203.808 41.8566 204.024 41.5193L205.333 41.7217C205.602 41.236 205.818 40.7233 205.967 40.1836L204.901 39.3876C204.941 39.1987 204.982 38.9963 205.009 38.8074ZM198.02 40.5479C196.576 40.359 195.551 39.0233 195.753 37.5796C195.942 36.136 197.278 35.1106 198.721 35.3129C200.165 35.5018 201.191 36.8376 200.988 38.2812C200.799 39.7249 199.464 40.7503 198.02 40.5479Z" fill="white"/>
<path d="M205.009 38.8074C205.036 38.605 205.049 38.4161 205.063 38.2137L206.304 37.728C206.304 37.1614 206.21 36.6082 206.088 36.0685L204.766 35.9201C204.645 35.5423 204.496 35.178 204.307 34.8272L205.13 33.7883C204.833 33.3161 204.496 32.8709 204.118 32.4661L202.904 32.9923C202.621 32.7225 202.297 32.4796 201.96 32.2637L202.162 30.955C201.676 30.6852 201.164 30.4693 200.624 30.3209L199.828 31.3867C199.639 31.3463 199.437 31.3058 199.248 31.2788C199.059 31.2518 198.856 31.2383 198.654 31.2248L198.168 29.9836C197.602 29.9836 197.048 30.078 196.509 30.1994L196.36 31.5217C195.983 31.6431 195.618 31.7915 195.267 31.9804L194.229 31.1574C193.756 31.4542 193.311 31.7915 192.906 32.1693L193.433 33.3836C193.163 33.6669 192.92 33.9907 192.704 34.328L191.395 34.1256C191.125 34.6114 190.91 35.1241 190.761 35.6637L191.827 36.4598C191.787 36.6487 191.746 36.851 191.719 37.0399C191.692 37.2423 191.679 37.4312 191.665 37.6336L190.424 38.1193C190.424 38.686 190.518 39.2391 190.64 39.7788L191.962 39.9272C192.083 40.305 192.232 40.6693 192.421 41.0201L191.598 42.059C191.894 42.5312 192.232 42.9765 192.61 43.3812L193.824 42.855C194.107 43.1249 194.431 43.3677 194.768 43.5836L194.566 44.8923C195.052 45.1622 195.564 45.3781 196.104 45.5265L196.9 44.4606C197.089 44.5011 197.291 44.5415 197.48 44.5685C197.683 44.5955 197.871 44.609 198.074 44.6225L198.56 45.8638C199.126 45.8638 199.679 45.7693 200.219 45.6479L200.368 44.3257C200.745 44.2042 201.11 44.0558 201.46 43.8669L202.499 44.69C202.971 44.3931 203.417 44.0558 203.821 43.6781L203.295 42.4638C203.565 42.1804 203.808 41.8566 204.024 41.5193L205.333 41.7217C205.602 41.236 205.818 40.7233 205.967 40.1836L204.901 39.3876C204.941 39.1987 204.982 38.9963 205.009 38.8074ZM198.02 40.5479C196.576 40.359 195.551 39.0233 195.753 37.5796C195.942 36.136 197.278 35.1106 198.721 35.3129C200.165 35.5018 201.191 36.8376 200.988 38.2812C200.799 39.7249 199.464 40.7503 198.02 40.5479Z" fill="white"/>
<path d="M210.541 34.7058C209.974 34.7058 209.435 34.5709 208.962 34.328C207.842 33.7614 207.087 32.601 207.087 31.2653C207.087 29.9296 207.842 28.7693 208.962 28.2026V30.3748C208.962 30.8066 209.138 31.1979 209.421 31.4947C209.704 31.778 210.096 31.9534 210.527 31.9534C211.391 31.9534 212.106 31.2518 212.106 30.3748V28.2026C213.226 28.7693 213.981 29.9296 213.981 31.2653C213.981 32.601 213.226 33.7614 212.106 34.328C211.634 34.5844 211.094 34.7058 210.527 34.7058H210.541Z" fill="white"/>
<path d="M208.976 43.2868V33.7344C208.976 32.8709 209.677 32.1693 210.541 32.1693C211.404 32.1693 212.106 32.8709 212.106 33.7344V43.2868C212.106 44.1503 211.404 44.8519 210.541 44.8519C209.677 44.8519 208.976 44.1503 208.976 43.2868Z" fill="white"/>
<path d="M143.026 172.42V157.943C143.026 151.763 148.032 146.744 154.225 146.744H180.872C187.051 146.744 192.07 141.739 192.07 135.546V124.361" stroke="black" stroke-opacity="0.88" stroke-width="1.64944" stroke-miterlimit="10"/>
<path d="M151.096 170.72H133.623C130.075 170.72 127.201 173.594 127.201 177.142V194.614C127.201 198.163 130.075 201.037 133.623 201.037H151.096C154.644 201.037 157.518 198.163 157.518 194.614V177.142C157.518 173.594 154.644 170.72 151.096 170.72Z" fill="#034F81"/>
<g opacity="0.4">
<path d="M151.097 170.72H133.624C130.076 170.72 127.202 173.594 127.202 177.142V194.614C127.202 198.163 130.076 201.037 133.624 201.037H151.097C154.645 201.037 157.519 198.163 157.519 194.614V177.142C157.519 173.594 154.645 170.72 151.097 170.72Z" fill="#034F81"/>
</g>
<path d="M153.231 193.13C153.231 194.21 152.354 195.087 151.275 195.087C150.195 195.087 149.318 194.21 149.318 193.13C149.318 192.051 150.195 191.174 151.275 191.174C152.354 191.174 153.231 192.051 153.231 193.13Z" fill="white"/>
<path d="M144.568 193.13C144.568 194.21 143.691 195.087 142.612 195.087C141.532 195.087 140.655 194.21 140.655 193.13C140.655 192.051 141.532 191.174 142.612 191.174C143.691 191.174 144.568 192.051 144.568 193.13Z" fill="white"/>
<path d="M135.92 193.13C135.92 194.21 135.043 195.087 133.963 195.087C132.884 195.087 132.007 194.21 132.007 193.13C132.007 192.051 132.884 191.174 133.963 191.174C135.043 191.174 135.92 192.051 135.92 193.13Z" fill="white"/>
<path d="M151.717 189.825H133.409C131.643 189.825 130.211 191.256 130.211 193.022V193.238C130.211 195.004 131.643 196.436 133.409 196.436H151.717C153.483 196.436 154.915 195.004 154.915 193.238V193.022C154.915 191.256 153.483 189.825 151.717 189.825Z" stroke="white" stroke-width="1.48449" stroke-linecap="round" stroke-linejoin="round"/>
<path d="M151.543 190.391C150.868 190.391 150.329 189.852 150.329 189.177V185.332L142.584 177.304L138.186 178.748C137.552 178.963 136.864 178.613 136.648 177.979C136.432 177.344 136.783 176.656 137.417 176.44L142.544 174.754C142.989 174.605 143.475 174.727 143.799 175.064L152.42 183.996C152.636 184.225 152.757 184.522 152.757 184.833V189.163C152.757 189.838 152.218 190.378 151.543 190.378V190.391Z" fill="white"/>
<path d="M137.456 177.587V180.609" stroke="white" stroke-width="1.48449" stroke-linecap="round" stroke-linejoin="round"/>
<path d="M136.511 182.903C136.269 182.66 136.12 182.323 136.12 181.959C136.12 181.217 136.714 180.623 137.456 180.623C138.198 180.623 138.792 181.217 138.792 181.959C138.792 182.31 138.657 182.633 138.441 182.863" stroke="white" stroke-width="1.48449" stroke-linecap="round" stroke-linejoin="round"/>
<path d="M143.379 175.968C143.379 176.238 143.163 176.454 142.893 176.454C142.623 176.454 142.407 176.238 142.407 175.968C142.407 175.698 142.623 175.483 142.893 175.483C143.163 175.483 143.379 175.698 143.379 175.968Z" fill="#81ACC6"/>
<path d="M151.931 184.9C151.931 185.17 151.716 185.386 151.446 185.386C151.176 185.386 150.96 185.17 150.96 184.9C150.96 184.63 151.176 184.414 151.446 184.414C151.716 184.414 151.931 184.63 151.931 184.9Z" fill="#81ACC6"/>
<path opacity="0.4" d="M139.303 184.86H135.62V188.543H139.303V184.86Z" fill="white"/>
<path d="M167.594 124.361H104.019C97.8394 124.361 92.8203 129.366 92.8203 135.559V150.036" stroke="black" stroke-opacity="0.88" stroke-width="1.64944" stroke-miterlimit="10"/>
<path d="M102.077 139.337H84.6185C81.0716 139.337 78.1963 142.213 78.1963 145.759V163.218C78.1963 166.765 81.0716 169.64 84.6185 169.64H102.077C105.624 169.64 108.5 166.765 108.5 163.218V145.759C108.5 142.213 105.624 139.337 102.077 139.337Z" fill="#81ACC6"/>
<path d="M102.077 139.337H84.6185C81.0716 139.337 78.1963 142.213 78.1963 145.759V163.218C78.1963 166.765 81.0716 169.64 84.6185 169.64H102.077C105.624 169.64 108.5 166.765 108.5 163.218V145.759C108.5 142.213 105.624 139.337 102.077 139.337Z" fill="#D97D3D"/>
<path d="M87.1139 157.241H83.3496V164.487H87.1139V157.241Z" fill="white"/>
<path d="M97.7858 154.813H94.0215V164.5H97.7858V154.813Z" fill="white"/>
<path d="M92.2545 152.371H88.4902V164.5H92.2545V152.371Z" fill="white"/>
<path d="M103.143 149.929H99.3789V164.5H103.143V149.929Z" fill="white"/>
<path d="M154.79 82.009H128.265C122.085 82.009 117.066 77.0035 117.066 70.8106V56.3336" stroke="black" stroke-opacity="0.88" stroke-width="1.64944" stroke-miterlimit="10"/>
<path d="M128.332 31.8454H110.873C107.327 31.8454 104.451 34.7208 104.451 38.2677V55.7265C104.451 59.2734 107.327 62.1487 110.873 62.1487H128.332C131.879 62.1487 134.754 59.2734 134.754 55.7265V38.2677C134.754 34.7208 131.879 31.8454 128.332 31.8454Z" fill="#D97D3D"/>
<path d="M128.332 31.8454H110.873C107.327 31.8454 104.451 34.7208 104.451 38.2677V55.7265C104.451 59.2734 107.327 62.1487 110.873 62.1487H128.332C131.879 62.1487 134.754 59.2734 134.754 55.7265V38.2677C134.754 34.7208 131.879 31.8454 128.332 31.8454Z" fill="#D97D3D"/>
<path d="M119.602 38.0383C122.233 38.0383 123.663 40.1701 123.663 42.8145C123.663 45.459 122.247 47.5907 119.602 47.5907C116.958 47.5907 115.541 45.459 115.541 42.8145C115.541 40.1701 116.958 38.0383 119.602 38.0383Z" fill="white"/>
<path d="M130.154 55.9424H109.053C108.877 55.9424 108.715 55.8749 108.607 55.7535L109.957 52.0566C110.834 49.682 113.087 48.1035 115.623 48.1035H123.584C126.12 48.1035 128.373 49.682 129.25 52.0566L130.6 55.7535C130.478 55.8749 130.33 55.9424 130.154 55.9424Z" fill="white"/>
<path d="M91.2959 101.384H172.68" stroke="black" stroke-opacity="0.88" stroke-width="1.64944" stroke-miterlimit="10"/>
<path d="M93.8994 77.2195H76.4271C72.8787 77.2195 70.0049 80.0933 70.0049 83.6417V101.114C70.0049 104.662 72.8787 107.536 76.4271 107.536H93.8994C97.4478 107.536 100.322 104.662 100.322 101.114V83.6417C100.322 80.0933 97.4478 77.2195 93.8994 77.2195Z" fill="#81ACC6"/>
<path d="M93.8994 77.2195H76.4271C72.8787 77.2195 70.0049 80.0933 70.0049 83.6417V101.114C70.0049 104.662 72.8787 107.536 76.4271 107.536H93.8994C97.4478 107.536 100.322 104.662 100.322 101.114V83.6417C100.322 80.0933 97.4478 77.2195 93.8994 77.2195Z" fill="#5CA25C"/>
<path d="M85.8311 81.1996V84.006C87.639 84.1544 89.285 84.8695 90.5938 85.9758L92.5771 83.9925C90.7557 82.3734 88.408 81.348 85.8311 81.1996Z" fill="#81ACC6"/>
<path opacity="0.6" d="M85.8311 81.1996V84.006C87.639 84.1544 89.285 84.8695 90.5938 85.9758L92.5771 83.9925C90.7557 82.3734 88.408 81.348 85.8311 81.1996Z" fill="white"/>
<path d="M84.4676 100.75C80.366 100.426 77.1009 97.1608 76.7771 93.0592H73.9707C74.308 98.7124 78.8279 103.219 84.4676 103.556V100.75Z" fill="#81ACC6"/>
<path opacity="0.8" d="M84.4676 100.75C80.366 100.426 77.1009 97.1608 76.7771 93.0592H73.9707C74.308 98.7124 78.8279 103.219 84.4676 103.556V100.75Z" fill="white"/>
<path d="M76.7771 91.6965C77.1009 87.5949 80.3795 84.3298 84.4676 84.006V81.1996C78.8144 81.5369 74.308 86.0568 73.9707 91.6965H76.7771Z" fill="#81ACC6"/>
<path opacity="0.7" d="M76.7771 91.6965C77.1009 87.5949 80.3795 84.3298 84.4676 84.006V81.1996C78.8144 81.5369 74.308 86.0568 73.9707 91.6965H76.7771Z" fill="white"/>
<path d="M93.5349 84.9505L91.5515 86.9338C92.8063 88.4045 93.5484 90.2934 93.5484 92.3711C93.5484 96.7831 90.1483 100.399 85.8174 100.75V103.556C91.6864 103.205 96.3412 98.3347 96.3412 92.3711C96.3412 89.5243 95.2754 86.9203 93.5214 84.9505H93.5349Z" fill="white"/>
<path d="M156.76 76.0052L160.551 75.8298L165.881 134.669H161.846C159.836 134.48 159.364 132.227 158.811 127.963L155.087 86.8798C154.21 77.1385 155.883 75.9917 156.76 75.9917V76.0052Z" fill="#81ACC6"/>
<path opacity="0.3" d="M156.76 76.0052L160.551 75.8298L165.881 134.669H161.846C159.836 134.48 159.364 132.227 158.811 127.963L155.087 86.8798C154.21 77.1385 155.883 75.9917 156.76 75.9917V76.0052Z" fill="black"/>
<path d="M162.806 134.682H242.544C243.421 134.682 244.069 133.859 243.974 132.834L238.982 77.6782C238.888 76.6663 238.092 75.8298 237.215 75.8298H157.476C156.599 75.8298 155.952 76.6528 156.046 77.6782L161.038 132.834C161.133 133.846 161.929 134.682 162.806 134.682Z" fill="#81ACC6"/>
<path d="M165.868 127.707H238.294L234.273 81.7933H161.848L165.868 127.707Z" fill="#81ACC6"/>
<path d="M166.867 131.296H238.24C240.264 131.296 241.761 129.65 241.586 127.626L237.592 81.9957C237.417 79.9719 235.636 78.3259 233.612 78.3259H162.239C160.215 78.3259 158.717 79.9719 158.893 81.9957L162.887 127.626C163.062 129.65 164.843 131.296 166.867 131.296Z" fill="#454138"/>
<path d="M165.868 127.707H238.294L234.273 81.7934H161.848L165.868 127.707Z" fill="white"/>
<path opacity="0.4" d="M165.868 127.707H238.294L234.273 81.7934H161.848L165.868 127.707Z" fill="white"/>
<path d="M198.438 93.0863C198.303 93.1267 198.168 93.1672 198.033 93.2077C197.021 93.5855 196.427 94.2736 196.117 95.191C195.942 95.7172 195.888 96.2704 195.955 96.8641C195.982 97.0934 196.036 97.3363 196.104 97.5791C196.239 98.0648 196.374 98.5506 196.481 99.0363C196.562 99.3871 196.643 99.7379 196.724 100.089C196.805 100.426 196.873 100.777 196.94 101.114C197.008 101.478 197.075 101.843 197.129 102.207C197.197 102.706 197.25 103.192 197.25 103.678C197.237 106.255 196.266 108.332 194.201 109.816C193.743 110.154 193.203 110.41 192.596 110.559C192.123 110.666 191.624 110.72 191.098 110.653C190.1 110.532 189.25 110.073 188.521 109.358C187.981 108.832 187.59 108.238 187.239 107.617C186.983 107.159 186.754 106.7 186.551 106.228C186.443 105.985 186.362 105.742 186.268 105.499C186.12 105.108 186.012 104.716 185.917 104.325C185.823 103.947 185.769 103.57 185.715 103.205C185.674 102.855 185.647 102.49 185.634 102.153C185.634 101.748 185.647 101.343 185.701 100.952C185.89 99.3196 186.538 97.9029 187.563 96.6887C188.683 95.3664 190.086 94.3006 191.881 93.6394C192.555 93.3966 193.257 93.2077 193.999 93.0863C194.39 93.0188 194.795 92.9783 195.2 92.9513C195.456 92.9379 195.726 92.9109 195.982 92.9109C196.535 92.9109 197.102 92.9513 197.682 92.9918C197.925 93.0188 198.181 93.0458 198.438 93.0998V93.0863ZM188.238 98.0783C188.238 98.0783 188.224 98.0783 188.211 98.0648C188.211 98.0783 188.197 98.0918 188.184 98.1053C187.793 98.9014 187.509 99.7379 187.347 100.628C187.226 101.343 187.199 102.072 187.239 102.828C187.253 103.151 187.307 103.489 187.361 103.826C187.401 104.096 187.482 104.379 187.55 104.649C187.671 105.148 187.846 105.647 188.035 106.133C188.157 106.43 188.292 106.713 188.44 106.997C188.589 107.293 188.791 107.577 189.088 107.806C189.277 107.955 189.493 108.049 189.708 108.036C190.046 108.022 190.289 107.766 190.316 107.428C190.329 107.159 190.221 106.902 190.1 106.632C189.924 106.268 189.735 105.917 189.587 105.566C189.398 105.135 189.182 104.703 189.02 104.258C188.872 103.866 188.683 103.462 188.562 103.07C188.386 102.49 188.197 101.897 188.103 101.303C188.035 100.885 187.981 100.466 187.981 100.048C187.981 99.576 188.008 99.1172 188.089 98.672C188.13 98.4696 188.17 98.2537 188.211 98.0514L188.238 98.0783Z" fill="#3C5883"/>
<path d="M210.945 102.085C210.594 101.559 210.203 101.047 209.771 100.561C208.341 98.9553 206.627 97.6466 204.684 96.5807C203.47 95.9196 202.215 95.3664 200.934 94.9346C200.542 94.8132 200.151 94.7053 199.76 94.5838C199.571 94.5299 199.382 94.4759 199.207 94.3815C198.923 94.2061 198.91 94.0981 199.004 93.9227C199.031 93.8823 199.045 93.8553 199.085 93.8148C199.423 93.545 199.841 93.3965 200.327 93.3291C200.637 93.2886 200.961 93.2751 201.298 93.3021C201.797 93.3561 202.31 93.4505 202.823 93.5719C203.659 93.7743 204.482 94.0577 205.278 94.395C208.044 95.5823 210.338 97.3092 212.213 99.5085C212.618 99.9807 212.996 100.48 213.333 100.993C213.724 101.573 214.061 102.153 214.358 102.747C214.534 103.097 214.682 103.448 214.831 103.799C215.019 104.298 215.208 104.784 215.316 105.283C215.384 105.58 215.451 105.89 215.505 106.187C215.627 106.835 215.681 107.469 215.667 108.103C215.64 109.843 215.181 111.409 214.291 112.785C214.264 112.812 214.264 112.879 214.183 112.866C214.21 112.488 214.169 112.097 214.035 111.705C213.873 111.22 213.63 110.761 213.306 110.316C212.55 109.263 211.538 108.467 210.365 107.793C208.786 106.889 207.167 106.093 205.575 105.229C203.416 104.055 201.676 102.517 200.313 100.655C199.854 100.035 199.477 99.4005 199.166 98.7394C199.031 98.4426 198.896 98.1458 198.775 97.8489C198.654 97.5386 198.546 97.2283 198.465 96.918C198.451 96.864 198.438 96.81 198.424 96.7696C198.357 96.2704 198.667 96.1085 199.261 96.1894C199.665 96.2434 200.084 96.3513 200.488 96.4458C203.834 97.2823 206.803 98.9553 209.542 101.101C210.122 101.559 210.675 102.045 211.201 102.544C211.215 102.558 211.242 102.598 211.255 102.598C211.282 102.585 211.053 102.247 210.958 102.099L210.945 102.085Z" fill="#5CA25C"/>
<path d="M204.631 119.274C204.212 119.274 203.848 119.274 203.47 119.247C203.079 119.22 202.688 119.167 202.296 119.113C200.839 118.91 199.396 118.532 197.979 117.952C194.916 116.697 192.38 114.836 190.342 112.38C190.234 112.259 190.167 112.124 190.086 111.989C190.019 111.867 190.086 111.732 190.221 111.719C190.369 111.719 190.504 111.719 190.666 111.786C192.69 112.65 194.754 113.243 196.846 113.635C197.453 113.756 198.06 113.837 198.667 113.918C199.166 113.972 199.652 114.013 200.138 114.04C200.772 114.08 201.379 114.067 202 114.04C202.526 114.026 203.038 113.972 203.551 113.891C203.929 113.837 204.293 113.77 204.658 113.689C204.941 113.621 205.17 113.513 205.332 113.311C205.629 112.947 205.386 112.232 204.725 111.975C204.374 111.84 204.01 111.773 203.659 111.746C203.457 111.746 203.241 111.705 203.038 111.719C202.526 111.746 202.013 111.786 201.5 111.854C200.718 111.948 199.989 112.164 199.22 112.272C198.613 112.353 197.992 112.393 197.358 112.38C196.98 112.38 196.616 112.313 196.238 112.218C196.144 112.191 196.05 112.164 195.955 112.11C195.807 112.016 195.766 111.921 195.834 111.8C195.874 111.746 195.928 111.692 196.009 111.665C197.331 111.139 198.573 110.532 199.895 110.005C200.637 109.709 201.46 109.533 202.296 109.412C202.661 109.358 203.025 109.331 203.403 109.304C203.807 109.277 204.226 109.25 204.644 109.277C205.103 109.304 205.575 109.331 206.034 109.385C207.369 109.533 208.692 109.87 210.014 110.397C211.08 110.815 211.997 111.436 212.699 112.286C213.522 113.27 213.657 114.215 213.279 115.132C213.036 115.713 212.618 116.185 212.159 116.63C210.769 117.952 208.961 118.762 206.789 119.113C206.358 119.18 205.912 119.22 205.467 119.261C205.17 119.288 204.873 119.261 204.631 119.288V119.274Z" fill="#D97D3D"/>
<path opacity="0.1" d="M186.713 78.3664L172.56 131.269H177.322L191.314 78.3664H186.713Z" fill="white"/>
<path opacity="0.1" d="M194.052 78.3664L179.898 131.269H189.343L203.334 78.3664H194.052Z" fill="white"/>
<path d="M161.848 81.7934L162.212 85.9085H234.638L234.273 81.7934H161.848Z" fill="#81ACC6"/>
<path d="M165.181 83.6283C165.222 84.087 164.885 84.4513 164.426 84.4513C163.967 84.4513 163.562 84.087 163.522 83.6283C163.481 83.1695 163.819 82.8053 164.277 82.8053C164.736 82.8053 165.141 83.1695 165.181 83.6283Z" fill="white"/>
<path d="M167.368 83.6283C167.408 84.087 167.071 84.4513 166.612 84.4513C166.154 84.4513 165.749 84.087 165.708 83.6283C165.668 83.1695 166.005 82.8053 166.464 82.8053C166.923 82.8053 167.327 83.1695 167.368 83.6283Z" fill="white"/>
<path d="M169.553 83.6283C169.594 84.087 169.257 84.4513 168.798 84.4513C168.339 84.4513 167.934 84.087 167.894 83.6283C167.853 83.1695 168.191 82.8053 168.649 82.8053C169.108 82.8053 169.513 83.1695 169.553 83.6283Z" fill="white"/>
<path d="M245.067 134.844H163.777C162.823 134.844 162.05 135.618 162.05 136.571V137.61C162.05 138.564 162.823 139.337 163.777 139.337H245.067C246.021 139.337 246.794 138.564 246.794 137.61V136.571C246.794 135.618 246.021 134.844 245.067 134.844Z" fill="#81ACC6"/>
<path d="M194.296 134.844H278.338V135.87C278.338 137.785 276.786 139.337 274.871 139.337H197.75C195.834 139.337 194.282 137.785 194.282 135.87V134.844H194.296Z" fill="#81ACC6"/>
<path opacity="0.3" d="M194.296 134.844H278.338V135.87C278.338 137.785 276.786 139.337 274.871 139.337H197.75C195.834 139.337 194.282 137.785 194.282 135.87V134.844H194.296Z" fill="white"/>
<path opacity="0.3" d="M229.47 134.952C229.47 136.193 230.468 137.192 231.709 137.192H241.99C243.232 137.192 244.23 136.193 244.23 134.952H229.456H229.47Z" fill="black"/>
</svg>
