<svg width="16" height="16" viewBox="0 0 16 16" fill="none" xmlns="http://www.w3.org/2000/svg">
<g id="DeleteOutlined">
<path id="Vector" d="M5.28739 2.14118H5.14453C5.2231 2.14118 5.28739 2.0769 5.28739 1.99833V2.14118H10.716V1.99833C10.716 2.0769 10.7802 2.14118 10.8588 2.14118H10.716V3.4269H12.0017V1.99833C12.0017 1.36797 11.4892 0.855469 10.8588 0.855469H5.14453C4.51417 0.855469 4.00167 1.36797 4.00167 1.99833V3.4269H5.28739V2.14118ZM14.2874 3.4269H1.71596C1.39989 3.4269 1.14453 3.68225 1.14453 3.99833V4.56975C1.14453 4.64833 1.20882 4.71261 1.28739 4.71261H2.36596L2.80703 14.0519C2.8356 14.6608 3.33917 15.1412 3.9481 15.1412H12.0552C12.666 15.1412 13.1677 14.6626 13.1963 14.0519L13.6374 4.71261H14.716C14.7945 4.71261 14.8588 4.64833 14.8588 4.56975V3.99833C14.8588 3.68225 14.6035 3.4269 14.2874 3.4269ZM11.9177 13.8555H4.0856L3.65346 4.71261H12.3499L11.9177 13.8555Z" fill="#DC2626"/>
</g>
</svg>
