<svg width="2104" height="512" viewBox="0 0 2104 512" fill="none" xmlns="http://www.w3.org/2000/svg">
<g clip-path="url(#clip0_1194_28061)">
<path d="M1685.99 103.915C1697.1 114.253 1704.44 127.602 1711.95 140.611C1713.82 143.819 1715.78 146.967 1717.77 150.106C1721.41 155.874 1724.97 161.687 1728.51 167.519C1732.61 174.267 1736.73 180.997 1740.89 187.703C1745.47 195.084 1750 202.496 1754.51 209.922C1759.15 217.548 1763.82 225.148 1768.51 232.744C1771.98 238.387 1775.44 244.04 1778.88 249.707C1781.44 253.921 1784 258.127 1786.57 262.332C1787.08 263.16 1787.58 263.989 1788.1 264.842C1789.56 267.234 1791.03 269.618 1792.51 272C1792.94 272.709 1793.37 273.419 1793.82 274.15C1796.77 278.882 1799.4 282.367 1804.95 284.042C1809.27 284.042 1811.99 282.893 1815.52 280.424C1817.57 278.113 1819.07 275.576 1820.61 272.904C1821.06 272.153 1821.51 271.402 1821.98 270.628C1822.95 269.012 1823.92 267.392 1824.88 265.767C1826.9 262.344 1828.98 258.953 1831.05 255.56C1832.67 252.919 1834.27 250.274 1835.88 247.629C1838.83 242.77 1841.81 237.932 1844.81 233.102C1849.17 226.062 1853.53 219.014 1857.87 211.957C1858.47 210.97 1859.08 209.982 1859.71 208.965C1860.94 206.953 1862.18 204.94 1863.42 202.928C1867.05 197.026 1870.68 191.126 1874.31 185.226C1877.98 179.266 1881.65 173.305 1885.31 167.343C1886.53 165.363 1887.75 163.383 1888.97 161.404C1891.8 156.808 1894.63 152.208 1897.42 147.59C1902.85 138.668 1908.41 130.205 1915.03 122.12C1915.72 121.239 1916.42 120.359 1917.14 119.452C1928.72 104.96 1943.16 91.7825 1962.06 88.6499C1964.9 88.3993 1967.7 88.3471 1970.54 88.3672C1971.67 88.3738 1971.67 88.3738 1972.82 88.3806C1988 88.6694 2000.16 95.5941 2010.57 106.346C2018.37 115.445 2022.01 126.519 2025.26 137.858C2025.65 139.167 2026.03 140.476 2026.42 141.785C2027.41 145.134 2028.38 148.486 2029.35 151.841C2030.22 154.861 2031.11 157.877 2031.99 160.895C2033.9 167.419 2035.79 173.949 2037.67 180.48C2039.24 185.914 2040.81 191.346 2042.38 196.778C2043 198.916 2043.62 201.054 2044.24 203.193C2048.63 218.385 2053.05 233.569 2057.48 248.752C2059.21 254.721 2060.95 260.69 2062.69 266.658C2063.13 268.179 2063.58 269.699 2064.02 271.219C2067.34 282.636 2070.67 294.053 2073.99 305.471C2074.49 307.19 2074.99 308.908 2075.49 310.627C2078.18 319.889 2080.87 329.153 2083.56 338.418C2084.49 341.607 2085.41 344.796 2086.34 347.986C2086.56 348.754 2086.78 349.523 2087.01 350.316C2089.79 359.896 2092.6 369.466 2095.46 379.024C2096.29 381.837 2097.13 384.649 2097.96 387.462C2098.68 389.877 2099.42 392.287 2100.15 394.696C2104.79 410.192 2104.79 410.192 2103.18 417.017C2101.13 419.529 2099.95 420.507 2096.85 421.54C2094.16 421.647 2091.49 421.702 2088.8 421.715C2087.97 421.722 2087.15 421.73 2086.3 421.737C2083.57 421.76 2080.83 421.775 2078.1 421.788C2077.17 421.793 2076.23 421.797 2075.27 421.802C2070.32 421.826 2065.37 421.844 2060.42 421.857C2056.34 421.869 2052.25 421.894 2048.16 421.931C2043.22 421.976 2038.28 421.998 2033.34 422.005C2031.46 422.011 2029.58 422.024 2027.7 422.046C2007.4 422.268 2007.4 422.268 2000.24 415.47C1996.19 410.755 1994.88 405.407 1993.51 399.463C1993.25 398.423 1993 397.383 1992.73 396.312C1992.03 393.424 1991.34 390.532 1990.66 387.638C1989.92 384.532 1989.16 381.431 1988.4 378.33C1987.21 373.485 1986.03 368.638 1984.86 363.79C1980.85 347.231 1976.75 330.694 1972.63 314.161C1971.17 308.276 1969.71 302.389 1968.27 296.5C1967.35 292.783 1966.43 289.068 1965.5 285.354C1965.07 283.613 1964.64 281.872 1964.22 280.13C1963.63 277.725 1963.03 275.322 1962.43 272.92C1962.26 272.225 1962.09 271.53 1961.92 270.814C1960.49 265.156 1958.94 259.342 1953.92 256C1950.25 256.068 1948.25 256.344 1945.42 258.756C1942.63 261.923 1940.47 265.241 1938.26 268.834C1937.8 269.576 1937.34 270.318 1936.86 271.082C1935.3 273.588 1933.76 276.101 1932.21 278.615C1931.65 279.523 1931.09 280.431 1930.52 281.367C1928.11 285.28 1925.7 289.194 1923.29 293.111C1916.43 304.29 1909.46 315.405 1902.49 326.521C1896.02 336.854 1889.58 347.206 1883.19 357.597C1881.4 360.516 1879.6 363.435 1877.8 366.353C1876.73 368.098 1875.66 369.844 1874.58 371.59C1866.72 384.369 1858.38 396.088 1848.09 407.067C1847.59 407.631 1847.09 408.196 1846.58 408.777C1837.64 418.538 1824.41 424.498 1811.25 425.311C1796.32 425.416 1782.27 422.795 1770.29 413.399C1769.56 412.824 1768.82 412.249 1768.07 411.657C1761.82 406.406 1757.42 400.334 1753.1 393.498C1752.62 392.738 1752.14 391.979 1751.64 391.196C1748.17 385.702 1744.74 380.185 1741.32 374.662C1738.47 370.078 1735.61 365.506 1732.75 360.933C1731.62 359.123 1730.49 357.314 1729.36 355.505C1728.52 354.162 1728.52 354.162 1727.66 352.791C1695.44 301.229 1695.44 301.229 1693.74 298.512C1692.61 296.715 1691.49 294.918 1690.36 293.122C1687.42 288.417 1684.49 283.705 1681.58 278.978C1680.97 278 1680.37 277.021 1679.75 276.012C1678.59 274.147 1677.44 272.279 1676.3 270.408C1671.2 261.396 1671.2 261.396 1663.04 255.83C1659.2 256.04 1658.14 256.987 1655.41 259.618C1654.28 261.78 1654.28 261.78 1653.66 264.334C1653.37 265.385 1653.08 266.435 1652.78 267.517C1652.45 268.803 1652.12 270.09 1651.79 271.378C1651.59 272.131 1651.4 272.884 1651.2 273.661C1649.49 280.3 1647.85 286.957 1646.21 293.615C1645.67 295.803 1645.13 297.991 1644.59 300.179C1643.17 305.939 1641.75 311.7 1640.33 317.461C1638.91 323.193 1637.5 328.924 1636.08 334.655C1635.81 335.774 1635.53 336.893 1635.24 338.046C1633.87 343.615 1632.49 349.183 1631.11 354.75C1628.86 363.84 1626.61 372.93 1624.45 382.043C1623.65 385.428 1622.84 388.81 1622.02 392.192C1621.66 393.722 1621.3 395.253 1620.94 396.786C1618.78 406.194 1616.91 414.168 1608.35 419.696C1600.62 423.125 1591.53 422.168 1583.25 422.109C1581.33 422.11 1579.41 422.112 1577.49 422.116C1573.48 422.118 1569.47 422.105 1565.45 422.08C1560.32 422.049 1555.18 422.055 1550.04 422.072C1546.08 422.081 1542.12 422.073 1538.16 422.06C1536.27 422.055 1534.37 422.055 1532.48 422.061C1529.83 422.066 1527.19 422.048 1524.54 422.023C1523.38 422.032 1523.38 422.032 1522.19 422.041C1517.35 421.964 1514.46 421.214 1510.67 417.922C1508.11 410.233 1510.92 403.067 1513.16 395.625C1513.53 394.381 1513.89 393.136 1514.26 391.891C1515.05 389.205 1515.84 386.521 1516.64 383.839C1517.93 379.507 1519.21 375.171 1520.49 370.835C1522.08 365.447 1523.67 360.06 1525.26 354.674C1528.23 344.667 1531.17 334.653 1534.1 324.636C1534.43 323.509 1534.43 323.509 1534.76 322.36C1535.65 319.313 1536.54 316.266 1537.43 313.219C1539.7 305.466 1541.97 297.715 1544.24 289.964C1545.39 286.035 1546.54 282.106 1547.69 278.177C1547.92 277.396 1548.15 276.614 1548.38 275.809C1551.44 265.375 1554.49 254.94 1557.54 244.505C1559.85 236.637 1562.15 228.769 1564.46 220.903C1565.34 217.871 1566.23 214.84 1567.12 211.809C1567.34 211.071 1567.55 210.334 1567.78 209.574C1570.6 199.948 1573.39 190.316 1576.17 180.678C1577.38 176.48 1578.6 172.285 1579.81 168.089C1580.44 165.913 1581.07 163.736 1581.69 161.558C1597.16 107.327 1597.16 107.327 1618.28 95.2612C1641.28 83.4771 1666.47 87.543 1685.99 103.915Z" fill="#1755A6"/>
<path d="M618.051 93.0537C619.039 93.0503 620.026 93.0468 621.044 93.0432C622.133 93.044 623.222 93.0448 624.345 93.0456C625.499 93.0429 626.653 93.0402 627.842 93.0374C631.053 93.0301 634.264 93.0285 637.475 93.0279C640.937 93.0262 644.398 93.0194 647.86 93.0133C655.44 93.001 663.02 92.9955 670.601 92.9915C675.344 92.989 680.087 92.9852 684.83 92.9811C697.986 92.9701 711.141 92.9608 724.297 92.9577C725.139 92.9575 725.982 92.9573 726.85 92.9571C727.695 92.9569 728.54 92.9567 729.41 92.9565C731.121 92.9561 732.833 92.9557 734.544 92.9553C735.393 92.9551 736.242 92.9549 737.117 92.9547C750.812 92.9512 764.508 92.9354 778.204 92.9143C792.296 92.8927 806.389 92.8816 820.481 92.8805C828.38 92.8797 836.279 92.8746 844.178 92.8581C850.92 92.844 857.661 92.8396 864.402 92.847C867.83 92.8504 871.257 92.8499 874.685 92.837C929.508 92.6422 987.441 101.942 1028.24 141.674C1047.47 161.928 1056.07 187.446 1055.94 215.18C1055.94 216.073 1055.94 216.073 1055.94 216.985C1055.9 225.811 1055.5 233.938 1052.95 242.431C1052.64 243.533 1052.33 244.634 1052.01 245.77C1042.94 275.658 1019.63 298.611 992.7 313.217C986.133 316.673 979.422 319.527 972.438 322.035C979.03 328.697 986.037 334.79 993.318 340.685C996.188 343.028 999.016 345.416 1001.84 347.816C1007.06 352.253 1012.35 356.609 1017.67 360.932C1023.5 365.672 1029.28 370.463 1035 375.328C1038.09 377.95 1041.21 380.536 1044.35 383.095C1048.52 386.484 1052.62 389.938 1056.71 393.416C1059.85 396.085 1063.03 398.705 1066.23 401.3C1069.56 404.023 1072.87 406.754 1076.13 409.554C1076.87 410.184 1077.61 410.814 1078.37 411.462C1080.31 413.648 1080.7 415.052 1080.99 417.922C1077.67 420.196 1075.47 420.975 1071.46 420.98C1070.46 420.988 1069.46 420.995 1068.44 421.003C1066.81 420.995 1066.81 420.995 1065.15 420.987C1063.43 420.994 1063.43 420.994 1061.67 421.001C1058.52 421.013 1055.37 421.009 1052.22 421C1048.92 420.993 1045.62 421 1042.31 421.004C1036.76 421.009 1031.21 421.002 1025.66 420.989C1019.26 420.975 1012.86 420.979 1006.46 420.994C1000.95 421.007 995.444 421.008 989.937 421.001C986.654 420.997 983.371 420.996 980.088 421.005C976.418 421.015 972.749 421.002 969.079 420.987C967.469 420.995 967.469 420.995 965.826 421.003C950.367 420.886 939.606 415.197 928.113 405.257C926.655 404.019 925.194 402.784 923.732 401.549C922.732 400.703 921.732 399.856 920.733 399.008C916.007 394.998 911.212 391.075 906.403 387.166C900.573 382.426 894.793 377.635 889.068 372.77C885.182 369.474 881.245 366.244 877.29 363.031C874.941 361.096 872.629 359.127 870.321 357.143C856.258 345.088 843.768 338.041 824.915 338.055C823.744 338.049 822.572 338.043 821.365 338.036C818.169 338.02 814.973 338.016 811.777 338.015C809.777 338.014 807.776 338.01 805.776 338.005C798.788 337.988 791.8 337.981 784.812 337.982C778.313 337.983 771.814 337.964 765.315 337.936C759.72 337.912 754.126 337.902 748.531 337.903C745.196 337.904 741.861 337.899 738.526 337.88C734.807 337.859 731.087 337.867 727.368 337.878C726.272 337.868 725.176 337.858 724.046 337.847C716.995 337.9 711.843 338.677 706.467 343.618C706.063 344.182 705.66 344.747 705.244 345.328C704.827 345.883 704.409 346.438 703.979 347.01C700.444 353.9 700.807 361.215 700.813 368.766C700.799 370.569 700.786 372.371 700.771 374.173C700.737 378.587 700.721 383.001 700.716 387.416C700.712 389.903 700.699 392.39 700.676 394.877C700.655 397.21 700.648 399.544 700.657 401.878C700.588 407.971 700.496 412.234 696.537 417.017C691.709 420.346 688.308 421.163 682.514 421.089C681.772 421.094 681.03 421.099 680.265 421.104C677.829 421.115 675.394 421.101 672.958 421.084C671.256 421.084 669.554 421.086 667.852 421.088C664.293 421.09 660.734 421.078 657.174 421.058C652.619 421.032 648.064 421.034 643.508 421.046C639.997 421.052 636.485 421.045 632.973 421.034C631.294 421.03 629.614 421.03 627.935 421.033C625.586 421.036 623.238 421.021 620.889 421.001C619.854 421.007 619.854 421.007 618.799 421.013C613.865 420.945 610.125 419.915 606.399 416.597C602.873 412.15 602.348 409.26 602.338 403.687C602.334 402.622 602.33 401.557 602.326 400.459C602.326 399.288 602.326 398.117 602.326 396.91C602.323 395.654 602.32 394.398 602.316 393.142C602.307 389.687 602.304 386.231 602.302 382.776C602.298 379.051 602.289 375.326 602.281 371.6C602.264 362.604 602.254 353.607 602.246 344.61C602.242 340.374 602.238 336.138 602.233 331.902C602.217 317.823 602.204 303.744 602.198 289.665C602.196 286.012 602.194 282.359 602.193 278.706C602.192 277.798 602.192 276.89 602.191 275.954C602.184 261.238 602.161 246.522 602.131 231.806C602.102 216.701 602.085 201.596 602.082 186.491C602.08 178.008 602.072 169.526 602.049 161.043C602.03 153.821 602.022 146.599 602.031 139.377C602.035 135.692 602.034 132.007 602.016 128.322C602 124.947 602.001 121.573 602.015 118.199C602.018 116.402 602.004 114.604 601.988 112.807C602.033 106.668 602.313 102.642 606.078 97.6956C609.982 94.0774 612.8 93.0607 618.051 93.0537ZM702.869 176.395C700.208 180.34 699.816 183.538 699.819 188.234C699.816 188.851 699.812 189.468 699.809 190.104C699.802 192.13 699.814 194.154 699.827 196.18C699.828 197.597 699.827 199.014 699.826 200.431C699.826 203.396 699.835 206.36 699.852 209.325C699.872 213.113 699.873 216.9 699.866 220.688C699.863 223.613 699.869 226.538 699.878 229.463C699.882 230.859 699.883 232.255 699.881 233.651C699.881 235.608 699.893 237.564 699.907 239.52C699.911 240.631 699.916 241.742 699.92 242.886C700.255 247.379 700.65 250.999 703.836 254.349C707.222 256.457 710.032 256.499 713.897 256.447C715.012 256.453 715.012 256.453 716.148 256.46C718.636 256.47 721.123 256.455 723.611 256.439C725.396 256.441 727.181 256.444 728.966 256.449C733.819 256.458 738.672 256.444 743.525 256.426C748.619 256.41 753.714 256.413 758.809 256.414C767.382 256.412 775.955 256.397 784.529 256.372C794.393 256.344 804.257 256.334 814.121 256.335C824.664 256.336 835.206 256.324 845.749 256.307C848.762 256.303 851.775 256.302 854.788 256.301C859.565 256.3 864.342 256.288 869.119 256.27C870.855 256.265 872.591 256.263 874.327 256.264C883.592 256.267 892.782 255.981 902.018 255.223C902.855 255.158 903.691 255.092 904.552 255.024C913.176 254.246 923.009 252.672 930.827 248.763C931.417 246.931 931.417 246.931 931.732 245.144C931.732 245.741 931.732 246.338 931.732 246.954C938.441 246.534 943.988 240.563 948.435 235.964C953.903 229.368 955.702 221.221 955.534 212.812C954.441 201.417 949.607 193.184 940.944 185.978C923.149 172.991 899.039 173.547 878.034 173.536C876.188 173.532 874.341 173.527 872.495 173.522C867.509 173.51 862.523 173.504 857.537 173.5C854.419 173.498 851.302 173.494 848.184 173.49C838.423 173.478 828.662 173.469 818.901 173.465C807.644 173.461 796.388 173.445 785.131 173.419C776.416 173.4 767.701 173.391 758.986 173.389C753.786 173.388 748.585 173.383 743.385 173.367C738.501 173.352 733.617 173.35 728.732 173.358C726.94 173.359 725.148 173.355 723.357 173.346C720.911 173.334 718.466 173.34 716.02 173.349C714.956 173.338 714.956 173.338 713.872 173.327C709.535 173.366 706.535 174.055 702.869 176.395Z" fill="#1755A6"/>
<path d="M1295.73 92.9234C1298.99 92.9257 1302.25 92.9175 1305.52 92.9107C1311.88 92.8993 1318.24 92.8976 1324.6 92.8997C1329.77 92.9013 1334.94 92.8997 1340.1 92.8959C1340.84 92.8953 1341.58 92.8948 1342.34 92.8942C1343.85 92.8931 1345.35 92.892 1346.85 92.8909C1360.88 92.8811 1374.9 92.883 1388.93 92.8886C1401.76 92.8933 1414.59 92.883 1427.42 92.8659C1440.62 92.8484 1453.82 92.8409 1467.02 92.8443C1474.42 92.846 1481.83 92.8437 1489.23 92.831C1495.51 92.8202 1501.8 92.8189 1508.09 92.8299C1511.3 92.8352 1514.5 92.8362 1517.71 92.8253C1521.18 92.8138 1524.66 92.8231 1528.13 92.8347C1529.65 92.8247 1529.65 92.8247 1531.21 92.8145C1532.14 92.821 1533.07 92.8275 1534.03 92.8342C1534.83 92.8342 1535.63 92.8341 1536.46 92.8341C1539.82 93.3395 1542.37 94.7376 1544.42 97.47C1546.49 104.251 1543.87 110.901 1542.01 117.449C1541.69 118.565 1541.38 119.681 1541.06 120.831C1540.4 123.188 1539.73 125.543 1539.06 127.898C1538.21 130.892 1537.37 133.891 1536.53 136.89C1535.72 139.778 1534.91 142.663 1534.09 145.548C1533.79 146.614 1533.49 147.68 1533.19 148.778C1530.2 159.227 1527.79 166.464 1518.38 172.376C1514.11 174.125 1510.42 174.06 1505.86 174.031C1504.92 174.035 1503.98 174.04 1503.01 174.045C1499.87 174.058 1496.72 174.051 1493.58 174.044C1491.32 174.05 1489.07 174.056 1486.81 174.064C1481.95 174.077 1477.09 174.083 1472.23 174.081C1465.19 174.079 1458.14 174.094 1451.1 174.112C1439.64 174.143 1428.19 174.162 1416.74 174.174C1416.05 174.175 1415.37 174.175 1414.66 174.176C1411.89 174.179 1409.11 174.182 1406.34 174.184C1398.72 174.192 1391.1 174.202 1383.49 174.213C1382.81 174.214 1382.13 174.215 1381.42 174.216C1370.03 174.232 1358.63 174.256 1347.23 174.283C1340.21 174.3 1333.2 174.31 1326.18 174.311C1320.79 174.312 1315.39 174.322 1310 174.335C1307.8 174.339 1305.6 174.34 1303.4 174.337C1280.67 174.312 1280.67 174.312 1258.4 178.488C1257.69 178.686 1256.97 178.885 1256.23 179.089C1234 185.43 1213.14 198.489 1201.22 218.768C1190.99 237.536 1188.81 258.926 1194.06 279.519C1200.49 300.434 1214.68 315.947 1233.64 326.401C1249.78 334.949 1268 339.382 1286.27 339.341C1287.44 339.344 1287.44 339.344 1288.64 339.347C1291.24 339.353 1293.84 339.352 1296.45 339.351C1298.32 339.354 1300.19 339.357 1302.06 339.361C1306.09 339.368 1310.11 339.372 1314.14 339.375C1320.5 339.381 1326.86 339.396 1333.23 339.413C1335.41 339.418 1337.59 339.424 1339.77 339.43C1341.4 339.434 1341.4 339.434 1343.07 339.438C1357.88 339.477 1372.69 339.506 1387.5 339.517C1397.5 339.525 1407.49 339.545 1417.49 339.58C1422.78 339.598 1428.07 339.609 1433.36 339.605C1438.33 339.601 1443.3 339.613 1448.27 339.638C1450.09 339.645 1451.92 339.645 1453.74 339.638C1456.23 339.63 1458.72 339.644 1461.21 339.664C1461.93 339.656 1462.65 339.649 1463.4 339.641C1468.09 339.709 1470.74 340.669 1474.49 343.746C1477.29 347.743 1476.18 351.843 1475.39 356.41C1474.5 360.342 1473.43 364.212 1472.33 368.088C1472.02 369.181 1471.71 370.273 1471.4 371.398C1470.75 373.696 1470.09 375.993 1469.44 378.288C1468.77 380.625 1468.11 382.964 1467.46 385.307C1466.52 388.712 1465.55 392.111 1464.58 395.509C1464.3 396.547 1464.01 397.584 1463.72 398.653C1461.18 407.356 1458.01 414.341 1449.91 418.94C1446.18 420.722 1442.86 420.766 1438.82 420.757C1438.13 420.759 1437.43 420.761 1436.72 420.763C1434.4 420.769 1432.08 420.768 1429.76 420.767C1428.09 420.77 1426.43 420.773 1424.77 420.777C1420.24 420.785 1415.71 420.787 1411.18 420.787C1408.35 420.788 1405.51 420.79 1402.68 420.792C1392.77 420.801 1382.86 420.804 1372.95 420.804C1363.75 420.803 1354.54 420.813 1345.34 420.827C1337.42 420.839 1329.5 420.844 1321.58 420.843C1316.86 420.843 1312.14 420.845 1307.42 420.855C1302.97 420.864 1298.51 420.864 1294.05 420.857C1292.43 420.856 1290.81 420.858 1289.19 420.864C1274.22 420.912 1259.25 419.938 1244.49 417.3C1243.65 417.15 1242.8 416.999 1241.93 416.844C1192.69 407.602 1146.05 381.015 1117.44 339.192C1094.27 304.085 1088.08 261.091 1095.93 220.129C1103.99 181.287 1128.58 148.911 1161.43 127.303C1164.77 125.182 1168.17 123.181 1171.62 121.238C1173.19 120.35 1174.74 119.435 1176.3 118.519C1196.43 107.107 1219.01 100.656 1241.67 96.5654C1242.42 96.4285 1243.17 96.2917 1243.95 96.1507C1261.14 93.2701 1278.33 92.9007 1295.73 92.9234Z" fill="#1755A6"/>
<path d="M255.096 0.000675729C255.096 0.896223 255.096 1.79177 255.096 2.71446C254.188 3.13191 253.28 3.54937 252.344 3.97947C230.996 14.0549 214.502 30.2258 206.385 52.7922C205.607 55.1053 204.87 57.4266 204.156 59.7604C203.937 60.4753 203.717 61.1902 203.491 61.9267C200.283 73.0318 199.584 84.064 199.633 95.5484C199.634 96.2608 199.634 96.9732 199.634 97.7073C199.65 109.607 200.343 121.399 201.273 133.259C203.326 159.638 204.403 186.389 199.916 212.58C199.766 213.459 199.615 214.337 199.46 215.242C194.696 241.806 184.378 267.172 169.16 289.471C168.783 290.024 168.407 290.577 168.019 291.147C160.724 301.775 152.646 311.722 143.831 321.131C143.412 321.582 142.993 322.032 142.561 322.495C123.804 342.463 99.9978 357.565 71.9161 358.446C55.1258 357.946 40.6881 352.31 28.9479 340.128C4.30558 312.179 -0.557644 272.52 -0.303228 236.714C-0.281695 233.482 -0.284683 230.251 -0.29064 227.018C-0.273045 211.522 0.443538 196.573 4.24116 181.485C4.47751 180.53 4.71386 179.574 4.95737 178.59C17.565 129.081 48.38 79.656 89.5556 48.8487C90.5488 48.0798 91.5417 47.3107 92.5344 46.5413C122.934 23.3051 158.834 9.46111 196.298 2.71446C197.142 2.55616 197.986 2.39787 198.856 2.23477C217.388 -1.10343 236.345 -0.263213 255.096 0.000675729ZM56.0857 121.216C36.8839 155.035 28.7524 192.847 28.7217 231.52C28.7208 232.318 28.7199 233.115 28.719 233.937C28.7298 248.083 29.5811 261.892 31.6617 275.902C31.7972 276.851 31.9328 277.801 32.0724 278.779C32.4738 281.519 32.9065 284.251 33.3578 286.983C33.5436 288.171 33.5436 288.171 33.7332 289.383C34.7648 295.059 36.6948 300.467 41.2703 304.254C45.3459 306.8 49.5012 308.111 54.2836 307.227C59.3211 305.685 62.1635 302.779 65.1316 298.517C67.2462 294.287 66.5342 288.66 65.3715 284.216C64.4316 281.566 63.4134 278.961 62.3613 276.354C53.2479 252.375 46.9987 226.273 46.856 200.499C46.8465 199.337 46.8465 199.337 46.8368 198.152C46.821 195.668 46.8152 193.184 46.8136 190.7C46.813 189.851 46.8124 189.001 46.8117 188.126C46.8363 166.655 49.02 145.942 56.5645 125.686C57.1979 123.752 57.1979 123.752 56.0857 121.216Z" fill="#0080C6"/>
<path d="M307.166 7.74552C308.356 7.75368 309.547 7.76185 310.774 7.77026C320.651 7.94424 329.734 9.053 339.222 11.7597C340.029 11.9833 340.836 12.2068 341.668 12.4372C385.931 25.0315 430.447 53.0007 458.628 89.5547C459.006 90.0439 459.383 90.533 459.772 91.037C498.453 141.542 518.08 204.296 510.19 267.76C504.898 303.505 493.44 347.3 469.484 375.406C468.887 375.406 468.29 375.406 467.674 375.406C467.666 374.692 467.658 373.978 467.649 373.242C467.375 354.779 466.57 338.68 457.724 322.035C457.26 321.136 456.796 320.237 456.318 319.311C439.34 288.24 406.05 274.122 375.594 259.551C355.546 249.947 335.817 239.188 318.416 225.244C317.536 224.548 316.656 223.851 315.749 223.134C295.995 207.172 280.34 188.414 267.759 166.445C267.425 165.865 267.09 165.285 266.746 164.687C252.068 138.963 241.278 108.294 241.413 78.4734C241.409 77.6852 241.406 76.8969 241.402 76.0847C241.408 72.3184 241.475 68.8021 242.431 65.1307C298.786 63.7691 352.257 84.7705 396.212 119.406C396.824 119.888 397.436 120.37 398.067 120.867C406.206 127.305 413.966 134.026 421.54 141.117C422.969 142.424 424.402 143.727 425.835 145.03C430.246 149.044 434.562 153.129 438.727 157.399C439.631 158.304 440.536 159.209 441.441 160.113C432.487 140.171 421.089 122.766 406.162 106.742C405.064 105.483 403.971 104.221 402.883 102.954C397.408 96.7036 391.493 91.383 384.997 86.1991C383.462 84.9634 381.946 83.7076 380.431 82.4487C346.097 54.1323 303.289 37.1204 260.522 26.2332C263.679 18.82 271.898 15.3341 278.798 12.0847C288.028 8.49609 297.346 7.66413 307.166 7.74552Z" fill="#22B24C"/>
<path d="M305.754 306.474C306.507 306.468 307.261 306.461 308.037 306.455C310.46 306.439 312.882 306.433 315.306 306.432C316.135 306.431 316.964 306.43 317.819 306.43C330.849 306.445 343.573 306.933 356.408 309.371C357.252 309.532 358.095 309.692 358.964 309.856C375.957 313.2 391.892 318.144 407.065 326.559C407.956 327.05 408.847 327.541 409.765 328.046C426.352 337.898 439.263 353.898 444.154 372.693C447.693 390.711 441.441 408.991 431.712 424.036C421.753 438.411 410.038 450.61 396.003 461.052C394.398 462.25 392.811 463.47 391.224 464.693C365.33 484.436 334.547 500.169 302.698 507.251C301.954 507.42 301.21 507.588 300.444 507.762C283.634 511.292 266.862 512.476 249.723 512.34C248.773 512.335 247.824 512.331 246.846 512.327C233.136 512.256 219.736 511.934 206.246 509.287C205.303 509.112 204.361 508.937 203.39 508.757C163.622 501.238 127.178 484.481 96.7897 457.725C95.8399 456.91 95.8399 456.91 94.871 456.078C86.5937 448.954 78.458 441.703 71.4611 433.301C70.6763 432.415 69.8915 431.528 69.083 430.615C58.2066 418.307 48.8124 405.063 40.7049 390.785C40.1429 389.809 39.5808 388.833 39.0017 387.827C35.2773 381.219 35.2773 381.219 35.2773 378.121C38.3666 378.625 40.7854 380.009 43.4834 381.54C74.5749 399.072 111.291 406.845 146.429 410.969C147.057 411.042 147.685 411.116 148.332 411.192C164.109 413.011 179.748 413.585 195.617 413.569C196.99 413.569 196.99 413.569 198.392 413.569C213.146 413.55 227.743 413.105 242.429 411.591C243.411 411.494 244.392 411.397 245.403 411.297C278.349 408.374 278.349 408.374 306.203 392.311C308.911 388.808 310.152 385.262 310.274 380.834C309.543 375.829 307.124 372.428 303.178 369.361C286.605 359.243 264.926 364.226 247.157 368.318C236.694 370.88 226.381 374.04 216.062 377.124C215.269 377.36 214.477 377.597 213.661 377.84C212.162 378.289 210.665 378.739 209.167 379.192C198.444 382.411 184.939 384.356 174.535 379.209C170.271 376.572 166.696 373.804 164.634 369.075C164.878 366.748 165.231 365.742 166.961 364.138C167.573 363.734 168.184 363.329 168.814 362.912C169.503 362.449 170.192 361.986 170.902 361.508C171.651 361.02 172.4 360.532 173.171 360.029C174.328 359.258 174.328 359.258 175.508 358.471C177.117 357.4 178.728 356.333 180.342 355.271C182.576 353.795 184.797 352.302 187.012 350.799C222.282 326.922 262.189 306.721 305.754 306.474Z" fill="#F38220"/>
</g>
<defs>
<clipPath id="clip0_1194_28061">
<rect width="2103.18" height="512" fill="white"/>
</clipPath>
</defs>
</svg>
