<svg width="14" height="14" viewBox="0 0 14 14" fill="none" xmlns="http://www.w3.org/2000/svg">
<path d="M5.76635 7.0001C5.76635 9.21605 7.56979 11.0195 9.78574 11.0195C12.0017 11.0195 13.8051 9.21605 13.8051 7.0001C13.8051 4.78415 12.0017 2.98071 9.78574 2.98071C7.56979 2.98071 5.76635 4.78415 5.76635 7.0001ZM6.56227 7.0001C6.56227 5.22245 8.00809 3.77663 9.78574 3.77663C11.5634 3.77663 13.0092 5.22245 13.0092 7.0001C13.0092 8.77775 11.5634 10.2236 9.78574 10.2236C8.00809 10.2236 6.56227 8.77775 6.56227 7.0001Z" fill="black" fill-opacity="0.88" stroke="black" stroke-width="0.238775"/>
<path d="M1.44797 8.09394L1.44795 8.09396C1.59026 8.23992 1.76051 8.35572 1.94856 8.43443C2.1366 8.51314 2.33858 8.55316 2.54243 8.5521L2.54305 8.5521L6.73277 8.5521C6.83831 8.5521 6.93953 8.59402 7.01417 8.66866C7.0888 8.74329 7.13073 8.84451 7.13073 8.95006C7.13073 9.0556 7.0888 9.15682 7.01417 9.23146C6.93953 9.30609 6.83831 9.34801 6.73277 9.34801H2.54337H2.54305V9.22863C2.24998 9.22994 1.95962 9.17242 1.68917 9.0595C1.41873 8.94657 1.17369 8.78053 0.968567 8.5712L1.44797 8.09394ZM1.44797 8.09394L1.44606 8.09206C1.15228 7.80396 0.991012 7.41697 0.991012 7.00006C0.991012 6.14448 1.68747 5.44801 2.54305 5.44801H6.73277C6.83831 5.44801 6.93953 5.40609 7.01417 5.33146C7.0888 5.25682 7.13073 5.1556 7.13073 5.05006C7.13073 4.94451 7.0888 4.84329 7.01417 4.76866C6.93953 4.69402 6.83831 4.6521 6.73277 4.6521H2.54305C1.24816 4.6521 0.195258 5.7049 0.195094 6.99975M1.44797 8.09394L0.884086 8.65556C0.664608 8.43965 0.490571 8.18198 0.372238 7.89773C0.253801 7.61324 0.193568 7.30791 0.195094 6.99975M0.195094 6.99975C0.195094 6.99985 0.195094 6.99995 0.195094 7.00006H0.314481L0.195095 6.99945C0.195095 6.99955 0.195094 6.99965 0.195094 6.99975ZM7.99509 7.00006C7.99509 7.98751 8.79846 8.79087 9.78591 8.79087C10.7734 8.79087 11.5767 7.98751 11.5767 7.00006C11.5767 6.01261 10.7734 5.20924 9.78591 5.20924C8.79846 5.20924 7.99509 6.01261 7.99509 7.00006ZM8.79101 7.00006C8.79101 6.45146 9.23732 6.00516 9.78591 6.00516C10.3345 6.00516 10.7808 6.45146 10.7808 7.00006C10.7808 7.54865 10.3345 7.99495 9.78591 7.99495C9.23732 7.99495 8.79101 7.54865 8.79101 7.00006Z" fill="black" stroke="black" stroke-width="0.238775"/>
</svg>
