<svg width="16" height="16" viewBox="0 0 16 16" fill="none" xmlns="http://www.w3.org/2000/svg">
<path fill-rule="evenodd" clip-rule="evenodd" d="M4.09628 0H9.45103L13.9824 4.72994V13.9153C13.9824 15.0657 13.0539 16 11.9036 16H4.09628C2.95176 16 2.01746 15.0657 2.01746 13.9153V2.07883C2.01744 0.9343 2.95176 0 4.09628 0Z" fill="#00733B"/>
<path fill-rule="evenodd" clip-rule="evenodd" d="M9.44519 0V4.68906H13.9824L9.44519 0Z" fill="#CBFFE5"/>
<path d="M6.99263 11.6496H6.21598L5.6846 10.7562L5.15323 11.6496H4.37073L5.29338 10.0963L4.4817 8.7474H5.26416L5.6846 9.44815L6.09916 8.7474H6.88166L6.07582 10.1022L6.99263 11.6496ZM7.26707 11.6496V8.7474H8.00866V11.0189H9.26998V11.6496H7.26707V11.6496ZM10.4963 11.6847C10.2043 11.6847 9.94735 11.5912 9.72548 11.4102C9.50942 11.235 9.38679 11.0131 9.36926 10.7503L10.0058 10.5635C10.0233 10.7036 10.0817 10.8262 10.181 10.9197C10.2861 11.0131 10.4029 11.0598 10.5313 11.0598C10.6364 11.0598 10.724 11.0365 10.7941 10.9898C10.8583 10.9431 10.8934 10.8788 10.8934 10.8029C10.8934 10.7387 10.8642 10.6861 10.8116 10.6394C10.759 10.5985 10.689 10.5635 10.6072 10.5343C10.5255 10.5051 10.4262 10.4759 10.3269 10.4526C10.2218 10.4234 10.1167 10.3883 10.0174 10.3416C9.91232 10.3007 9.81888 10.2482 9.73713 10.1839C9.64954 10.1255 9.58532 10.038 9.53276 9.927C9.4802 9.8219 9.45101 9.6934 9.45101 9.54743C9.45101 9.30803 9.55026 9.10947 9.75463 8.95181C9.95904 8.78831 10.2043 8.7124 10.4904 8.7124C10.7765 8.7124 11.0276 8.78247 11.2379 8.91678C11.4481 9.05693 11.5824 9.23796 11.6349 9.45984L10.9693 9.74015C10.94 9.6175 10.8816 9.51825 10.7999 9.44234C10.7181 9.37228 10.613 9.3314 10.4904 9.3314C10.397 9.3314 10.3269 9.35475 10.2685 9.38981C10.2159 9.42484 10.1926 9.4774 10.1926 9.54162C10.1926 9.60003 10.2276 9.65256 10.2977 9.69343C10.3678 9.72846 10.4612 9.75765 10.5663 9.77518C10.6714 9.79271 10.7882 9.8219 10.9109 9.86278C11.0393 9.9095 11.1503 9.95621 11.2612 10.0205C11.3663 10.0788 11.4539 10.1781 11.524 10.3066C11.5999 10.4409 11.6349 10.5986 11.6349 10.7796C11.6349 11.0482 11.5298 11.2701 11.3196 11.4336C11.1094 11.5971 10.835 11.6847 10.4963 11.6847Z" fill="white"/>
</svg>
