<svg width="122" height="122" viewBox="0 0 122 122" fill="none" xmlns="http://www.w3.org/2000/svg">
<g clip-path="url(#clip0_563_73699)">
<path d="M61 93C78.6731 93 93 78.6731 93 61C93 43.3269 78.6731 29 61 29C43.3269 29 29 43.3269 29 61C29 78.6731 43.3269 93 61 93Z" fill="url(#paint0_linear_563_73699)"/>
<path d="M60.9991 67.4C59.8402 67.4 58.7264 66.9515 57.8908 66.1485C57.0552 65.3456 56.5628 64.2504 56.5166 63.0925L55.9253 48.1625C55.9016 47.559 56 46.9569 56.2146 46.3924C56.4291 45.8278 56.7555 45.3124 57.1741 44.877C57.5926 44.4417 58.0948 44.0953 58.6505 43.8586C59.2062 43.622 59.8039 43.5 60.4078 43.5H61.5903C62.1943 43.5 62.792 43.622 63.3477 43.8586C63.9034 44.0953 64.4055 44.4417 64.8241 44.877C65.2427 45.3124 65.5691 45.8278 65.7836 46.3924C65.9982 46.9569 66.0966 47.559 66.0728 48.1625L65.4816 63.0925C65.4354 64.2504 64.943 65.3456 64.1074 66.1485C63.2718 66.9515 62.1579 67.4 60.9991 67.4Z" fill="white"/>
<path d="M65.477 74.0217C65.477 71.5482 63.4718 69.543 60.9983 69.543C58.5247 69.543 56.5195 71.5482 56.5195 74.0217C56.5195 76.4953 58.5247 78.5005 60.9983 78.5005C63.4718 78.5005 65.477 76.4953 65.477 74.0217Z" fill="white"/>
</g>
<defs>
<linearGradient id="paint0_linear_563_73699" x1="61" y1="29" x2="61" y2="92.5263" gradientUnits="userSpaceOnUse">
<stop stop-color="#FDAE3E"/>
<stop offset="1" stop-color="#EB7500"/>
</linearGradient>
<clipPath id="clip0_563_73699">
<rect width="64" height="64" fill="white" transform="translate(29 29)"/>
</clipPath>
</defs>
</svg>
