<svg xmlns="http://www.w3.org/2000/svg" width="14" height="14" viewBox="0 0 14 14" fill="none">
  <path d="M4.65248 3.67523C4.62331 3.58183 4.54747 3.51179 4.45123 3.48553L3.25833 3.15865L2.57877 2.12258C2.47086 1.95914 2.19671 1.95914 2.08877 2.12258L1.40921 3.15865L0.216307 3.48553C0.120065 3.51179 0.044233 3.58183 0.0150554 3.67523C-0.0170251 3.76863 0.00338439 3.87367 0.0646425 3.94955L0.84047 4.91558L0.779212 6.15302C0.776309 6.25226 0.820031 6.34563 0.901698 6.40402C0.980463 6.46239 1.08254 6.477 1.17585 6.44196L2.33374 6.00126L3.49163 6.44196C3.52546 6.45345 3.56092 6.45936 3.59664 6.45948C3.65497 6.45948 3.71622 6.44196 3.76581 6.40402C3.84748 6.34566 3.89123 6.25226 3.8883 6.15302L3.82704 4.91558L4.60287 3.94955C4.66415 3.87367 4.68456 3.7686 4.65248 3.67523ZM5.83348 2.82575H10.7917V4.04078H5.83348V2.82575ZM5.83348 4.37314H14V5.5H5.83348V4.37314ZM4.65248 9.62118C4.62331 9.52778 4.54747 9.45484 4.45123 9.42857L3.25833 9.10169L2.57874 8.06563C2.47083 7.90219 2.19668 7.90219 2.08874 8.06563L1.40915 9.10169L0.216307 9.42857C0.120065 9.45484 0.044233 9.52781 0.0150554 9.62118C-0.0170251 9.71458 0.00338439 9.81672 0.0646425 9.8926L0.84047 10.8586L0.779212 12.099C0.776309 12.1953 0.820031 12.2916 0.901698 12.347C0.980463 12.4054 1.08254 12.42 1.17585 12.385L2.33374 11.9472L3.49163 12.385C3.52664 12.3967 3.56163 12.4054 3.59664 12.4054C3.65497 12.4054 3.71622 12.385 3.76581 12.347C3.84748 12.2916 3.89123 12.1953 3.8883 12.099L3.82704 10.8586L4.60287 9.8926C4.66415 9.81672 4.68456 9.71458 4.65248 9.62118Z" fill="currentColor"/>
  <path d="M5.83348 9H10.7917V10.215H5.83348V9Z" fill="currentColor"/>
  <path d="M5.83348 10.5474H14V11.6742H5.83348V10.5474Z" fill="currentColor"/>
</svg>