<svg xmlns="http://www.w3.org/2000/svg" width="14" height="14" viewBox="0 0 14 14" fill="none">
  <path fill-rule="evenodd" clip-rule="evenodd" d="M4.93574 0.0907012C4.96502 0.0469208 5.00464 0.0110235 5.05108 -0.0138216C5.09753 -0.0386667 5.14937 -0.0516955 5.20205 -0.0517578H10.122C10.1747 -0.0517059 10.2265 -0.0386938 10.2729 -0.0138698C10.3194 0.0109542 10.359 0.046827 10.3883 0.0905834C10.4176 0.13434 10.4357 0.184635 10.4409 0.23703C10.4462 0.289426 10.4385 0.342311 10.4185 0.39102L9.53806 2.5433C10.6931 3.67913 11.458 4.63334 11.9175 5.65494C12.4001 6.72723 12.5335 7.84316 12.4745 9.26647C12.4728 9.3086 12.4628 9.34999 12.4451 9.38825C12.4273 9.42652 12.4022 9.46092 12.3712 9.48949C12.3402 9.51807 12.3039 9.54025 12.2643 9.55478C12.2247 9.56931 12.1826 9.57589 12.1405 9.57417C12.0984 9.57244 12.057 9.56243 12.0187 9.54471C11.9805 9.52699 11.946 9.5019 11.9175 9.47089C11.8889 9.43987 11.8667 9.40353 11.8522 9.36395C11.8377 9.32436 11.8311 9.28229 11.8328 9.24016C11.8906 7.87332 11.759 6.86648 11.3323 5.91804C10.9132 4.98757 10.1965 4.08404 9.02854 2.94309H6.26664C5.38301 3.58608 4.46344 4.73409 3.85703 5.93858C3.54644 6.55654 3.32569 7.17515 3.23201 7.73279C3.13767 8.29428 3.17746 8.76401 3.35008 9.11053C3.37039 9.1484 3.38288 9.18996 3.38682 9.23275C3.39076 9.27553 3.38607 9.31867 3.37302 9.35961C3.35997 9.40055 3.33883 9.43845 3.31085 9.47106C3.28288 9.50368 3.24864 9.53034 3.21017 9.54947C3.17169 9.5686 3.12977 9.57981 3.08688 9.58243C3.04399 9.58504 3.00102 9.57902 2.9605 9.56472C2.91998 9.55041 2.88275 9.52812 2.85102 9.49915C2.81928 9.47018 2.79369 9.43514 2.77575 9.39609C2.52035 8.88273 2.4934 8.26091 2.59928 7.62691C2.70645 6.98905 2.95286 6.3082 3.28398 5.65045C3.8981 4.42992 4.826 3.2402 5.77252 2.51186L4.90493 0.39102C4.88504 0.342277 4.87744 0.289386 4.88281 0.237012C4.88818 0.184638 4.90636 0.13439 4.93574 0.0907012ZM6.37958 2.30138H8.94384L9.6433 0.589949H5.68012L6.37958 2.30138Z" fill="black" fill-opacity="0.88"/>
  <path d="M5.53516 4.76226C5.53516 4.67716 5.56896 4.59555 5.62913 4.53538C5.6893 4.47521 5.77091 4.44141 5.85601 4.44141H9.27823C9.36333 4.44141 9.44494 4.47521 9.50511 4.53538C9.56528 4.59555 9.59909 4.67716 9.59909 4.76226C9.59909 4.84736 9.56528 4.92897 9.50511 4.98914C9.44494 5.04931 9.36333 5.08311 9.27823 5.08311H8.76294C8.86176 5.23199 8.93364 5.40718 8.97085 5.60931H9.15182C9.23691 5.60931 9.31852 5.64312 9.37869 5.70329C9.43887 5.76346 9.47267 5.84507 9.47267 5.93017C9.47267 6.01526 9.43887 6.09687 9.37869 6.15704C9.31852 6.21722 9.23691 6.25102 9.15182 6.25102H8.97278C8.94015 6.4566 8.86402 6.65284 8.74947 6.82663C8.58326 7.07497 8.34904 7.25016 8.08273 7.37208C7.73236 7.53379 7.30563 7.61336 6.84937 7.64802C7.33707 8.16587 7.92744 8.6125 8.60701 8.96993C8.64532 8.98893 8.67945 9.0154 8.70739 9.04778C8.73533 9.08016 8.75652 9.1178 8.7697 9.15849C8.78289 9.19917 8.7878 9.24208 8.78416 9.2847C8.78052 9.32731 8.7684 9.36877 8.7485 9.40663C8.72861 9.44449 8.70135 9.47799 8.66832 9.50516C8.6353 9.53233 8.59717 9.55263 8.55619 9.56485C8.5152 9.57708 8.47219 9.58099 8.42967 9.57635C8.38716 9.57171 8.346 9.55862 8.30861 9.53784C7.34349 9.03089 6.53494 8.35197 5.92211 7.54278C5.88598 7.49511 5.8639 7.4383 5.85835 7.37875C5.8528 7.31921 5.864 7.25929 5.8907 7.20578C5.91739 7.15226 5.95851 7.10727 6.00941 7.07588C6.06032 7.04449 6.11898 7.02795 6.17879 7.02813C6.86734 7.02813 7.4314 6.96588 7.81514 6.78941C7.99995 6.70407 8.12958 6.59818 8.21557 6.46984C8.26039 6.40239 8.29438 6.32834 8.31631 6.25038H5.95419C5.8691 6.25038 5.78749 6.21657 5.72731 6.1564C5.66714 6.09623 5.63334 6.01462 5.63334 5.92952C5.63334 5.84443 5.66714 5.76282 5.72731 5.70265C5.78749 5.64248 5.8691 5.60867 5.95419 5.60867H8.31054C8.26817 5.47486 8.18519 5.35755 8.07311 5.27306C7.90305 5.14408 7.66883 5.08311 7.44103 5.08311H5.85601C5.77091 5.08311 5.6893 5.04931 5.62913 4.98914C5.56896 4.92897 5.53516 4.84736 5.53516 4.76226Z" fill="black"/>
  <path fill-rule="evenodd" clip-rule="evenodd" d="M12.4323 10.175L9.52919 10.9849C8.17775 10.2867 7.00728 9.91065 5.73477 9.81375C4.43339 9.71428 3.04602 9.90872 1.27812 10.3143C1.08548 10.3586 0.918302 10.4776 0.813274 10.645C0.708246 10.8125 0.673949 11.0148 0.71791 11.2075L1.06443 12.7297C1.15555 13.1339 1.55855 13.3868 1.96282 13.2931L4.2088 12.7746C6.04536 13.7333 7.62204 14.1113 9.10759 13.9727C10.6201 13.8315 11.9953 13.1577 13.4186 12.1014C14.093 11.6009 13.9467 10.5941 13.2196 10.245C12.9743 10.127 12.6945 10.1021 12.4323 10.175ZM12.6042 10.7936C12.7166 10.7622 12.8366 10.7727 12.9418 10.8232C13.2646 10.9784 13.296 11.393 13.0361 11.5861C11.6648 12.6039 10.4 13.2071 9.04791 13.3335C7.69647 13.4599 6.21477 13.114 4.40323 12.1521C4.33499 12.1158 4.25592 12.1053 4.18056 12.1226L1.8178 12.6681C1.80406 12.6712 1.78984 12.6716 1.77595 12.6692C1.76206 12.6668 1.74878 12.6618 1.73686 12.6542C1.72494 12.6467 1.71462 12.637 1.70648 12.6254C1.69835 12.6139 1.69256 12.6009 1.68945 12.5872L1.34357 11.0651C1.33741 11.0382 1.3421 11.01 1.35664 10.9865C1.37119 10.9631 1.3944 10.9464 1.42122 10.9399C3.16923 10.5389 4.48152 10.3618 5.68601 10.4535C6.88022 10.5447 7.99166 10.9027 9.3309 11.6054L9.37133 11.6311C9.42214 11.6639 9.45948 11.714 9.47655 11.772C9.49362 11.8301 9.4893 11.8923 9.46437 11.9475C9.43943 12.0026 9.39554 12.047 9.34067 12.0726C9.2858 12.0981 9.22359 12.1031 9.16534 12.0867L6.26482 11.2711C6.22371 11.2577 6.18032 11.2528 6.13725 11.2566C6.09419 11.2604 6.05234 11.2729 6.01422 11.2933C5.9761 11.3137 5.9425 11.3416 5.91543 11.3753C5.88836 11.409 5.86839 11.4479 5.85671 11.4895C5.84502 11.5311 5.84187 11.5747 5.84745 11.6176C5.85302 11.6604 5.8672 11.7017 5.88913 11.739C5.91107 11.7762 5.94031 11.8087 5.97509 11.8344C6.00988 11.86 6.0495 11.8784 6.09156 11.8884L8.99208 12.7046C9.15352 12.7499 9.32442 12.7488 9.48529 12.7016C9.64615 12.6543 9.79051 12.5629 9.9019 12.4376C10.0133 12.3123 10.0872 12.1582 10.1153 11.9929C10.1433 11.8276 10.1243 11.6578 10.0605 11.5027L12.6042 10.7936Z" fill="black"/>
</svg>