<svg xmlns="http://www.w3.org/2000/svg" xmlns:xlink="http://www.w3.org/1999/xlink" preserveAspectRatio="xMidYMid meet" width="1080" height="1080" viewBox="0 0 1080 1080" style="width:100%;height:100%"><defs><animateMotion repeatCount="indefinite" dur="6.2833333s" begin="0s" xlink:href="#_R_G_L_0_G_L_2_G" fill="freeze" keyTimes="0;0.0849629;0.0902732;0.2548966;0.2602069;0.3345543;1" path="M561.2 556.81 C561.2,555.39 561.2,549.68 561.2,548.26 C561.2,546.83 561.2,545.6 561.2,548.26 C561.2,550.93 561.2,561.59 561.2,564.25 C561.2,566.9 561.2,565.46 561.2,564.19 C561.2,562.92 561.2,557.89 561.2,556.63 C561.2,556.63 561.2,556.63 561.2,556.63 " keyPoints="0;0.22;0.31;0.72;0.8;1;1" keySplines="0.167 0 0.667 1;0.167 0 0.833 1;0.333 0 0.667 1;0.167 0 0.833 1;0.333 0 0.833 1;0 0 0 0" calcMode="spline"/><animateTransform repeatCount="indefinite" dur="6.2833333s" begin="0s" xlink:href="#_R_G_L_0_G_L_2_G" fill="freeze" attributeName="transform" from="0" to="359.966" type="rotate" additive="sum" keyTimes="0;0.9983474;1" values="0;359.966;359.966" keySplines="0.167 0.167 0.833 0.833;0 0 0 0" calcMode="spline"/><animateTransform repeatCount="indefinite" dur="6.2833333s" begin="0s" xlink:href="#_R_G_L_0_G_L_2_G" fill="freeze" attributeName="transform" from="-193.633 -193.633" to="-193.633 -193.633" type="translate" additive="sum" keyTimes="0;1" values="-193.633 -193.633;-193.633 -193.633" keySplines="0 0 1 1" calcMode="spline"/><animateMotion repeatCount="indefinite" dur="6.2833333s" begin="0s" xlink:href="#_R_G_L_0_G_L_1_G" fill="freeze" keyTimes="0;0.0849629;0.0902732;0.2548966;0.2602069;0.3345543;1" path="M782.62 325.62 C782.62,324.19 782.62,318.48 782.62,317.06 C782.62,315.63 782.62,314.4 782.62,317.07 C782.62,319.73 782.62,330.4 782.62,333.05 C782.62,335.7 782.62,334.26 782.62,332.99 C782.62,331.72 782.62,326.69 782.62,325.43 C782.62,325.43 782.62,325.43 782.62,325.43 " keyPoints="0;0.22;0.31;0.72;0.8;1;1" keySplines="0.167 0 0.667 1;0.167 0 0.833 1;0.333 0 0.667 1;0.167 0 0.833 1;0.333 0 0.833 1;0 0 0 0" calcMode="spline"/><animateTransform repeatCount="indefinite" dur="6.2833333s" begin="0s" xlink:href="#_R_G_L_0_G_L_1_G" fill="freeze" attributeName="transform" from="0" to="-359.966" type="rotate" additive="sum" keyTimes="0;0.9983474;1" values="0;-359.966;-359.966" keySplines="0.167 0.167 0.833 0.833;0 0 0 0" calcMode="spline"/><animateTransform repeatCount="indefinite" dur="6.2833333s" begin="0s" xlink:href="#_R_G_L_0_G_L_1_G" fill="freeze" attributeName="transform" from="-128.483 -128.483" to="-128.483 -128.483" type="translate" additive="sum" keyTimes="0;1" values="-128.483 -128.483;-128.483 -128.483" keySplines="0 0 1 1" calcMode="spline"/><animateMotion repeatCount="indefinite" dur="6.2833333s" begin="0s" xlink:href="#_R_G_L_0_G_L_0_G" fill="freeze" keyTimes="0;0.0849629;0.0902732;0.2548966;0.2602069;0.3345543;1" path="M339.78 325.62 C339.78,324.19 339.78,318.48 339.78,317.06 C339.78,315.63 339.78,314.4 339.78,317.07 C339.78,319.73 339.78,330.4 339.78,333.05 C339.78,335.7 339.78,334.26 339.78,332.99 C339.78,331.72 339.78,326.69 339.78,325.43 C339.78,325.43 339.78,325.43 339.78,325.43 " keyPoints="0;0.22;0.31;0.72;0.8;1;1" keySplines="0.167 0 0.667 1;0.167 0 0.833 1;0.333 0 0.667 1;0.167 0 0.833 1;0.333 0 0.833 1;0 0 0 0" calcMode="spline"/><animateTransform repeatCount="indefinite" dur="6.2833333s" begin="0s" xlink:href="#_R_G_L_0_G_L_0_G" fill="freeze" attributeName="transform" from="0" to="-359.966" type="rotate" additive="sum" keyTimes="0;0.9983474;1" values="0;-359.966;-359.966" keySplines="0.167 0.167 0.833 0.833;0 0 0 0" calcMode="spline"/><animateTransform repeatCount="indefinite" dur="6.2833333s" begin="0s" xlink:href="#_R_G_L_0_G_L_0_G" fill="freeze" attributeName="transform" from="-128.483 -128.483" to="-128.483 -128.483" type="translate" additive="sum" keyTimes="0;1" values="-128.483 -128.483;-128.483 -128.483" keySplines="0 0 1 1" calcMode="spline"/><animate attributeType="XML" attributeName="opacity" dur="6s" from="0" to="1" xlink:href="#time_group"/></defs><g id="_R_G"><g id="_R_G_L_0_G" transform=" translate(504, 696) scale(1.5, 1.5) translate(-540, -540)"><g id="_R_G_L_0_G_L_2_G"><path id="_R_G_L_0_G_L_2_G_D_0_P_0" fill="#3275cd" fill-opacity="1" fill-rule="nonzero" d=" M193.63 90.53 C136.69,90.53 90.53,136.69 90.53,193.63 C90.53,250.57 136.69,296.73 193.63,296.73 C250.57,296.73 296.73,250.57 296.73,193.63 C296.73,136.69 250.57,90.53 193.63,90.53z  M193.63 282 C144.83,282 105.26,242.44 105.26,193.63 C105.26,144.83 144.83,105.26 193.63,105.26 C242.44,105.26 282,144.83 282,193.63 C282,242.44 242.44,282 193.63,282z "/><path id="_R_G_L_0_G_L_2_G_D_1_P_0" fill="#1755a6" fill-opacity="1" fill-rule="nonzero" d=" M341.09 162.93 C337.19,144.13 329.79,126.62 319.6,111.1 C319.6,111.1 347.67,74.18 347.67,74.18 C347.67,74.18 339.98,66.49 339.98,66.49 C339.98,66.49 320.77,47.29 320.77,47.29 C320.77,47.29 313.08,39.6 313.08,39.6 C313.08,39.6 276.17,67.67 276.17,67.67 C260.65,57.48 243.14,50.08 224.34,46.18 C224.34,46.18 218.09,0.25 218.09,0.25 C218.09,0.25 207.21,0.25 207.21,0.25 C207.21,0.25 180.05,0.25 180.05,0.25 C180.05,0.25 169.18,0.25 169.18,0.25 C169.18,0.25 162.93,46.18 162.93,46.18 C144.13,50.08 126.62,57.48 111.1,67.67 C111.1,67.67 74.18,39.6 74.18,39.6 C74.18,39.6 66.49,47.29 66.49,47.29 C66.49,47.29 47.29,66.49 47.29,66.49 C47.29,66.49 39.6,74.18 39.6,74.18 C39.6,74.18 67.67,111.1 67.67,111.1 C57.48,126.62 50.08,144.13 46.18,162.93 C46.18,162.93 0.25,169.18 0.25,169.18 C0.25,169.18 0.25,180.05 0.25,180.05 C0.25,180.05 0.25,207.21 0.25,207.21 C0.25,207.21 0.25,218.09 0.25,218.09 C0.25,218.09 46.18,224.34 46.18,224.34 C50.07,243.14 57.48,260.65 67.67,276.17 C67.67,276.17 39.6,313.08 39.6,313.08 C39.6,313.08 47.29,320.77 47.29,320.77 C47.29,320.77 66.49,339.98 66.49,339.98 C66.49,339.98 74.18,347.67 74.18,347.67 C74.18,347.67 111.09,319.6 111.09,319.6 C126.62,329.79 144.13,337.19 162.93,341.09 C162.93,341.09 169.18,387.02 169.18,387.02 C169.18,387.02 180.05,387.02 180.05,387.02 C180.05,387.02 207.21,387.02 207.21,387.02 C207.21,387.02 218.09,387.02 218.09,387.02 C218.09,387.02 224.34,341.09 224.34,341.09 C243.14,337.19 260.65,329.79 276.17,319.6 C276.17,319.6 313.08,347.67 313.08,347.67 C313.08,347.67 320.77,339.98 320.77,339.98 C320.77,339.98 339.98,320.77 339.98,320.77 C339.98,320.77 347.67,313.08 347.67,313.08 C347.67,313.08 319.6,276.17 319.6,276.17 C329.79,260.65 337.19,243.14 341.09,224.34 C341.09,224.34 387.02,218.09 387.02,218.09 C387.02,218.09 387.02,207.21 387.02,207.21 C387.02,207.21 387.02,180.05 387.02,180.05 C387.02,180.05 387.02,169.18 387.02,169.18 C387.02,169.18 341.09,162.93 341.09,162.93z  M193.63 294.66 C137.84,294.66 92.61,249.43 92.61,193.63 C92.61,137.84 137.84,92.61 193.63,92.61 C249.43,92.61 294.66,137.84 294.66,193.63 C294.66,249.43 249.43,294.66 193.63,294.66z "/></g><g id="_R_G_L_0_G_L_1_G"><path id="_R_G_L_0_G_L_1_G_D_0_P_0" fill="#ffc382" fill-opacity="1" fill-rule="nonzero" d=" M98.96 65.55 C64.2,81.85 49.24,123.25 65.55,158 C81.85,192.76 123.25,207.72 158.01,191.42 C192.76,175.11 207.72,133.72 191.42,98.96 C175.11,64.2 133.72,49.24 98.96,65.55z  M153.79 182.43 C123.99,196.4 88.51,183.58 74.54,153.79 C60.56,123.99 73.39,88.51 103.18,74.54 C132.97,60.56 168.45,73.39 182.43,103.18 C196.4,132.97 183.58,168.45 153.79,182.43z "/><path id="_R_G_L_0_G_L_1_G_D_1_P_0" fill="#fa8c16" fill-opacity="1" fill-rule="nonzero" d=" M229.01 142.8 C230.79,130.41 230.29,117.6 227.29,105 C227.29,105 253.54,88.04 253.54,88.04 C253.54,88.04 250.42,81.4 250.42,81.4 C250.42,81.4 242.64,64.82 242.64,64.82 C242.64,64.82 239.53,58.18 239.53,58.18 C239.53,58.18 209.7,67.52 209.7,67.52 C201.94,57.16 192.41,48.59 181.74,42.03 C181.74,42.03 188.31,11.46 188.31,11.46 C188.31,11.46 181.41,8.97 181.41,8.97 C181.41,8.97 164.19,2.74 164.19,2.74 C164.19,2.74 157.29,0.25 157.29,0.25 C157.29,0.25 142.8,27.96 142.8,27.96 C130.41,26.18 117.6,26.68 105,29.68 C105,29.68 88.04,3.43 88.04,3.43 C88.04,3.43 81.4,6.55 81.4,6.55 C81.4,6.55 64.82,14.32 64.82,14.32 C64.82,14.32 58.18,17.44 58.18,17.44 C58.18,17.44 67.52,47.26 67.52,47.26 C57.16,55.02 48.59,64.56 42.03,75.22 C42.03,75.22 11.46,68.66 11.46,68.66 C11.46,68.66 8.97,75.55 8.97,75.55 C8.97,75.55 2.74,92.78 2.74,92.78 C2.74,92.78 0.25,99.67 0.25,99.67 C0.25,99.67 27.96,114.17 27.96,114.17 C26.18,126.56 26.67,139.37 29.68,151.96 C29.68,151.96 3.43,168.93 3.43,168.93 C3.43,168.93 6.55,175.57 6.55,175.57 C6.55,175.57 14.32,192.15 14.32,192.15 C14.32,192.15 17.44,198.78 17.44,198.78 C17.44,198.78 47.26,189.45 47.26,189.45 C55.02,199.81 64.56,208.38 75.22,214.94 C75.22,214.94 68.66,245.51 68.66,245.51 C68.66,245.51 75.55,248 75.55,248 C75.55,248 92.78,254.22 92.78,254.22 C92.78,254.22 99.67,256.72 99.67,256.72 C99.67,256.72 114.17,229.01 114.17,229.01 C126.56,230.79 139.37,230.29 151.96,227.29 C151.96,227.29 168.93,253.53 168.93,253.53 C168.93,253.53 175.57,250.42 175.57,250.42 C175.57,250.42 192.15,242.64 192.15,242.64 C192.15,242.64 198.79,239.53 198.79,239.53 C198.79,239.53 189.45,209.7 189.45,209.7 C199.81,201.94 208.38,192.41 214.94,181.74 C214.94,181.74 245.51,188.31 245.51,188.31 C245.51,188.31 248,181.41 248,181.41 C248,181.41 254.22,164.19 254.22,164.19 C254.22,164.19 256.72,157.29 256.72,157.29 C256.72,157.29 229.01,142.8 229.01,142.8z  M157.41 190.15 C123.35,206.13 82.79,191.47 66.81,157.41 C50.84,123.35 65.5,82.79 99.56,66.81 C133.62,50.84 174.18,65.49 190.16,99.55 C206.13,133.61 191.47,174.18 157.41,190.15z "/></g><g id="_R_G_L_0_G_L_0_G"><path id="_R_G_L_0_G_L_0_G_D_0_P_0" fill="#17a361" fill-opacity="1" fill-rule="nonzero" d=" M56.63 94.78 C38.02,134.46 55.1,181.72 94.78,200.34 C134.46,218.95 181.72,201.87 200.34,162.19 C218.95,122.5 201.87,75.24 162.19,56.63 C122.5,38.01 75.24,55.09 56.63,94.78z "/><path id="_R_G_L_0_G_L_0_G_D_1_P_0" fill="#ffffff" fill-opacity="1" fill-rule="nonzero" d=" M88.24 109.61 C77.81,131.83 87.38,158.3 109.61,168.73 C131.83,179.15 158.3,169.59 168.73,147.36 C179.15,125.14 169.59,98.67 147.36,88.24 C125.14,77.82 98.67,87.38 88.24,109.61z "/><path id="_R_G_L_0_G_L_0_G_D_2_P_0" fill="#077d45" fill-opacity="1" fill-rule="nonzero" d=" M229.01 114.17 C229.01,114.17 256.72,99.67 256.72,99.67 C256.72,99.67 254.22,92.78 254.22,92.78 C254.22,92.78 248,75.55 248,75.55 C248,75.55 245.51,68.66 245.51,68.66 C245.51,68.66 214.94,75.22 214.94,75.22 C208.38,64.56 199.81,55.02 189.45,47.26 C189.45,47.26 198.78,17.44 198.78,17.44 C198.78,17.44 192.15,14.32 192.15,14.32 C192.15,14.32 175.57,6.55 175.57,6.55 C175.57,6.55 168.93,3.43 168.93,3.43 C168.93,3.43 151.96,29.68 151.96,29.68 C139.37,26.68 126.56,26.18 114.17,27.96 C114.17,27.96 99.67,0.25 99.67,0.25 C99.67,0.25 92.78,2.74 92.78,2.74 C92.78,2.74 75.55,8.97 75.55,8.97 C75.55,8.97 68.66,11.46 68.66,11.46 C68.66,11.46 75.22,42.03 75.22,42.03 C64.56,48.59 55.03,57.16 47.26,67.52 C47.26,67.52 17.44,58.18 17.44,58.18 C17.44,58.18 14.32,64.82 14.32,64.82 C14.32,64.82 6.55,81.4 6.55,81.4 C6.55,81.4 3.43,88.04 3.43,88.04 C3.43,88.04 29.68,105 29.68,105 C26.67,117.6 26.18,130.41 27.96,142.8 C27.96,142.8 0.25,157.29 0.25,157.29 C0.25,157.29 2.74,164.19 2.74,164.19 C2.74,164.19 8.97,181.41 8.97,181.41 C8.97,181.41 11.46,188.31 11.46,188.31 C11.46,188.31 42.03,181.74 42.03,181.74 C48.59,192.41 57.16,201.94 67.52,209.7 C67.52,209.7 58.18,239.53 58.18,239.53 C58.18,239.53 64.82,242.64 64.82,242.64 C64.82,242.64 81.4,250.42 81.4,250.42 C81.4,250.42 88.04,253.53 88.04,253.53 C88.04,253.53 105.01,227.29 105.01,227.29 C117.6,230.29 130.41,230.79 142.8,229.01 C142.8,229.01 157.29,256.72 157.29,256.72 C157.29,256.72 164.19,254.22 164.19,254.22 C164.19,254.22 181.41,248 181.41,248 C181.41,248 188.31,245.51 188.31,245.51 C188.31,245.51 181.74,214.94 181.74,214.94 C192.41,208.38 201.94,199.81 209.7,189.45 C209.7,189.45 239.53,198.78 239.53,198.78 C239.53,198.78 242.64,192.15 242.64,192.15 C242.64,192.15 250.42,175.57 250.42,175.57 C250.42,175.57 253.53,168.93 253.53,168.93 C253.53,168.93 227.29,151.96 227.29,151.96 C230.29,139.37 230.79,126.56 229.01,114.17z  M99.55 190.15 C65.5,174.18 50.83,133.61 66.81,99.55 C82.79,65.49 123.35,50.84 157.41,66.81 C191.47,82.79 206.13,123.35 190.16,157.41 C174.18,191.47 133.62,206.13 99.55,190.15z "/></g></g></g><g id="time_group"/></svg>