<svg width="302" height="233" viewBox="0 0 302 233" fill="none" xmlns="http://www.w3.org/2000/svg">
<path d="M298.193 199.768H3.80664V199.915H298.193V199.768Z" fill="#EBEBEB"/>
<path d="M256.806 203.777H199.344V203.924H256.806V203.777Z" fill="#EBEBEB"/>
<path d="M201.437 207.179H173.961V207.326H201.437V207.179Z" fill="#EBEBEB"/>
<path d="M268.696 209.245H257.396V209.392H268.696V209.245Z" fill="#EBEBEB"/>
<path d="M132.749 207.253H78.2715V207.4H132.749V207.253Z" fill="#EBEBEB"/>
<path d="M73.0289 207.253H61.3105V207.4H73.0289V207.253Z" fill="#EBEBEB"/>
<path d="M57.1822 204.767H37.834V204.914H57.1822V204.767Z" fill="#EBEBEB"/>
<path d="M143.355 173.51H29.6635C27.8106 173.51 26.3027 172.002 26.3027 170.149V10.3373C26.3027 8.48441 27.8106 6.97656 29.6635 6.97656H143.355C145.207 6.97656 146.715 8.48441 146.715 10.3373V170.149C146.715 172.002 145.207 173.51 143.355 173.51ZM29.6635 7.12434C27.8912 7.12434 26.4499 8.56566 26.4499 10.3379V170.15C26.4499 171.922 27.8912 173.363 29.6635 173.363H143.355C145.127 173.363 146.568 171.922 146.568 170.15V10.3373C146.568 8.56566 145.127 7.12376 143.355 7.12376L29.6635 7.12434Z" fill="#EBEBEB"/>
<path d="M270.703 173.51H157.012C155.16 173.51 153.652 172.002 153.652 170.149V10.3373C153.652 8.48441 155.16 6.97656 157.012 6.97656H270.703C272.557 6.97656 274.064 8.48441 274.064 10.3373V170.149C274.065 172.002 272.557 173.51 270.703 173.51ZM157.012 7.12434C155.241 7.12434 153.8 8.56566 153.8 10.3379V170.15C153.8 171.922 155.241 173.363 157.012 173.363H270.703C272.476 173.363 273.917 171.922 273.917 170.15V10.3373C273.917 8.56566 272.476 7.12376 270.703 7.12376L157.012 7.12434Z" fill="#EBEBEB"/>
<path d="M234.06 194.35H56.2274L45.623 73.7188H223.455L234.06 194.35Z" fill="#F0F0F0"/>
<path d="M53.0854 198.192L56.2277 194.35L45.6233 73.7188L42.4863 77.6205L53.0854 198.192Z" fill="#E0E0E0"/>
<path d="M58.577 189.769L48.8086 78.6492C48.7056 77.4781 49.6282 76.4707 50.804 76.4707H219.11C220.148 76.4707 221.014 77.2638 221.105 78.2983L230.874 189.418C230.977 190.589 230.054 191.596 228.878 191.596H60.5723C59.5343 191.596 58.6682 190.803 58.577 189.769Z" fill="#FAFAFA"/>
<path d="M81.2212 194.35H54.4279L52.5332 199.768H79.3265L81.2212 194.35Z" fill="#E0E0E0"/>
<path d="M81.2208 194.35H257.395L255.5 199.768H79.3262L81.2208 194.35Z" fill="#F5F5F5"/>
<path d="M153.768 194.35H187.538L187.175 197.898H153.404L153.768 194.35Z" fill="#E0E0E0"/>
<path d="M204.943 65.8018H247.612C251.147 89.209 234.796 108.47 211.389 108.47C203.9 108.47 196.243 106.498 189.191 102.754L204.943 65.8018Z" fill="#E0E0E0"/>
<path d="M204.943 65.8019L227.433 33.1162C232.811 37.121 237.404 42.1233 240.89 47.7696C244.376 53.4159 246.67 59.5716 247.611 65.8019H204.943Z" fill="#EBEBEB"/>
<path d="M204.941 65.8022L198.496 23.1338C203.474 23.1338 208.544 24.0046 213.478 25.7067C218.413 27.4089 223.134 29.9165 227.43 33.1159L204.941 65.8022Z" fill="#E6E6E6"/>
<path d="M204.942 65.8022L189.19 102.754C174.855 95.1413 164.574 81.0267 162.274 65.8022C158.738 42.3949 175.09 23.1338 198.497 23.1338L204.942 65.8022Z" fill="#F0F0F0"/>
<path d="M152.27 141.945H190.119C190.619 145.253 190.682 148.547 190.309 151.741C189.936 154.936 189.128 158.005 187.907 160.87L152.27 141.945Z" fill="#EBEBEB"/>
<path d="M152.27 141.945L153.212 104.671C162.206 106.216 170.841 110.801 177.589 117.616C184.336 124.431 188.775 133.049 190.119 141.946H152.27V141.945Z" fill="#E0E0E0"/>
<path d="M152.27 141.945L118.659 154.89C116.522 150.741 115.088 146.36 114.421 141.945C111.284 121.181 125.789 104.096 146.553 104.096C148.756 104.096 150.985 104.288 153.213 104.671L152.27 141.945Z" fill="#F0F0F0"/>
<path d="M152.269 141.945L187.906 160.87C182.92 172.566 171.492 179.795 157.986 179.795C142.112 179.795 126.341 169.808 118.658 154.891L152.269 141.945Z" fill="white"/>
<path d="M151 226.359C214.047 226.359 265.157 223.374 265.157 219.692C265.157 216.01 214.047 213.025 151 213.025C87.9534 213.025 36.8438 216.01 36.8438 219.692C36.8438 223.374 87.9534 226.359 151 226.359Z" fill="#F5F5F5"/>
<path d="M145.457 115.566H92.4237C89.0583 115.566 86.0803 112.812 85.8059 109.447L83.1511 76.8369C82.8774 73.4715 85.4067 70.7178 88.7722 70.7178H141.806C145.171 70.7178 148.149 73.4715 148.423 76.8369L151.078 109.447C151.353 112.812 148.823 115.566 145.457 115.566Z" fill="white"/>
<path d="M145.456 115.821H92.4226C88.9188 115.821 85.836 112.971 85.5511 109.468L82.8963 76.8581C82.7579 75.1542 83.2972 73.5486 84.4153 72.3352C85.5287 71.1276 87.076 70.4629 88.7717 70.4629H141.805C145.309 70.4629 148.391 73.3131 148.677 76.8163L151.332 109.426C151.47 111.129 150.931 112.735 149.813 113.948C148.699 115.156 147.153 115.821 145.456 115.821ZM88.7717 70.9734C87.2197 70.9734 85.8054 71.5804 84.7904 72.6814C83.77 73.7889 83.2778 75.2573 83.4044 76.8169L86.0592 109.427C86.3235 112.671 89.1779 115.312 92.4226 115.312H145.456C147.008 115.312 148.423 114.704 149.438 113.603C150.458 112.496 150.95 111.028 150.824 109.469L148.169 76.8587C147.905 73.6134 145.05 70.9734 141.805 70.9734H88.7717Z" fill="#EBEBEB"/>
<path d="M131.066 106.045C128.986 108.309 126.298 109.935 123.27 110.767L122.393 108.253C128.922 106.468 133.343 100.379 132.753 93.143C132.402 88.8238 130.334 84.9125 127.274 82.0823L128.964 80.2412C136.62 87.32 137.568 98.9671 131.066 106.045Z" fill="#E0E0E0"/>
<path d="M128.963 80.2418L127.272 82.0829C124.212 79.2526 120.158 77.5034 115.839 77.5034C111.52 77.5034 107.751 79.2573 105.157 82.0876L103.16 80.2418C106.304 76.8198 110.792 74.8975 115.627 74.8975C120.466 74.8975 125.263 76.8198 128.963 80.2418Z" fill="#FA8C16"/>
<path d="M123.27 110.767C117.12 112.45 110.242 110.645 105.262 106.045C97.6129 98.9669 96.665 87.3204 103.162 80.2422L105.158 82.088C102.558 84.9182 101.127 88.8241 101.479 93.1434C102.182 101.777 109.753 108.778 118.387 108.778C119.784 108.778 121.13 108.595 122.393 108.253L123.27 110.767Z" fill="#1755A6"/>
<path d="M73.217 18.0078H68.9648V18.5166H73.217V18.0078Z" fill="#1755A6"/>
<path d="M64.8419 18.0078H55.1602V18.5166H64.8419V18.0078Z" fill="#1755A6"/>
<path d="M109.872 64.8764H56.8378C53.4724 64.8764 50.4944 62.1227 50.22 58.7572L47.5652 26.1474C47.2914 22.782 49.8208 20.0283 53.1862 20.0283H106.22C109.585 20.0283 112.563 22.782 112.837 26.1474L115.492 58.7572C115.766 62.1227 113.237 64.8764 109.872 64.8764Z" fill="white"/>
<path d="M109.871 65.1319H56.8363C53.3325 65.1319 50.2497 62.2817 49.9647 58.7785L47.3105 26.1687C47.1716 24.4654 47.7109 22.8592 48.8296 21.6463C49.9429 20.4382 51.4902 19.7734 53.1859 19.7734H106.22C109.723 19.7734 112.806 22.6237 113.091 26.1269L115.746 58.7367C115.884 60.4406 115.345 62.0462 114.227 63.2596C113.114 64.4672 111.566 65.1319 109.871 65.1319ZM53.1853 20.2833C51.6333 20.2833 50.2196 20.8903 49.204 21.9919C48.1837 23.0988 47.6915 24.5672 47.8186 26.1269L50.4734 58.7367C50.7378 61.982 53.5921 64.622 56.8369 64.622H109.871C111.423 64.622 112.837 64.0156 113.852 62.914C114.873 61.8065 115.365 60.3381 115.238 58.7779L112.583 26.1681C112.319 22.9228 109.464 20.2827 106.22 20.2827L53.1853 20.2833Z" fill="#EBEBEB"/>
<path d="M52.3609 29.3864H80.4642L80.2381 26.6104H52.1348L52.3609 29.3864Z" fill="#FFEDDA"/>
<path d="M108.568 29.3864H80.4644L80.2383 26.6104H108.342L108.568 29.3864Z" fill="#FA8C16"/>
<path d="M52.9487 36.6136H60.9661L60.74 33.8369H52.7227L52.9487 36.6136Z" fill="#CCEFDE"/>
<path d="M109.156 36.6136H60.9663L60.7402 33.8369H108.93L109.156 36.6136Z" fill="#077D45"/>
<path d="M53.5386 43.8415H78.5544L78.3283 41.0654H53.3125L53.5386 43.8415Z" fill="#CDDCEF"/>
<path d="M109.744 43.8415H78.5523L78.3262 41.0654H109.518L109.744 43.8415Z" fill="#1755A6"/>
<path d="M54.1245 51.0686H96.8176L96.5916 48.292H53.8984L54.1245 51.0686Z" fill="#FFEDDA"/>
<path d="M110.333 51.0686H96.8198L96.5938 48.292H110.107L110.333 51.0686Z" fill="#FA8C16"/>
<path d="M54.7144 58.2966H74.4606L74.2345 55.5205H54.4883L54.7144 58.2966Z" fill="#CCEFDE"/>
<path d="M110.921 58.2966H74.4605L74.2344 55.5205H110.695L110.921 58.2966Z" fill="#077D45"/>
<path d="M182.369 64.8764H129.335C125.97 64.8764 122.992 62.1227 122.718 58.7572L120.063 26.1474C119.789 22.782 122.319 20.0283 125.684 20.0283H178.718C182.083 20.0283 185.061 22.782 185.336 26.1474L187.991 58.7572C188.264 62.1227 185.734 64.8764 182.369 64.8764Z" fill="white"/>
<path d="M182.368 65.1319H129.335C125.831 65.1319 122.748 62.2817 122.463 58.7785L119.808 26.1687C119.67 24.4654 120.209 22.8592 121.327 21.6457C122.441 20.4382 123.988 19.7734 125.683 19.7734H178.717C182.221 19.7734 185.304 22.6237 185.589 26.1269L188.244 58.7367C188.383 60.44 187.843 62.0462 186.725 63.259C185.612 64.4672 184.065 65.1319 182.368 65.1319ZM125.683 20.2833C124.132 20.2833 122.718 20.8898 121.702 21.9913C120.682 23.0988 120.189 24.5672 120.316 26.1269L122.971 58.7367C123.235 61.982 126.09 64.622 129.334 64.622H182.368C183.92 64.622 185.334 64.015 186.349 62.9134C187.37 61.8065 187.862 60.3381 187.735 58.7785L185.08 26.1687C184.815 22.9234 181.961 20.2833 178.716 20.2833H125.683Z" fill="#EBEBEB"/>
<path d="M155.784 58.2964H154.848L152.268 26.6104H153.204L155.784 58.2964Z" fill="#CDDCEF"/>
<path d="M157.198 45.1292H151.291L150.283 32.749H156.19L157.198 45.1292Z" fill="#1755A6"/>
<path d="M144.158 58.2964H143.222L140.643 26.6104H141.579L144.158 58.2964Z" fill="#FFEDDA"/>
<path d="M145.796 47.88H139.89L139.006 37.0283H144.912L145.796 47.88Z" fill="#FA8C16"/>
<path d="M132.533 58.2964H131.597L129.018 26.6104H129.953L132.533 58.2964Z" fill="#CCEFDE"/>
<path d="M133.445 38.9503H127.538L126.932 31.5H132.838L133.445 38.9503Z" fill="#077D45"/>
<path d="M167.406 58.2964H166.47L163.891 26.6104H164.827L167.406 58.2964Z" fill="#FFEDDA"/>
<path d="M169.392 52.1567H163.486L161.906 32.749H167.812L169.392 52.1567Z" fill="#FA8C16"/>
<path d="M179.033 58.2964H178.097L175.518 26.6104H176.454L179.033 58.2964Z" fill="#CDDCEF"/>
<path d="M181.207 54.4825H175.3L174.035 38.9395H179.942L181.207 54.4825Z" fill="#1755A6"/>
<path d="M125.619 165.839H72.5853C69.2198 165.839 66.2418 163.086 65.968 159.72L63.3133 127.11C63.0395 123.745 65.5688 120.991 68.9343 120.991H121.968C125.333 120.991 128.311 123.745 128.585 127.11L131.24 159.72C131.514 163.086 128.984 165.839 125.619 165.839Z" fill="white"/>
<path d="M125.618 166.094H72.5848C69.081 166.094 65.9981 163.245 65.7132 159.741L63.0584 127.132C62.92 125.428 63.4594 123.822 64.5774 122.609C65.6908 121.401 67.2381 120.736 68.9338 120.736H121.968C125.471 120.736 128.554 123.587 128.839 127.09L131.494 159.7C131.633 161.402 131.093 163.008 129.975 164.222C128.862 165.43 127.315 166.094 125.618 166.094ZM68.9338 121.246C67.3818 121.246 65.9675 121.853 64.9525 122.954C63.9321 124.062 63.4399 125.53 63.5665 127.09L66.2213 159.7C66.4856 162.944 69.3406 165.584 72.5848 165.584H125.618C127.171 165.584 128.585 164.977 129.6 163.876C130.62 162.769 131.112 161.3 130.985 159.741L128.33 127.132C128.066 123.886 125.212 121.246 121.967 121.246H68.9338Z" fill="#EBEBEB"/>
<path d="M76.1087 142.638L87.5391 155.844L100.647 135.625L108.753 146.073L110.731 143.022L123.981 158.903L73.0918 158.883L76.1087 142.638Z" fill="#68D69F"/>
<path d="M114.266 143.457L108.953 154.833L92.0091 127.93L84.03 145.015L81.4736 140.955L73.0918 158.902L123.978 158.877L114.266 143.457Z" fill="#73BE99"/>
<path d="M223.348 68.2718C224.767 70.9336 225.985 73.5643 227.133 76.3044C228.252 79.0458 229.286 81.8307 230.095 84.7733C230.301 85.5034 230.48 86.2565 230.65 87.013C230.718 87.2697 230.885 88.0893 230.883 88.6098C230.911 89.188 230.866 89.709 230.794 90.2071C230.475 92.1648 229.79 93.665 229.043 95.0828C227.517 97.8894 225.678 100.215 223.539 102.412C222.897 103.071 221.843 103.085 221.184 102.443C220.646 101.919 220.538 101.12 220.866 100.486L220.908 100.406C222.17 97.9695 223.42 95.3983 224.264 92.9585C224.671 91.7497 224.993 90.5127 224.992 89.6019C224.985 89.3846 224.978 89.1844 224.945 89.0455C224.932 88.9731 224.918 88.9077 224.895 88.8718L224.786 88.5256C224.589 87.8915 224.388 87.2568 224.153 86.6174C223.261 84.0609 222.158 81.4939 221.013 78.9474C219.872 76.4086 218.645 73.8269 217.432 71.3729L217.407 71.3228C216.59 69.6695 217.268 67.6665 218.921 66.8487C220.542 66.0468 222.502 66.688 223.348 68.2718Z" fill="#979797"/>
<path d="M221.505 100.156L218.695 101.041L222.002 104.913C222.002 104.913 223.279 103.79 223.739 102.164C223.894 101.615 223.667 101.028 223.205 100.694L222.736 100.355C222.38 100.098 221.924 100.024 221.505 100.156Z" fill="#F4B369"/>
<path d="M214.824 103.428L218.368 106.24L222.003 104.913L218.695 101.041L214.824 103.428Z" fill="#F4B369"/>
<path d="M202.721 48.5787C202.65 48.9273 202.408 49.1716 202.181 49.1257C201.953 49.0792 201.826 48.7595 201.897 48.4109C201.967 48.0624 202.209 47.818 202.437 47.8639C202.665 47.911 202.792 48.2307 202.721 48.5787Z" fill="black"/>
<path d="M202.442 49.1797C202.442 49.1797 201.241 51.0284 200.172 51.8209C200.671 52.5216 201.772 52.4715 201.772 52.4715L202.442 49.1797Z" fill="#E49943"/>
<path d="M204.39 46.9033C204.441 46.9033 204.492 46.8851 204.532 46.848C204.617 46.7698 204.622 46.638 204.543 46.5533C203.76 45.7056 202.808 45.8562 202.768 45.8633C202.654 45.8827 202.577 45.9903 202.597 46.1039C202.616 46.2174 202.725 46.2927 202.837 46.2745C202.868 46.2697 203.612 46.1603 204.237 46.8362C204.278 46.8809 204.334 46.9033 204.39 46.9033Z" fill="black"/>
<path d="M212.395 54.9189C211.763 58.1431 211.382 62.6095 213.637 64.7609C213.637 64.7609 212.755 68.0309 206.764 68.0309C200.177 68.0309 203.596 65.1607 203.596 65.1607C206.333 64.3111 206.31 61.1917 205.683 58.6871L212.395 54.9189Z" fill="#F4B369"/>
<path d="M202.443 64.6583C202.443 64.6583 203.404 62.3821 204.385 61.9899C205.367 61.5972 211.614 60.5704 213.053 61.4765C214.492 62.3827 215.464 65.2941 215.464 65.2941L202.443 64.6583Z" fill="#979797"/>
<path d="M209.045 215.417C208.479 215.417 207.933 215.339 207.75 215.085C207.686 214.996 207.636 214.845 207.759 214.629C207.828 214.508 207.939 214.426 208.09 214.385C208.824 214.186 210.363 215.063 210.429 215.1C210.466 215.122 210.487 215.165 210.48 215.207C210.473 215.25 210.44 215.284 210.397 215.293C210.116 215.349 209.572 215.417 209.045 215.417ZM208.346 214.563C208.272 214.563 208.205 214.57 208.144 214.587C208.048 214.613 207.981 214.661 207.94 214.733C207.866 214.862 207.893 214.926 207.92 214.963C208.125 215.248 209.239 215.254 210.058 215.138C209.65 214.929 208.861 214.563 208.346 214.563Z" fill="#1755A6"/>
<path d="M210.376 215.295C210.362 215.295 210.348 215.292 210.334 215.286C209.801 215.047 208.748 214.094 208.829 213.596C208.847 213.479 208.93 213.334 209.217 213.304C209.432 213.282 209.625 213.343 209.796 213.483C210.356 213.944 210.475 215.13 210.48 215.181C210.484 215.218 210.467 215.254 210.437 215.276C210.419 215.289 210.398 215.295 210.376 215.295ZM209.301 213.509C209.281 213.509 209.26 213.51 209.239 213.512C209.051 213.531 209.039 213.605 209.035 213.629C208.987 213.928 209.703 214.677 210.246 215.003C210.189 214.657 210.032 213.946 209.664 213.644C209.553 213.553 209.434 213.509 209.301 213.509Z" fill="#1755A6"/>
<path d="M215.221 215.191H210.814L210.375 204.985H214.782L215.221 215.191Z" fill="#F4B369"/>
<path d="M210.844 214.682H215.657C215.837 214.682 215.993 214.806 216.032 214.983L216.902 218.9C216.992 219.306 216.684 219.69 216.268 219.683C214.532 219.654 212.024 219.552 209.842 219.552C207.291 219.552 206.982 219.691 203.99 219.691C202.181 219.691 201.678 217.862 202.436 217.696C205.883 216.942 206.804 216.861 209.783 215.024C210.106 214.825 210.464 214.682 210.844 214.682Z" fill="#141414"/>
<path d="M221.529 64.7768C225.659 65.7236 228.384 76.8702 228.384 76.8702L221.488 82.0509C221.488 82.0509 217.726 79.7199 216.371 74.4457C214.952 68.9189 217.306 63.8089 221.529 64.7768Z" fill="#FFBF05"/>
<path opacity="0.2" d="M217.988 72.5312C220.231 74.7509 221.681 78.2547 221.855 81.7697L221.49 82.0517C221.49 82.0517 217.724 79.7172 216.368 74.4448C216.284 74.115 216.212 73.7847 216.152 73.4609L217.988 72.5312Z" fill="black"/>
<path d="M236.377 81.3637L202.92 94.7344L212.864 119.617L246.321 106.246L236.377 81.3637Z" fill="#1755A6"/>
<path opacity="0.5" d="M235.886 81.5601L202.92 94.7344L212.864 119.617L245.83 106.443L235.886 81.5601Z" fill="white"/>
<g opacity="0.5">
<path d="M208.961 94.8727L205.84 96.1201L206.724 98.3322L209.845 97.0848L208.961 94.8727Z" fill="#1755A6"/>
<path d="M214.113 92.8132L210.992 94.0605L211.876 96.2726L214.998 95.0253L214.113 92.8132Z" fill="#1755A6"/>
<path d="M219.268 90.7536L216.146 92.001L217.031 94.2131L220.152 92.9657L219.268 90.7536Z" fill="#1755A6"/>
<path d="M224.42 88.694L221.299 89.9414L222.183 92.1535L225.304 90.9061L224.42 88.694Z" fill="#1755A6"/>
<path d="M229.576 86.6345L226.455 87.8818L227.339 90.0939L230.46 88.8466L229.576 86.6345Z" fill="#1755A6"/>
<path d="M234.729 84.5788L231.607 85.8262L232.491 88.0383L235.613 86.7909L234.729 84.5788Z" fill="#1755A6"/>
<path d="M210.42 98.5251L207.299 99.7725L208.183 101.985L211.304 100.738L210.42 98.5251Z" fill="#1755A6"/>
<path d="M215.572 96.4665L212.451 97.7139L213.335 99.9265L216.457 98.6791L215.572 96.4665Z" fill="#1755A6"/>
<path d="M220.729 94.4069L217.607 95.6543L218.492 97.8669L221.613 96.6196L220.729 94.4069Z" fill="#1755A6"/>
<path d="M225.881 92.3473L222.76 93.5947L223.644 95.8068L226.765 94.5594L225.881 92.3473Z" fill="#1755A6"/>
<path d="M231.035 90.2878L227.914 91.5352L228.798 93.7478L231.92 92.5004L231.035 90.2878Z" fill="#1755A6"/>
<path d="M236.188 88.2282L233.066 89.4756L233.95 91.6877L237.072 90.4403L236.188 88.2282Z" fill="#1755A6"/>
<path d="M211.881 102.179L208.76 103.427L209.644 105.639L212.765 104.391L211.881 102.179Z" fill="#1755A6"/>
<path d="M217.035 100.118L213.914 101.365L214.798 103.577L217.919 102.33L217.035 100.118Z" fill="#1755A6"/>
<path d="M222.188 98.0602L219.066 99.3076L219.95 101.52L223.072 100.272L222.188 98.0602Z" fill="#1755A6"/>
<path d="M227.34 96.0007L224.219 97.248L225.103 99.4601L228.224 98.2128L227.34 96.0007Z" fill="#1755A6"/>
<path d="M232.496 93.945L229.375 95.1924L230.259 97.4045L233.38 96.1571L232.496 93.945Z" fill="#1755A6"/>
<path d="M237.649 91.8854L234.527 93.1328L235.412 95.3454L238.533 94.0981L237.649 91.8854Z" fill="#1755A6"/>
<path d="M213.34 105.832L210.219 107.079L211.103 109.292L214.224 108.044L213.34 105.832Z" fill="#1755A6"/>
<path d="M218.492 103.772L215.371 105.02L216.255 107.232L219.377 105.985L218.492 103.772Z" fill="#1755A6"/>
<path d="M223.649 101.711L220.527 102.958L221.411 105.17L224.533 103.923L223.649 101.711Z" fill="#1755A6"/>
<path d="M228.801 99.654L225.68 100.901L226.564 103.114L229.685 101.867L228.801 99.654Z" fill="#1755A6"/>
<path d="M233.955 97.5944L230.834 98.8418L231.718 101.054L234.839 99.8065L233.955 97.5944Z" fill="#1755A6"/>
<path d="M239.108 95.5348L235.986 96.7822L236.87 98.9943L239.992 97.7469L239.108 95.5348Z" fill="#1755A6"/>
<path d="M214.801 109.484L211.68 110.731L212.564 112.944L215.685 111.696L214.801 109.484Z" fill="#1755A6"/>
<path d="M219.955 107.425L216.834 108.673L217.718 110.885L220.839 109.638L219.955 107.425Z" fill="#1755A6"/>
<path d="M225.108 105.366L221.986 106.613L222.87 108.825L225.992 107.578L225.108 105.366Z" fill="#1755A6"/>
<path d="M230.26 103.308L227.139 104.556L228.023 106.768L231.144 105.52L230.26 103.308Z" fill="#1755A6"/>
<path d="M235.414 101.251L232.293 102.498L233.177 104.711L236.299 103.463L235.414 101.251Z" fill="#1755A6"/>
<path d="M240.567 99.1862L237.445 100.434L238.33 102.646L241.451 101.399L240.567 99.1862Z" fill="#1755A6"/>
<path d="M216.26 113.138L213.139 114.386L214.023 116.598L217.144 115.351L216.26 113.138Z" fill="#1755A6"/>
<path d="M221.414 111.079L218.293 112.326L219.177 114.539L222.299 113.291L221.414 111.079Z" fill="#1755A6"/>
<path d="M226.567 109.019L223.445 110.267L224.33 112.479L227.451 111.232L226.567 109.019Z" fill="#1755A6"/>
<path d="M231.719 106.96L228.598 108.207L229.482 110.419L232.603 109.172L231.719 106.96Z" fill="#1755A6"/>
<path d="M236.875 104.898L233.754 106.146L234.638 108.358L237.759 107.11L236.875 104.898Z" fill="#1755A6"/>
<path d="M242.03 102.841L238.908 104.088L239.792 106.3L242.914 105.053L242.03 102.841Z" fill="#1755A6"/>
</g>
<path d="M233.608 89.2569C233.417 88.7783 233.65 88.2348 234.128 88.0435C234.607 87.8521 235.151 88.0853 235.342 88.5639C235.533 89.0426 235.3 89.5861 234.821 89.7774C234.343 89.9688 233.799 89.7362 233.608 89.2569Z" fill="white"/>
<path d="M232.834 102.275C232.643 101.797 232.876 101.253 233.355 101.062C233.834 100.871 234.377 101.104 234.568 101.582C234.76 102.061 234.527 102.605 234.048 102.796C233.569 102.987 233.026 102.754 232.834 102.275Z" fill="white"/>
<path d="M221.069 102.741C220.878 102.263 221.111 101.719 221.589 101.528C222.068 101.336 222.611 101.57 222.803 102.048C222.994 102.527 222.761 103.07 222.282 103.262C221.804 103.454 221.26 103.221 221.069 102.741Z" fill="white"/>
<path d="M213.68 114.168C213.489 113.689 213.722 113.146 214.201 112.955C214.679 112.763 215.223 112.996 215.414 113.475C215.605 113.954 215.372 114.497 214.894 114.689C214.415 114.88 213.872 114.647 213.68 114.168Z" fill="white"/>
<path d="M214.547 114.167C214.483 114.167 214.418 114.149 214.359 114.111C214.199 114.007 214.153 113.793 214.257 113.632L221.644 102.207C221.706 102.113 221.809 102.054 221.921 102.049L233.375 101.595L234.13 88.8898C234.142 88.6996 234.31 88.5571 234.496 88.5647C234.687 88.5765 234.832 88.7402 234.821 88.931L234.047 101.949C234.037 102.127 233.893 102.267 233.715 102.274L222.128 102.734L214.838 114.008C214.772 114.111 214.661 114.167 214.547 114.167Z" fill="white"/>
<path d="M195.428 69.1959C194.527 73.9567 193.964 83.7338 196.579 103.095H220.15C219.725 99.7373 218.039 81.8262 221.529 64.7771C221.529 64.7771 217.489 63.9664 213.638 63.7809C210.627 63.6355 206.266 63.5395 203.619 63.7815C202.514 63.8822 201.428 64.0417 200.462 64.2131C197.913 64.6635 195.909 66.6524 195.428 69.1959Z" fill="#FFBF05"/>
<path opacity="0.2" d="M199.136 76.5273L194.708 76.8806C194.549 82.6094 194.944 90.9699 196.581 103.093H196.792C199.448 94.3613 202.969 81.8793 199.136 76.5273Z" fill="black"/>
<path opacity="0.2" d="M210.379 204.989L210.604 210.249H215.013L214.788 204.989H210.379Z" fill="black"/>
<path d="M214.491 50.2022C213.358 54.4267 212.91 56.9572 210.303 58.7135C206.382 61.3559 201.499 58.3232 201.347 53.8456C201.209 49.8154 203.084 43.5838 207.617 42.7325C212.084 41.8935 215.623 45.9778 214.491 50.2022Z" fill="#F4B369"/>
<path d="M204.6 50.2304L202.311 50.8257L204.441 45.2995C204.211 44.8779 203.603 42.9573 204.245 41.0368C204.414 40.5304 204.879 40.1877 205.413 40.1771C210.159 40.0847 215.12 42.7495 217.621 44.7637C218.103 45.1517 218.22 45.8353 217.898 46.3628C217.351 47.2589 216.642 47.9448 215.749 48.8539C215.702 50.4012 213.175 57.3929 211.777 58.1777C210.379 58.9625 207.704 58.644 206.993 57.3681C206.281 56.0934 203.877 54.4007 204.6 50.2304Z" fill="black"/>
<path d="M206.719 50.3176C206.461 51.4339 205.759 52.4065 205.012 52.9947C203.889 53.8791 203.01 53.063 203.056 51.763C203.098 50.5931 203.732 48.7238 204.988 48.3434C206.224 47.9684 207.013 49.0411 206.719 50.3176Z" fill="#F4B369"/>
<path d="M247.018 213.897C247.014 213.332 247.088 212.785 247.342 212.6C247.43 212.536 247.581 212.484 247.798 212.606C247.92 212.674 248.002 212.785 248.044 212.935C248.248 213.668 247.38 215.213 247.343 215.279C247.322 215.316 247.279 215.337 247.236 215.33C247.193 215.324 247.159 215.291 247.15 215.249C247.092 214.968 247.021 214.424 247.018 213.897ZM247.868 213.193C247.867 213.12 247.86 213.052 247.843 212.992C247.815 212.896 247.768 212.829 247.695 212.788C247.565 212.715 247.501 212.743 247.465 212.769C247.181 212.976 247.181 214.09 247.303 214.909C247.51 214.498 247.871 213.708 247.868 213.193Z" fill="#1755A6"/>
<path d="M247.146 215.227C247.146 215.212 247.149 215.198 247.155 215.184C247.391 214.65 248.337 213.59 248.836 213.668C248.953 213.686 249.099 213.768 249.13 214.055C249.153 214.269 249.094 214.463 248.955 214.635C248.498 215.198 247.311 215.325 247.261 215.33C247.224 215.334 247.188 215.318 247.167 215.288C247.154 215.269 247.146 215.248 247.146 215.227ZM248.926 214.14C248.926 214.119 248.925 214.098 248.923 214.077C248.903 213.889 248.829 213.878 248.804 213.874C248.505 213.828 247.76 214.548 247.437 215.094C247.784 215.035 248.493 214.873 248.793 214.503C248.883 214.392 248.927 214.272 248.926 214.14Z" fill="#1755A6"/>
<path d="M247.214 215.256L242.914 215.56L240.498 205.273L244.798 204.969L247.214 215.256Z" fill="#F4B369"/>
<path d="M247.199 214.268L242.405 213.843C242.225 213.827 242.059 213.938 242.005 214.11L240.792 217.935C240.667 218.332 240.94 218.742 241.355 218.772C243.086 218.896 245.594 219.015 247.768 219.208C250.309 219.433 248.663 219.427 251.643 219.69C253.446 219.85 254.107 218.072 253.367 217.84C250 216.785 249.39 216.057 248.226 214.703C247.978 214.415 247.577 214.301 247.199 214.268Z" fill="#141414"/>
<path opacity="0.2" d="M240.5 205.277L241.744 210.579L246.046 210.275L244.802 204.972L240.5 205.277Z" fill="black"/>
<path d="M204.941 103.094C204.941 103.094 215.078 136.944 218.925 149.509C223.136 163.269 239.162 208.919 239.162 208.919L246.932 207.211C246.932 207.211 235.955 167.99 231.403 148.8C227.906 134.06 220.151 103.094 220.151 103.094H204.941Z" fill="#45484A"/>
<path d="M237.796 206.516C237.761 206.52 238.56 209.551 238.56 209.551L247.906 208.547L247.864 205.77L237.796 206.516Z" fill="#303234"/>
<path opacity="0.3" d="M210.555 118.783C216.164 119.523 218.398 139.071 219.238 150.542C219.132 150.179 219.02 149.834 218.922 149.508C216.823 142.648 212.848 129.428 209.67 118.846C209.933 118.759 210.233 118.74 210.555 118.783Z" fill="black"/>
<path d="M196.578 103.094C196.578 103.094 199.978 136.061 201.443 149.482C202.966 163.442 208.684 209.23 208.684 209.23H216.15C216.15 209.23 215.245 164.277 214.944 150.549C214.616 135.583 212.072 103.094 212.072 103.094H196.578Z" fill="#45484A"/>
<path d="M207.525 206.257C207.491 206.257 207.946 209.356 207.946 209.356H217.028L217.273 206.59L207.525 206.257Z" fill="#303234"/>
<path d="M164.697 134.112C168.588 140.283 176.747 142.131 182.918 138.241C189.09 134.349 190.939 126.192 187.048 120.02C183.157 113.849 174.999 111.998 168.827 115.889C162.656 119.78 160.806 127.939 164.697 134.112ZM185.28 121.135C188.555 126.33 186.999 133.197 181.804 136.472C176.608 139.748 169.74 138.191 166.466 132.996C163.19 127.8 164.746 120.933 169.942 117.657C175.137 114.382 182.004 115.938 185.28 121.135Z" fill="#3B3B3B"/>
<path opacity="0.2" d="M185.812 129.317C184.567 134.806 179.109 138.247 173.621 137.003C168.131 135.758 164.69 130.3 165.934 124.811C167.178 119.322 172.637 115.88 178.126 117.124C183.615 118.369 187.056 123.828 185.812 129.317Z" fill="#1755A6"/>
<path d="M187.411 118.417L188.65 120.382C188.838 120.681 188.749 121.075 188.45 121.263C188.152 121.451 187.757 121.362 187.569 121.063L186.331 119.099C186.143 118.8 186.232 118.406 186.531 118.218C186.828 118.029 187.222 118.119 187.411 118.417Z" fill="#FFBF05"/>
<path d="M195.424 112.833C193.992 113.811 192.572 114.806 191.169 115.829C189.766 116.853 188.375 117.896 187.026 119.004C186.723 119.252 186.614 119.683 186.788 120.055C186.993 120.494 187.516 120.683 187.955 120.477C189.537 119.737 191.077 118.933 192.605 118.109C194.133 117.283 195.643 116.431 197.143 115.561C198.419 114.819 199.684 114.06 200.943 113.292C201.305 113.071 201.416 112.594 201.189 112.235L200.169 110.617C199.942 110.258 199.465 110.152 199.109 110.384C197.874 111.187 196.644 112.002 195.424 112.833Z" fill="#5A7FAA"/>
<path d="M201.989 70.8454C201.269 74.3798 200.495 77.9018 199.692 81.4156L197.25 91.9282C196.461 95.3548 195.784 98.8309 195.164 102.355L193.311 112.956L193.307 112.98C193.149 113.885 192.288 114.489 191.384 114.332C190.595 114.194 190.035 113.521 190.009 112.752C189.882 109.072 189.938 105.433 190.144 101.77C190.363 98.1191 190.701 94.4346 191.303 90.7706C191.877 87.1679 192.522 83.6064 193.212 80.0485C193.9 76.4923 194.647 72.9508 195.463 69.4247C195.878 67.6271 197.672 66.5073 199.469 66.9224C201.236 67.331 202.347 69.0785 201.989 70.8454Z" fill="#979797"/>
<path d="M192.804 111.998C192.506 111.683 192.058 111.552 191.636 111.652L190.678 111.881C190.188 111.998 189.821 112.405 189.755 112.905L189.478 115.031C189.398 115.64 189.528 116.258 189.846 116.784L191.16 118.959C191.506 119.417 192.086 119.633 192.647 119.514L194.018 119.223C194.877 119.04 195.389 118.155 195.119 117.319L194.76 116.211C194.76 116.211 194.739 114.044 192.804 111.998Z" fill="#F4B369"/>
<path d="M206.575 68.8013C208.718 74.4853 201.307 82.591 201.307 82.591L191.93 79.4893C191.93 79.4893 192.647 71.734 195.902 67.3618C199.923 61.9609 204.945 64.475 206.575 68.8013Z" fill="#FFBF05"/>
</svg>
