<svg width="304" height="200" viewBox="0 0 304 200" fill="none" xmlns="http://www.w3.org/2000/svg">
<g opacity="0.5">
<path d="M122.093 195.189C121.142 195.189 120.189 195.181 119.237 195.165C95.8854 194.773 72.1641 189.584 52.494 176.992C32.8249 164.399 17.64 143.794 14.7763 120.616C11.9137 97.4368 22.9119 72.293 43.5248 61.3123C54.5523 55.4378 66.9078 53.8622 79.6971 53.8622C87.0946 53.8622 94.6383 54.3897 102.153 54.9172C109.668 55.4437 117.154 55.9712 124.441 55.9712C139.468 55.9712 153.641 53.7286 165.44 44.62C180.444 33.0367 187.961 12.2717 205.445 4.95032C209.611 3.20601 213.965 2.42207 218.357 2.42207C230.922 2.42207 243.782 8.84062 253.344 17.5349C254.954 18.9994 256.499 20.536 257.972 22.138C269.751 34.9429 276.768 51.6821 278.84 68.8726C280.924 86.1461 278.087 104.158 269.924 119.593C267.989 123.251 265.794 127.627 262.617 130.359C259.524 133.019 256.488 135.08 253.627 138.125C246.762 145.434 239.26 152.141 231.257 158.181C215.172 170.321 197.069 179.77 177.934 186.087C159.951 192.024 141.038 195.189 122.093 195.189Z" fill="#EBF4FF"/>
<path d="M231.165 55.1756H74.8541C65.8644 55.1756 58.5781 62.4629 58.5781 71.4516V150.793C58.5781 159.782 65.8644 167.069 74.8541 167.069H158.22C158.751 167.069 159.275 167.172 159.765 167.373L208.663 187.43C213.349 189.352 218.486 185.907 218.486 180.843V171.137C218.486 168.89 220.308 167.069 222.555 167.069H231.165C240.153 167.069 247.44 159.782 247.44 150.793V71.4516C247.44 62.4629 240.153 55.1756 231.165 55.1756Z" fill="#2776D0"/>
<path d="M226.317 115H79.684C78.2025 115 77 113.881 77 112.5C77 111.119 78.2025 110 79.684 110H226.317C227.798 110 229 111.119 229 112.5C229 113.881 227.798 115 226.317 115Z" fill="white"/>
<path d="M226.317 132H79.684C78.2025 132 77 130.881 77 129.5C77 128.119 78.2025 127 79.684 127H226.317C227.798 127 229 128.119 229 129.5C229 130.881 227.798 132 226.317 132Z" fill="white"/>
<path d="M226.317 149H79.684C78.2025 149 77 147.88 77 146.5C77 145.119 78.2025 144 79.684 144H226.317C227.798 144 229 145.119 229 146.5C229 147.88 227.798 149 226.317 149Z" fill="white"/>
<path d="M87.052 91.2913L81.8415 94.0301C81.0908 94.426 80.2123 93.7873 80.3556 92.9508L81.3511 87.1494C81.4076 86.8179 81.2975 86.4786 81.0566 86.2436L76.8416 82.1349C76.2342 81.5421 76.5686 80.5105 77.4091 80.3876L83.2338 79.5413C83.5673 79.4935 83.8559 79.2839 84.0051 78.9816L86.6103 73.7029C86.9857 72.9424 88.0709 72.9424 88.4463 73.7029L91.0516 78.9816C91.2007 79.2839 91.4893 79.4935 91.8228 79.5413L97.6476 80.3876C98.4871 80.5105 98.8234 81.5421 98.215 82.1349L94 86.2436C93.7592 86.4786 93.648 86.8179 93.7056 87.1494L94.7011 92.9508C94.8444 93.7873 93.9659 94.426 93.2151 94.0301L88.0046 91.2913C87.7063 91.1353 87.3494 91.1353 87.052 91.2913Z" fill="#FABB29"/>
<path d="M88.0046 91.2913L93.2151 94.0301C93.9659 94.426 94.8444 93.7873 94.7011 92.9508L94.666 92.7489C93.1225 92.1893 91.6668 91.4444 90.3778 90.4723C87.5493 88.3409 85.6236 85.0112 85.9044 81.6337C86.0955 79.3249 87.4674 77.094 89.4681 75.7738L88.4463 73.7029C88.0709 72.9424 86.9857 72.9424 86.6103 73.7029L84.0051 78.9816C83.8559 79.2839 83.5673 79.4935 83.2338 79.5413L77.4091 80.3876C76.5686 80.5105 76.2342 81.5421 76.8416 82.1349L81.0566 86.2436C81.2975 86.4786 81.4076 86.8179 81.3511 87.1494L80.3556 92.9508C80.2123 93.7873 81.0908 94.426 81.8415 94.0301L87.052 91.2913C87.3494 91.1353 87.7063 91.1353 88.0046 91.2913Z" fill="#FABB29"/>
<path d="M119.794 91.2913L114.584 94.0301C113.833 94.426 112.955 93.7873 113.099 92.9508L114.093 87.1494C114.151 86.8179 114.041 86.4786 113.799 86.2436L109.584 82.1349C108.976 81.5421 109.311 80.5105 110.151 80.3876L115.976 79.5413C116.31 79.4935 116.598 79.2839 116.747 78.9816L119.353 73.7029C119.728 72.9424 120.813 72.9424 121.189 73.7029L123.794 78.9816C123.943 79.2839 124.232 79.4935 124.565 79.5413L130.391 80.3876C131.23 80.5105 131.566 81.5421 130.958 82.1349L126.742 86.2436C126.501 86.4786 126.391 86.8179 126.448 87.1494L127.443 92.9508C127.587 93.7873 126.709 94.426 125.957 94.0301L120.747 91.2913C120.448 91.1353 120.093 91.1353 119.794 91.2913Z" fill="#FABB29"/>
<path d="M120.747 91.2913L125.957 94.0301C126.709 94.426 127.587 93.7873 127.443 92.9508L127.409 92.7489C125.865 92.1893 124.409 91.4444 123.12 90.4723C120.291 88.3409 118.367 85.0112 118.647 81.6337C118.838 79.3249 120.21 77.094 122.21 75.7738L121.189 73.7029C120.813 72.9424 119.728 72.9424 119.353 73.7029L116.747 78.9816C116.598 79.2839 116.31 79.4935 115.976 79.5413L110.151 80.3876C109.311 80.5105 108.976 81.5421 109.584 82.1349L113.799 86.2436C114.041 86.4786 114.151 86.8179 114.093 87.1494L113.099 92.9508C112.955 93.7873 113.833 94.426 114.584 94.0301L119.794 91.2913C120.093 91.1353 120.449 91.1353 120.747 91.2913Z" fill="#FABB29"/>
<path d="M152.537 91.2913L147.327 94.0301C146.575 94.426 145.697 93.7873 145.841 92.9508L146.836 87.1494C146.893 86.8179 146.783 86.4786 146.542 86.2436L142.326 82.1349C141.718 81.5421 142.054 80.5105 142.893 80.3876L148.719 79.5413C149.052 79.4935 149.341 79.2839 149.49 78.9816L152.094 73.7029C152.471 72.9424 153.556 72.9424 153.931 73.7029L156.537 78.9816C156.685 79.2839 156.973 79.4935 157.308 79.5413L163.133 80.3876C163.972 80.5105 164.308 81.5421 163.7 82.1349L159.485 86.2436C159.243 86.4786 159.133 86.8179 159.191 87.1494L160.185 92.9508C160.329 93.7873 159.451 94.426 158.699 94.0301L153.49 91.2913C153.191 91.1353 152.835 91.1353 152.537 91.2913Z" fill="#FABB29"/>
<path d="M153.49 91.2913L158.699 94.0301C159.451 94.426 160.329 93.7873 160.185 92.9508L160.151 92.7489C158.608 92.1893 157.152 91.4444 155.863 90.4723C153.034 88.3409 151.109 85.0112 151.389 81.6337C151.581 79.3249 152.952 77.094 154.953 75.7738L153.931 73.7029C153.556 72.9424 152.471 72.9424 152.094 73.7029L149.49 78.9816C149.341 79.2839 149.052 79.4935 148.719 79.5413L142.893 80.3876C142.054 80.5105 141.718 81.5421 142.326 82.1349L146.542 86.2436C146.783 86.4786 146.893 86.8179 146.836 87.1494L145.841 92.9508C145.697 93.7873 146.575 94.426 147.327 94.0301L152.537 91.2913C152.835 91.1353 153.191 91.1353 153.49 91.2913Z" fill="#FABB29"/>
<path d="M185.271 91.2913L180.06 94.0301C179.31 94.426 178.432 93.7873 178.575 92.9508L179.57 87.1494C179.627 86.8179 179.516 86.4786 179.275 86.2436L175.06 82.1349C174.453 81.5421 174.787 80.5105 175.628 80.3876L181.453 79.5413C181.786 79.4935 182.075 79.2839 182.224 78.9816L184.829 73.7029C185.204 72.9424 186.29 72.9424 186.665 73.7029L189.27 78.9816C189.419 79.2839 189.708 79.4935 190.042 79.5413L195.866 80.3876C196.707 80.5105 197.041 81.5421 196.434 82.1349L192.219 86.2436C191.978 86.4786 191.868 86.8179 191.924 87.1494L192.919 92.9508C193.063 93.7873 192.186 94.426 191.434 94.0301L186.223 91.2913C185.925 91.1353 185.569 91.1353 185.271 91.2913Z" fill="#FABB29"/>
<path d="M186.223 91.2913L191.434 94.0301C192.186 94.426 193.063 93.7873 192.919 92.9508L192.885 92.7489C191.341 92.1893 189.886 91.4444 188.597 90.4723C185.768 88.3409 183.842 85.0112 184.123 81.6337C184.314 79.3249 185.686 77.094 187.688 75.7738L186.665 73.7029C186.29 72.9424 185.204 72.9424 184.829 73.7029L182.224 78.9816C182.075 79.2839 181.786 79.4935 181.453 79.5413L175.628 80.3876C174.787 80.5105 174.453 81.5421 175.06 82.1349L179.275 86.2436C179.516 86.4786 179.627 86.8179 179.57 87.1494L178.575 92.9508C178.431 93.7873 179.31 94.426 180.06 94.0301L185.271 91.2913C185.569 91.1353 185.925 91.1353 186.223 91.2913Z" fill="#FABB29"/>
<path d="M218.013 91.2913L212.803 94.0301C212.051 94.426 211.174 93.7873 211.317 92.9508L212.312 87.1494C212.369 86.8179 212.259 86.4786 212.017 86.2436L207.802 82.1349C207.195 81.5421 207.53 80.5105 208.37 80.3876L214.196 79.5413C214.529 79.4935 214.818 79.2839 214.966 78.9816L217.571 73.7029C217.947 72.9424 219.032 72.9424 219.408 73.7029L222.012 78.9816C222.161 79.2839 222.45 79.4935 222.783 79.5413L228.609 80.3876C229.449 80.5105 229.784 81.5421 229.177 82.1349L224.962 86.2436C224.72 86.4786 224.61 86.8179 224.667 87.1494L225.662 92.9508C225.805 93.7873 224.928 94.426 224.176 94.0301L218.966 91.2913C218.668 91.1353 218.311 91.1353 218.013 91.2913Z" fill="#FABB29"/>
<path d="M218.966 91.2913L224.176 94.0301C224.928 94.426 225.805 93.7873 225.662 92.9508L225.627 92.7489C224.083 92.1893 222.628 91.4444 221.339 90.4723C218.511 88.3409 216.585 85.0112 216.865 81.6337C217.056 79.3249 218.429 77.094 220.43 75.7738L219.408 73.7029C219.032 72.9424 217.947 72.9424 217.571 73.7029L214.966 78.9816C214.818 79.2839 214.529 79.4935 214.196 79.5413L208.37 80.3876C207.53 80.5105 207.195 81.5421 207.802 82.1349L212.017 86.2436C212.259 86.4786 212.369 86.8179 212.312 87.1494L211.317 92.9508C211.174 93.7873 212.051 94.426 212.803 94.0301L218.013 91.2913C218.311 91.1353 218.668 91.1353 218.966 91.2913Z" fill="#FABB29"/>
<path d="M44.9289 158.67L36.5798 163.058C35.3757 163.692 33.9697 162.669 34.1988 161.33L35.7939 152.033C35.8846 151.502 35.7091 150.957 35.322 150.58L28.5671 143.998C27.594 143.048 28.1313 141.394 29.4768 141.199L38.8107 139.842C39.346 139.765 39.8071 139.429 40.046 138.945L44.2211 130.487C44.8226 129.267 46.5621 129.267 47.1637 130.487L51.3377 138.945C51.5766 139.429 52.0388 139.765 52.5731 139.842L61.907 141.199C63.2525 141.394 63.7897 143.048 62.8157 143.998L56.0627 150.58C55.6756 150.957 55.4991 151.502 55.5898 152.033L57.1849 161.33C57.4141 162.669 56.0081 163.692 54.8039 163.058L46.4558 158.67C45.9771 158.419 45.4067 158.419 44.9289 158.67Z" fill="#FABB29"/>
<path d="M46.4558 158.67L54.8039 163.058C56.0081 163.692 57.414 162.669 57.1849 161.33L57.1293 161.006C54.6557 160.108 52.3235 158.915 50.2574 157.358C45.7255 153.942 42.6405 148.607 43.09 143.194C43.3962 139.495 45.5949 135.92 48.8007 133.805L47.1637 130.487C46.5621 129.267 44.8226 129.267 44.2211 130.487L40.046 138.945C39.8071 139.429 39.346 139.765 38.8107 139.842L29.4768 141.199C28.1313 141.394 27.594 143.048 28.5671 143.998L35.322 150.58C35.7091 150.957 35.8846 151.502 35.7939 152.033L34.1988 161.33C33.9697 162.669 35.3757 163.692 36.5798 163.058L44.9289 158.67C45.4067 158.419 45.9771 158.419 46.4558 158.67Z" fill="#FABB29"/>
<path d="M253.085 81.8207L244.736 86.2102C243.533 86.843 242.126 85.8212 242.356 84.4815L243.95 75.1847C244.042 74.6523 243.865 74.1092 243.478 73.7329L236.724 67.1486C235.75 66.1999 236.287 64.5453 237.633 64.3503L246.968 62.994C247.501 62.916 247.964 62.5806 248.203 62.097L252.377 53.6387C252.979 52.4189 254.717 52.4189 255.32 53.6387L259.494 62.097C259.733 62.5806 260.195 62.916 260.729 62.994L270.063 64.3503C271.409 64.5453 271.946 66.1999 270.973 67.1486L264.219 73.7329C263.832 74.1092 263.655 74.6523 263.747 75.1847L265.341 84.4815C265.571 85.8212 264.164 86.843 262.96 86.2102L254.612 81.8207C254.134 81.5701 253.563 81.5701 253.085 81.8207Z" fill="#FABB29"/>
<path d="M254.612 81.8207L262.96 86.2102C264.164 86.843 265.571 85.8212 265.341 84.4815L265.285 84.1568C262.812 83.2588 260.479 82.0664 258.413 80.5093C253.881 77.0928 250.797 71.7585 251.246 66.3461C251.552 62.6459 253.751 59.0715 256.957 56.9567L255.32 53.6387C254.717 52.4189 252.979 52.4189 252.377 53.6387L248.203 62.096C247.964 62.5806 247.501 62.916 246.968 62.994L237.633 64.3503C236.287 64.5453 235.75 66.1999 236.724 67.1486L243.478 73.7329C243.865 74.1092 244.042 74.6523 243.95 75.1847L242.356 84.4815C242.126 85.8212 243.533 86.843 244.736 86.2102L253.085 81.8207C253.563 81.5701 254.134 81.5701 254.612 81.8207Z" fill="#FABB29"/>
<path d="M289.308 147.018C289.308 166.604 273.431 182.481 253.845 182.481C234.26 182.481 218.383 166.604 218.383 147.018C218.383 127.433 234.26 111.557 253.845 111.557C273.431 111.557 289.308 127.433 289.308 147.018Z" fill="#FABB29"/>
<path d="M282.191 147.018C282.191 162.671 269.502 175.36 253.85 175.36C238.198 175.36 225.508 162.671 225.508 147.018C225.508 131.365 238.198 118.678 253.85 118.678C269.502 118.678 282.191 131.365 282.191 147.018Z" fill="#FEFFE6"/>
<path d="M263.416 142.201C264.88 142.201 266.067 140.662 266.067 138.765C266.067 136.867 264.88 135.33 263.416 135.33C261.952 135.33 260.766 136.867 260.766 138.765C260.766 140.662 261.952 142.201 263.416 142.201Z" fill="#FABB29"/>
<path d="M241.914 137.235L241.885 137.31L241.819 137.505L241.786 137.623L241.742 137.797L241.71 137.955L241.683 138.107L241.659 138.309L241.646 138.43C241.638 138.54 241.633 138.652 241.633 138.765C241.633 138.923 241.645 139.078 241.66 139.23L241.674 139.342C241.693 139.491 241.717 139.639 241.752 139.782V139.783C241.786 139.928 241.831 140.066 241.879 140.203L241.913 140.295C242.016 140.563 242.146 140.812 242.298 141.035L242.342 141.097C242.5 141.318 242.68 141.513 242.879 141.675L242.928 141.713C243.324 142.02 243.787 142.201 244.283 142.201C245.746 142.201 246.933 140.662 246.933 138.765C246.933 136.867 245.746 135.33 244.283 135.33C243.322 135.33 242.482 135.996 242.018 136.989L242.006 137.014L241.914 137.235Z" fill="#FABB29"/>
<path d="M241.95 152.835C241.382 152.835 240.954 153.37 241.099 153.918C242.596 159.592 247.734 163.772 253.846 163.772C259.957 163.772 265.096 159.592 266.592 153.918C266.738 153.37 266.31 152.835 265.741 152.835H241.95Z" fill="#FABB29"/>
<path d="M79.6434 55.1757C79.6434 74.761 63.7662 90.6382 44.1809 90.6382C24.5957 90.6382 8.71875 74.761 8.71875 55.1757C8.71875 35.5905 24.5957 19.7133 44.1809 19.7133C63.7662 19.7133 79.6434 35.5905 79.6434 55.1757Z" fill="#FF85C0"/>
<path d="M72.5178 55.1752C72.5178 70.8282 59.8289 83.5161 44.1769 83.5161C28.5249 83.5161 15.8359 70.8282 15.8359 55.1752C15.8359 39.5232 28.5249 26.8343 44.1769 26.8343C59.8289 26.8343 72.5178 39.5232 72.5178 55.1752Z" fill="#FFF0F6"/>
<path d="M35.917 68.2466H35.8439C35.135 68.2261 34.4671 67.9151 33.9962 67.3866L26.9497 59.486C26.0039 58.4242 26.0966 56.7979 27.1574 55.8511C28.2182 54.9044 29.8446 54.998 30.7923 56.0588L36.0242 61.9255L55.0917 42.858C56.097 41.8528 57.7262 41.8528 58.7325 42.858C59.7367 43.8633 59.7367 45.4925 58.7325 46.4978L37.7373 67.4929C37.2537 67.9765 36.5985 68.2466 35.917 68.2466Z" fill="#FF85C0"/>
<path d="M175.327 -0.000179291H138.704C129.423 -0.000179291 121.898 7.52306 121.898 16.8043C121.898 26.0865 129.423 33.6107 138.704 33.6107H149.658C149.899 33.6107 150.139 33.6604 150.359 33.7579L169.61 42.185C171.056 42.8178 172.676 41.759 172.676 40.1804V35.3609C172.676 34.3937 173.459 33.6107 174.426 33.6107H175.327C184.608 33.6107 192.132 26.0865 192.132 16.8043C192.132 7.52306 184.608 -0.000179291 175.327 -0.000179291Z" fill="#00BF60"/>
<path d="M162.113 32.1521C156.431 29.6619 151.276 25.6107 148.349 20.1398C145.422 14.67 144.996 7.70248 148.064 2.31061C148.531 1.49062 149.095 0.710609 149.731 -0.000179291H138.704C129.423 -0.000179291 121.898 7.52306 121.898 16.8043C121.898 26.0865 129.423 33.6107 138.704 33.6107H149.658C149.899 33.6107 150.138 33.6604 150.359 33.7579L169.61 42.185C171.056 42.8178 172.676 41.759 172.676 40.1804V35.3609L172.685 35.2575C169.053 34.5984 165.49 33.6322 162.113 32.1521Z" fill="#00BF60"/>
<path d="M176.922 14.1963H137.114C136.063 14.1963 135.211 13.3441 135.211 12.293C135.211 11.242 136.063 10.3898 137.114 10.3898H176.922C177.972 10.3898 178.825 11.242 178.825 12.293C178.825 13.3441 177.972 14.1963 176.922 14.1963Z" fill="white"/>
<path d="M145.962 10.3898H137.114C136.063 10.3898 135.211 11.242 135.211 12.293C135.211 13.3441 136.063 14.1963 137.114 14.1963H146.286C146.056 12.9375 145.945 11.6603 145.962 10.3898Z" fill="white"/>
<path d="M176.922 23.2202H137.114C136.063 23.2202 135.211 22.368 135.211 21.317C135.211 20.2659 136.063 19.4147 137.114 19.4147H176.922C177.972 19.4147 178.825 20.2659 178.825 21.317C178.825 22.368 177.972 23.2202 176.922 23.2202Z" fill="white"/>
<path d="M135.211 21.317C135.211 22.368 136.063 23.2202 137.114 23.2202H150.342C149.601 22.2491 148.931 21.2243 148.351 20.1401C148.225 19.9022 148.108 19.6575 147.99 19.4147H137.114C136.063 19.4147 135.211 20.2659 135.211 21.317Z" fill="white"/>
<path d="M222.338 32.595H219.739V29.9956H218.154V32.595H215.555V34.1794H218.154V36.7788H219.739V34.1794H222.338V32.595Z" fill="#4E94E2"/>
<path d="M38.0176 101.405H35.4182V98.8056H33.8338V101.405H31.2344V102.989H33.8338V105.589H35.4182V102.989H38.0176V101.405Z" fill="#4E94E2"/>
<path d="M113.229 192.349H110.629V189.749H109.045V192.349H106.445V193.933H109.045V196.533H110.629V193.933H113.229V192.349Z" fill="#4E94E2"/>
<path d="M303.471 108.934H300.871V106.335H299.287V108.934H296.688V110.519H299.287V113.118H300.871V110.519H303.471V108.934Z" fill="#4E94E2"/>
<path d="M97.9546 16.3901V16.0303C97.4749 16.0274 97.0683 16.2282 96.8129 16.5305C96.5565 16.8318 96.4375 17.213 96.4375 17.5893C96.4375 17.9647 96.5555 18.346 96.8129 18.6473C97.0683 18.9485 97.4749 19.1494 97.9546 19.1465C98.4334 19.1494 98.84 18.9485 99.0954 18.6463C99.3528 18.345 99.4708 17.9638 99.4718 17.5874C99.4708 17.212 99.3528 16.8308 99.0954 16.5295C98.84 16.2282 98.4334 16.0274 97.9546 16.0303V16.3901V16.7499C98.2471 16.7528 98.4197 16.8513 98.5504 16.9985C98.6791 17.1467 98.7532 17.3641 98.7522 17.5874C98.7532 17.8117 98.6781 18.0291 98.5494 18.1783C98.4187 18.3255 98.2462 18.424 97.9546 18.4269C97.6611 18.424 97.4895 18.3255 97.3589 18.1783C97.2302 18.0301 97.1561 17.8126 97.1561 17.5893C97.1561 17.3661 97.2302 17.1477 97.3589 16.9995C97.4895 16.8513 97.6621 16.7528 97.9546 16.7499V16.3901Z" fill="#FABB29"/>
<path d="M2.04047 133.301V132.941C1.56135 132.938 1.15457 133.139 0.8998 133.441C0.642297 133.742 0.523828 134.124 0.523438 134.5C0.523828 134.875 0.641904 135.257 0.899407 135.557C1.15457 135.859 1.56096 136.06 2.04047 136.057C2.51999 136.06 2.92638 135.859 3.18154 135.557C3.43865 135.256 3.55712 134.874 3.5579 134.498C3.55712 134.123 3.43904 133.741 3.18154 133.44C2.92638 133.139 2.51999 132.938 2.04047 132.941V133.301V133.661C2.33337 133.663 2.50556 133.762 2.63611 133.909C2.76491 134.057 2.83911 134.275 2.83882 134.498C2.83911 134.721 2.76452 134.94 2.63572 135.088C2.50517 135.236 2.33259 135.335 2.04047 135.338C1.74758 135.335 1.57539 135.236 1.44483 135.089C1.31642 134.941 1.24183 134.723 1.24251 134.5C1.24183 134.276 1.31643 134.058 1.44523 133.909C1.57617 133.762 1.74836 133.663 2.04047 133.661V133.301Z" fill="#FABB29"/>
<path d="M176.69 197.244V196.884C176.21 196.881 175.804 197.082 175.548 197.384C175.292 197.685 175.173 198.067 175.172 198.443C175.173 198.818 175.291 199.199 175.548 199.5C175.804 199.802 176.21 200.003 176.69 200C177.169 200.003 177.575 199.802 177.831 199.5C178.088 199.199 178.206 198.817 178.207 198.441C178.206 198.066 178.088 197.684 177.831 197.383C177.575 197.082 177.169 196.881 176.69 196.884V197.244V197.603C176.982 197.606 177.154 197.705 177.285 197.852C177.413 198 177.489 198.218 177.488 198.441C177.489 198.665 177.413 198.883 177.285 199.031C177.154 199.179 176.982 199.277 176.69 199.28C176.397 199.277 176.225 199.179 176.094 199.032C175.966 198.884 175.89 198.666 175.891 198.443C175.89 198.219 175.966 198.001 176.094 197.852C176.225 197.705 176.397 197.606 176.69 197.603V197.244Z" fill="#FABB29"/>
<path d="M300.283 164.317V163.959C299.803 163.955 299.396 164.156 299.142 164.459C298.885 164.76 298.767 165.141 298.766 165.517C298.767 165.892 298.885 166.273 299.142 166.574C299.396 166.876 299.803 167.077 300.283 167.074C300.762 167.077 301.168 166.876 301.424 166.574C301.681 166.272 301.8 165.891 301.8 165.516C301.8 165.139 301.681 164.758 301.424 164.458C301.169 164.155 300.762 163.955 300.283 163.959V164.317V164.677C300.575 164.68 300.748 164.779 300.878 164.926C301.007 165.074 301.081 165.291 301.081 165.516C301.081 165.739 301.007 165.957 300.878 166.105C300.747 166.253 300.574 166.351 300.283 166.355C299.99 166.351 299.818 166.253 299.687 166.105C299.558 165.957 299.484 165.74 299.485 165.517C299.484 165.293 299.559 165.075 299.688 164.927C299.819 164.779 299.99 164.68 300.283 164.677V164.317Z" fill="#FABB29"/>
<path d="M267.83 9.23235V8.87258C267.35 8.86965 266.943 9.07049 266.689 9.37275C266.431 9.67403 266.313 10.0553 266.312 10.4316C266.313 10.807 266.431 11.1882 266.689 11.4895C266.943 11.7908 267.35 11.9917 267.83 11.9887C268.309 11.9917 268.716 11.7908 268.97 11.4885C269.228 11.1873 269.347 10.806 269.347 10.4297C269.347 10.0543 269.228 9.67306 268.97 9.37177C268.716 9.07049 268.309 8.86965 267.83 8.87258V9.23235V9.59213C268.122 9.59506 268.295 9.69354 268.425 9.84077C268.554 9.98897 268.628 10.2064 268.628 10.4297C268.628 10.6539 268.554 10.8714 268.425 11.0205C268.294 11.1678 268.122 11.2662 267.83 11.2692C267.537 11.2662 267.365 11.1678 267.234 11.0205C267.105 10.8723 267.031 10.6549 267.032 10.4316C267.031 10.2074 267.106 9.98994 267.235 9.84077C267.366 9.69354 267.538 9.59506 267.83 9.59213V9.23235Z" fill="#FABB29"/>
</g>
</svg>
