<svg width="16" height="16" viewBox="0 0 14 14" fill="none" xmlns="http://www.w3.org/2000/svg">
<g id="Group">
<path id="Vector" d="M6.125 12.25C4.57272 12.2521 3.07804 11.6623 1.94556 10.6006C1.93281 10.5886 1.92069 10.5759 1.90925 10.5626C1.30675 9.99099 0.826804 9.30286 0.498583 8.53999C0.170362 7.77713 0.000729837 6.95548 0 6.125C0 2.7475 2.7475 0 6.125 0C9.5025 0 12.25 2.7475 12.25 6.125C12.25 6.61281 12.1914 7.09975 12.0754 7.57225C12.0462 7.68324 11.9745 7.7783 11.8759 7.83693C11.7772 7.89557 11.6595 7.91309 11.548 7.88571C11.4365 7.85833 11.3403 7.78825 11.28 7.69058C11.2198 7.59291 11.2003 7.47546 11.2258 7.36356C11.3247 6.95975 11.375 6.54281 11.375 6.125C11.375 3.23006 9.01994 0.875 6.125 0.875C3.23006 0.875 0.875 3.23006 0.875 6.125C0.875497 6.8438 1.02371 7.55482 1.31045 8.21395C1.5972 8.87307 2.01634 9.46624 2.54187 9.95662C2.555 9.96844 2.56681 9.98112 2.57819 9.99381C3.54478 10.8837 4.81113 11.3769 6.125 11.375C6.89937 11.375 7.64356 11.2105 8.33744 10.8868C8.38962 10.8614 8.44633 10.8467 8.50426 10.8435C8.56219 10.8402 8.62018 10.8486 8.67486 10.868C8.72954 10.8874 8.77981 10.9174 8.82276 10.9565C8.8657 10.9955 8.90045 11.0426 8.925 11.0952C8.94954 11.1478 8.96339 11.2047 8.96572 11.2627C8.96806 11.3206 8.95884 11.3785 8.93861 11.4329C8.91837 11.4872 8.88752 11.5371 8.84786 11.5794C8.80819 11.6217 8.7605 11.6558 8.70756 11.6795C7.89922 12.0575 7.01736 12.2523 6.125 12.25Z" fill="black" fill-opacity="0.88"/>
<path id="Vector_2" d="M6.125 7.4375C4.67731 7.4375 3.5 6.26019 3.5 4.8125C3.5 3.36481 4.67731 2.1875 6.125 2.1875C7.57269 2.1875 8.75 3.36481 8.75 4.8125C8.75 6.26019 7.57269 7.4375 6.125 7.4375ZM6.125 3.0625C5.15987 3.0625 4.375 3.84737 4.375 4.8125C4.375 5.77763 5.15987 6.5625 6.125 6.5625C7.09013 6.5625 7.875 5.77763 7.875 4.8125C7.875 3.84737 7.09013 3.0625 6.125 3.0625Z" fill="black" fill-opacity="0.88"/>
<path id="Vector_3" d="M2.24487 10.7166C2.18092 10.7169 2.11767 10.7032 2.05962 10.6764C2.00156 10.6496 1.95012 10.6103 1.90895 10.5614C1.86778 10.5124 1.83788 10.455 1.82139 10.3932C1.80489 10.3314 1.8022 10.2668 1.8135 10.2038C1.98417 9.18434 2.51138 8.25861 3.30113 7.59169C4.09088 6.92478 5.09183 6.56004 6.1255 6.56251C7.21269 6.56251 8.25394 6.96326 9.05719 7.69082C9.14282 7.76883 9.19402 7.87761 9.19956 7.99332C9.2051 8.10902 9.16453 8.2222 9.08675 8.30803C9.00897 8.39387 8.90032 8.44535 8.78463 8.45119C8.66894 8.45704 8.55566 8.41676 8.46962 8.3392C7.82751 7.75768 6.9918 7.43621 6.1255 7.43751C5.29993 7.43552 4.5004 7.72638 3.86908 8.25837C3.23777 8.79035 2.81557 9.52899 2.67756 10.343C2.6619 10.4466 2.60967 10.5413 2.53032 10.6098C2.45096 10.6783 2.34972 10.7162 2.24487 10.7166ZM10.8194 11.1956C10.762 11.1957 10.7051 11.1844 10.652 11.1624C10.5989 11.1404 10.5507 11.1081 10.5101 11.0675L10.0818 10.6396C10.04 10.5992 10.0067 10.5509 9.98377 10.4976C9.96084 10.4442 9.94877 10.3868 9.94826 10.3287C9.94776 10.2706 9.95883 10.213 9.98083 10.1592C10.0028 10.1055 10.0353 10.0566 10.0764 10.0155C10.1175 9.97445 10.1663 9.94196 10.2201 9.91997C10.2738 9.89797 10.3315 9.8869 10.3895 9.8874C10.4476 9.88791 10.505 9.89998 10.5584 9.92291C10.6118 9.94583 10.6601 9.97916 10.7004 10.021L10.8194 10.1395L11.3851 9.57382C11.4255 9.53204 11.4738 9.49871 11.5271 9.47578C11.5805 9.45285 11.6379 9.44078 11.696 9.44028C11.7541 9.43977 11.8117 9.45084 11.8655 9.47284C11.9192 9.49484 11.9681 9.52732 12.0092 9.5684C12.0502 9.60948 12.0827 9.65833 12.1047 9.71209C12.1267 9.76586 12.1378 9.82347 12.1373 9.88156C12.1368 9.93965 12.1247 9.99706 12.1018 10.0504C12.0789 10.1038 12.0455 10.1521 12.0037 10.1925L11.1287 11.0675C11.0882 11.1081 11.04 11.1404 10.9869 11.1624C10.9338 11.1844 10.8769 11.1957 10.8194 11.1956Z" fill="black"/>
<path id="Vector_4" d="M10.9375 13.9677C10.8749 13.9677 10.8124 13.9545 10.7542 13.9274L10.1496 13.6483C9.47141 13.3337 8.89713 12.8321 8.49421 12.2025C8.09129 11.5728 7.87647 10.8412 7.875 10.0936V8.07805C7.87505 7.97069 7.91458 7.86709 7.98605 7.78699C8.05753 7.70688 8.15597 7.65585 8.26262 7.64361C9.12484 7.5452 9.97315 7.34956 10.7914 7.06042C10.8859 7.02673 10.9891 7.02673 11.0836 7.06042C11.9019 7.34956 12.7502 7.5452 13.6124 7.64361C13.7191 7.65586 13.8176 7.70695 13.8891 7.78715C13.9606 7.86735 14.0001 7.97105 14 8.07848V10.0936C13.9986 10.8412 13.7839 11.5728 13.3809 12.2025C12.978 12.8322 12.4037 13.3338 11.7254 13.6483L11.1208 13.9274C11.0633 13.9539 11.0008 13.9676 10.9375 13.9677ZM8.75 8.46217V10.094C8.75124 10.6744 8.91809 11.2424 9.23094 11.7313C9.5438 12.2201 9.98968 12.6096 10.5162 12.8538L10.9375 13.0485L11.3588 12.8538C11.8854 12.6096 12.3314 12.2201 12.6442 11.7311C12.9571 11.2422 13.1239 10.6741 13.125 10.0936V8.46261C12.3814 8.35352 11.6492 8.17722 10.9375 7.93586C10.2259 8.17766 9.49368 8.35354 8.75 8.46217Z" fill="black"/>
</g>
</svg>
