<svg width="1536" height="740" viewBox="0 0 1536 740" fill="none" xmlns="http://www.w3.org/2000/svg">
<g clip-path="url(#clip0_4719_11449)">
<g opacity="0.1">
<path d="M1495.26 69.5784C1498.63 65.9981 1501.74 62.1953 1504.51 58.1238C1513.6 44.7499 1518.88 29.922 1521.3 14.0021C1522.8 4.09108 1523.12 -5.86809 1522.13 -15.8544C1521.84 -18.864 1521.29 -21.8525 1520.94 -24.8543C1520.77 -26.279 1520.48 -27.73 1520.78 -29.1631C1521.29 -31.5705 1522.16 -31.8336 1524.1 -31.5208C1524.51 -31.4547 1524.93 -31.3449 1525.3 -31.1608C1528.9 -29.3481 1531.82 -26.7595 1534.15 -23.4579C1535.67 -21.3106 1536.98 -19.0674 1537.91 -16.6208C1539.3 -12.9622 1540.31 -9.20361 1541.05 -5.34652C1542.26 0.956624 1542.82 7.29703 1542.7 13.6945C1542.26 35.6456 1535.26 55.3821 1522.57 73.1706C1519.81 77.0438 1516.77 80.6914 1513.52 84.1578C1509.84 88.0791 1505.9 91.7254 1501.66 95.0374C1499.18 96.9765 1496.61 98.8062 1493.96 100.529C1490.27 102.928 1486.53 105.239 1482.53 107.065C1480.09 108.177 1477.64 109.287 1475.15 110.297C1469.82 112.45 1464.36 114.161 1458.76 115.395C1443.22 118.82 1427.65 118.822 1412.1 115.343C1411.73 115.26 1411.23 115.36 1411.04 114.765C1414.52 114.195 1417.8 113.078 1420.81 111.299C1424.47 109.139 1427.73 106.51 1430.56 103.279C1437.13 95.788 1440.55 86.9771 1442.25 77.2896C1444.51 64.3189 1445.65 51.1994 1447.55 38.1848C1450.12 20.5727 1457.47 5.11596 1469 -8.3818C1472.83 -12.8662 1477.12 -16.8663 1481.8 -20.4512C1483.89 -22.0569 1486.06 -23.5549 1488.26 -25.0201C1490.56 -26.5639 1492.96 -27.9145 1495.42 -29.18C1495.82 -29.3873 1496.23 -29.5912 1496.66 -29.741C1500.81 -31.204 1503.41 -29.3894 1504.92 -25.0259C1505.95 -22.0371 1506.52 -18.9193 1507.12 -15.8106C1511.98 9.52291 1507.94 33.825 1498.88 57.5618C1496.95 62.6066 1494.67 67.4952 1492.16 72.2731C1492.09 72.4406 1491.78 72.6309 1491.92 72.7166C1492.13 72.8416 1494.35 70.5608 1495.28 69.5835L1495.26 69.5784Z" fill="#00A557"/>
<path d="M64.2032 650.241C62.6757 645.882 60.8501 641.644 58.6528 637.575C51.4351 624.211 41.365 613.385 29.1454 604.479C21.5375 598.936 13.3776 594.36 4.63249 590.858C1.99717 589.802 -0.726477 588.96 -3.3802 587.955C-4.63897 587.477 -5.97503 587.095 -7.03872 586.223C-8.82382 584.755 -8.66555 583.913 -7.56873 582.434C-7.33685 582.121 -7.06449 581.82 -6.75164 581.592C-3.68569 579.373 -0.27008 578.064 3.48782 577.549C5.93175 577.214 8.36463 577.096 10.8049 577.38C14.4524 577.806 18.0189 578.593 21.5523 579.646C27.3271 581.363 32.8517 583.64 38.126 586.517C56.2236 596.387 69.6431 610.766 78.9845 629.041C81.0199 633.018 82.7461 637.13 84.2294 641.342C85.9077 646.106 87.2438 650.969 88.175 655.931C88.7197 658.838 89.1356 661.769 89.4264 664.723C89.8313 668.839 90.1404 672.959 89.9343 677.083C89.8092 679.596 89.6767 682.115 89.4411 684.632C88.9332 690.006 88.002 695.296 86.6144 700.493C82.7571 714.928 76.04 727.899 66.4263 739.354C66.1981 739.626 66.0656 740.086 65.4877 739.986C66.5146 736.841 67.0004 733.623 66.8201 730.341C66.5993 726.357 65.8153 722.506 64.3467 718.746C60.9421 710.028 55.0789 703.363 47.7398 697.757C37.9126 690.252 27.4744 683.624 17.4521 676.406C3.88901 666.64 -5.81307 653.82 -12.0812 638.37C-14.1644 633.238 -15.644 627.93 -16.6083 622.475C-17.0426 620.036 -17.3555 617.583 -17.6278 615.118C-17.9186 612.528 -18.0069 609.942 -17.9996 607.345C-17.9996 606.922 -17.9922 606.492 -17.9333 606.072C-17.3592 601.978 -14.7238 600.595 -10.4396 601.231C-7.50616 601.669 -4.66105 602.541 -1.81225 603.387C21.3903 610.306 39.8927 624.193 55.7525 642.027C59.1239 645.815 62.212 649.832 65.1086 653.993C65.219 654.122 65.2411 654.467 65.3736 654.386C65.5687 654.265 64.6301 651.422 64.2142 650.23L64.2032 650.241Z" fill="#5D616D"/>
<path d="M1551.37 729.484C1547.18 729.8 1543.51 730.113 1539.84 730.062C1536.05 730.006 1532.26 729.805 1528.48 729.529C1514.38 728.5 1500.78 725.507 1487.77 720.362C1459.77 709.289 1438.26 691.234 1423.03 666.471C1422.26 665.217 1421.76 663.853 1421.22 662.512C1420.73 661.283 1421.73 659.748 1423.17 659.517C1424.6 659.286 1426.01 659.327 1427.4 659.903C1445.87 667.566 1465.21 672.343 1485.19 675.012C1491 675.787 1496.84 676.284 1502.71 676.607C1507.51 676.87 1512.32 676.89 1517.14 676.807C1523.33 676.694 1529.49 676.185 1535.62 675.516C1540.89 674.94 1546.13 673.964 1551.31 672.769C1555.18 671.876 1559.01 670.886 1562.81 669.741C1565.7 668.866 1568.23 667.435 1570.25 665.215C1573.96 661.123 1572.92 653.675 1566.87 651.4C1563.6 650.169 1560.2 649.704 1556.72 649.816C1554.67 649.884 1552.62 649.737 1550.57 650.02C1545.35 650.741 1540.17 651.563 1535 652.612C1526.99 654.238 1519.37 657.096 1511.42 658.868C1505.21 660.249 1498.95 661.148 1492.59 661.438C1488.91 661.602 1485.3 661.262 1481.72 660.53C1480.82 660.347 1479.96 660.063 1479.19 659.57C1477.83 658.707 1477.65 657.655 1478.65 656.406C1479.18 655.739 1479.81 655.158 1480.62 654.779C1494.8 648.167 1508.51 640.671 1522.72 634.104C1530.76 630.386 1539.22 627.801 1547.89 625.853C1551.58 625.025 1555.32 624.444 1559.06 623.878C1563.18 623.25 1567.3 622.719 1571.46 622.598C1576.02 622.464 1580.58 622.457 1585.15 622.654C1598.18 623.218 1610.69 625.837 1622.74 630.429C1632.49 634.145 1640.32 640.084 1645.72 648.61C1651.97 658.481 1651.41 668.561 1645.8 678.624C1642.21 685.071 1637.14 690.439 1631.67 695.479C1615.12 710.724 1595.51 720.732 1573.2 726.082C1568.75 727.151 1564.24 727.916 1559.72 728.636C1556.76 729.105 1553.79 729.154 1551.36 729.494L1551.37 729.484Z" fill="#F47E35"/>
<path d="M5.9471 -32.8409C5.56733 -31.4224 5.12508 -30.0208 4.82496 -28.5859C2.48532 -17.3728 4.70917 -6.90652 10.0384 3.00964C13.0796 8.66215 17.1309 13.5365 21.9452 17.7473C23.8529 19.4192 25.9473 20.8761 28.1018 22.2469C32.4898 25.0327 36.8537 27.8653 41.1178 30.8379C44.2192 32.9979 47.3435 35.1216 50.4306 37.2952C53.4399 39.414 56.4134 41.5892 59.3447 43.8223C62.4749 46.2036 65.5719 48.6372 68.6252 51.1221C72.761 54.4932 76.7707 58.0103 80.4179 61.9134C99.961 82.8231 110.79 107.41 111.446 136.248C111.595 142.738 110.813 149.114 108.756 155.317C107.174 160.077 104.988 164.546 101.762 168.364C95.7341 175.507 87.8431 178.818 78.577 178.966C71.7371 179.078 65.1999 177.519 58.7477 175.461C53.8979 173.912 49.1783 172.051 44.5784 169.876C42.1982 168.746 39.8726 167.521 37.5252 166.322C33.7635 164.405 30.2641 162.056 26.7746 159.735C23.4178 157.499 20.2676 154.936 17.1703 152.316C14.2225 149.824 11.3921 147.209 8.70912 144.45C5.57685 141.227 2.64369 137.814 -0.130081 134.265C-11.6219 119.53 -19.0554 102.934 -23.0097 84.6811C-27.3129 64.8097 -28.1329 44.9028 -23.9085 24.8854C-22.3339 17.425 -20.0993 10.1667 -17.146 3.14207C-15.5883 -0.556046 -13.8399 -4.17325 -11.9219 -7.71164C-10.6961 -9.97802 -9.4799 -12.256 -8.13498 -14.4528C-5.31909 -19.0546 -2.07465 -23.3464 1.25276 -27.5915C2.70088 -29.4356 4.23718 -31.1789 5.94965 -32.8449L5.9471 -32.8409ZM-8.63735 90.4791C-8.72494 90.5197 -8.80851 90.5628 -8.8961 90.6034C-8.82969 90.792 -8.77495 90.9901 -8.6954 91.1756C-4.72387 100.765 0.222348 109.819 6.23191 118.287C11.0005 125.007 16.4494 131.141 22.3847 136.826C24.9932 139.329 27.8034 141.638 30.6488 143.873C32.9614 145.688 35.4436 147.288 37.8921 148.923C42.3385 151.893 46.9746 154.553 51.7739 156.893C54.6077 158.275 57.5341 159.485 60.4858 160.591C63.5388 161.734 66.7141 162.39 70.0027 161.763C72.089 161.365 73.9221 160.469 75.0246 158.531C76.63 155.709 75.9891 151.599 73.5615 148.748C71.643 146.488 69.0738 145.239 66.4234 144.136C62.818 142.64 59.1147 141.369 55.5788 139.736C51.3046 137.766 46.922 136.021 42.7497 133.829C38.9799 131.845 34.9952 130.227 31.3529 128.041C25.9503 124.796 20.5305 121.551 15.5793 117.592C12.009 114.741 8.56409 111.772 5.42034 108.452C1.84343 104.678 -1.50112 100.723 -4.48933 96.4634C-5.88112 94.4742 -7.25615 92.4673 -8.63882 90.4725L-8.63735 90.4791Z" fill="#265787"/>
</g>
</g>
<defs>
<clipPath id="clip0_4719_11449">
<rect width="1536" height="740" fill="white"/>
</clipPath>
</defs>
</svg>
