<svg width="835" height="512" viewBox="0 0 835 512" fill="none" xmlns="http://www.w3.org/2000/svg">
<g clip-path="url(#clip0_1194_28072)">
<path d="M598.627 330.974C599.982 332.081 601.249 333.26 602.512 334.47C602.795 334.724 603.078 334.978 603.369 335.239C608.563 340.077 612.076 346.715 615.72 352.728C616.118 353.383 616.516 354.039 616.914 354.694C617.902 356.32 618.889 357.947 619.875 359.574C621.744 362.657 623.632 365.728 625.534 368.791C627.273 371.592 628.988 374.408 630.699 377.226C632.429 380.073 634.172 382.912 635.92 385.747C638.096 389.278 640.259 392.815 642.412 396.359C644.123 399.173 645.846 401.979 647.574 404.782C649.526 407.949 651.47 411.121 653.401 414.3C654.068 415.396 654.735 416.492 655.403 417.588C655.91 418.421 656.417 419.254 656.923 420.087C657.619 421.23 658.316 422.372 659.015 423.514C659.41 424.161 659.804 424.809 660.198 425.458C663.098 430.634 663.098 430.634 667.775 433.917C669.972 434.221 671.776 434.038 673.602 432.729C675.164 431.212 676.21 429.332 677.315 427.473C677.953 426.405 678.606 425.347 679.26 424.289C680.324 422.57 681.384 420.849 682.441 419.125C684.024 416.544 685.61 413.965 687.198 411.386C687.716 410.545 688.234 409.703 688.752 408.861C699.629 391.186 699.629 391.186 710.506 373.511C710.763 373.094 711.019 372.677 711.283 372.247C711.8 371.408 712.317 370.569 712.833 369.73C714.152 367.59 715.467 365.447 716.776 363.301C721.765 355.136 726.873 347.246 733.037 339.908C733.288 339.604 733.539 339.3 733.797 338.987C735.779 336.659 738.007 334.786 740.418 332.916C740.787 332.618 741.156 332.321 741.536 332.015C747.386 327.419 753.109 325.301 760.57 325.365C761.288 325.37 761.288 325.37 762.021 325.374C769.966 325.518 776.074 328.873 781.806 334.227C784.968 337.536 787.09 341.426 788.565 345.724C788.665 346.01 788.765 346.297 788.867 346.592C789.868 349.507 790.743 352.454 791.594 355.415C791.764 356.001 791.934 356.588 792.104 357.174C792.468 358.426 792.83 359.679 793.191 360.932C793.774 362.952 794.359 364.972 794.945 366.991C795.669 369.49 796.393 371.989 797.116 374.488C798.438 379.059 799.764 383.628 801.093 388.197C801.241 388.706 801.241 388.706 801.392 389.225C801.792 390.599 802.192 391.973 802.592 393.347C803.607 396.839 804.622 400.332 805.637 403.824C806.149 405.585 806.661 407.347 807.173 409.109C807.325 409.632 807.325 409.632 807.48 410.165C808.799 414.703 810.118 419.241 811.438 423.779C811.64 424.474 811.842 425.17 812.044 425.865C812.194 426.381 812.194 426.381 812.347 426.908C813.052 429.334 813.758 431.759 814.463 434.185C814.866 435.571 815.268 436.958 815.671 438.344C815.771 438.687 815.871 439.03 815.974 439.384C817.107 443.283 818.241 447.183 819.376 451.082C819.48 451.443 819.585 451.804 819.694 452.175C820.118 453.633 820.542 455.091 820.966 456.548C822.105 460.462 823.243 464.375 824.378 468.29C824.676 469.314 824.973 470.339 825.271 471.364C825.465 472.035 825.66 472.706 825.855 473.377C827.029 477.423 828.21 481.467 829.402 485.508C829.962 487.406 830.518 489.304 831.073 491.203C831.433 492.433 831.795 493.662 832.161 494.891C832.554 496.208 832.939 497.527 833.324 498.846C833.437 499.221 833.551 499.596 833.668 499.983C834.47 502.772 835.057 505.563 833.82 508.285C832.14 510.051 830.453 510.504 828.083 510.596C827.265 510.604 826.446 510.606 825.628 510.602C824.954 510.606 824.954 510.606 824.268 510.611C822.788 510.618 821.308 510.616 819.828 510.614C819.057 510.615 818.286 510.617 817.515 510.618C815.092 510.624 812.669 510.623 810.246 510.619C807.755 510.614 805.264 510.62 802.773 510.63C800.626 510.639 798.48 510.641 796.334 510.639C795.056 510.638 793.777 510.639 792.499 510.645C791.071 510.651 789.643 510.647 788.215 510.64C787.797 510.644 787.38 510.648 786.949 510.652C783.487 510.618 780.373 509.821 777.759 507.435C777.488 507.197 777.217 506.958 776.937 506.713C775.212 504.659 774.373 502.219 773.753 499.635C773.681 499.346 773.608 499.057 773.533 498.76C773.295 497.805 773.061 496.848 772.828 495.892C772.658 495.207 772.487 494.523 772.317 493.838C771.859 491.997 771.405 490.154 770.953 488.311C770.478 486.38 769.998 484.45 769.519 482.52C768.451 478.214 767.39 473.906 766.329 469.598C765.903 467.864 765.475 466.13 765.048 464.397C764.43 461.889 763.812 459.381 763.194 456.872C761.881 451.545 760.568 446.217 759.252 440.891C759.067 440.142 758.882 439.392 758.697 438.643C758.033 435.956 757.366 433.271 756.691 430.587C756.496 429.81 756.303 429.034 756.111 428.256C755.854 427.216 755.592 426.176 755.328 425.137C755.257 424.842 755.185 424.547 755.111 424.243C754.513 421.924 753.766 419.794 751.732 418.379C750.253 417.905 749.655 417.85 748.187 418.379C745.765 420.099 744.278 422.128 742.846 424.691C742.443 425.388 742.038 426.084 741.633 426.779C741.431 427.129 741.229 427.479 741.021 427.84C740.103 429.404 739.135 430.933 738.16 432.461C737.771 433.073 737.382 433.686 736.993 434.298C736.793 434.613 736.593 434.928 736.387 435.252C732.892 440.771 729.458 446.328 726.04 451.894C724.042 455.146 722.024 458.385 719.998 461.62C718.445 464.1 716.9 466.585 715.362 469.074C713.314 472.387 711.254 475.693 709.184 478.993C707.996 480.889 706.816 482.789 705.655 484.702C703.317 488.547 700.927 492.199 698.075 495.684C697.789 496.044 697.503 496.404 697.209 496.775C696.347 497.849 695.469 498.906 694.579 499.957C694.252 500.346 693.925 500.735 693.588 501.136C689.702 505.642 684.965 508.701 679.429 510.834C679.15 510.942 678.872 511.051 678.586 511.162C675.706 512.159 672.912 512.194 669.887 512.169C669.629 512.168 669.372 512.166 669.106 512.165C660.443 512.096 653.241 509.812 646.797 503.842C646.515 503.586 646.232 503.33 645.942 503.066C642.756 500.045 640.545 496.237 638.251 492.527C637.737 491.701 637.223 490.874 636.709 490.048C636.449 489.629 636.19 489.21 635.922 488.779C634.695 486.805 633.462 484.835 632.23 482.864C631.744 482.087 631.259 481.31 630.773 480.534C630.533 480.149 630.292 479.764 630.045 479.368C604.552 438.579 604.552 438.579 603.822 437.412C603.34 436.64 602.857 435.868 602.374 435.097C601.112 433.079 599.854 431.06 598.602 429.037C598.342 428.619 598.082 428.2 597.814 427.769C597.32 426.972 596.826 426.175 596.335 425.377C593.729 420.689 593.729 420.689 589.371 418.075C587.946 417.932 587.308 418.272 586.196 419.156C584.432 421.379 583.72 423.758 583.075 426.481C582.972 426.895 582.869 427.309 582.763 427.735C582.424 429.106 582.092 430.479 581.761 431.852C581.522 432.825 581.282 433.798 581.042 434.771C580.533 436.837 580.028 438.904 579.525 440.972C578.808 443.923 578.085 446.872 577.36 449.821C576.248 454.342 575.141 458.864 574.037 463.387C572.412 470.044 570.774 476.698 569.131 483.35C568.632 485.371 568.135 487.393 567.639 489.414C565.572 497.834 565.572 497.834 564.708 501.154C564.6 501.57 564.492 501.985 564.381 502.413C563.414 505.489 561.412 507.826 558.563 509.329C555.933 510.465 553.645 510.668 550.801 510.647C550.347 510.649 549.893 510.652 549.425 510.655C547.935 510.662 546.445 510.657 544.955 510.652C543.914 510.653 542.873 510.654 541.833 510.656C539.656 510.659 537.479 510.656 535.303 510.648C532.793 510.64 530.283 510.642 527.773 510.651C525.61 510.658 523.446 510.659 521.283 510.655C519.995 510.653 518.706 510.653 517.418 510.657C515.981 510.661 514.545 510.655 513.109 510.647C512.687 510.65 512.264 510.653 511.829 510.656C509.389 510.629 507.403 510.37 505.395 508.892C504.135 507.159 503.998 505.53 504.23 503.453C504.684 501.462 505.271 499.512 505.857 497.556C506.032 496.961 506.206 496.365 506.38 495.769C506.756 494.487 507.134 493.206 507.515 491.926C508.124 489.874 508.728 487.821 509.331 485.767C510.179 482.881 511.03 479.996 511.882 477.112C513.11 472.953 514.33 468.791 515.547 464.629C515.643 464.299 515.74 463.97 515.839 463.63C516.227 462.303 516.615 460.975 517.003 459.648C517.685 457.314 518.368 454.981 519.052 452.648C519.148 452.318 519.245 451.987 519.345 451.646C519.442 451.316 519.538 450.987 519.638 450.647C521.87 443.026 524.095 435.403 526.318 427.78C528.527 420.2 530.738 412.621 532.954 405.043C533.051 404.71 533.149 404.376 533.249 404.032C534.335 400.319 535.422 396.607 536.511 392.895C536.9 391.567 537.29 390.239 537.679 388.911C537.775 388.585 537.871 388.258 537.969 387.922C539.194 383.746 540.41 379.569 541.616 375.388C542.225 373.277 542.837 371.166 543.451 369.055C543.856 367.661 544.26 366.265 544.658 364.869C553.037 335.55 553.037 335.55 566.077 328.235C575.911 323.002 589.689 324.646 598.627 330.974Z" fill="#1755A6"/>
<path d="M8.40429 327.815C8.66862 327.814 8.93295 327.813 9.20529 327.813C10.0976 327.81 10.9899 327.811 11.8822 327.811C12.5259 327.81 13.1697 327.809 13.8134 327.808C15.5879 327.805 17.3625 327.804 19.137 327.804C21.0494 327.803 22.9618 327.8 24.8742 327.798C29.0621 327.792 33.2501 327.79 37.438 327.788C40.0575 327.787 42.6769 327.786 45.2964 327.784C52.5588 327.779 59.8211 327.775 67.0834 327.774C67.5487 327.774 68.0139 327.774 68.4933 327.773C68.9596 327.773 69.426 327.773 69.9065 327.773C70.8514 327.773 71.7963 327.773 72.7412 327.773C73.4443 327.773 73.4443 327.773 74.1616 327.772C81.7276 327.771 89.2937 327.764 96.8597 327.755C104.641 327.746 112.422 327.741 120.204 327.741C124.567 327.74 128.93 327.738 133.293 327.731C137.016 327.725 140.739 327.723 144.461 327.726C146.355 327.728 148.249 327.727 150.143 327.722C172.468 327.66 194.894 329.953 215.213 339.909C215.646 340.12 215.646 340.12 216.088 340.335C221.985 343.241 227.336 346.866 232.305 351.174C232.664 351.481 233.023 351.788 233.393 352.104C235.91 354.315 238.042 356.673 240.074 359.332C240.333 359.662 240.592 359.993 240.859 360.333C248.652 370.601 251.92 382.994 251.85 395.775C251.849 396.181 251.849 396.181 251.848 396.595C251.829 400.844 251.585 404.92 250.563 409.056C250.505 409.313 250.446 409.571 250.386 409.836C248.158 419.49 242.864 428.26 235.969 435.29C235.385 435.888 234.813 436.496 234.241 437.104C227.056 444.64 218.106 449.538 208.681 453.729C208.419 453.847 208.156 453.965 207.886 454.086C206.763 454.575 205.962 454.895 204.724 454.895C206.164 456.373 207.668 457.735 209.24 459.071C209.479 459.275 209.718 459.479 209.965 459.69C211.724 461.187 213.506 462.654 215.299 464.11C216.512 465.105 217.708 466.116 218.903 467.132C220.445 468.442 221.995 469.739 223.565 471.016C225.353 472.472 227.115 473.957 228.873 475.45C230.541 476.866 232.233 478.253 233.93 479.634C235.156 480.642 236.365 481.667 237.574 482.695C239.038 483.94 240.51 485.167 242.017 486.361C243.746 487.732 245.43 489.151 247.111 490.581C248.788 492.006 250.487 493.4 252.194 494.789C253.6 495.945 254.982 497.128 256.365 498.312C257.487 499.265 258.623 500.19 259.794 501.083C260.036 501.269 260.279 501.454 260.528 501.645C260.991 501.997 261.455 502.345 261.923 502.689C263.547 503.923 264.627 505.216 265.713 506.95C265.738 508.042 265.738 508.042 265.325 508.892C263.527 510.224 260.986 510.106 258.842 510.112C258.465 510.114 258.465 510.114 258.08 510.115C257.243 510.119 256.406 510.119 255.569 510.12C254.966 510.122 254.363 510.124 253.761 510.126C252.126 510.131 250.492 510.133 248.858 510.135C247.834 510.136 246.81 510.138 245.787 510.139C242.577 510.145 239.367 510.149 236.157 510.15C232.465 510.152 228.774 510.159 225.082 510.17C222.221 510.178 219.359 510.182 216.497 510.183C214.792 510.183 213.087 510.185 211.382 510.192C209.774 510.199 208.167 510.2 206.559 510.196C205.974 510.196 205.389 510.198 204.804 510.201C195.679 510.258 188.699 507.888 181.707 502.021C181.423 501.784 181.138 501.548 180.845 501.304C178.894 499.679 176.953 498.041 175.019 496.396C173.388 495.011 171.733 493.656 170.073 492.306C168.881 491.325 167.707 490.325 166.533 489.323C164.809 487.853 163.055 486.436 161.264 485.05C159.032 483.319 156.892 481.5 154.767 479.64C153.028 478.119 151.259 476.643 149.461 475.192C148.684 474.554 147.92 473.91 147.161 473.25C144.595 471.022 142.032 469.024 139.073 467.326C138.772 467.147 138.472 466.968 138.162 466.784C133.191 464.041 127.846 463.597 122.302 463.629C121.661 463.626 121.019 463.624 120.378 463.62C118.656 463.613 116.935 463.616 115.214 463.621C113.402 463.625 111.591 463.621 109.78 463.619C106.743 463.616 103.705 463.62 100.668 463.627C97.1648 463.636 93.6615 463.633 90.1582 463.624C87.1377 463.617 84.1172 463.616 81.0967 463.62C79.2981 463.623 77.4995 463.623 75.7008 463.618C74.0114 463.613 72.3222 463.617 70.6328 463.625C70.0155 463.627 69.3982 463.627 68.781 463.623C64.8577 463.604 61.7835 463.997 58.3688 466.015C54.386 470.219 54.2756 475.011 54.2804 480.502C54.2808 481.467 54.2757 482.433 54.2692 483.398C54.2513 486.14 54.2416 488.883 54.2391 491.625C54.2371 493.309 54.2277 494.994 54.2137 496.678C54.2099 497.317 54.209 497.955 54.211 498.594C54.2138 499.487 54.207 500.38 54.1983 501.273C54.1972 501.78 54.1961 502.286 54.1949 502.809C53.8925 504.998 52.8751 506.778 51.1822 508.236C50.8787 508.51 50.8787 508.51 50.5691 508.79C48.1482 510.197 45.3997 510.171 42.683 510.164C42.3017 510.166 41.9204 510.168 41.5275 510.17C40.2748 510.175 39.0221 510.175 37.7694 510.174C36.8938 510.176 36.0183 510.177 35.1427 510.179C33.3106 510.182 31.4784 510.182 29.6462 510.18C27.3037 510.178 24.9614 510.184 22.619 510.193C20.8117 510.199 19.0044 510.199 17.1971 510.198C16.3336 510.198 15.4702 510.2 14.6068 510.204C13.3974 510.209 12.1883 510.206 10.9789 510.202C10.6258 510.205 10.2728 510.208 9.90903 510.211C7.27396 510.189 4.78279 509.797 2.58882 508.251C2.28161 507.919 2.28161 507.919 1.96819 507.581C1.75636 507.361 1.54454 507.142 1.3263 506.916C0.0313475 505.158 -0.111225 503.455 -0.0994567 501.331C-0.100935 501.041 -0.102413 500.751 -0.103936 500.452C-0.10795 499.478 -0.106426 498.503 -0.104931 497.529C-0.106661 496.824 -0.108724 496.12 -0.111095 495.415C-0.116612 493.477 -0.11725 491.538 -0.117079 489.6C-0.117719 487.51 -0.122793 485.421 -0.127254 483.331C-0.136135 478.761 -0.139208 474.191 -0.141172 469.621C-0.142436 466.768 -0.14497 463.915 -0.147777 461.063C-0.155378 453.166 -0.16175 445.27 -0.162878 437.374C-0.162951 436.868 -0.163024 436.363 -0.163099 435.842C-0.163241 434.818 -0.163383 433.793 -0.163523 432.768C-0.163594 432.26 -0.163665 431.751 -0.163738 431.227C-0.163808 430.718 -0.163878 430.209 -0.163951 429.684C-0.165327 421.429 -0.175827 413.174 -0.190347 404.919C-0.205131 396.447 -0.212663 387.975 -0.212781 379.503C-0.213008 374.745 -0.216321 369.987 -0.227542 365.229C-0.237051 361.178 -0.239903 357.127 -0.23405 353.076C-0.231259 351.009 -0.231621 348.942 -0.240424 346.874C-0.248406 344.982 -0.247428 343.09 -0.239307 341.198C-0.237947 340.513 -0.239871 339.828 -0.245408 339.144C-0.292154 332.966 -0.292154 332.966 1.3899 330.747C3.5244 328.627 5.40177 327.818 8.40429 327.815ZM54.994 374.652C53.8403 376.544 53.9409 378.407 53.9421 380.574C53.9408 380.914 53.9395 381.254 53.9382 381.604C53.9345 382.728 53.9337 383.853 53.9333 384.977C53.932 385.76 53.9307 386.543 53.9294 387.326C53.927 388.967 53.9263 390.609 53.9266 392.251C53.9266 394.351 53.9213 396.45 53.9146 398.55C53.9103 400.167 53.9095 401.785 53.9097 403.403C53.9092 404.177 53.9075 404.95 53.9045 405.724C53.9007 406.809 53.9018 407.894 53.9042 408.979C53.902 409.296 53.8998 409.613 53.8976 409.939C53.9152 413.174 54.4154 415.63 56.7178 417.99C57.6254 418.444 58.1526 418.428 59.1638 418.429C59.5163 418.43 59.8689 418.431 60.2321 418.433C60.817 418.432 60.817 418.432 61.4136 418.431C61.8259 418.432 62.2383 418.433 62.6631 418.434C64.0544 418.436 65.4456 418.436 66.8369 418.435C67.831 418.437 68.8252 418.438 69.8193 418.439C72.2473 418.442 74.6753 418.444 77.1033 418.444C79.0815 418.444 81.0596 418.445 83.0378 418.446C88.6572 418.449 94.2766 418.451 99.896 418.451C100.199 418.451 100.502 418.451 100.815 418.451C101.119 418.451 101.422 418.451 101.735 418.451C106.632 418.451 111.528 418.454 116.425 418.46C121.463 418.466 126.502 418.468 131.541 418.468C134.365 418.468 137.189 418.469 140.013 418.473C142.679 418.477 145.344 418.477 148.01 418.474C148.98 418.474 149.951 418.474 150.921 418.477C155.798 418.488 160.643 418.396 165.508 418.03C165.915 418 166.322 417.969 166.742 417.938C171.615 417.532 177.843 416.876 182.193 414.494C182.533 413.701 182.533 413.701 182.581 412.94C182.709 413.197 182.838 413.453 182.97 413.717C187.735 412.339 191.739 408.498 194.123 404.227C196.401 399.684 196.534 394.12 195.182 389.244C193.027 383.326 188.939 379.451 183.375 376.729C173.605 372.251 162.435 372.482 151.93 372.477C150.92 372.475 149.91 372.473 148.9 372.471C146.172 372.466 143.445 372.464 140.717 372.462C139.011 372.461 137.306 372.459 135.6 372.458C130.869 372.453 126.139 372.449 121.408 372.448C121.107 372.447 120.805 372.447 120.494 372.447C120.192 372.447 119.89 372.447 119.578 372.447C118.966 372.447 118.354 372.447 117.741 372.446C117.437 372.446 117.134 372.446 116.821 372.446C111.888 372.445 106.956 372.438 102.024 372.429C96.9488 372.42 91.8741 372.415 86.7993 372.414C83.9542 372.414 81.109 372.412 78.2639 372.405C75.5915 372.398 72.9192 372.397 70.2469 372.401C69.2666 372.401 68.2863 372.399 67.306 372.396C65.9677 372.391 64.6296 372.393 63.2913 372.397C62.71 372.392 62.71 372.392 62.117 372.388C59.4061 372.407 57.0007 372.645 54.994 374.652Z" fill="#1755A6"/>
<path d="M386.428 327.708C388.226 327.71 390.024 327.705 391.822 327.701C395.322 327.695 398.822 327.694 402.323 327.696C405.167 327.698 408.011 327.697 410.854 327.695C411.262 327.695 411.669 327.695 412.089 327.694C412.917 327.694 413.744 327.693 414.572 327.693C422.292 327.687 430.013 327.689 437.733 327.694C444.794 327.698 451.856 327.693 458.917 327.683C466.188 327.674 473.458 327.67 480.729 327.673C484.804 327.674 488.878 327.673 492.952 327.666C496.412 327.661 499.872 327.66 503.332 327.667C505.096 327.671 506.86 327.671 508.624 327.665C510.239 327.66 511.853 327.662 513.467 327.669C514.051 327.671 514.635 327.67 515.219 327.666C516.013 327.661 516.806 327.666 517.599 327.672C518.04 327.672 518.481 327.672 518.935 327.672C520.776 327.965 521.997 328.864 523.216 330.246C524.651 333.914 523.05 337.918 522.008 341.51C521.837 342.112 521.667 342.715 521.497 343.317C521.141 344.576 520.781 345.833 520.419 347.089C519.958 348.688 519.503 350.289 519.05 351.89C518.614 353.432 518.175 354.973 517.735 356.514C517.653 356.802 517.571 357.091 517.487 357.387C514.261 368.711 514.261 368.711 508.891 371.763C507.451 372.433 506.328 372.638 504.744 372.64C504.301 372.642 503.859 372.644 503.403 372.647C502.919 372.646 502.435 372.644 501.936 372.643C501.415 372.644 500.893 372.646 500.372 372.648C498.94 372.653 497.508 372.653 496.077 372.652C494.532 372.652 492.987 372.656 491.442 372.66C488.764 372.666 486.086 372.669 483.408 372.67C479.526 372.673 475.645 372.68 471.763 372.688C465.453 372.702 459.143 372.713 452.833 372.722C452.456 372.722 452.078 372.723 451.689 372.724C449.01 372.727 446.332 372.731 443.653 372.734C440.605 372.738 437.557 372.742 434.508 372.747C434.133 372.747 433.758 372.748 433.371 372.748C427.093 372.757 420.815 372.769 414.536 372.783C410.67 372.791 406.804 372.797 402.938 372.799C400.281 372.8 397.624 372.805 394.968 372.811C393.44 372.815 391.911 372.817 390.383 372.816C378.397 372.731 378.397 372.731 366.591 374.58C366.063 374.707 366.063 374.707 365.525 374.837C357.125 376.928 349.227 380.452 342.627 386.136C342.278 386.432 341.928 386.728 341.568 387.033C334.627 393.083 329.939 400.861 327.866 409.833C327.778 410.212 327.69 410.591 327.6 410.982C325.539 421.826 327.627 433.553 333.755 442.753C341.835 454.306 354.651 461.207 368.338 463.799C375.264 465.017 382.125 465.054 389.138 465.057C390.145 465.058 391.153 465.06 392.16 465.063C394.32 465.067 396.48 465.07 398.64 465.073C402.055 465.077 405.469 465.085 408.884 465.093C410.055 465.096 411.226 465.099 412.397 465.102C412.836 465.103 412.836 465.103 413.283 465.104C416.603 465.112 419.922 465.12 423.242 465.127C423.545 465.127 423.848 465.128 424.16 465.128C429.082 465.139 434.003 465.146 438.925 465.152C443.987 465.159 449.048 465.17 454.11 465.185C457.228 465.194 460.346 465.2 463.464 465.201C465.85 465.202 468.236 465.209 470.622 465.218C471.601 465.221 472.58 465.221 473.559 465.22C474.893 465.218 476.227 465.224 477.562 465.231C477.95 465.229 478.339 465.227 478.739 465.225C480.796 465.245 482.253 465.391 484.029 466.549C485.269 467.867 485.521 468.985 485.646 470.752C485.505 473.537 484.591 476.221 483.82 478.886C483.632 479.552 483.445 480.219 483.257 480.885C482.865 482.277 482.468 483.667 482.068 485.056C481.557 486.829 481.057 488.605 480.56 490.382C480.174 491.757 479.784 493.13 479.392 494.503C479.205 495.157 479.02 495.812 478.837 496.467C477.381 501.643 475.766 506.096 470.837 508.944C468.408 510.036 466.083 510.114 463.474 510.109C462.95 510.111 462.95 510.111 462.416 510.112C461.244 510.115 460.073 510.114 458.902 510.114C458.062 510.115 457.222 510.116 456.382 510.118C454.097 510.121 451.811 510.122 449.525 510.122C448.092 510.123 446.658 510.124 445.225 510.125C439.948 510.128 434.671 510.13 429.394 510.129C425.007 510.129 420.619 510.134 416.232 510.139C412.225 510.145 408.218 510.147 404.21 510.146C401.825 510.146 399.441 510.147 397.056 510.152C358.665 510.214 323.979 504.083 295.623 476.261C294.666 475.261 293.782 474.222 292.903 473.153C292.491 472.689 292.491 472.689 292.07 472.215C280.09 458.474 272.726 440.029 272.624 421.737C272.622 421.405 272.619 421.072 272.616 420.73C272.47 397.895 278.27 377.195 294.457 360.498C294.665 360.28 294.872 360.063 295.085 359.839C298.28 356.498 301.606 353.517 305.334 350.786C305.594 350.595 305.854 350.403 306.122 350.206C311.791 346.06 317.639 342.532 323.981 339.52C324.24 339.395 324.5 339.269 324.767 339.14C333.142 335.109 342.095 332.483 351.174 330.586C351.533 330.51 351.893 330.435 352.264 330.357C363.561 328.053 374.944 327.688 386.428 327.708Z" fill="#1755A6"/>
<path d="M388.757 -0.047748C389.639 -0.0438386 390.521 -0.0402958 391.402 -0.0371258C393.531 -0.028691 395.66 -0.0157933 397.789 0.000810435C397.917 0.385393 398.046 0.769976 398.178 1.16621C397.811 1.34752 397.811 1.34752 397.438 1.53249C390.418 5.00988 390.418 5.00988 384.193 9.71249C383.969 9.91574 383.746 10.119 383.515 10.3284C373.55 19.5392 367.791 32.7273 367.056 46.2661C367.03 47.0908 367.016 47.9148 367.008 48.7398C367.004 49.0525 367 49.3652 366.996 49.6874C366.987 50.7276 366.982 51.7678 366.979 52.8081C366.977 53.1745 366.976 53.5408 366.974 53.9183C366.962 60.5126 367.368 67.0434 367.877 73.6154C368.955 87.6791 369.781 102.164 367.489 116.153C367.424 116.567 367.359 116.981 367.293 117.407C365.816 126.655 363.079 135.547 359.331 144.122C359.198 144.427 359.066 144.731 358.929 145.045C353.916 156.42 346.652 167.05 338.149 176.109C337.371 176.945 336.632 177.794 335.901 178.672C327.098 188.778 313.823 197.56 300.284 198.896C290.707 199.518 282.385 197.879 274.985 191.394C261.027 178.296 256.563 157.921 255.96 139.435C255.942 138.247 255.935 137.06 255.933 135.872C255.932 135.435 255.931 134.999 255.929 134.55C255.927 133.631 255.926 132.713 255.927 131.795C255.926 130.423 255.919 129.05 255.911 127.678C255.892 120.213 256.1 112.686 257.601 105.348C257.683 104.936 257.766 104.524 257.851 104.099C262.519 81.7659 273.823 60.4714 289.018 43.5092C289.355 43.1291 289.692 42.749 290.039 42.3574C294.306 37.6209 298.746 33.0579 303.78 29.1359C304.218 28.7764 304.655 28.4156 305.091 28.0539C312.269 22.1348 320.244 17.1807 328.646 13.1894C329.147 12.9499 329.647 12.7071 330.145 12.4602C341.097 7.04003 353.475 3.77372 365.449 1.6518C365.886 1.57446 366.322 1.49712 366.772 1.41745C374.116 0.186634 381.321 -0.105958 388.757 -0.047748ZM288.241 66.0403C288.63 66.8172 288.63 66.8172 288.63 66.8172L288.241 66.0403ZM287.853 66.8172C278.7 82.3962 273.675 99.673 272.314 117.706C272.281 118.121 272.281 118.121 272.248 118.544C271.155 132.849 272.408 147.277 275.009 161.36C275.061 161.66 275.113 161.96 275.166 162.269C275.777 165.329 277.329 167.748 279.765 169.688C281.645 170.915 283.721 171.153 285.911 170.926C288.694 170.144 290.54 168.667 292.126 166.265C293.599 163.576 293.222 161.38 292.514 158.495C292.029 156.959 291.463 155.46 290.888 153.955C287.028 143.512 284.203 132.648 282.803 121.591C282.743 121.14 282.743 121.14 282.682 120.68C280.457 103.337 281.965 84.8231 288.021 68.3893C288.341 67.5776 288.341 67.5776 287.853 66.8172Z" fill="#0080C6"/>
<path d="M498.092 36.0738C520.146 56.0201 534.174 84.3324 539.193 113.433C539.257 113.782 539.321 114.131 539.387 114.491C540.473 120.585 540.479 126.71 540.504 132.881C540.507 133.29 540.51 133.698 540.513 134.119C540.561 142.354 539.665 150.371 537.954 158.423C537.868 158.836 537.868 158.836 537.78 159.258C534.301 175.809 528.025 192.023 518.774 206.229C518.616 206.474 518.459 206.719 518.296 206.971C517.85 207.634 517.85 207.634 517.05 208.608C516.665 208.608 516.281 208.608 515.885 208.608C515.897 208.048 515.897 208.048 515.909 207.477C516.224 197.432 516.224 197.432 514.331 187.631C514.25 187.369 514.168 187.107 514.085 186.837C512.075 180.526 508.897 174.802 504.619 169.761C504.288 169.371 503.956 168.98 503.614 168.578C497.793 161.904 490.653 157.28 482.917 153.116C482.163 152.709 481.413 152.298 480.663 151.884C477.905 150.374 475.096 148.99 472.255 147.643C451.28 137.681 429.7 126.455 415.272 107.606C414.816 107.037 414.816 107.037 414.35 106.456C402.022 90.9713 393.12 70.9437 390.798 51.2787C390.748 50.864 390.697 50.4494 390.645 50.0222C390.416 47.7646 390.374 45.5096 390.361 43.2423C390.359 42.9745 390.357 42.7068 390.355 42.431C390.362 40.4393 390.546 38.4917 390.798 36.5169C419.087 35.9634 445.701 44.8106 468.88 60.9904C469.316 61.2946 469.316 61.2946 469.761 61.6049C474.019 64.5905 478.102 67.752 482.088 71.0905C482.318 71.2821 482.548 71.4737 482.785 71.6711C489.53 77.3011 495.722 83.5009 501.9 89.7369C498.167 80.5396 493.041 72.168 486.75 64.4866C486.579 64.2762 486.408 64.0658 486.232 63.849C483.465 60.4696 480.455 57.3361 477.378 54.2407C477.026 53.8852 476.674 53.5297 476.311 53.1634C473.953 50.8162 471.487 48.6824 468.88 46.6171C468.336 46.1751 467.791 45.733 467.247 45.2908C449.053 30.7547 426.935 20.9367 404.366 15.4814C404.022 15.397 403.678 15.3126 403.323 15.2256C403.022 15.1542 402.721 15.0829 402.411 15.0094C401.675 14.7627 401.675 14.7627 400.898 13.9858C405.632 8.60871 412.507 5.6166 419.545 4.66258C419.959 4.59874 419.959 4.59874 420.382 4.5336C447.888 1.00113 478.337 18.355 498.092 36.0738Z" fill="#22B24C"/>
<path d="M426.644 170.458C427.014 170.455 427.385 170.452 427.766 170.45C450.155 170.322 475.836 172.942 492.674 189.45C498.312 195.153 502.965 202.738 503.454 210.937C503.475 211.266 503.495 211.595 503.517 211.934C503.846 222.47 499.149 232.468 492.577 240.461C492.402 240.675 492.227 240.889 492.046 241.11C488.095 245.911 483.867 250.196 478.981 254.057C478.555 254.41 478.129 254.764 477.705 255.118C470.124 261.395 461.617 266.377 453.002 271.083C452.257 271.494 451.517 271.914 450.779 272.338C439.81 278.484 427.588 281.557 415.272 283.581C414.849 283.651 414.425 283.721 413.988 283.794C401.14 285.806 386.919 285.692 374.095 283.581C373.627 283.506 373.159 283.431 372.677 283.353C361.478 281.501 350.703 278.44 340.298 273.869C339.945 273.715 339.592 273.56 339.228 273.401C329.634 269.143 320.712 263.576 312.717 256.777C312.316 256.442 311.914 256.109 311.512 255.775C307.422 252.368 303.526 248.778 299.752 245.025C299.535 244.81 299.318 244.595 299.094 244.373C297.472 242.745 295.954 241.041 294.459 239.296C294.249 239.051 294.039 238.807 293.822 238.555C275.812 217.464 275.812 217.464 275.812 210.161C277.127 210.663 278.352 211.232 279.585 211.91C284.802 214.735 290.043 217.09 295.624 219.095C295.979 219.225 296.333 219.355 296.698 219.489C318.424 227.399 341.802 230.058 364.796 230.069C365.057 230.07 365.317 230.07 365.586 230.07C374.681 230.076 383.694 229.779 392.741 228.807C393.018 228.778 393.296 228.749 393.581 228.719C411.135 227.114 411.135 227.114 426.149 218.707C428.185 215.89 428.76 213.639 428.48 210.161C428.053 208.852 428.053 208.852 427.315 207.83C426.99 207.337 426.99 207.337 426.659 206.834C423.959 203.988 420.016 202.571 416.144 202.322C409.588 202.189 403.422 202.537 397.014 203.945C396.615 204.033 396.215 204.12 395.803 204.21C391.225 205.241 386.714 206.475 382.224 207.836C381.884 207.939 381.543 208.042 381.193 208.148C379.51 208.659 377.83 209.177 376.152 209.704C368.924 211.951 360.505 214.357 353.283 210.839C351.238 209.565 349.383 207.92 348.067 205.887C347.925 205.243 347.793 204.595 347.679 203.945C351.635 200.995 355.656 198.173 359.77 195.447C360.05 195.262 360.329 195.076 360.617 194.885C362.516 193.626 364.419 192.374 366.325 191.126C366.722 190.866 367.118 190.606 367.526 190.338C384.945 178.993 405.597 170.562 426.644 170.458Z" fill="#F38220"/>
</g>
<defs>
<clipPath id="clip0_1194_28072">
<rect width="834.428" height="512" fill="white"/>
</clipPath>
</defs>
</svg>
