<svg xmlns="http://www.w3.org/2000/svg" width="14" height="14" viewBox="0 0 14 14" fill="none">
<path fill-rule="evenodd" clip-rule="evenodd" d="M3.29412 9.47044C3.52153 9.47044 3.70588 9.28609 3.70588 9.05868V6.99986C3.70588 6.77245 3.52153 6.58809 3.29412 6.58809H1.23529C1.00789 6.58809 0.823529 6.77245 0.823529 6.99986V9.05868C0.823529 9.28609 1.00789 9.47044 1.23529 9.47044H3.29412ZM1.64706 8.64692V7.41162H2.88235V8.64692H1.64706ZM3.29412 13.5881C3.52153 13.5881 3.70588 13.4037 3.70588 13.1763V11.1175C3.70588 10.8901 3.52153 10.7057 3.29412 10.7057H1.23529C1.00789 10.7057 0.823529 10.8901 0.823529 11.1175V13.1763C0.823529 13.4037 1.00789 13.5881 1.23529 13.5881H3.29412ZM1.64706 12.7646V11.5293H2.88235V12.7646H1.64706ZM0 1.64675V4.11766C0 4.79961 0.553595 5.3528 1.236 5.3528H12.764C13.4461 5.3528 14 4.79975 14 4.11766V1.64675C14 0.964804 13.4464 0.411621 12.764 0.411621H1.236C0.553915 0.411621 0 0.964667 0 1.64675ZM9.88235 1.23515H12.764C12.9917 1.23515 13.1765 1.41976 13.1765 1.64675V4.11766C13.1765 4.34464 12.9915 4.52927 12.764 4.52927H9.88235V1.23515ZM0.823529 1.64675C0.823529 1.41978 1.00846 1.23515 1.236 1.23515H9.05882V4.52927H1.236C1.00827 4.52927 0.823529 4.34466 0.823529 4.11766V1.64675ZM11.8559 3.37926C12.0167 3.54005 12.2774 3.54005 12.4382 3.37926C12.599 3.21846 12.599 2.95775 12.4382 2.79693L11.8206 2.17928C11.6598 2.01849 11.399 2.01849 11.2382 2.17928L10.6206 2.79693C10.4598 2.95772 10.4598 3.21844 10.6206 3.37926C10.7814 3.54005 11.0421 3.54005 11.2029 3.37926L11.5294 3.05277L11.8559 3.37926ZM2.05882 3.29397H5.76937C5.99678 3.29397 6.18114 3.10962 6.18114 2.88221C6.18114 2.6548 5.99678 2.47044 5.76937 2.47044H2.05882C1.83142 2.47044 1.64706 2.6548 1.64706 2.88221C1.64706 3.10962 1.83142 3.29397 2.05882 3.29397ZM4.94118 8.44103H10.0882C10.3156 8.44103 10.5 8.25668 10.5 8.02927C10.5 7.80186 10.3156 7.6175 10.0882 7.6175H4.94118C4.71377 7.6175 4.52941 7.80186 4.52941 8.02927C4.52941 8.25668 4.71377 8.44103 4.94118 8.44103ZM4.94118 12.5587H8.02941C8.25682 12.5587 8.44118 12.3743 8.44118 12.1469C8.44118 11.9195 8.25682 11.7352 8.02941 11.7352H4.94118C4.71377 11.7352 4.52941 11.9195 4.52941 12.1469C4.52941 12.3743 4.71377 12.5587 4.94118 12.5587Z" fill="currentColor"/>
</svg>