<svg width="16" height="16" viewBox="0 0 16 16" fill="none" xmlns="http://www.w3.org/2000/svg">
<path fill-rule="evenodd" clip-rule="evenodd" d="M4.09991 0H9.44925L13.983 4.72566V13.9171C13.983 15.0685 13.0514 16 11.904 16H4.09991C2.9485 16 2.01697 15.0685 2.01697 13.9171V2.08295C2.01695 0.931531 2.94848 0 4.09991 0Z" fill="#E5252A"/>
<path fill-rule="evenodd" clip-rule="evenodd" d="M9.44531 0V4.68966H13.9831L9.44531 0Z" fill="#FFCBCB"/>
<path d="M4.33179 11.9379V9.01538H5.57516C5.88304 9.01538 6.12691 9.09932 6.31082 9.27126C6.49472 9.43916 6.58669 9.66704 6.58669 9.95091C6.58669 10.2348 6.49472 10.4627 6.31082 10.6306C6.12691 10.8025 5.88304 10.8864 5.57516 10.8864H5.07941V11.9379H4.33179ZM5.07941 10.2508H5.49122C5.60316 10.2508 5.6911 10.2268 5.7511 10.1708C5.81107 10.1188 5.84307 10.0469 5.84307 9.95091C5.84307 9.85497 5.81107 9.78301 5.7511 9.73104C5.69113 9.67507 5.60316 9.65107 5.49122 9.65107H5.07941V10.2508ZM6.89451 11.9379V9.01538H7.92997C8.13388 9.01538 8.32579 9.04335 8.50569 9.10332C8.6856 9.16329 8.84954 9.24726 8.99344 9.36319C9.13738 9.47513 9.25332 9.62707 9.33729 9.81897C9.41722 10.0109 9.46122 10.2308 9.46122 10.4786C9.46122 10.7225 9.41726 10.9424 9.33729 11.1343C9.25332 11.3262 9.13738 11.4781 8.99344 11.5901C8.84951 11.706 8.6856 11.79 8.50569 11.8499C8.32579 11.9099 8.13388 11.9379 7.92997 11.9379H6.89451ZM7.62613 11.3022H7.84204C7.95797 11.3022 8.06591 11.2903 8.16588 11.2623C8.26182 11.2343 8.35379 11.1903 8.44172 11.1303C8.52569 11.0703 8.59366 10.9864 8.64163 10.8744C8.6896 10.7625 8.7136 10.6306 8.7136 10.4786C8.7136 10.3227 8.6896 10.1908 8.64163 10.0788C8.59366 9.96691 8.52569 9.88294 8.44172 9.82297C8.35379 9.76301 8.26182 9.71904 8.16588 9.69104C8.06591 9.66307 7.95797 9.65107 7.84204 9.65107H7.62613V11.3022ZM9.83704 11.9379V9.01538H11.916V9.65107H10.5847V10.1188H11.6481V10.7505H10.5847V11.9379H9.83704Z" fill="white"/>
</svg>
