<svg width="10" height="10" viewBox="0 0 10 10" fill="none" xmlns="http://www.w3.org/2000/svg">
<g id="Frame" clip-path="url(#clip0_756_36623)">
<g id="Group">
<path id="Vector" d="M6.23359 1.74966L0.853748 7.12992C0.826657 7.15708 0.80735 7.19101 0.79784 7.22818L0.201516 9.62163C0.192746 9.65715 0.193283 9.69433 0.203076 9.72958C0.21287 9.76483 0.231588 9.79696 0.257424 9.82287C0.297107 9.86242 0.350836 9.88465 0.406862 9.88469C0.424146 9.88469 0.441363 9.88255 0.458124 9.87834L2.85158 9.28193C2.8888 9.27258 2.92277 9.25328 2.94986 9.22611L8.33019 3.84623L6.23359 1.74966ZM9.66301 1.01607L9.06414 0.417226C8.66389 0.0169763 7.96629 0.0173733 7.5665 0.417226L6.83293 1.15082L8.92943 3.2473L9.66301 2.51373C9.86293 2.31388 9.97306 2.04786 9.97306 1.76495C9.97306 1.48204 9.86293 1.21602 9.66301 1.01607Z" fill="white"/>
</g>
</g>
<defs>
<clipPath id="clip0_756_36623">
<rect width="9.77778" height="9.77778" fill="white" transform="translate(0.199219 0.109375)"/>
</clipPath>
</defs>
</svg>
