<svg xmlns="http://www.w3.org/2000/svg" width="14" height="14" viewBox="0 0 14 14" fill="none">
<path fill-rule="evenodd" clip-rule="evenodd" d="M14 1.08621C14 0.487115 13.5129 0 12.9138 0L1.08621 0C0.487116 0 0 0.487115 0 1.08621V5.59195C0 6.19105 0.487116 6.67816 1.08621 6.67816L12.9138 6.67816C13.5129 6.67816 14 6.19105 14 5.59195V1.08621ZM14 8.40805C14 7.80895 13.5129 7.32184 12.9138 7.32184H8.40805C7.80895 7.32184 7.32184 7.80895 7.32184 8.40805V12.9138C7.32184 13.5129 7.80895 14 8.40805 14H12.9138C13.5129 14 14 13.5129 14 12.9138V8.40805ZM12.9422 1.05776C12.9498 1.0653 12.954 1.07554 12.954 1.08621V5.59195C12.954 5.60262 12.9498 5.61286 12.9422 5.6204C12.9347 5.62794 12.9245 5.63218 12.9138 5.63218L1.08621 5.63218C1.07554 5.63218 1.0653 5.62794 1.05776 5.6204C1.05022 5.61286 1.04598 5.60262 1.04598 5.59195V1.08621C1.04598 1.07554 1.05022 1.0653 1.05776 1.05776C1.06531 1.05022 1.07554 1.04598 1.08621 1.04598L12.9138 1.04598C12.9245 1.04598 12.9347 1.05022 12.9422 1.05776ZM12.9422 8.3796C12.9498 8.38714 12.954 8.39738 12.954 8.40805V12.9138C12.954 12.9245 12.9498 12.9347 12.9422 12.9422C12.9347 12.9498 12.9245 12.954 12.9138 12.954H8.40805C8.39738 12.954 8.38714 12.9498 8.3796 12.9422C8.37206 12.9347 8.36782 12.9245 8.36782 12.9138V8.40805C8.36782 8.39738 8.37206 8.38714 8.3796 8.3796C8.38714 8.37206 8.39738 8.36782 8.40805 8.36782H12.9138C12.9245 8.36782 12.9347 8.37206 12.9422 8.3796ZM6.67816 8.40805C6.67816 7.80895 6.19105 7.32184 5.59195 7.32184H1.08621C0.487116 7.32184 0 7.80895 0 8.40805V12.9138C0 13.5129 0.487116 14 1.08621 14H5.59195C6.19105 14 6.67816 13.5129 6.67816 12.9138V8.40805ZM5.6204 8.3796C5.62794 8.38714 5.63218 8.39738 5.63218 8.40805V12.9138C5.63218 12.9245 5.62794 12.9347 5.6204 12.9422C5.61286 12.9498 5.60262 12.954 5.59195 12.954H1.08621C1.07554 12.954 1.0653 12.9498 1.05776 12.9422C1.05022 12.9347 1.04598 12.9245 1.04598 12.9138V8.40805C1.04598 8.39738 1.05022 8.38714 1.05776 8.3796C1.0653 8.37206 1.07554 8.36782 1.08621 8.36782H5.59195C5.60262 8.36782 5.61286 8.37206 5.6204 8.3796Z" fill="currentColor"/>
</svg>