<svg width="350" height="233" viewBox="0 0 350 233" fill="none" xmlns="http://www.w3.org/2000/svg">
<mask id="mask0_3654_50141" style="mask-type:luminance" maskUnits="userSpaceOnUse" x="0" y="0" width="350" height="233">
<path d="M0.5 0.00012207H349.5V232.667H0.5V0.00012207Z" fill="white"/>
</mask>
<g mask="url(#mask0_3654_50141)">
<mask id="mask1_3654_50141" style="mask-type:luminance" maskUnits="userSpaceOnUse" x="95" y="66" width="80" height="81">
<path d="M95.082 66.6607H174.484V146.062H95.082V66.6607Z" fill="white"/>
</mask>
<g mask="url(#mask1_3654_50141)">
<g opacity="0.100006">
<path d="M174.484 66.6609V146.062L95.082 66.6609H174.484Z" fill="#3E83FF"/>
</g>
</g>
<mask id="mask2_3654_50141" style="mask-type:luminance" maskUnits="userSpaceOnUse" x="82" y="102" width="75" height="75">
<path d="M82.0586 102.03H156.234V176.205H82.0586V102.03Z" fill="white"/>
</mask>
<g mask="url(#mask2_3654_50141)">
<g opacity="0.100006">
<path d="M82.0586 102.03L156.235 176.205H82.0586V102.03Z" fill="#3E83FF"/>
</g>
</g>
<mask id="mask3_3654_50141" style="mask-type:luminance" maskUnits="userSpaceOnUse" x="82" y="67" width="93" height="104">
<path d="M82.0586 67.8935H174.484V170.888H82.0586V67.8935Z" fill="white"/>
</mask>
<g mask="url(#mask3_3654_50141)">
<g opacity="0.100006">
<path d="M174.484 160.319V170.888L82.0586 78.4624V67.8938L174.484 160.319Z" fill="#3E83FF"/>
</g>
</g>
</g>
<path d="M174.485 176.203H82.0566V66.6603H174.485V176.203Z" stroke="#A7C8FF" stroke-width="2.32666" stroke-miterlimit="10"/>
<path d="M128.27 66.6603V176.203" stroke="#A7C8FF" stroke-width="2.32666" stroke-miterlimit="10"/>
<path d="M80.8613 180.808H175.559" stroke="#A7C8FF" stroke-width="2.32666" stroke-miterlimit="10"/>
<mask id="mask4_3654_50141" style="mask-type:luminance" maskUnits="userSpaceOnUse" x="0" y="0" width="350" height="233">
<path d="M0.5 0.00012207H349.5V232.667H0.5V0.00012207Z" fill="white"/>
</mask>
<g mask="url(#mask4_3654_50141)">
<path d="M69.6984 139.046H61.0669C59.8366 139.046 58.8398 138.049 58.8398 136.819V128.188C58.8398 126.958 59.8366 125.96 61.0669 125.96H69.6984C70.9283 125.96 71.9255 126.958 71.9255 128.188V136.819C71.9255 138.049 70.9283 139.046 69.6984 139.046Z" fill="white"/>
<path d="M69.6984 139.046H61.0669C59.8366 139.046 58.8398 138.049 58.8398 136.819V128.188C58.8398 126.958 59.8366 125.96 61.0669 125.96H69.6984C70.9283 125.96 71.9255 126.958 71.9255 128.188V136.819C71.9255 138.049 70.9283 139.046 69.6984 139.046Z" stroke="black" stroke-width="0.349" stroke-miterlimit="10" stroke-linecap="round" stroke-linejoin="round"/>
<path d="M69.6984 159.527H61.0669C59.8366 159.527 58.8398 158.529 58.8398 157.3V148.668C58.8398 147.438 59.8366 146.441 61.0669 146.441H69.6984C70.9283 146.441 71.9255 147.438 71.9255 148.668V157.3C71.9255 158.529 70.9283 159.527 69.6984 159.527Z" fill="white"/>
<path d="M69.6984 159.527H61.0669C59.8366 159.527 58.8398 158.529 58.8398 157.3V148.668C58.8398 147.438 59.8366 146.441 61.0669 146.441H69.6984C70.9283 146.441 71.9255 147.438 71.9255 148.668V157.3C71.9255 158.529 70.9283 159.527 69.6984 159.527Z" stroke="black" stroke-width="0.349" stroke-miterlimit="10" stroke-linecap="round" stroke-linejoin="round"/>
<path d="M59.5098 152.308C59.5098 152.308 63.003 154.011 65.5307 158.154C65.5307 158.154 67.9881 150.413 73.9388 145.515L70.4107 144.093C70.4107 144.093 66.2678 147.481 65.0039 154.643C65.0039 154.643 62.5814 152.185 59.5098 152.308Z" fill="#B6C22A"/>
<path d="M69.6984 179.927H61.0669C59.8366 179.927 58.8398 178.93 58.8398 177.7V169.068C58.8398 167.838 59.8366 166.841 61.0669 166.841H69.6984C70.9283 166.841 71.9255 167.838 71.9255 169.068V177.7C71.9255 178.93 70.9283 179.927 69.6984 179.927Z" fill="white"/>
<path d="M69.6984 179.927H61.0669C59.8366 179.927 58.8398 178.93 58.8398 177.7V169.068C58.8398 167.838 59.8366 166.841 61.0669 166.841H69.6984C70.9283 166.841 71.9255 167.838 71.9255 169.068V177.7C71.9255 178.93 70.9283 179.927 69.6984 179.927Z" stroke="black" stroke-width="0.349" stroke-miterlimit="10" stroke-linecap="round" stroke-linejoin="round"/>
<path d="M59.5098 172.709C59.5098 172.709 63.003 174.411 65.5307 178.554C65.5307 178.554 67.9881 170.813 73.9388 165.915L70.4107 164.494C70.4107 164.494 66.2678 167.881 65.0039 175.043C65.0039 175.043 62.5814 172.586 59.5098 172.709Z" fill="#B6C22A"/>
<path d="M216.274 91.2446C216.274 98.5857 210.323 104.537 202.982 104.537C195.641 104.537 189.689 98.5857 189.689 91.2446C189.689 83.9035 195.641 77.9524 202.982 77.9524C210.323 77.9524 216.274 83.9035 216.274 91.2446Z" fill="white"/>
<path d="M216.274 91.2446C216.274 98.5857 210.323 104.537 202.982 104.537C195.641 104.537 189.689 98.5857 189.689 91.2446C189.689 83.9035 195.641 77.9524 202.982 77.9524C210.323 77.9524 216.274 83.9035 216.274 91.2446Z" stroke="black" stroke-width="0.232666" stroke-miterlimit="10" stroke-linecap="round" stroke-linejoin="round"/>
<path d="M199.421 100.476C201.22 104.84 200.687 111.599 193.799 112.867C193.799 112.867 205.64 113.821 205.02 102.139" fill="white"/>
<path d="M199.421 100.476C201.22 104.84 200.687 111.599 193.799 112.867C193.799 112.867 205.64 113.821 205.02 102.139" stroke="black" stroke-width="0.232666" stroke-miterlimit="10" stroke-linecap="round" stroke-linejoin="round"/>
<path d="M192.57 88.6651C192.57 88.6651 198.609 91.6088 202.98 98.7708C202.98 98.7708 207.228 85.3878 217.516 76.9206L211.416 74.4622C211.416 74.4622 204.254 80.3194 202.069 92.7014C202.069 92.7014 197.881 88.4525 192.57 88.6651Z" fill="#B6C22A"/>
<path d="M197.733 59.9077H154.576C149.319 59.9077 145.057 55.6453 145.057 50.3879C145.057 45.1301 149.319 40.8677 154.576 40.8677H197.733C202.991 40.8677 207.253 45.1297 207.253 50.3875C207.253 55.6448 202.991 59.9077 197.733 59.9077Z" stroke="black" stroke-width="0.232666" stroke-miterlimit="10" stroke-linecap="round" stroke-linejoin="round"/>
<path d="M191.307 50.3877C191.307 47.4426 193.704 45.0461 196.649 45.0461C199.594 45.0461 201.99 47.4426 201.99 50.3877C201.99 53.3328 199.594 55.7292 196.649 55.7292C193.704 55.7292 191.307 53.3328 191.307 50.3877ZM206.426 58.5203L202.822 54.9163C203.757 53.6455 204.316 52.0824 204.316 50.3877C204.316 46.1597 200.877 42.7195 196.649 42.7195C192.421 42.7195 188.98 46.1597 188.98 50.3877C188.98 54.6157 192.421 58.0559 196.649 58.0559C198.343 58.0559 199.906 57.4961 201.177 56.5613L204.781 60.1653C205.008 60.3923 205.306 60.5063 205.604 60.5063C205.901 60.5063 206.199 60.3923 206.426 60.1653C206.881 59.7111 206.881 58.9745 206.426 58.5203Z" fill="black"/>
<path d="M160.924 52.2759C162.04 53.4947 163.156 54.3993 164.383 54.3174C167.78 54.0889 168.27 49.1587 170.75 49.0991C173.387 49.0358 173.245 53.8516 177.7 53.7324C182.156 53.6138 183.165 47.436 187.324 46.7143" stroke="black" stroke-width="0.930665" stroke-miterlimit="10" stroke-linecap="round" stroke-linejoin="round"/>
<path d="M144.076 53.5691C144.076 53.5691 148.532 47.3318 153.165 46.604C155.337 46.2629 157.064 47.7887 158.663 49.6263" stroke="black" stroke-width="0.930665" stroke-miterlimit="10" stroke-linecap="round" stroke-linejoin="round"/>
<path d="M218.152 142.565H201.4V125.813H218.152V142.565Z" stroke="black" stroke-width="0.232666" stroke-miterlimit="10" stroke-linecap="round" stroke-linejoin="round"/>
<path d="M218.153 142.565H214.797L218.153 139.208V142.565Z" fill="black"/>
<path d="M213.726 128.262H205.828H204.342V129.749V131.007H205.828V129.749H209.034V138.629H207.218V140.115H212.337V138.629H210.52V129.749H213.726V131.007H215.212V129.749V128.262H213.726Z" fill="black"/>
<path d="M91.8442 142.638C91.8442 142.638 89.1401 153.67 86.3709 152.764C83.2741 151.752 83.9135 145.302 83.9135 145.302C83.9135 145.302 80.424 145.463 80.6659 142.724C78.793 142.247 76.9866 142.073 76.0098 141.742C74.302 141.163 74.4012 139.242 74.994 139.1C75.4617 138.916 78.6618 138.806 81.2886 138.29L84.9456 134.849C85.4793 135.161 85.9228 135.438 86.1946 135.644C88.4956 138.107 91.8442 142.638 91.8442 142.638Z" fill="#F4B369"/>
<path d="M81.9049 139.788L80.0297 140.821C75.1344 138.144 75.3321 138.12 74.9175 137.713C73.8044 136.619 74.729 134.917 75.4433 135.098C76.1381 135.275 81.9366 137.921 81.9366 137.921L81.9049 139.788Z" fill="#F4B369"/>
<path d="M88.9879 138.051C88.9879 138.051 85.8487 132.393 84.5709 131.729C83.8515 131.355 79.2308 132.377 78.6928 132.484C77.8841 132.645 77.8064 134.103 79.9734 134.849C81.3271 135.315 82.3192 135.082 82.3192 135.082L84.0991 137.862L88.9879 138.051Z" fill="#F4B369"/>
<path d="M72.8438 134.04L102.397 147.108C102.559 147.18 102.919 146.724 103.2 146.09C103.48 145.455 103.576 144.883 103.413 144.811L73.8596 131.743L72.8438 134.04Z" fill="black"/>
<path d="M69.5062 131.192C69.3634 131.515 72.8427 134.04 72.8427 134.04C73.0055 134.112 73.3648 133.657 73.6454 133.022C73.926 132.388 74.0214 131.815 73.8585 131.743C73.8585 131.743 69.6491 130.869 69.5062 131.192Z" fill="#CC3733"/>
<path d="M100.451 156.45C100.451 156.45 95.9518 149.158 95.5577 148.271C95.506 147.44 95.2273 143.455 95.1259 142.09C93.9155 139.619 93.2343 138.347 92.3395 136.779C92.0612 136.291 88.0705 135.316 86.3297 134.545C84.7541 133.846 83.2101 135.104 84.3785 136.876C84.855 137.599 85.903 138.396 87.9718 139.258C88.4888 140.416 89.5316 142.321 89.5316 142.321C89.5316 142.321 85.2464 145.843 86.1985 152.377L91.5512 161.901L100.451 156.45Z" fill="#F4B369"/>
<path d="M88.0236 135.171C87.3777 134.957 86.7788 134.744 86.3297 134.545C84.7537 133.846 83.2102 135.104 84.3786 136.877C84.8551 137.599 85.903 138.396 87.9719 139.259C88.4889 140.416 89.5317 142.321 89.5317 142.321C89.5317 142.321 87.6336 143.881 86.6443 146.851" stroke="black" stroke-width="0.232666" stroke-miterlimit="10" stroke-linecap="round" stroke-linejoin="round"/>
<path d="M168.717 137.701C168.717 137.701 181.918 138.443 184.922 140.196C190.707 143.571 208.511 176.231 208.511 176.231L191.386 187.69L179.733 168.996" fill="#FFBF05"/>
<path d="M183.887 158.676C184.391 148.929 171.821 138.988 171.821 138.988L155.274 137.699C155.274 137.699 139.676 141.743 129.844 145.689C124.427 147.862 116.698 172.757 116.698 172.757C113.977 169.11 110.601 163.574 107.673 161.363C106.571 160.53 105.297 160.703 104.488 160.849L104.486 160.85L98.4328 152.85C94.7953 154.602 91.4379 156.644 88.5547 159.178L93.0591 168.876C91.4998 170.335 99.4774 190.077 105.322 198.918C107.689 202.499 110.04 204.131 111.657 204.553H125.2C126.899 203.835 127.973 201.166 129.721 198.372C132.579 193.805 133.905 190.865 135.396 187.083C136.183 193.548 136.691 199.537 138.219 204.563H185.297C185.297 204.563 182.505 185.444 183.887 158.676Z" fill="#FFBF05"/>
<path d="M168.021 151.576C168.021 151.576 169.666 158.617 169.66 167.054C169.656 172.881 168.571 185.869 168.571 185.869C168.571 185.869 169.308 195.823 169.666 203.713" stroke="black" stroke-width="0.232666" stroke-miterlimit="10" stroke-linecap="round" stroke-linejoin="round"/>
<path d="M158.371 119.529L151.369 139.286C151.369 139.286 160.85 140.954 168.019 150.605C170.119 146.622 171.45 142.445 171.23 137.876L171.812 124.628" fill="#F4B369"/>
<mask id="mask5_3654_50141" style="mask-type:luminance" maskUnits="userSpaceOnUse" x="157" y="123" width="15" height="20">
<path d="M157.898 123.023H171.812V142.743H157.898V123.023Z" fill="white"/>
</mask>
<g mask="url(#mask5_3654_50141)">
<path d="M171.23 137.876C171.309 139.5 171.188 141.073 170.909 142.608C161.821 144.153 158.708 131.994 158.043 128.751C157.945 128.253 157.898 127.964 157.898 127.964C157.898 127.964 164.399 125.638 167.587 123.023L171.812 124.628L171.23 137.876Z" fill="#F4B369"/>
</g>
<path d="M168.016 150.598L159.766 147.085L152.846 155.159C152.846 155.159 147.756 145.81 147.783 139.77C149.251 137.222 153.43 133.483 153.43 133.483L151.934 137.699C151.934 137.699 161.711 142.432 168.007 150.584C168.011 150.589 168.011 150.594 168.016 150.598Z" fill="#265787"/>
<path d="M171.337 135.47C171.337 135.47 174.244 136.869 175.396 138.259C176.548 139.649 180.887 147.934 180.887 147.934L173.179 145.467L168.02 150.605C168.02 150.605 170.994 144.429 171.337 135.47Z" fill="#265787"/>
<path d="M152.051 107.6C149.698 113.157 152.001 127.505 162.344 132.218C168.436 134.995 176.321 134.181 178.919 130.051C182.498 124.36 178.596 110.64 175.382 103.912C172.098 97.0379 156.336 97.4781 152.051 107.6Z" fill="#F4B369"/>
<path d="M150.888 120.707C150.888 120.707 145.312 112.747 144.283 109.144C143.254 105.541 151.047 102.625 151.047 102.625C151.047 102.625 150.714 100.081 153.59 96.9205C154.917 95.4622 161.61 91.6022 164.827 89.5864C166.399 88.6009 166.809 92.646 166.19 94.6474C166.19 94.6474 170.087 91.7516 171.861 90.5301C174.871 88.4561 177.403 96.062 175.61 100.8C175.61 100.8 176.621 101.35 177.393 102.365C178.48 103.793 177.432 108.974 177.432 108.974C177.432 108.974 176.574 106.119 174.631 103.752C174.227 103.259 173.004 110.344 159.109 108.343C157.479 109.887 159.709 113.719 159.709 113.719C159.709 113.719 160.932 115.606 158.022 117.093C159.137 119.466 160.42 122.096 160.42 122.096L150.888 120.707Z" fill="black"/>
<path d="M154.52 117.311C153.236 116.041 149.76 114.867 147.787 117.093C146.657 118.367 146.306 120.588 147.33 122.325C149.388 125.818 154.649 127.362 156.336 125.446C158.467 123.027 155.966 118.741 154.52 117.311Z" fill="#F4B369"/>
<path d="M131.359 146.781C134.971 146.083 140.271 147.865 141.86 155.825C144.041 166.75 137.297 181.802 137.297 181.802" stroke="black" stroke-width="0.232666" stroke-miterlimit="10" stroke-linecap="round" stroke-linejoin="round"/>
<path d="M183.504 173.973C183.504 173.973 187.248 156.128 181.549 149.634" stroke="black" stroke-width="0.232666" stroke-miterlimit="10" stroke-linecap="round" stroke-linejoin="round"/>
<path d="M117.006 173.426C117.006 173.426 120.314 177.371 123.531 185.869" stroke="black" stroke-width="0.232666" stroke-miterlimit="10" stroke-linecap="round" stroke-linejoin="round"/>
<path d="M93.6289 168.92C94.6303 170.104 105.988 164.732 104.592 161.226" stroke="black" stroke-width="0.232666" stroke-miterlimit="10" stroke-linecap="round" stroke-linejoin="round"/>
<path d="M80.9707 137.432C82.6827 138.554 84.1392 139.429 86.0568 140.523" stroke="black" stroke-width="0.232666" stroke-miterlimit="10" stroke-linecap="round" stroke-linejoin="round"/>
<path d="M80.8613 142.657L84.638 143.38C84.638 143.38 83.6775 144.257 83.8683 147.24" stroke="black" stroke-width="0.232666" stroke-miterlimit="10" stroke-linecap="round" stroke-linejoin="round"/>
<path d="M77.1113 139.199C77.1113 139.199 82.4292 141.106 85.2449 142.05" stroke="black" stroke-width="0.232666" stroke-miterlimit="10" stroke-linecap="round" stroke-linejoin="round"/>
<path d="M168.005 156.845C168.113 157.655 167.781 158.368 167.263 158.437C166.745 158.506 166.238 157.905 166.13 157.096C166.022 156.285 166.354 155.573 166.871 155.504C167.389 155.435 167.897 156.036 168.005 156.845Z" fill="black"/>
<path d="M168.706 170.308C168.706 171.125 168.283 171.788 167.76 171.788C167.238 171.788 166.814 171.125 166.814 170.308C166.814 169.491 167.238 168.829 167.76 168.829C168.283 168.829 168.706 169.491 168.706 170.308Z" fill="black"/>
<path d="M167.474 184.14C167.421 184.955 166.956 185.589 166.435 185.555C165.914 185.521 165.534 184.833 165.587 184.017C165.64 183.202 166.105 182.569 166.627 182.603C167.148 182.636 167.527 183.325 167.474 184.14Z" fill="black"/>
<path d="M168.44 198.872C168.498 199.686 168.123 200.377 167.602 200.415C167.081 200.452 166.611 199.821 166.553 199.007C166.495 198.192 166.87 197.501 167.391 197.464C167.912 197.426 168.382 198.056 168.44 198.872Z" fill="black"/>
<path d="M245.943 201.881H179.371L194.485 159.541C195.035 157.999 196.494 156.97 198.131 156.97H259.026C260.463 156.97 261.466 158.394 260.983 159.747L245.943 201.881Z" fill="black"/>
<path d="M247.227 201.881H182.043L196.841 160.424C197.38 158.914 198.809 157.907 200.412 157.907H260.036C261.443 157.907 262.425 159.301 261.953 160.626L247.227 201.881Z" fill="#5A7FAA"/>
<path d="M241.765 204.563H160.676C160.676 203.082 161.876 201.881 163.357 201.881H241.765V204.563Z" fill="#2E4B6C"/>
<path d="M180.888 204.563H160.676C160.676 203.082 161.876 201.881 163.357 201.881H180.888V204.563Z" fill="black"/>
<path d="M227.715 181.002C227.715 182.963 224.85 184.553 221.316 184.553C217.781 184.553 214.916 182.963 214.916 181.002C214.916 179.041 217.781 177.451 221.316 177.451C224.85 177.451 227.715 179.041 227.715 181.002Z" fill="white"/>
<path d="M81.2461 103.051C75.7161 103.051 71.2168 98.5515 71.2168 93.0215V57.141C71.2168 51.611 75.7161 47.1117 81.2461 47.1117H130.288C135.818 47.1117 140.317 51.611 140.317 57.141V93.0215C140.317 98.5515 135.818 103.051 130.288 103.051H81.2461Z" stroke="black" stroke-width="0.232666" stroke-miterlimit="10" stroke-linecap="round" stroke-linejoin="round"/>
<path d="M130.288 99.7935H81.2466C77.5063 99.7935 74.4746 96.7613 74.4746 93.0215V57.1411C74.4746 53.4012 77.5063 50.3691 81.2466 50.3691H130.288C134.029 50.3691 137.06 53.4012 137.06 57.1411V93.0215C137.06 96.7613 134.029 99.7935 130.288 99.7935Z" fill="#1755A6"/>
<path d="M102.451 78.1636L105.704 70.0603L108.955 78.1636H102.451ZM113.053 88.373H120.511L109.288 63.0301H102.228L91.041 88.373H98.3542L100.33 83.4494H111.077L113.053 88.373Z" fill="white"/>
<path d="M284.347 146.179H235.305C231.565 146.179 228.533 143.147 228.533 139.407V103.526C228.533 99.7864 231.565 96.7543 235.305 96.7543H284.347C288.087 96.7543 291.119 99.7864 291.119 103.526V139.407C291.119 143.147 288.087 146.179 284.347 146.179Z" fill="#FA8C16"/>
<path d="M266.152 136.851V124.806C266.028 124.837 265.904 124.868 265.77 124.899C265.461 124.971 265.141 125.023 264.8 125.064H264.79C264.831 125.384 264.852 125.714 264.852 126.045C264.872 127.232 264.614 128.408 264.119 129.492C263.644 130.493 262.963 131.381 262.106 132.083C261.229 132.795 260.228 133.342 259.154 133.683C258.009 134.054 256.801 134.24 255.593 134.23C254.375 134.24 253.168 134.054 252.012 133.672C250.959 133.311 249.978 132.805 249.081 132.155C248.203 131.515 247.408 130.762 246.717 129.915C246.025 129.069 245.406 128.161 244.859 127.211C244.312 126.251 243.817 125.25 243.393 124.228C242.97 123.217 242.588 122.195 242.258 121.194L242 120.461L247.832 118.107L248.1 118.964C248.327 119.676 248.575 120.409 248.864 121.163C249.142 121.895 249.452 122.618 249.803 123.32C250.144 123.991 250.526 124.631 250.949 125.24C251.331 125.797 251.785 126.313 252.28 126.767C252.724 127.17 253.23 127.51 253.787 127.758C254.313 127.985 254.891 128.109 255.469 128.099C256.357 128.099 256.997 127.872 257.441 127.386C257.895 126.891 258.112 126.21 258.112 125.322C258.122 124.837 258.04 124.362 257.854 123.918C257.699 123.567 257.472 123.258 257.183 123.01C256.873 122.752 256.512 122.577 256.13 122.473C255.645 122.339 255.15 122.277 254.654 122.288C254.541 122.288 254.396 122.288 254.221 122.298C254.045 122.308 253.87 122.308 253.694 122.329L253.116 122.37C252.93 122.381 252.776 122.391 252.641 122.411L251.743 122.494V116.363L252.662 116.466C252.745 116.477 252.838 116.477 252.92 116.477H253.271C253.849 116.477 254.417 116.435 254.984 116.332C255.418 116.26 255.831 116.115 256.202 115.909C256.491 115.744 256.739 115.496 256.904 115.197C257.069 114.908 257.162 114.516 257.162 114.041C257.162 113.009 256.77 112.709 256.636 112.606C256.223 112.286 255.624 112.131 254.861 112.131C254.221 112.131 253.591 112.224 252.982 112.4C252.332 112.585 251.692 112.813 251.073 113.081L250.206 113.452L248.626 107.703L249.246 107.404C250.206 106.94 251.207 106.578 252.249 106.341C253.219 106.114 254.21 106 255.201 106C256.378 105.99 257.554 106.176 258.669 106.568C259.67 106.919 260.61 107.445 261.415 108.137C262.178 108.798 262.798 109.613 263.231 110.521C264.201 112.616 264.088 115.052 262.922 117.034C262.447 117.829 261.827 118.531 261.115 119.119C261.291 119.243 261.456 119.367 261.621 119.491L262.013 119.532C262.178 119.552 262.364 119.552 262.581 119.552C263.334 119.552 264.078 119.46 264.81 119.284C265.275 119.181 265.729 119.036 266.183 118.861V106.64H277V112.596H272.809V136.841L266.152 136.851Z" fill="white"/>
<path d="M263.865 79.0134C263.865 57.5648 237.497 56.3271 234.453 56.2554V50.475L219.668 59.9711L234.453 69.4671V63.6896C260.696 63.8022 263.865 79.0134 263.865 79.0134Z" fill="black"/>
<path d="M86.8555 105.631C86.8555 127.08 113.224 128.318 116.268 128.389V134.17L131.052 124.674L116.268 115.178V120.955C90.0244 120.843 86.8555 105.631 86.8555 105.631Z" fill="black"/>
<path d="M292.852 158.269C292.852 158.269 291.555 161.35 291.191 166.47C291.191 166.47 299.961 154.928 310.119 158.492C311.099 157.765 297.199 147.319 292.852 158.269Z" fill="black"/>
<path d="M272.892 170.623C272.892 170.623 270.49 170.521 268.146 173.128C265.611 172.281 260.069 171.733 257.458 179.432C253.636 190.699 261.559 199.392 261.559 199.392C263.294 192.932 272.428 182.907 272.892 170.623Z" fill="#B6C22A"/>
<path d="M280.053 166.47C280.053 166.47 285.114 173.878 284.788 183.531" stroke="black" stroke-width="0.349" stroke-miterlimit="10" stroke-linecap="round" stroke-linejoin="round"/>
<path d="M287.013 185.253C287.013 185.253 285.587 161.313 306.379 152.046" stroke="black" stroke-width="0.349" stroke-miterlimit="10" stroke-linecap="round" stroke-linejoin="round"/>
<path d="M292.854 158.269C294.234 155.084 295.717 154.511 297.245 154.482C302.703 154.38 309.419 169.957 322.506 169.586C320.145 164.195 319.863 146.7 306.022 151.393C296.161 148.007 292.854 158.269 292.854 158.269Z" fill="#B6C22A"/>
<path d="M283.259 186.56C283.259 181.807 280.375 170.029 272.891 170.623C265.406 171.217 262.811 184.956 262.811 184.956" stroke="black" stroke-width="0.349" stroke-miterlimit="10" stroke-linecap="round" stroke-linejoin="round"/>
<path d="M292.394 204.564H276.533L273.949 181.802H294.978L292.394 204.564Z" fill="#1AA5FD"/>
<path d="M294.711 204.564H274.217V202.213H294.711V204.564Z" fill="black"/>
<path d="M284.787 181.802C284.787 181.802 286.753 175.371 290.417 175.897C296.001 176.699 295.168 194.09 295.168 194.09C292.912 191.312 288.665 185.877 287.803 181.802H284.787Z" fill="#B6C22A"/>
<path d="M306.02 151.393C306.02 151.393 309.234 151.675 312.229 156.379C314.672 160.215 316.05 162.992 317.431 164.507" stroke="black" stroke-width="0.349" stroke-miterlimit="10" stroke-linecap="round" stroke-linejoin="round"/>
<path d="M91.8442 202.068V184.021H76.1779V202.068C76.1779 202.068 76.1183 204.564 78.6134 204.564H89.4087C91.9038 204.564 91.8442 202.068 91.8442 202.068Z" fill="#5A7FAA"/>
<path d="M96.4263 187.941C94.948 186.645 91.8438 186.794 91.8438 186.794V189.857C91.8438 189.857 94.0429 188.654 95.632 189.783C97.0192 190.768 96.9238 194.292 96.9238 194.292C96.9238 194.292 97.0192 197.816 95.632 198.802C94.0429 199.931 91.8438 198.728 91.8438 198.728V201.791C91.8438 201.791 94.948 201.94 96.4263 200.644C98.8768 198.494 98.6911 194.292 98.6911 194.292C98.6911 194.292 98.8768 190.091 96.4263 187.941Z" fill="#2E4B6C"/>
<path d="M80.8613 184.021V193.273V184.021Z" fill="white"/>
<path d="M80.8613 184.021V193.273" stroke="black" stroke-width="0.232666" stroke-miterlimit="10" stroke-linecap="round" stroke-linejoin="round"/>
<path d="M83.7646 194.045L82.4574 192.738H80.8627H79.2676L77.9605 194.045C77.9428 195.99 77.7185 197.703 77.1289 199.006L77.7231 199.599H80.8627H84.0023L84.5961 199.006C84.0065 197.703 83.7822 195.99 83.7646 194.045Z" fill="black"/>
<path d="M37.5859 204.564H312.416H37.5859Z" fill="white"/>
<path d="M37.5859 204.564H312.416" stroke="black" stroke-width="0.465333" stroke-miterlimit="10" stroke-linecap="round" stroke-linejoin="round"/>
<path d="M105.701 208.897H228.533H105.701Z" fill="white"/>
<path d="M105.701 208.897H228.533" stroke="black" stroke-width="0.465333" stroke-miterlimit="10"/>
<path d="M299.581 105.632C299.581 106.19 299.129 106.642 298.571 106.642C298.013 106.642 297.561 106.19 297.561 105.632C297.561 105.074 298.013 104.621 298.571 104.621C299.129 104.621 299.581 105.074 299.581 105.632Z" fill="black"/>
<path d="M304.214 105.632C304.214 106.19 303.762 106.642 303.204 106.642C302.646 106.642 302.193 106.19 302.193 105.632C302.193 105.074 302.646 104.621 303.204 104.621C303.762 104.621 304.214 105.074 304.214 105.632Z" fill="black"/>
<path d="M308.847 105.632C308.847 106.19 308.395 106.642 307.837 106.642C307.279 106.642 306.826 106.19 306.826 105.632C306.826 105.074 307.279 104.621 307.837 104.621C308.395 104.621 308.847 105.074 308.847 105.632Z" fill="black"/>
<path d="M313.48 105.632C313.48 106.19 313.028 106.642 312.47 106.642C311.912 106.642 311.459 106.19 311.459 105.632C311.459 105.074 311.912 104.621 312.47 104.621C313.028 104.621 313.48 105.074 313.48 105.632Z" fill="black"/>
<path d="M252.64 35.0496C252.64 35.6075 252.187 36.0598 251.629 36.0598C251.071 36.0598 250.619 35.6075 250.619 35.0496C250.619 34.4916 251.071 34.0393 251.629 34.0393C252.187 34.0393 252.64 34.4916 252.64 35.0496Z" fill="black"/>
<path d="M257.271 35.0496C257.271 35.6075 256.819 36.0598 256.261 36.0598C255.703 36.0598 255.25 35.6075 255.25 35.0496C255.25 34.4916 255.703 34.0393 256.261 34.0393C256.819 34.0393 257.271 34.4916 257.271 35.0496Z" fill="black"/>
<path d="M261.904 35.0496C261.904 35.6075 261.451 36.0598 260.894 36.0598C260.336 36.0598 259.883 35.6075 259.883 35.0496C259.883 34.4916 260.336 34.0393 260.894 34.0393C261.451 34.0393 261.904 34.4916 261.904 35.0496Z" fill="black"/>
<path d="M266.538 35.0496C266.538 35.6075 266.086 36.0598 265.528 36.0598C264.97 36.0598 264.518 35.6075 264.518 35.0496C264.518 34.4916 264.97 34.0393 265.528 34.0393C266.086 34.0393 266.538 34.4916 266.538 35.0496Z" fill="black"/>
<path d="M166.301 31.0788C166.301 32.0951 165.477 32.9187 164.461 32.9187C163.445 32.9187 162.621 32.0951 162.621 31.0788C162.621 30.0625 163.445 29.2388 164.461 29.2388C165.477 29.2388 166.301 30.0625 166.301 31.0788Z" fill="black"/>
<path d="M174.736 31.0788C174.736 32.0951 173.913 32.9187 172.897 32.9187C171.881 32.9187 171.057 32.0951 171.057 31.0788C171.057 30.0625 171.881 29.2388 172.897 29.2388C173.913 29.2388 174.736 30.0625 174.736 31.0788Z" fill="black"/>
<path d="M183.174 31.0788C183.174 32.0951 182.35 32.9187 181.334 32.9187C180.318 32.9187 179.494 32.0951 179.494 31.0788C179.494 30.0625 180.318 29.2388 181.334 29.2388C182.35 29.2388 183.174 30.0625 183.174 31.0788Z" fill="black"/>
<path d="M50.3898 113.137C50.3898 113.931 49.7453 114.575 48.951 114.575C48.1562 114.575 47.5117 113.931 47.5117 113.137C47.5117 112.342 48.1562 111.698 48.951 111.698C49.7453 111.698 50.3898 112.342 50.3898 113.137Z" fill="black"/>
<path d="M56.9894 113.137C56.9894 113.931 56.3449 114.575 55.5501 114.575C54.7553 114.575 54.1113 113.931 54.1113 113.137C54.1113 112.342 54.7553 111.698 55.5501 111.698C56.3449 111.698 56.9894 112.342 56.9894 113.137Z" fill="black"/>
<path d="M63.589 113.137C63.589 113.931 62.9445 114.575 62.1502 114.575C61.3554 114.575 60.7109 113.931 60.7109 113.137C60.7109 112.342 61.3554 111.698 62.1502 111.698C62.9445 111.698 63.589 112.342 63.589 113.137Z" fill="black"/>
<path d="M238.82 208.897C238.82 209.478 238.349 209.948 237.769 209.948C237.189 209.948 236.719 209.478 236.719 208.897C236.719 208.317 237.189 207.847 237.769 207.847C238.349 207.847 238.82 208.317 238.82 208.897Z" fill="black"/>
<path d="M243.636 208.897C243.636 209.478 243.166 209.948 242.585 209.948C242.005 209.948 241.535 209.478 241.535 208.897C241.535 208.317 242.005 207.847 242.585 207.847C243.166 207.847 243.636 208.317 243.636 208.897Z" fill="black"/>
<path d="M248.454 208.897C248.454 209.478 247.984 209.948 247.404 209.948C246.824 209.948 246.354 209.478 246.354 208.897C246.354 208.317 246.824 207.847 247.404 207.847C247.984 207.847 248.454 208.317 248.454 208.897Z" fill="black"/>
<path d="M33.7793 164.386C33.7793 162.997 34.9049 161.872 36.2935 161.872C37.682 161.872 38.8077 162.997 38.8077 164.386C38.8077 165.775 37.682 166.9 36.2935 166.9C34.9049 166.9 33.7793 165.775 33.7793 164.386Z" stroke="#1AA5FD" stroke-width="0.232666" stroke-miterlimit="10"/>
<path d="M239.023 82.5122C239.023 81.1236 240.149 79.998 241.538 79.998C242.926 79.998 244.052 81.1236 244.052 82.5122C244.052 83.9007 242.926 85.0264 241.538 85.0264C240.149 85.0264 239.023 83.9007 239.023 82.5122Z" stroke="#1AA5FD" stroke-width="0.232666" stroke-miterlimit="10"/>
<path d="M287.893 60.8313C287.893 59.2566 289.169 57.9797 290.744 57.9797C292.319 57.9797 293.595 59.2566 293.595 60.8313C293.595 62.406 292.319 63.6829 290.744 63.6829C289.169 63.6829 287.893 62.406 287.893 60.8313Z" stroke="#1AA5FD" stroke-width="0.232666" stroke-miterlimit="10"/>
<path d="M106.824 35.0494C106.824 33.8726 107.778 32.9187 108.955 32.9187C110.132 32.9187 111.086 33.8726 111.086 35.0494C111.086 36.2262 110.132 37.1802 108.955 37.1802C107.778 37.1802 106.824 36.2262 106.824 35.0494Z" fill="#1AA5FD"/>
<path d="M304.664 124.591C304.664 124.117 305.047 123.734 305.521 123.734C305.994 123.734 306.377 124.117 306.377 124.591C306.377 125.064 305.994 125.447 305.521 125.447C305.047 125.447 304.664 125.064 304.664 124.591Z" stroke="#1AA5FD" stroke-width="0.232666" stroke-miterlimit="10"/>
<path d="M270.57 155.158C270.57 154.35 271.226 153.694 272.034 153.694C272.843 153.694 273.499 154.35 273.499 155.158C273.499 155.967 272.843 156.622 272.034 156.622C271.226 156.622 270.57 155.967 270.57 155.158Z" fill="#1AA5FD"/>
<path d="M47.5117 170.306C47.5117 169.633 48.0576 169.087 48.7314 169.087C49.4047 169.087 49.9505 169.633 49.9505 170.306C49.9505 170.98 49.4047 171.526 48.7314 171.526C48.0576 171.526 47.5117 170.98 47.5117 170.306Z" stroke="#1AA5FD" stroke-width="0.232666" stroke-miterlimit="10"/>
<path d="M310.607 132.967C310.607 131.417 311.864 130.16 313.415 130.16C314.965 130.16 316.222 131.417 316.222 132.967C316.222 134.518 314.965 135.774 313.415 135.774C311.864 135.774 310.607 134.518 310.607 132.967Z" stroke="#1AA5FD" stroke-width="0.232666" stroke-miterlimit="10"/>
<path d="M111.457 39.9297C111.457 38.3792 112.714 37.1228 114.264 37.1228C115.814 37.1228 117.071 38.3792 117.071 39.9297C117.071 41.4802 115.814 42.7371 114.264 42.7371C112.714 42.7371 111.457 41.4802 111.457 39.9297Z" stroke="#1AA5FD" stroke-width="0.232666" stroke-miterlimit="10"/>
</g>
</svg>
