<svg width="80" height="80" viewBox="0 0 80 80" fill="none" xmlns="http://www.w3.org/2000/svg">
<path d="M51.3889 0C35.571 0 22.771 12.7996 22.771 28.6198C22.771 34.5246 24.5641 40.146 27.863 44.8945L2.99508 65.4032C-0.752847 68.4939 -1.02377 74.1531 2.41105 77.5869C5.85633 81.0338 11.5101 80.743 14.5938 77.0028L35.0999 52.1354C39.8464 55.4376 45.4651 57.2328 51.3681 57.2328C51.3723 57.2328 51.3778 57.2328 51.3828 57.2328C67.1868 57.2253 79.9923 44.4224 80 28.6136C80.0075 12.8016 67.208 0 51.3889 0ZM12.6655 75.4125C10.5189 78.0155 6.59035 78.2305 4.17829 75.8195C1.76139 73.4024 1.99076 69.4717 4.5853 67.3317L29.3699 46.8918C30.6075 48.3783 31.6877 49.4466 33.1038 50.6274L12.6655 75.4125ZM51.3815 54.7331C51.3767 54.7331 51.3729 54.7331 51.3681 54.7331C36.9503 54.7331 25.2706 43.0583 25.2706 28.6197C25.2706 14.1815 36.9512 2.49957 51.3889 2.49957C65.8162 2.49957 77.5079 14.173 77.5004 28.6117C77.4928 43.0385 65.8087 54.7256 51.3815 54.7331Z" fill="black" fill-opacity="0.25"/>
<g clip-path="url(#clip0_908_23523)">
<mask id="mask0_908_23523" style="mask-type:luminance" maskUnits="userSpaceOnUse" x="35" y="11" width="34" height="34">
<path d="M35 11H69V45H35V11Z" fill="white"/>
</mask>
<g mask="url(#mask0_908_23523)">
<path d="M44.2084 25.1667H41.3751V35.0834H44.2084V25.1667ZM52.7084 25.1667H49.8751V35.0834H52.7084V25.1667ZM64.7501 37.9167H37.8334V40.7501H64.7501V37.9167ZM61.2084 25.1667H58.3751V35.0834H61.2084V25.1667ZM51.2918 15.6184L58.6726 19.5001H43.9109L51.2918 15.6184ZM51.2918 12.4167L37.8334 19.5001V22.3334H64.7501V19.5001L51.2918 12.4167Z" fill="black" fill-opacity="0.25"/>
</g>
</g>
<defs>
<clipPath id="clip0_908_23523">
<rect width="34" height="34" fill="white" transform="translate(35 11)"/>
</clipPath>
</defs>
</svg>
