<svg width="14" height="14" viewBox="0 0 14 14" fill="none" xmlns="http://www.w3.org/2000/svg">
<path d="M9.40625 4.26562V3.60938C9.40625 3.54922 9.35703 3.5 9.29688 3.5H4.04688C3.98672 3.5 3.9375 3.54922 3.9375 3.60938V4.26562C3.9375 4.32578 3.98672 4.375 4.04688 4.375H9.29688C9.35703 4.375 9.40625 4.32578 9.40625 4.26562ZM4.04688 5.46875C3.98672 5.46875 3.9375 5.51797 3.9375 5.57812V6.23438C3.9375 6.29453 3.98672 6.34375 4.04688 6.34375H6.5625C6.62266 6.34375 6.67188 6.29453 6.67188 6.23438V5.57812C6.67188 5.51797 6.62266 5.46875 6.5625 5.46875H4.04688ZM6.01562 11.6484H2.84375V2.02344H10.5V6.72656C10.5 6.78672 10.5492 6.83594 10.6094 6.83594H11.375C11.4352 6.83594 11.4844 6.78672 11.4844 6.72656V1.47656C11.4844 1.23457 11.2889 1.03906 11.0469 1.03906H2.29688C2.05488 1.03906 1.85938 1.23457 1.85938 1.47656V12.1953C1.85938 12.4373 2.05488 12.6328 2.29688 12.6328H6.01562C6.07578 12.6328 6.125 12.5836 6.125 12.5234V11.7578C6.125 11.6977 6.07578 11.6484 6.01562 11.6484ZM12.1092 12.3525L10.8336 11.077C11.1385 10.6736 11.3203 10.1705 11.3203 9.625C11.3203 8.29609 10.243 7.21875 8.91406 7.21875C7.58516 7.21875 6.50781 8.29609 6.50781 9.625C6.50781 10.9539 7.58516 12.0312 8.91406 12.0312C9.40352 12.0312 9.85742 11.885 10.2375 11.6348L11.5322 12.9295C11.5541 12.9514 11.5814 12.9609 11.6088 12.9609C11.6361 12.9609 11.6648 12.95 11.6854 12.9295L12.1092 12.5057C12.1193 12.4956 12.1273 12.4837 12.1327 12.4706C12.1382 12.4574 12.141 12.4433 12.141 12.4291C12.141 12.4149 12.1382 12.4008 12.1327 12.3876C12.1273 12.3745 12.1193 12.3626 12.1092 12.3525ZM8.91406 11.1562C8.06777 11.1562 7.38281 10.4713 7.38281 9.625C7.38281 8.77871 8.06777 8.09375 8.91406 8.09375C9.76035 8.09375 10.4453 8.77871 10.4453 9.625C10.4453 10.4713 9.76035 11.1562 8.91406 11.1562Z" fill="black" fill-opacity="0.88"/>
</svg>
