<svg width="14" height="14" viewBox="0 0 14 14" fill="none" xmlns="http://www.w3.org/2000/svg">
<g clip-path="url(#clip0_1394_23457)">
<path d="M11.869 8.62236L10.6635 9.91648C10.5077 9.41555 10.0398 9.05078 9.48828 9.05078H7.56615C7.30101 9.05082 7.04494 8.9542 6.84592 8.77901C5.77481 7.83642 4.16478 7.82813 3.08355 8.75293C2.86059 8.43724 2.49318 8.23047 2.07812 8.23047H0.410156C0.183641 8.23047 0 8.41411 0 8.64062V13.5898C0 13.8164 0.183641 14 0.410156 14H2.07812C2.44647 14 2.7773 13.8371 3.003 13.5798C3.86999 13.8235 4.68103 14 5.7986 14H9.48828C10.3872 14 11.2458 13.5707 11.7864 12.8499L13.7542 10.1989L13.7549 10.198L13.7555 10.1971C13.9153 9.98323 14 9.7285 14 9.46094C14 8.34375 12.6256 7.81017 11.869 8.62236ZM2.48828 12.7695C2.48828 12.9957 2.30429 13.1797 2.07812 13.1797H0.820312V9.05078H2.07812C2.30429 9.05078 2.48828 9.23478 2.48828 9.46094V12.7695ZM13.0981 9.70654L13.0975 9.70736L13.0968 9.70818L11.1289 12.3594C10.7437 12.873 10.1303 13.1797 9.48828 13.1797H5.7986C4.83681 13.1797 4.08103 13.0322 3.302 12.8133C3.30364 12.7662 3.30313 13.0187 3.30313 9.64636L3.59442 9.39485C4.36677 8.71516 5.53164 8.71516 6.30405 9.39485C6.6528 9.70186 7.10152 9.87118 7.56615 9.87109H9.48828C9.71444 9.87109 9.89844 10.0551 9.89844 10.2812C9.89844 10.5074 9.71444 10.6914 9.48828 10.6914H6.54593C6.31941 10.6914 6.13577 10.875 6.13577 11.1016C6.13577 11.3281 6.31941 11.5117 6.54593 11.5117H9.7632C10.1035 11.5117 10.4316 11.3689 10.6636 11.1199L12.4693 9.18148C12.5478 9.09718 12.6544 9.05078 12.7695 9.05078C13.1074 9.05078 13.2993 9.43827 13.0981 9.70654Z" fill="currentColor"/>
<path d="M9.48828 0C7.00052 0 4.97656 2.02396 4.97656 4.51172C4.97656 6.99948 7.00052 9.02344 9.48828 9.02344C11.976 9.02344 14 6.99948 14 4.51172C14 2.02396 11.976 0 9.48828 0ZM9.48828 8.20312C7.45284 8.20312 5.79688 6.54716 5.79688 4.51172C5.79688 2.47628 7.45284 0.820312 9.48828 0.820312C11.5237 0.820312 13.1797 2.47628 13.1797 4.51172C13.1797 6.54716 11.5237 8.20312 9.48828 8.20312Z" fill="currentColor"/>
<path d="M10.9192 3.03348C11.0918 3.03348 11.2317 2.89357 11.2317 2.72098C11.2317 2.5484 11.0918 2.40848 10.9192 2.40848H8.10667C7.93408 2.40848 7.79417 2.5484 7.79417 2.72098C7.79417 2.89357 7.93408 3.03348 8.10667 3.03348H8.88792C9.29479 3.03348 9.63823 3.29536 9.76761 3.65848H8.10667C7.93408 3.65848 7.79417 3.7984 7.79417 3.97098C7.79417 4.14357 7.93408 4.28348 8.10667 4.28348H9.76761C9.70346 4.46574 9.58446 4.62367 9.42695 4.73558C9.26943 4.84749 9.08114 4.90789 8.88792 4.90848H8.32759C8.03299 4.90848 7.79417 5.14731 7.79417 5.44191C7.79417 5.58338 7.85037 5.71906 7.95041 5.8191L9.44828 7.31697C9.50688 7.37557 9.58635 7.40848 9.66922 7.40848C9.94758 7.40848 10.087 7.07193 9.89015 6.87509L8.54854 5.53348H8.88792C9.24792 5.53306 9.59676 5.40849 9.8756 5.18077C10.1544 4.95306 10.3462 4.63614 10.4185 4.28348H10.9192C11.0918 4.28348 11.2317 4.14357 11.2317 3.97098C11.2317 3.7984 11.0918 3.65848 10.9192 3.65848H10.4185C10.3706 3.43105 10.2719 3.21739 10.1298 3.03348H10.9192Z" fill="currentColor"/>
</g>
<defs>
<clipPath id="clip0_1394_23457">
<rect width="14" height="14" fill="currentColor"/>
</clipPath>
</defs>
</svg>
