<svg width="80" height="81" viewBox="0 0 80 81" fill="none" xmlns="http://www.w3.org/2000/svg">
<g id="check-circle">
<path id="Vector" d="M40 5.6001C20.6719 5.6001 5 21.272 5 40.6001C5 59.9282 20.6719 75.6001 40 75.6001C59.3281 75.6001 75 59.9282 75 40.6001C75 21.272 59.3281 5.6001 40 5.6001ZM55.1172 29.1704L38.6641 51.9829C38.4341 52.3039 38.131 52.5654 37.7797 52.7458C37.4285 52.9262 37.0394 53.0204 36.6445 53.0204C36.2497 53.0204 35.8605 52.9262 35.5093 52.7458C35.1581 52.5654 34.855 52.3039 34.625 51.9829L24.8828 38.4829C24.5859 38.0688 24.8828 37.4907 25.3906 37.4907H29.0547C29.8516 37.4907 30.6094 37.8735 31.0781 38.5298L36.6406 46.2485L48.9219 29.2173C49.3906 28.5688 50.1406 28.1782 50.9453 28.1782H54.6094C55.1172 28.1782 55.4141 28.7563 55.1172 29.1704Z" fill="#00BF60"/>
</g>
</svg>
