<svg xmlns="http://www.w3.org/2000/svg" width="77" height="77" viewBox="0 0 77 77" fill="none">
  <path d="M39 74C58.8823 74 75 57.8823 75 38C75 18.1177 58.8823 2 39 2C19.1177 2 3 18.1177 3 38C3 57.8823 19.1177 74 39 74Z" fill="#FFF1F0"/>
  <path d="M39 64C53.3594 64 65 52.3594 65 38C65 23.6406 53.3594 12 39 12C24.6406 12 13 23.6406 13 38C13 52.3594 24.6406 64 39 64Z" fill="#F44336"/>
  <path d="M49.0379 51.9049L49.0348 51.9049C48.5929 51.9063 48.1552 51.8199 47.7469 51.6509C47.3386 51.4819 46.9679 51.2335 46.6563 50.9202L46.6543 50.9182L40.2053 44.4712L39.4981 43.7643L38.7911 44.4714L32.3422 50.9214C32.3421 50.9214 32.3421 50.9214 32.3421 50.9214C31.71 51.5536 30.8526 51.9087 29.9587 51.9087C29.0647 51.9087 28.2073 51.5535 27.5752 50.9214C26.9431 50.2893 26.5879 49.4319 26.5879 48.5379C26.5879 47.6439 26.9431 46.7866 27.5752 46.1544L27.5753 46.1544L34.0243 39.7043L34.7313 38.9972L34.0242 38.2901L27.5742 31.8412C27.5742 31.8412 27.5741 31.8411 27.5741 31.8411C26.942 31.209 26.5869 30.3517 26.5869 29.4577C26.5869 28.5637 26.942 27.7064 27.5742 27.0742C28.2063 26.4421 29.0637 26.087 29.9577 26.087C30.8516 26.087 31.709 26.4421 32.3411 27.0742L32.3412 27.0743L38.7912 33.5233L39.4984 34.2304L40.2054 33.5232L46.6544 27.0732C46.9674 26.7602 47.339 26.5119 47.7479 26.3425C48.1569 26.1731 48.5952 26.0859 49.0379 26.0859C49.4805 26.0859 49.9188 26.1731 50.3278 26.3425C50.7368 26.5119 51.1083 26.7602 51.4213 27.0732C51.7343 27.3862 51.9826 27.7578 52.152 28.1668C52.3214 28.5757 52.4086 29.014 52.4086 29.4567C52.4086 29.8993 52.3214 30.3376 52.152 30.7466C51.9826 31.1556 51.7343 31.5272 51.4213 31.8402L51.4213 31.8402L44.9723 38.2902L44.2652 38.9974L44.9724 39.7045L51.4224 46.1535C51.4224 46.1535 51.4224 46.1535 51.4224 46.1535C51.8937 46.6247 52.2146 47.2251 52.3446 47.8787C52.4746 48.5324 52.4078 49.2099 52.1527 49.8255C51.8976 50.4412 51.4656 50.9674 50.9114 51.3375C50.3572 51.7077 49.7056 51.9051 49.0392 51.9049H49.0389L49.0379 51.9049Z" fill="white" stroke="#F44336" stroke-width="2"/>
</svg>