<svg width="37" height="24" viewBox="0 0 37 24" fill="none" xmlns="http://www.w3.org/2000/svg">
<path d="M24.7023 0.226685C19.46 0.226685 15.0332 3.71337 13.6013 8.49753H8.21015C8.12102 8.49753 8.0486 8.56974 8.0486 8.65963V8.89799C8.0486 8.98756 8.12102 9.05978 8.21015 9.05978H13.4487C13.3744 9.36416 13.3104 9.67225 13.2602 9.98531H2.68906C2.50337 9.98531 2.35327 10.1353 2.35327 10.3207V10.816C2.35327 11.002 2.50337 11.1572 2.68906 11.1572H14.0642C14.0652 11.1383 14.0661 11.1166 14.067 11.1039C14.4325 5.73025 18.7829 1.4352 24.1749 1.17081C24.2727 0.980185 24.468 0.848454 24.697 0.848454C25.0216 0.848454 25.285 1.11285 25.285 1.4383C25.285 1.76375 25.0213 2.02721 24.697 2.02721C24.4661 2.02721 24.269 1.89362 24.1724 1.70052C19.0595 1.96646 14.9398 6.05074 14.6009 11.1557H16.4246C16.4061 11.3804 16.3943 11.607 16.3943 11.8364C16.3943 12.0642 16.4051 12.2895 16.4234 12.5133H5.64148C5.42547 12.5133 5.2503 12.6887 5.2503 12.9045V13.4813C5.2503 13.698 5.42547 13.8737 5.64148 13.8737H13.2952C13.3506 14.1855 13.4156 14.4948 13.4951 14.798H0.406964C0.182283 14.798 0 14.9737 0 15.1898V15.7666C0 15.9833 0.182283 16.159 0.406964 16.159H13.946C14.0723 16.4739 14.2125 16.782 14.3654 17.0833H10.4718C10.3991 17.0833 10.3403 17.1558 10.3403 17.2448V17.4837C10.3403 17.5733 10.3991 17.6458 10.4718 17.6458H14.6693C16.6744 21.1118 20.4151 23.4448 24.7023 23.4448C31.1044 23.4448 36.2941 18.2469 36.2941 11.8354C36.2941 5.42463 31.1044 0.226685 24.7023 0.226685ZM16.8087 14.5959C16.8229 14.5959 16.8455 14.5965 16.8663 14.5996C16.8663 14.5999 16.8663 14.5999 16.8663 14.6002C17.1643 14.6287 17.3986 14.878 17.3986 15.1839C17.3986 15.3212 17.3497 15.4455 17.272 15.5453C17.4026 15.8075 17.5505 16.0586 17.7068 16.3044L17.7093 16.3056C19.1858 18.6238 21.7604 20.1636 24.7023 20.1636C29.2841 20.1636 33.0108 16.4277 33.0108 11.8367C33.0108 7.24469 29.2841 3.50911 24.7023 3.50911C21.3039 3.50911 18.3778 5.56597 17.0925 8.50186H16.5039C17.8219 5.25849 20.9987 2.96607 24.7023 2.96607C29.5827 2.96607 33.5527 6.94527 33.5527 11.8367C33.5527 16.7275 29.5827 20.706 24.7023 20.706C21.2311 20.706 18.2221 18.6919 16.7731 15.7697C16.4652 15.7502 16.2213 15.4966 16.2213 15.1836C16.2216 14.8581 16.4834 14.5959 16.8087 14.5959ZM20.1251 11.8367C20.1251 9.30217 22.1744 7.2481 24.7023 7.2481C27.2307 7.2481 29.2797 9.30217 29.2797 11.8367C29.2797 14.3709 27.2307 16.4243 24.7023 16.4243C22.1744 16.424 20.1251 14.3706 20.1251 11.8367ZM24.7023 22.5149C19.5191 22.5149 15.1892 18.7905 14.2369 13.8737H14.7804C15.7243 18.4976 19.8147 21.9858 24.7026 21.9858C30.2868 21.9858 34.8302 17.4329 34.8302 11.8367C34.8302 10.1068 34.3951 8.47707 33.6307 7.05034L34.0909 6.77851C34.9036 8.2849 35.3653 10.0076 35.3653 11.8361C35.365 17.7246 30.5817 22.5149 24.7023 22.5149Z" fill="white"/>
</svg>
