<?xml version="1.0" encoding="UTF-8"?>
<svg id="Layer_1" data-name="Layer 1" xmlns="http://www.w3.org/2000/svg" viewBox="0 0 588.16 113.23">
  <defs>
    <style>
      .cls-1 {
        fill: #fff;
      }
    </style>
  </defs>
  <path class="cls-1" d="m525.24,51.5c-10.63,0-19.29-9.88-19.29-22.02s8.65-22.01,19.29-22.01,19.28,9.88,19.28,22.01-8.65,22.02-19.28,22.02m0-51.5c-14.75,0-26.76,13.23-26.76,29.49s12,29.49,26.76,29.49,26.76-13.23,26.76-29.49-12-29.49-26.76-29.49m-90.19,9.15h24.67c4.73,0,8.57,3.85,8.57,8.57s-3.85,8.57-8.57,8.57h-24.67V9.15Zm40.71,8.57c0-8.85-7.2-16.04-16.04-16.04h-32.14v55.29h7.47v-23.2h15.74l15.58,23.07h8.71l-15.58-23.07h.22c8.85,0,16.04-7.2,16.04-16.04m-88.06,8.25h-24.92V9.33h24.92c4.59,0,8.32,3.73,8.32,8.32s-3.73,8.31-8.32,8.31m0-24.1h-32.39v55.1h7.47v-23.53h24.92c8.7,0,15.79-7.08,15.79-15.79s-7.08-15.79-15.79-15.79m-112.09,5.61c7.64,0,16.16,3.75,16.16,9.14h7.47C299.24,7.3,288.86,0,275.61,0s-23.63,7.3-23.63,16.61c0,4.52,2.43,8.7,6.84,11.78,3.95,2.76,9.61,3.39,15.61,4.05,11.79,1.31,17.34,2.72,17.34,9.91,0,5.39-8.51,9.14-16.16,9.14s-16.16-3.75-16.16-9.14h-7.47c0,9.31,10.38,16.61,23.63,16.61s23.63-7.3,23.63-16.61c0-14.67-13.86-16.21-23.98-17.34-4.8-.53-9.77-1.09-12.15-2.75-1.66-1.16-3.64-3.08-3.64-5.66,0-5.38,8.52-9.14,16.16-9.14m-49.66-5.58h-7.47v55.06h7.47V1.9Zm-57.06,5.58c7.64,0,16.16,3.75,16.16,9.14h7.47C192.52,7.3,182.14,0,168.89,0s-23.63,7.3-23.63,16.61c0,4.52,2.43,8.7,6.84,11.78,3.95,2.76,9.61,3.39,15.61,4.05,11.78,1.31,17.34,2.72,17.34,9.91,0,5.39-8.51,9.14-16.16,9.14s-16.16-3.75-16.16-9.14h-7.47c0,9.31,10.38,16.61,23.63,16.61s23.63-7.3,23.63-16.61c0-14.67-13.86-16.21-23.98-17.34-4.8-.53-9.77-1.09-12.15-2.75-1.66-1.16-3.65-3.08-3.65-5.66,0-5.38,8.51-9.14,16.16-9.14m-80.08,24.98l9.96-30.37,9.96,30.37h-19.92ZM106.56,1.86h-15.57l-18.07,55.09h7.86l5.58-17.03h24.82l5.58,17.03h7.86L106.56,1.86ZM26.76,51.5c-10.63,0-19.29-9.88-19.29-22.02S16.12,7.47,26.76,7.47s19.28,9.88,19.28,22.01-8.65,22.02-19.28,22.02M26.76,0C12,0,0,13.23,0,29.49s12,29.49,26.76,29.49,26.76-13.23,26.76-29.49S41.51,0,26.76,0"/>
  <g>
    <path class="cls-1" d="m388.27,84.64v27.59h-3.73v-27.21l-8.7,27.21h-7.82l-8.79-27.5v27.5h-3.73v-27.59h7.62l8.81,27.55,8.81-27.55h7.53Z"/>
    <path class="cls-1" d="m423.77,112.23h-3.93l-2.79-8.51h-12.4l-2.79,8.51h-3.93l9.03-27.52h7.78l9.03,27.52Zm-7.94-12.24l-4.98-15.17-4.98,15.17h9.95Z"/>
    <path class="cls-1" d="m449.5,100.64h-.11l7.78,11.52h-4.35l-7.78-11.52h-7.86v11.59h-3.73v-27.62h16.06c4.42,0,8.01,3.6,8.01,8.01s-3.6,8.01-8.01,8.01Zm-12.32-3.73h12.32c2.36,0,4.28-1.92,4.28-4.28s-1.92-4.28-4.28-4.28h-12.32v8.56Z"/>
    <path class="cls-1" d="m493.52,84.64l-13.64,10.7,13.32,16.89h-4.75l-11.5-14.59-5.12,4.01v10.57h-3.73v-27.59h3.73v12.27l15.65-12.27h6.05Z"/>
    <path class="cls-1" d="m506.67,88.44v8.16h13.48v3.73h-13.48v8.16h16.92v3.73h-20.65v-27.51h20.65v3.73h-16.92Z"/>
    <path class="cls-1" d="m531.68,84.72h24.36v3.73h-10.31v23.79h-3.73v-23.79h-10.31v-3.73Z"/>
    <path class="cls-1" d="m568.28,92.07c0,1.28.99,2.25,1.82,2.83,1.19.83,3.67,1.11,6.07,1.38,5.06.56,11.98,1.33,11.98,8.66,0,4.65-5.18,8.3-11.8,8.3s-11.8-3.64-11.8-8.3h3.73c0,2.69,4.25,4.57,8.07,4.57s8.07-1.88,8.07-4.57c0-3.6-2.77-4.3-8.66-4.95-3-.33-5.82-.65-7.8-2.02-2.2-1.54-3.42-3.63-3.42-5.89,0-4.65,5.18-8.3,11.8-8.3s11.8,3.65,11.8,8.3h-3.73c0-2.69-4.25-4.57-8.07-4.57s-8.07,1.88-8.07,4.57Z"/>
  </g>
</svg>